<?xml version="1.0" standalone="no"?>
<!DOCTYPE svg PUBLIC "-//W3C//DTD SVG 20010904//EN"
 "http://www.w3.org/TR/2001/REC-SVG-20010904/DTD/svg10.dtd">
<svg version="1.0" xmlns="http://www.w3.org/2000/svg"
 width="1080.000000pt" height="400.000000pt" viewBox="0 0 1080.000000 400.000000"
 preserveAspectRatio="xMidYMid meet">

<g transform="translate(0.000000,400.000000) scale(0.100000,-0.100000)"
fill="#000000" stroke="none">
<path d="M0 2985 l0 -1016 43 5 c23 3 48 5 55 5 6 1 12 10 12 20 0 12 9 22 23
26 23 7 75 29 115 48 12 6 22 16 22 24 0 9 10 12 33 9 17 -3 36 -5 41 -5 4 -1
5 -9 2 -18 -8 -19 9 -33 41 -33 29 0 40 -20 15 -27 -25 -6 -18 -36 13 -53 25
-13 51 -4 90 30 11 10 40 23 64 30 49 13 61 5 61 -38 0 -29 20 -25 36 7 11 22
11 22 22 -6 25 -63 17 -105 -18 -96 -17 5 -20 0 -20 -26 0 -20 5 -31 15 -31 8
0 17 -14 21 -37 10 -54 17 -66 74 -109 l51 -39 -5 -50 c-5 -57 5 -75 44 -75
32 0 103 72 93 95 -6 18 15 47 29 39 6 -4 27 12 48 35 34 37 67 51 83 35 3 -3
-6 -17 -21 -30 -22 -19 -24 -23 -9 -24 9 0 17 5 17 10 0 6 12 10 26 10 18 0
25 4 21 14 -3 8 2 17 11 21 16 6 16 7 0 19 -10 7 -18 16 -18 20 0 12 38 6 43
-6 2 -8 14 -1 31 20 15 17 34 32 42 32 8 0 17 7 20 15 5 11 20 15 58 15 52 -1
117 17 138 38 9 9 6 12 -14 12 -15 0 -30 5 -33 10 -3 6 -30 10 -60 10 -66 0
-84 7 -95 35 -7 18 -19 23 -64 29 -47 5 -66 2 -120 -21 -59 -24 -77 -43 -41
-43 21 0 31 -79 12 -98 -24 -23 -44 -1 -52 59 -8 55 -24 63 -49 24 -9 -14 -23
-25 -31 -25 -8 0 -15 -7 -15 -15 0 -18 -31 -20 -48 -3 -16 16 -15 28 2 28 43
0 8 59 -46 79 -16 6 -28 17 -28 26 0 8 -4 15 -10 15 -5 0 -17 11 -26 26 -22
33 -4 56 24 31 20 -18 122 -25 122 -8 0 5 14 14 30 21 17 7 28 18 25 24 -3 6
-8 19 -11 28 -5 13 -13 16 -30 12 -13 -3 -24 -2 -24 4 0 5 17 8 37 6 21 -1 43
2 49 7 8 7 14 6 19 -1 3 -5 16 -10 29 -10 12 0 32 -9 44 -20 24 -23 58 -25
146 -9 75 13 111 37 102 67 -5 13 -18 24 -34 27 -15 3 -44 15 -65 26 -21 11
-41 17 -46 14 -17 -10 -41 7 -41 30 0 26 -70 104 -116 129 -16 9 -45 30 -64
46 l-35 31 24 20 c31 25 55 24 119 -6 39 -18 71 -25 116 -25 49 0 69 -5 98
-25 49 -33 90 -41 137 -25 28 9 51 10 85 2 25 -5 48 -6 51 -2 2 4 28 5 57 3
38 -2 58 -9 70 -24 25 -30 23 -37 -21 -79 -31 -30 -37 -40 -29 -55 11 -19 -4
-65 -22 -65 -5 0 -28 -16 -49 -35 -29 -26 -43 -50 -52 -86 -7 -28 -25 -63 -40
-79 l-27 -28 37 -6 c20 -3 62 -6 93 -6 52 0 60 3 92 35 20 19 40 35 45 35 16
0 41 -30 41 -49 0 -26 20 -41 55 -41 17 0 65 -12 106 -26 79 -28 119 -27 162
0 21 14 25 26 30 92 4 53 10 79 22 88 10 7 14 18 9 29 -6 18 -13 20 -54 18
-31 -2 -90 50 -90 79 0 11 11 32 26 46 21 21 31 25 59 20 32 -6 35 -5 58 41
23 48 47 69 158 141 155 101 188 127 210 166 26 47 54 72 87 81 38 9 104 55
99 68 -2 7 -19 20 -38 29 -102 48 -299 197 -299 225 0 7 11 15 24 19 33 8 243
-1 341 -15 44 -6 136 -12 205 -13 112 -1 122 -3 94 -14 -37 -15 -45 -30 -33
-61 11 -31 27 -29 78 12 24 19 50 35 58 35 7 0 21 4 31 9 9 6 29 12 44 15 15
4 57 29 93 57 138 106 243 141 392 133 71 -4 125 1 216 17 67 12 133 22 147
24 14 1 44 7 67 14 32 9 58 9 110 0 83 -14 83 -14 158 5 38 10 63 12 69 6 6
-6 20 -10 33 -10 16 0 21 4 17 15 -5 13 -2 14 21 5 38 -14 97 -3 93 19 -2 9 8
23 23 33 15 9 29 27 31 40 2 19 13 25 58 36 30 7 67 17 83 22 30 9 36 0 12
-20 -8 -7 -12 -17 -9 -22 4 -6 0 -14 -7 -19 -15 -9 -95 -34 -142 -44 -32 -6
-32 -28 0 -33 11 -2 36 -19 56 -37 21 -19 43 -35 50 -35 172 -5 371 -32 383
-52 3 -5 17 1 30 13 13 12 24 18 24 12 0 -5 -9 -18 -20 -28 -11 -10 -20 -24
-20 -30 0 -7 -7 -18 -15 -25 -32 -26 -57 -100 -34 -100 5 0 7 -4 4 -10 -3 -5
-1 -10 4 -10 6 0 10 -10 8 -22 -2 -19 8 -26 58 -45 33 -12 70 -22 83 -22 13
-1 42 -10 64 -21 49 -24 83 -25 121 -5 15 8 34 12 42 8 9 -3 15 1 15 11 0 15
17 21 47 17 6 -1 14 3 18 9 11 18 23 11 18 -10 -3 -13 0 -20 8 -21 8 0 5 -4
-6 -8 -11 -5 -32 -8 -47 -7 -15 1 -25 0 -23 -3 3 -2 -1 -11 -7 -19 -10 -12 -9
-17 10 -30 12 -8 22 -20 22 -28 0 -9 8 -10 29 -4 16 4 33 5 36 2 4 -4 4 3 1
16 -10 30 1 60 23 67 27 8 52 -5 47 -24 -3 -9 -1 -23 4 -31 7 -12 12 -12 35 0
16 9 29 10 33 4 4 -5 20 -15 35 -22 15 -7 26 -16 23 -21 -3 -5 1 -12 10 -15 9
-4 14 -9 10 -13 -3 -3 3 -12 14 -20 11 -8 20 -19 20 -25 0 -27 36 -82 69 -104
28 -19 49 -24 95 -24 33 0 56 3 53 7 -4 3 17 20 45 36 47 26 61 29 128 27 146
-4 169 -3 184 9 17 14 27 59 15 67 -5 3 -9 10 -9 16 0 6 12 3 26 -7 25 -16 28
-16 76 6 46 23 48 26 44 57 -5 32 10 45 20 17 5 -12 10 -13 19 -5 21 17 1 69
-46 116 -35 36 -41 47 -36 72 3 16 1 34 -4 39 -8 8 -7 13 0 17 8 5 8 13 0 28
-6 11 -8 33 -5 49 5 25 1 32 -32 52 -43 26 -111 51 -119 44 -10 -11 33 -43 60
-45 15 -1 38 -7 50 -14 l22 -13 -25 -3 c-13 -2 -30 -11 -37 -20 -11 -15 -12
-15 -13 3 0 16 -2 17 -9 6 -5 -8 -16 -11 -26 -8 -9 4 -13 11 -10 17 3 5 -5 14
-18 19 -23 9 -42 36 -39 54 1 4 -3 7 -8 7 -6 0 -10 7 -10 15 0 19 -33 34 -175
83 -92 31 -111 41 -113 60 -3 16 -10 22 -29 22 -13 0 -32 9 -41 20 -15 18 -20
19 -42 7 -14 -8 -50 -27 -80 -44 -67 -36 -100 -45 -116 -32 -26 21 -58 -13
-34 -37 7 -7 3 -14 -12 -20 -13 -6 -43 -20 -68 -31 -162 -74 -158 -73 -240
-73 -43 0 -91 5 -106 10 -24 9 -26 14 -21 45 5 32 4 35 -19 35 -13 0 -24 -4
-24 -10 0 -5 -7 -7 -15 -4 -10 4 -13 16 -11 37 3 28 7 32 35 32 22 0 30 4 26
13 -3 8 -5 16 -5 18 0 2 -6 4 -13 4 -7 0 -29 9 -51 20 -21 12 -45 20 -54 18
-10 -1 -23 1 -30 6 -30 18 89 53 246 71 23 3 68 18 100 34 32 16 78 34 102 41
25 6 83 31 130 55 125 62 157 75 193 75 36 0 84 21 137 62 55 41 100 60 160
68 30 4 80 12 110 18 30 6 114 13 187 16 l132 6 35 -35 c22 -22 45 -35 62 -35
35 0 26 -25 -11 -26 -27 -1 -64 -36 -65 -61 0 -20 14 -15 55 17 21 17 44 30
51 30 8 0 14 7 14 15 0 18 51 20 120 4 71 -15 70 -15 60 -48 -10 -34 0 -46 38
-46 19 -1 22 3 17 22 -9 38 16 37 117 -6 53 -23 105 -41 116 -41 30 0 171 -75
207 -110 16 -16 49 -36 73 -44 81 -29 110 -48 136 -87 14 -21 26 -50 26 -63 0
-19 18 -38 85 -86 46 -34 88 -67 92 -74 13 -21 118 -103 144 -112 13 -4 36 -6
52 -5 23 2 27 -1 27 -23 0 -15 5 -35 12 -45 6 -10 8 -27 4 -37 -7 -19 -8 -19
-21 0 -13 18 -15 18 -21 2 -4 -9 -13 -15 -20 -12 -8 3 -14 -1 -14 -10 0 -11 6
-15 20 -11 15 4 20 0 20 -15 0 -15 5 -18 19 -13 16 5 18 2 14 -16 -4 -14 -2
-20 4 -16 6 4 18 -2 28 -13 10 -11 14 -20 10 -20 -5 0 0 -6 10 -14 11 -8 24
-12 29 -9 4 3 11 2 15 -3 3 -5 28 -21 55 -35 52 -28 58 -36 107 -144 32 -70
43 -113 55 -215 6 -46 15 -64 52 -108 25 -29 42 -55 38 -59 -3 -4 -13 3 -22
15 -8 12 -21 22 -29 22 -8 0 -12 6 -10 13 8 21 -52 76 -102 92 -27 9 -55 25
-62 36 -15 26 -7 37 14 19 13 -11 18 -10 30 6 8 10 19 36 25 56 9 31 8 41 -7
57 -9 11 -20 17 -23 12 -3 -5 -13 2 -23 15 -16 22 -16 23 -1 17 12 -4 15 -3
10 5 -4 7 -14 12 -23 12 -13 0 -14 2 -2 17 12 15 12 16 -3 10 -10 -3 -21 -1
-25 7 -9 15 -83 31 -83 18 0 -4 6 -14 13 -21 10 -11 8 -11 -10 -2 -18 9 -24 8
-32 -6 -9 -16 -11 -16 -28 -1 -10 8 -28 19 -39 22 -20 6 -21 3 -19 -41 2 -27
4 -51 4 -54 3 -18 40 -47 68 -53 29 -7 32 -5 31 16 -1 13 -6 29 -11 36 -7 8
-6 21 3 37 14 27 25 31 35 15 3 -5 0 -10 -8 -10 -8 0 -17 -9 -20 -20 -3 -11
-1 -20 4 -20 5 0 9 5 9 11 0 5 5 7 10 4 6 -4 8 -11 5 -16 -4 -5 1 -9 10 -9 14
0 14 -3 -1 -26 -17 -25 -17 -26 12 -49 19 -16 24 -24 13 -25 -8 0 -20 5 -27
12 -9 9 -12 9 -12 -2 0 -9 -7 -7 -23 8 -31 30 -36 28 -33 -13 4 -39 1 -41 -20
-21 -17 18 -18 36 -2 36 6 0 9 3 5 6 -3 4 -14 3 -24 -1 -10 -5 -22 -9 -28 -9
-5 -1 -10 -12 -10 -25 0 -13 -6 -26 -13 -29 -10 -3 -13 4 -11 24 2 16 0 31 -5
33 -15 7 -44 -22 -39 -38 9 -24 55 -62 69 -57 7 3 25 1 41 -4 17 -5 21 -9 10
-9 -29 -2 -8 -21 22 -21 16 0 59 -16 97 -35 37 -19 74 -35 81 -35 8 0 48 -36
90 -80 42 -44 80 -80 85 -80 5 0 7 4 4 9 -3 4 3 16 13 25 18 16 19 14 29 -46
6 -35 10 -88 10 -117 0 -30 5 -71 12 -90 14 -43 0 -276 -25 -416 -17 -97 -82
-299 -122 -380 -31 -63 -55 -89 -120 -131 -43 -28 -61 -34 -115 -35 -34 -1
-72 0 -83 4 -11 3 -23 6 -27 6 -13 2 -47 44 -42 53 9 14 24 9 18 -7 -8 -21 6
-19 22 2 9 14 10 21 1 32 -10 12 -9 14 6 8 9 -3 17 -2 17 2 0 5 -7 11 -15 15
-8 3 -15 1 -15 -3 0 -10 -31 -24 -38 -16 -3 2 1 11 8 20 8 10 9 15 1 15 -6 0
-11 11 -11 25 0 14 -8 29 -20 35 -17 9 -18 14 -7 30 17 28 32 25 35 -6 4 -49
26 -60 36 -19 7 28 51 45 69 26 9 -9 8 -11 -5 -6 -22 9 -23 -1 -3 -22 12 -12
19 -13 30 -3 8 7 15 20 15 28 0 13 3 12 14 -4 13 -16 18 -17 36 -6 19 11 25
11 39 -2 12 -11 25 -13 46 -7 17 4 30 12 29 17 -1 25 -17 64 -26 64 -5 0 -23
9 -39 21 -50 35 -221 44 -244 12 -10 -13 -10 -20 -2 -25 18 -11 -23 -43 -58
-45 -16 0 -38 5 -49 13 -22 15 -16 17 42 14 28 -1 33 2 30 16 -2 10 -14 24
-28 31 l-25 13 23 0 c14 0 21 4 16 11 -3 6 -18 9 -32 6 -18 -3 -31 1 -43 17
-16 19 -19 20 -34 5 -14 -14 -15 -21 -5 -39 10 -18 9 -24 -1 -32 -11 -7 -11
-11 -2 -15 7 -2 13 -12 13 -20 0 -9 -3 -13 -7 -10 -3 4 -11 -1 -18 -9 -8 -12
-20 -15 -43 -9 -38 8 -38 9 -12 37 14 15 17 24 9 29 -7 4 -9 19 -6 38 4 17 3
31 -2 31 -5 0 -12 20 -15 45 -4 25 -11 45 -17 45 -5 0 -9 -6 -9 -13 0 -7 -10
-17 -22 -22 -19 -8 -22 -17 -20 -47 2 -29 -1 -38 -18 -43 -24 -8 -40 1 -40 23
0 14 -1 14 -12 1 -10 -12 -26 -15 -60 -11 -43 4 -47 6 -38 22 16 29 13 45 -5
30 -13 -10 -15 -9 -15 9 0 11 -4 21 -10 21 -5 0 -10 6 -10 13 0 8 -11 19 -24
25 -21 9 -23 8 -19 -9 4 -13 -2 -21 -18 -28 -14 -5 -25 -5 -27 0 -2 5 -7 7
-12 4 -5 -3 -20 -1 -33 4 -22 8 -28 6 -42 -16 -12 -18 -20 -22 -28 -14 -7 7
-17 3 -34 -15 -12 -14 -23 -30 -23 -37 0 -7 4 -6 10 3 15 23 22 5 9 -24 -12
-25 -29 -35 -29 -17 0 21 -25 17 -26 -4 -1 -18 3 -21 24 -19 15 1 32 11 39 20
12 17 13 16 13 -4 0 -28 37 -65 56 -58 9 3 25 1 37 -6 14 -7 62 -10 129 -9
l108 2 0 -25 c0 -49 -21 -74 -104 -120 -80 -46 -82 -46 -181 -48 -55 0 -106
-1 -112 -1 -7 1 -13 -4 -13 -11 0 -7 35 -11 112 -11 l113 0 3 -32 c2 -18 7
-33 12 -33 5 0 12 -10 15 -22 6 -15 1 -26 -15 -38 -20 -15 -21 -19 -9 -38 17
-27 29 -28 29 -2 0 25 18 26 27 2 4 -9 12 -21 19 -27 7 -5 19 -35 27 -65 8
-30 18 -63 22 -73 4 -10 3 -17 -4 -17 -19 0 -12 -26 14 -54 24 -26 28 -37 39
-106 5 -32 4 -33 -8 -17 -8 11 -12 25 -10 32 3 7 -2 15 -10 18 -8 3 -22 21
-31 39 -21 45 -43 73 -51 65 -3 -3 1 -16 10 -29 9 -12 16 -30 16 -40 0 -9 7
-21 16 -26 9 -5 14 -14 10 -21 -11 -17 -46 -13 -46 4 0 9 -7 27 -16 40 -9 14
-14 31 -11 38 3 7 -1 21 -9 32 -8 10 -14 27 -14 37 0 10 -4 18 -9 18 -5 0 -12
11 -15 25 -3 13 -17 36 -31 51 -28 30 -36 76 -10 54 8 -7 15 -8 15 -2 0 5 -7
15 -15 22 -8 7 -15 9 -15 5 0 -4 -7 -2 -15 5 -12 10 -16 9 -21 -4 -6 -17 13
-114 26 -131 15 -20 29 -85 19 -91 -6 -3 -7 -14 -4 -25 4 -11 2 -19 -5 -19 -6
0 -13 13 -16 29 -7 31 -34 52 -34 25 0 -41 49 -80 94 -75 18 3 19 2 1 -15 -17
-17 -17 -18 1 -24 13 -5 14 -9 5 -14 -7 -5 -17 -1 -25 9 -10 14 -17 15 -34 6
-20 -10 -20 -13 -6 -46 7 -19 14 -45 14 -57 -1 -19 -5 -15 -20 16 -11 22 -20
48 -20 57 0 18 -17 35 -26 26 -3 -3 0 -15 6 -27 6 -11 10 -31 8 -42 -3 -19 -4
-19 -17 8 -45 96 -45 95 -69 89 -15 -4 -21 -2 -17 5 3 5 13 10 21 10 8 0 14 9
14 19 0 23 28 54 41 46 5 -4 9 3 9 15 0 13 -9 24 -25 30 -14 5 -25 15 -25 22
0 8 -5 6 -11 -4 -5 -10 -18 -18 -27 -18 -14 0 -14 2 -3 9 9 6 11 15 6 27 -5
11 -7 25 -6 33 2 9 -3 12 -13 8 -11 -4 -16 -1 -16 12 0 26 -34 66 -48 57 -19
-12 -14 -47 8 -53 21 -6 27 -37 10 -48 -5 -3 -10 -15 -10 -26 0 -18 5 -21 40
-23 17 -1 27 -56 11 -56 -6 0 -11 5 -11 10 0 6 -4 10 -9 10 -4 0 -6 -11 -4
-24 3 -13 0 -27 -6 -30 -6 -4 -11 0 -11 9 0 16 -22 45 -34 45 -3 0 -6 -9 -6
-20 0 -17 -3 -19 -19 -11 -16 9 -20 7 -23 -14 -3 -14 -2 -25 2 -25 4 0 10 -14
12 -30 3 -17 1 -30 -4 -30 -4 0 -8 7 -8 15 0 8 -4 15 -10 15 -6 0 -10 -31 -10
-72 0 -40 -3 -84 -7 -97 -5 -18 -3 -22 7 -16 10 6 12 4 7 -10 -4 -9 -3 -23 3
-30 8 -9 8 -15 0 -20 -5 -3 -10 -1 -10 6 0 8 -3 9 -9 4 -15 -17 -31 -126 -31
-212 l0 -83 349 0 c270 0 350 3 354 13 4 9 6 9 6 0 1 -10 333 -13 1586 -13
l1585 0 0 1457 -1 1458 -28 -34 c-33 -40 -28 -45 -81 82 -21 51 -42 86 -61 99
-16 12 -29 26 -29 30 0 16 124 87 162 93 l38 7 0 404 0 404 -5400 0 -5400 0 0
-1015z m8165 565 c3 -5 -3 -10 -14 -10 -12 0 -21 5 -21 10 0 6 6 10 14 10 8 0
18 -4 21 -10z m755 -20 c0 -5 -5 -10 -11 -10 -5 0 -7 5 -4 10 3 6 8 10 11 10
2 0 4 -4 4 -10z m-385 -20 c3 -5 1 -10 -4 -10 -6 0 -11 5 -11 10 0 6 2 10 4
10 3 0 8 -4 11 -10z m295 -56 c0 -14 -6 -24 -15 -24 -16 0 -45 49 -45 75 0 14
4 13 30 -5 19 -14 30 -30 30 -46z m100 10 c0 -31 -23 -28 -28 4 -2 15 2 22 12
22 11 0 16 -9 16 -26z m-3977 -27 c35 -15 51 -32 61 -62 5 -16 1 -21 -14 -21
-11 0 -23 8 -26 18 -6 19 -19 24 -28 10 -3 -5 -37 -4 -76 1 -65 9 -70 11 -55
26 8 9 35 21 58 28 23 6 43 11 45 12 1 1 17 -5 35 -12z m954 -29 c-3 -8 -6 -5
-6 6 -1 11 2 17 5 13 3 -3 4 -12 1 -19z m114 -101 c-1 -12 -15 -9 -19 4 -3 6
1 10 8 8 6 -3 11 -8 11 -12z m159 -21 c0 -9 -30 -14 -35 -6 -4 6 3 10 14 10
12 0 21 -2 21 -4z m36 -5 c-3 -5 9 -9 28 -8 40 1 76 -27 57 -46 -8 -8 -14 -9
-19 -1 -8 12 -43 28 -56 25 -13 -3 -36 20 -30 30 3 5 10 9 15 9 6 0 8 -4 5 -9z
m-461 -28 c91 -31 93 -32 80 -41 -6 -4 -10 -13 -10 -21 0 -8 -14 -15 -39 -17
-22 -2 -44 -11 -52 -21 -7 -10 -14 -13 -14 -8 0 6 -20 17 -45 24 -26 8 -47 20
-50 31 -3 10 -12 21 -20 24 -18 7 -19 28 -3 44 19 19 67 14 153 -15z m-605
-33 c-6 -11 -13 -20 -16 -20 -2 0 0 9 6 20 6 11 13 20 16 20 2 0 0 -9 -6 -20z
m420 0 c0 -5 -4 -10 -10 -10 -5 0 -10 5 -10 10 0 6 5 10 10 10 6 0 10 -4 10
-10z m424 -6 c21 -21 21 -22 -13 -20 -36 2 -50 14 -31 26 21 13 26 12 44 -6z
m66 -25 c0 -5 -4 -9 -10 -9 -5 0 -13 0 -17 0 -5 0 -8 4 -8 9 0 5 -3 13 -7 17
-18 17 -6 23 17 8 14 -9 25 -20 25 -25z m-545 20 c11 -17 -1 -21 -15 -4 -8 9
-8 15 -2 15 6 0 14 -5 17 -11z m-220 -27 c-3 -3 -11 0 -18 7 -9 10 -8 11 6 5
10 -3 15 -9 12 -12z m580 -2 c-3 -5 -10 -10 -16 -10 -5 0 -9 5 -9 10 0 6 7 10
16 10 8 0 12 -4 9 -10z m-495 -18 c0 -10 -22 -32 -32 -32 -5 0 -3 9 4 20 13
20 28 27 28 12z m730 -13 c0 -5 -4 -9 -10 -9 -5 0 -10 7 -10 16 0 8 5 12 10 9
6 -3 10 -10 10 -16z m393 -10 c-6 -6 -9 -18 -6 -26 5 -13 3 -13 -16 -2 -23 15
-29 34 -7 26 8 -3 17 1 20 10 4 9 9 13 13 9 4 -3 2 -11 -4 -17z m-601 -30
c-27 -24 -32 -24 -32 1 0 12 9 24 23 29 30 11 35 -5 9 -30z m268 26 c7 -8 18
-15 26 -15 7 0 15 -4 18 -9 3 -5 -12 -8 -34 -7 -21 0 -33 4 -27 8 8 5 6 12 -8
22 -17 13 -17 15 -4 16 9 0 22 -7 29 -15z m-450 -15 c0 -5 -5 -10 -11 -10 -5
0 -7 5 -4 10 3 6 8 10 11 10 2 0 4 -4 4 -10z m-377 -52 c-2 -5 -11 -8 -19 -8
-15 0 -18 18 -8 45 6 14 8 13 19 -7 6 -13 10 -26 8 -30z m467 42 c0 -5 -4 -10
-10 -10 -5 0 -10 -7 -10 -15 0 -8 4 -15 8 -15 5 0 7 -13 4 -30 -5 -32 -9 -35
-32 -20 -13 9 -13 11 0 20 11 7 12 12 3 18 -7 5 -9 13 -3 21 4 8 6 20 3 28 -3
8 2 13 16 13 12 0 21 -4 21 -10z m140 6 c0 -3 -4 -8 -10 -11 -5 -3 -10 -1 -10
4 0 6 5 11 10 11 6 0 10 -2 10 -4z m-270 -16 c0 -5 -7 -10 -16 -10 -8 0 -12 5
-9 10 3 6 10 10 16 10 5 0 9 -4 9 -10z m699 -9 c13 -12 18 -22 11 -26 -5 -3
-10 -1 -10 4 0 6 -5 10 -12 9 -6 -2 -14 5 -16 15 -5 22 0 21 27 -2z m-409 -1
c0 -5 -2 -10 -4 -10 -3 0 -8 5 -11 10 -3 6 -1 10 4 10 6 0 11 -4 11 -10z
m2137 -6 c2 -7 -6 -10 -21 -7 -14 3 -23 10 -20 15 8 12 36 6 41 -8z m-1672 -4
c-3 -5 -10 -10 -16 -10 -5 0 -9 5 -9 10 0 6 7 10 16 10 8 0 12 -4 9 -10z
m-285 -14 c0 -3 -4 -8 -10 -11 -5 -3 -10 -1 -10 4 0 6 5 11 10 11 6 0 10 -2
10 -4z m2010 -22 c0 -18 -35 -35 -55 -27 -15 5 -16 3 -6 -15 14 -26 14 -52 1
-52 -5 0 -10 10 -10 23 0 13 -5 28 -12 35 -8 8 -8 15 0 25 7 8 8 17 4 21 -4 4
5 5 21 1 17 -5 27 -3 27 4 0 6 7 8 15 5 8 -4 15 -12 15 -20z m-6086 8 c16 -26
-121 -145 -218 -191 -25 -11 -47 -25 -50 -30 -17 -27 -159 -21 -218 10 -10 5
-19 5 -23 -1 -12 -19 -45 -11 -45 10 0 12 7 20 17 20 37 0 4 9 -56 15 -67 7
-92 -5 -69 -32 12 -15 4 -18 -54 -26 -41 -6 -108 9 -108 23 0 5 10 16 22 24
l21 15 -27 11 c-15 5 -33 10 -40 10 -18 0 -68 48 -62 59 13 21 58 21 92 0 33
-20 72 -20 59 0 -10 17 17 24 97 27 42 2 86 7 95 13 10 5 72 10 138 12 87 2
125 7 137 17 10 8 28 12 40 9 13 -2 59 -1 103 3 118 10 143 11 149 2z m3316
-4 c0 -4 -15 -8 -32 -8 -20 0 -28 3 -21 8 16 10 53 10 53 0z m502 0 c21 -20
56 -38 73 -38 8 0 15 -4 15 -8 0 -5 10 -14 23 -20 16 -8 17 -11 6 -11 -9 -1
-22 6 -29 14 -7 8 -26 15 -42 15 -28 0 -108 34 -108 46 0 3 7 4 15 0 8 -3 15
-1 15 4 0 14 16 12 32 -2z m-177 -8 c-3 -5 -13 -10 -21 -10 -8 0 -14 5 -14 10
0 6 9 10 21 10 11 0 17 -4 14 -10z m785 -31 c0 -5 -7 -9 -15 -9 -15 0 -20 12
-9 23 8 8 24 -1 24 -14z m1750 0 c0 -5 4 -8 9 -5 20 13 83 -95 66 -113 -3 -2
-5 1 -5 7 0 6 -6 9 -12 7 -7 -3 -26 13 -42 35 -31 41 -43 80 -26 80 6 0 10 -5
10 -11z m-1915 -11 c14 -6 26 -18 26 -27 1 -9 2 -23 3 -31 1 -8 4 -20 8 -25 9
-15 -33 -49 -64 -53 -40 -5 -147 48 -147 73 -1 28 10 41 44 59 36 19 94 21
130 4z m4251 -27 c-10 -16 -23 -14 -30 5 -9 25 4 38 21 21 9 -8 12 -20 9 -26z
m-30 -29 c4 -21 3 -32 -5 -32 -13 0 -31 42 -31 73 0 19 2 20 15 7 8 -9 17 -30
21 -48z m-4976 41 c0 -12 -51 -33 -62 -27 -5 3 -1 12 9 20 19 14 53 19 53 7z
m4925 -55 c4 -16 4 -32 1 -35 -8 -8 -46 59 -46 81 0 18 1 18 19 2 11 -10 23
-31 26 -48z m-4695 42 c0 -5 -5 -10 -11 -10 -5 0 -7 5 -4 10 3 6 8 10 11 10 2
0 4 -4 4 -10z m-4723 -8 c8 -5 -3 -19 -33 -44 -51 -41 -87 -43 -115 -6 -26 34
-13 47 49 51 32 2 64 4 72 5 8 1 20 -2 27 -6z m4967 -8 c3 -9 6 -24 6 -35 0
-10 7 -19 15 -19 8 0 15 -4 15 -9 0 -10 -40 -11 -40 -1 0 3 -4 22 -9 43 -9 36
1 52 13 21z m4106 -37 c0 -21 -25 2 -32 29 l-7 29 19 -25 c11 -14 20 -29 20
-33z m-4250 8 c0 -13 -3 -13 -20 -3 -11 7 -20 19 -20 26 0 10 5 10 20 2 11 -6
20 -17 20 -25z m199 26 c7 -5 9 -11 5 -14 -5 -3 -15 1 -22 9 -14 16 -5 18 17
5z m4012 -62 c15 -48 6 -77 -17 -58 -14 11 -18 10 -31 -6 -7 -11 -17 -20 -21
-19 -4 1 -17 -5 -28 -13 -12 -8 -35 -15 -50 -16 -25 -2 -29 2 -32 25 -2 20 4
31 25 45 15 10 34 23 41 30 7 7 18 13 24 13 6 0 6 6 -2 15 -10 12 -10 15 3 15
8 0 17 -6 20 -12 2 -7 7 2 11 20 8 32 9 33 27 16 11 -9 24 -34 30 -55z m-4701
21 c-8 -5 -17 -7 -19 -4 -3 3 1 9 9 14 8 5 17 7 19 4 3 -3 -1 -9 -9 -14z m540
10 c0 -5 -5 -10 -11 -10 -5 0 -7 5 -4 10 3 6 8 10 11 10 2 0 4 -4 4 -10z
m2160 -40 c0 -5 -4 -10 -10 -10 -5 0 -10 5 -10 10 0 6 5 10 10 10 6 0 10 -4
10 -10z m2575 -20 c0 -17 -7 -26 -27 -31 -30 -8 -38 -3 -38 21 0 17 36 41 55
36 6 -1 10 -13 10 -26z m-5162 5 c-3 -9 -8 -14 -10 -11 -3 3 -2 9 2 15 9 16
15 13 8 -4z m-4576 -31 c33 -36 24 -56 -18 -44 -36 11 -33 8 -47 36 -22 42 28
48 65 8z m5187 0 c3 -8 -1 -14 -9 -14 -8 0 -15 2 -15 4 0 2 -3 12 -6 20 -4 12
-2 15 9 10 9 -3 18 -12 21 -20z m4464 -2 c2 -12 -1 -22 -7 -22 -6 0 -11 4 -11
9 0 5 -3 17 -7 27 -4 12 -2 15 8 12 8 -2 15 -14 17 -26z m-4673 8 c3 -5 1 -10
-4 -10 -6 0 -11 5 -11 10 0 6 2 10 4 10 3 0 8 -4 11 -10z m2340 -10 c7 0 15
-7 19 -15 7 -19 -4 -19 -32 1 -12 8 -19 20 -15 27 5 8 8 8 11 -1 2 -7 10 -12
17 -12z m2275 -17 c0 -7 -4 -13 -10 -13 -5 0 -10 12 -10 28 0 21 2 24 10 12 5
-8 10 -21 10 -27z m-4580 17 c0 -5 -4 -10 -10 -10 -5 0 -10 5 -10 10 0 6 5 10
10 10 6 0 10 -4 10 -10z m4528 -22 c4 -30 -11 -37 -136 -63 -109 -23 -122 -21
-122 15 0 23 5 31 23 34 12 3 60 12 107 21 47 9 87 19 89 21 13 13 36 -4 39
-28z m-4013 -29 c4 -6 4 -13 1 -16 -7 -7 -46 26 -46 39 0 10 36 -8 45 -23z
m3615 21 c0 -5 -7 -10 -16 -10 -8 0 -12 5 -9 10 3 6 10 10 16 10 5 0 9 -4 9
-10z m90 -19 c5 -11 10 -34 10 -51 0 -25 -4 -31 -17 -28 -11 2 -17 11 -15 22
2 10 -4 24 -14 30 -20 15 -13 46 10 46 9 0 20 -9 26 -19z m-170 -26 c-7 -9
-15 -13 -19 -10 -3 3 1 10 9 15 21 14 24 12 10 -5z m-132 -48 c4 -19 -34 -37
-79 -37 -48 0 -32 37 22 50 43 10 53 8 57 -13z m-3753 -26 c-3 -6 -14 -11 -23
-11 -15 1 -15 2 2 15 21 16 32 13 21 -4z m3563 -42 c2 -13 -4 -33 -11 -43 -13
-18 -17 -19 -53 -5 -31 12 -39 20 -39 39 0 21 5 25 33 26 18 1 36 5 39 8 12
12 28 -1 31 -25z m-691 -117 c8 -5 -14 -17 -60 -31 -39 -13 -94 -33 -122 -46
-27 -12 -66 -28 -85 -35 -19 -7 -73 -33 -119 -58 -67 -36 -81 -41 -72 -24 14
25 123 108 170 129 33 14 242 71 266 72 6 0 16 -3 22 -7z m678 -52 c-3 -5 -16
-10 -28 -9 -20 1 -20 2 3 9 14 4 26 8 28 9 2 1 0 -3 -3 -9z m-1647 -19 c3 -8
-1 -12 -9 -9 -7 2 -15 10 -17 17 -3 8 1 12 9 9 7 -2 15 -10 17 -17z m155 5 c4
-10 1 -13 -8 -9 -8 3 -12 9 -9 14 7 12 11 11 17 -5z m882 -56 c-3 -5 -11 -10
-16 -10 -6 0 -7 5 -4 10 3 6 11 10 16 10 6 0 7 -4 4 -10z m-208 -36 c-3 -3
-12 -4 -19 -1 -8 3 -5 6 6 6 11 1 17 -2 13 -5z m-7014 -21 c26 -8 21 -20 -18
-39 -28 -13 -38 -14 -50 -4 -19 16 -19 25 1 45 10 9 23 13 33 9 9 -3 24 -9 34
-11z m7325 -18 c2 -2 1 -13 -3 -24 -4 -15 -15 -21 -36 -21 -33 0 -33 0 -17 35
9 19 16 24 32 19 12 -4 23 -8 24 -9z m-9002 -21 c19 -8 34 -21 34 -29 0 -17
-25 -20 -35 -5 -3 6 -21 10 -38 10 -41 0 -86 28 -66 41 16 10 56 3 105 -17z
m8866 2 c24 -15 23 -25 -6 -36 -13 -5 -25 -13 -27 -18 -7 -17 -49 6 -49 27 0
11 -5 23 -11 27 -8 4 -7 9 2 15 16 10 64 2 91 -15z m704 11 c4 -4 -2 -7 -12
-7 -11 0 -25 -5 -32 -12 -6 -6 -15 -8 -19 -3 -5 4 -2 10 5 12 6 3 9 9 6 14 -6
11 41 7 52 -4z m-9476 -6 c0 -5 -7 -11 -15 -15 -9 -3 -15 0 -15 9 0 8 7 15 15
15 8 0 15 -4 15 -9z m8937 -23 c-3 -7 -5 -2 -5 12 0 14 2 19 5 13 2 -7 2 -19
0 -25z m423 -8 c0 -5 -4 -10 -10 -10 -5 0 -10 5 -10 10 0 6 5 10 10 10 6 0 10
-4 10 -10z m145 -11 c11 -17 -1 -21 -15 -4 -8 9 -8 15 -2 15 6 0 14 -5 17 -11z
m-861 -18 c3 -4 3 -11 0 -14 -8 -8 -34 3 -34 14 0 11 27 12 34 0z m717 -24
c-1 -12 -15 -9 -19 4 -3 6 1 10 8 8 6 -3 11 -8 11 -12z m-561 -17 c0 -5 -4
-10 -10 -10 -5 0 -10 5 -10 10 0 6 5 10 10 10 6 0 10 -4 10 -10z m677 -5 c8
-22 -6 -33 -17 -15 -13 20 -12 30 0 30 6 0 13 -7 17 -15z m56 -25 c3 -11 1
-20 -4 -20 -5 0 -9 9 -9 20 0 11 2 20 4 20 2 0 6 -9 9 -20z m-9003 0 c0 -5 -6
-10 -14 -10 -8 0 -18 5 -21 10 -3 6 3 10 14 10 12 0 21 -4 21 -10z m8570 -37
c0 -21 -3 -23 -14 -14 -8 7 -12 21 -9 31 7 27 23 15 23 -17z m-275 -47 c-10
-14 -21 -24 -25 -21 -5 3 -12 -4 -15 -15 -5 -16 -14 -20 -33 -18 -20 2 -28 11
-35 37 -7 30 -6 37 15 52 31 24 69 27 91 7 18 -15 18 -17 2 -42z m145 35 c0
-35 -13 -47 -30 -26 -13 16 -39 9 -57 -14 -7 -9 -13 -14 -13 -11 -8 33 -6 40
13 46 12 4 27 13 35 20 7 8 22 14 33 14 14 0 19 -7 19 -29z m507 7 c-3 -8 -6
-5 -6 6 -1 11 2 17 5 13 3 -3 4 -12 1 -19z m123 -28 c0 -5 -4 -10 -10 -10 -5
0 -10 5 -10 10 0 6 5 10 10 10 6 0 10 -4 10 -10z m190 -27 c0 -24 -25 -9 -28
17 -3 21 -2 22 12 11 9 -7 16 -20 16 -28z m-8305 6 c-8 -12 -35 -12 -35 0 0
11 22 20 33 14 4 -2 5 -9 2 -14z m40 -19 c3 -5 1 -10 -4 -10 -6 0 -11 5 -11
10 0 6 2 10 4 10 3 0 8 -4 11 -10z m7140 -10 c3 -5 2 -10 -4 -10 -5 0 -13 5
-16 10 -3 6 -2 10 4 10 5 0 13 -4 16 -10z m-7115 -60 c0 -13 -7 -20 -20 -20
-13 0 -20 7 -20 20 0 13 7 20 20 20 13 0 20 -7 20 -20z m8104 4 c15 -39 -4
-42 -24 -3 -8 15 -7 19 4 19 7 0 17 -7 20 -16z m-1172 -36 c-7 -7 -12 -8 -12
-2 0 14 12 26 19 19 2 -3 -1 -11 -7 -17z m-72 2 c0 -5 -5 -10 -11 -10 -5 0 -7
5 -4 10 3 6 8 10 11 10 2 0 4 -4 4 -10z m264 -15 c6 -16 -3 -19 -28 -9 -22 8
-20 24 3 24 10 0 21 -7 25 -15z m-353 -31 c9 -11 8 -15 -5 -19 -9 -3 -23 -7
-32 -10 -24 -8 -64 5 -64 21 0 31 76 38 101 8z m-7639 -76 c0 -13 1 -29 1 -35
-1 -7 3 -13 8 -13 5 0 9 -7 9 -15 0 -26 -35 -17 -58 15 -13 17 -18 30 -12 30
6 0 9 4 5 9 -5 9 21 30 38 31 4 0 8 -10 9 -22z m-62 -102 c0 -11 -19 -15 -25
-6 -3 5 1 10 9 10 9 0 16 -2 16 -4z m67 -22 c-3 -3 -12 -4 -19 -1 -8 3 -5 6 6
6 11 1 17 -2 13 -5z m7573 -104 c0 -5 -2 -10 -4 -10 -3 0 -8 5 -11 10 -3 6 -1
10 4 10 6 0 11 -4 11 -10z m-860 -245 c0 -8 -4 -17 -10 -20 -6 -4 -10 5 -10
20 0 15 4 24 10 20 6 -3 10 -12 10 -20z m-420 -15 c0 -5 -5 -10 -11 -10 -5 0
-7 5 -4 10 3 6 8 10 11 10 2 0 4 -4 4 -10z m6 -47 c-10 -10 -19 5 -10 18 6 11
8 11 12 0 2 -7 1 -15 -2 -18z m410 -11 c-18 -18 -29 -12 -20 11 3 9 12 13 21
10 13 -5 13 -8 -1 -21z m-109 3 c26 -9 2 -31 -28 -27 -22 3 -27 7 -18 13 10 6
8 9 -8 9 -13 0 -23 4 -23 9 0 8 52 6 77 -4z m630 -97 c-3 -8 -6 -5 -6 6 -1 11
2 17 5 13 3 -3 4 -12 1 -19z m-397 -4 c0 -2 -7 -4 -15 -4 -8 0 -15 4 -15 10 0
5 7 7 15 4 8 -4 15 -8 15 -10z m50 -4 c0 -5 -7 -10 -16 -10 -8 0 -12 5 -9 10
3 6 10 10 16 10 5 0 9 -4 9 -10z m40 0 c0 -5 -5 -10 -11 -10 -5 0 -7 5 -4 10
3 6 8 10 11 10 2 0 4 -4 4 -10z m1 -37 c13 -16 12 -17 -3 -4 -17 13 -22 21
-14 21 2 0 10 -8 17 -17z m-321 -20 c-1 -18 -28 -44 -35 -33 -4 6 -1 17 5 25
13 16 30 20 30 8z m310 -15 c0 -13 -23 -5 -28 10 -2 7 2 10 12 6 9 -3 16 -11
16 -16z m60 -28 c0 -5 -7 -10 -15 -10 -8 0 -15 5 -15 10 0 6 7 10 15 10 8 0
15 -4 15 -10z m-273 -85 c-4 -8 -1 -17 4 -21 6 -3 8 -16 5 -29 -4 -17 -1 -24
14 -28 16 -4 20 -12 18 -35 -1 -17 4 -38 12 -48 13 -15 13 -17 0 -12 -8 2 -19
14 -25 26 -5 12 -15 22 -22 22 -12 0 -19 40 -14 78 1 6 -5 12 -14 12 -9 0 -15
9 -15 25 0 19 5 25 21 25 14 0 19 -5 16 -15z m-247 -5 c28 11 31 10 65 -25 36
-38 43 -55 25 -55 -6 0 -15 -11 -20 -25 -12 -31 -25 -32 -35 -2 l-8 22 -4 -23
c-7 -34 -21 -23 -58 45 -32 60 -36 84 -8 62 9 -9 21 -8 43 1z m155 0 c3 -5 1
-10 -4 -10 -6 0 -11 5 -11 10 0 6 2 10 4 10 3 0 8 -4 11 -10z m23 -55 c-3 -3
-9 2 -12 12 -6 14 -5 15 5 6 7 -7 10 -15 7 -18z m22 -56 c0 -6 -4 -7 -10 -4
-5 3 -10 11 -10 16 0 6 5 7 10 4 6 -3 10 -11 10 -16z m-107 -16 c4 -3 2 -12
-4 -20 -7 -8 -8 -13 -1 -13 13 0 31 -73 25 -104 -3 -14 -10 -26 -15 -26 -6 0
-7 11 -4 24 4 15 0 28 -9 36 -13 10 -15 9 -15 -9 0 -33 -17 -25 -22 12 -3 17
-8 39 -12 48 -5 12 -1 18 13 22 12 3 21 12 21 21 0 16 12 21 23 9z m117 -7 c0
-3 -4 -8 -10 -11 -5 -3 -10 -1 -10 4 0 6 5 11 10 11 6 0 10 -2 10 -4z m-73
-28 c-3 -8 -6 -5 -6 6 -1 11 2 17 5 13 3 -3 4 -12 1 -19z m191 -65 c5 -23 6
-47 1 -54 -7 -11 -9 -10 -9 4 0 9 -4 17 -9 17 -5 0 -11 8 -14 18 -2 9 -8 25
-12 35 -6 13 -3 16 9 11 10 -4 16 -1 16 7 0 22 9 4 18 -38z m-200 -101 c3 -16
-2 -22 -17 -22 -26 0 -35 16 -19 34 17 20 32 15 36 -12z m52 -96 c0 -6 -7 -2
-15 8 -8 11 -15 25 -15 30 0 6 7 2 15 -8 8 -11 15 -25 15 -30z m-40 0 c0 -11
-19 -15 -25 -6 -3 5 1 10 9 10 9 0 16 -2 16 -4z m-520 -26 c0 -5 -4 -10 -10
-10 -5 0 -10 5 -10 10 0 6 5 10 10 10 6 0 10 -4 10 -10z m574 -42 c3 -13 6
-30 6 -37 0 -25 -21 4 -24 33 -4 32 9 35 18 4z m-564 3 c0 -6 -4 -13 -10 -16
-5 -3 -10 1 -10 9 0 9 5 16 10 16 6 0 10 -4 10 -9z m75 -21 c3 -5 1 -10 -4
-10 -6 0 -11 5 -11 10 0 6 2 10 4 10 3 0 8 -4 11 -10z m-67 -49 c-2 -5 -14 -4
-28 2 -20 8 -22 11 -7 14 9 3 17 10 17 16 0 7 5 4 11 -6 6 -10 9 -22 7 -26z
m406 13 c9 -24 7 -34 -7 -28 -14 5 -21 44 -7 44 4 0 11 -7 14 -16z m-333 -74
c6 0 8 -9 4 -19 -3 -11 -1 -22 5 -26 5 -3 10 -11 10 -18 0 -19 -25 25 -39 70
-9 25 -10 49 -5 60 6 14 9 8 12 -24 2 -24 8 -43 13 -43z m243 54 c9 -8 16 -23
16 -32 0 -13 -2 -13 -14 4 -15 19 -15 19 -30 -1 -14 -19 -15 -19 -13 12 2 36
17 42 41 17z m271 6 c3 -5 1 -10 -4 -10 -6 0 -11 5 -11 10 0 6 2 10 4 10 3 0
8 -4 11 -10z m-617 -50 c0 -16 -4 -30 -9 -30 -5 0 -9 14 -9 30 0 17 4 30 8 30
5 0 9 -13 10 -30z m44 7 c-1 -8 2 -18 8 -22 5 -3 10 -14 10 -23 0 -12 -6 -7
-20 13 -23 34 -26 59 -7 52 6 -2 11 -11 9 -20z m98 -17 c0 -5 -5 -10 -11 -10
-5 0 -7 5 -4 10 3 6 8 10 11 10 2 0 4 -4 4 -10z m205 -30 c7 0 15 -10 18 -22
2 -13 8 -32 13 -43 7 -18 6 -18 -9 -6 -14 11 -17 11 -18 0 0 -8 -4 -4 -9 9 -5
12 -14 22 -20 22 -5 0 -10 11 -10 23 0 26 12 45 18 28 2 -6 10 -11 17 -11z
m115 -6 c0 -8 -4 -12 -10 -9 -5 3 -10 10 -10 16 0 5 5 9 10 9 6 0 10 -7 10
-16z m-232 -19 c-3 -3 -9 2 -12 12 -6 14 -5 15 5 6 7 -7 10 -15 7 -18z m-225
-10 c-7 -21 -13 -19 -13 6 0 11 4 18 10 14 5 -3 7 -12 3 -20z m294 -32 c-3
-10 -5 -4 -5 12 0 17 2 24 5 18 2 -7 2 -21 0 -30z m603 -27 c0 -6 -7 -2 -15 8
-8 11 -15 25 -15 30 0 6 7 2 15 -8 8 -11 15 -25 15 -30z m-343 -18 c-3 -8 -6
-5 -6 6 -1 11 2 17 5 13 3 -3 4 -12 1 -19z m-55 -23 c-2 -14 -8 -25 -13 -25
-7 0 -7 24 0 48 1 1 5 2 10 2 4 0 6 -11 3 -25z m-134 -2 c-8 -10 -6 -13 6 -13
16 0 16 -9 1 -58 -6 -17 -10 -20 -16 -11 -5 8 -3 17 4 21 9 6 9 10 1 16 -6 4
-13 19 -16 34 -4 21 -1 26 13 25 14 -1 15 -4 7 -14z m154 -25 c-9 -9 -12 -7
-12 12 0 19 3 21 12 12 9 -9 9 -15 0 -24z m174 -54 c8 -20 13 -38 11 -41 -5
-5 -37 55 -37 69 0 18 12 6 26 -28z m-56 1 c0 -28 -15 -33 -24 -8 -4 9 -1 20
6 25 18 11 18 11 18 -17z m-213 -10 c6 -14 7 -25 2 -25 -5 0 -9 5 -9 10 0 6
-7 10 -15 10 -8 0 -15 7 -15 15 0 24 24 17 37 -10z m528 15 c3 -5 2 -10 -4
-10 -5 0 -13 5 -16 10 -3 6 -2 10 4 10 5 0 13 -4 16 -10z m-368 -72 c-3 -7 -5
-2 -5 12 0 14 2 19 5 13 2 -7 2 -19 0 -25z m-163 6 c9 -24 7 -28 -9 -14 -17
14 -20 30 -6 30 5 0 12 -7 15 -16z m303 -26 c-3 -8 -6 -5 -6 6 -1 11 2 17 5
13 3 -3 4 -12 1 -19z m40 -15 c-3 -10 -5 -4 -5 12 0 17 2 24 5 18 2 -7 2 -21
0 -30z m-30 -25 c-3 -8 -6 -5 -6 6 -1 11 2 17 5 13 3 -3 4 -12 1 -19z"/>
<path d="M1847 2983 c-13 -12 -7 -23 13 -23 11 0 20 7 20 15 0 15 -21 21 -33
8z"/>
<path d="M1358 2883 c7 -3 16 -2 19 1 4 3 -2 6 -13 5 -11 0 -14 -3 -6 -6z"/>
<path d="M7400 946 c0 -9 5 -16 10 -16 6 0 10 4 10 9 0 6 -4 13 -10 16 -5 3
-10 -1 -10 -9z"/>
<path d="M6510 3850 c-18 -11 -11 -18 27 -29 42 -12 65 3 38 23 -23 18 -44 20
-65 6z"/>
<path d="M6460 3715 c-10 -12 -9 -16 3 -21 17 -6 37 2 37 16 0 15 -29 19 -40
5z"/>
<path d="M6543 3573 c-13 -2 -23 -11 -23 -18 0 -25 18 -25 34 0 9 14 15 24 14
24 -2 -1 -13 -4 -25 -6z"/>
<path d="M6765 3539 c-4 -6 -5 -13 -2 -16 8 -7 47 7 47 18 0 13 -37 11 -45 -2z"/>
<path d="M6816 3505 c-16 -12 -17 -18 -8 -27 9 -9 12 -9 12 3 0 9 10 21 23 27
13 6 16 11 7 11 -8 0 -24 -6 -34 -14z"/>
<path d="M6907 3504 c-4 -4 -7 -17 -7 -29 0 -11 -5 -26 -12 -33 -9 -9 -9 -12
1 -12 7 0 9 -5 6 -11 -5 -7 -15 -3 -30 11 -17 16 -24 18 -29 8 -4 -10 -8 -10
-17 3 -11 14 -15 14 -42 1 -27 -13 -31 -13 -39 2 -9 16 -58 23 -58 9 0 -5 -3
-18 -6 -30 -5 -18 -1 -25 17 -32 16 -5 26 -5 31 2 4 7 11 7 20 -1 8 -6 24 -9
36 -5 12 3 22 1 22 -5 0 -16 -37 -25 -56 -14 -19 10 -54 4 -54 -9 0 -5 -4 -9
-10 -9 -5 0 -10 6 -10 13 0 7 -10 24 -22 37 l-22 23 -21 -27 c-11 -14 -24 -26
-29 -26 -4 0 -14 -7 -22 -15 -9 -8 -25 -15 -36 -15 -18 0 -19 -4 -13 -37 7
-38 19 -53 43 -53 12 0 16 -12 13 -40 -1 -9 1 -11 6 -5 10 13 80 45 97 45 21
0 37 25 39 62 3 37 18 49 27 22 5 -13 9 -14 14 -6 4 7 12 10 17 6 5 -3 6 -10
3 -16 -4 -5 5 -2 20 7 14 10 26 13 26 7 0 -6 -6 -13 -12 -16 -7 -3 -3 -3 10 0
15 4 22 1 22 -10 0 -8 7 -22 16 -30 14 -15 14 -17 0 -22 -9 -3 -16 -12 -16
-19 0 -8 -10 -15 -22 -17 -15 -2 -22 -9 -22 -20 1 -10 -5 -17 -15 -16 -9 1
-25 0 -36 -1 -16 -2 -12 -6 15 -19 26 -13 35 -24 35 -42 0 -23 -4 -25 -60 -29
-115 -6 -106 -4 -87 -24 9 -10 22 -15 31 -11 9 4 41 12 71 18 58 12 86 7 194
-35 59 -23 70 -24 62 -3 -3 8 0 22 8 30 19 18 26 18 26 -2 0 -15 2 -15 22 -2
22 15 41 47 19 34 -6 -4 -11 -3 -11 3 0 11 57 61 70 61 12 0 22 -17 13 -23 -5
-2 -2 -2 5 0 8 1 23 3 35 3 13 0 17 4 11 8 -6 4 -10 41 -9 90 1 55 -2 81 -9
79 -6 -2 -10 -23 -9 -46 2 -34 -1 -42 -13 -37 -8 3 -14 -1 -14 -9 0 -16 -39
-65 -51 -65 -5 0 -6 14 -4 31 2 20 -1 32 -11 36 -8 3 -14 9 -14 15 0 5 4 7 9
3 17 -10 22 13 6 28 -8 9 -15 24 -15 35 0 12 -13 29 -31 40 l-31 20 23 23 c13
13 23 29 21 35 -1 7 9 10 28 8 21 -3 30 1 30 10 0 8 14 19 30 25 17 5 30 15
30 21 0 17 -29 23 -45 10 -8 -7 -21 -10 -30 -7 -8 4 -17 2 -20 -3 -4 -6 -1
-10 4 -10 6 0 11 -7 11 -15 0 -12 -8 -14 -42 -9 -24 4 -49 11 -55 17 -9 7 -13
5 -13 -6 0 -16 -48 -52 -57 -43 -3 3 0 12 7 20 13 16 1 74 -13 60z m113 -271
c0 -12 -33 -43 -47 -43 -17 0 -17 10 4 32 16 18 43 25 43 11z m-148 -30 c6
-16 10 -38 9 -50 0 -13 4 -23 9 -23 6 0 10 -5 10 -10 0 -6 -8 -5 -20 2 -11 7
-20 23 -20 35 0 12 -5 23 -11 25 -7 2 -9 13 -5 26 9 29 14 28 28 -5z m170 -55
c18 -27 13 -48 -11 -48 -24 0 -41 20 -41 47 0 30 33 31 52 1z"/>
<path d="M6775 3480 c-3 -5 -1 -10 4 -10 6 0 11 5 11 10 0 6 -2 10 -4 10 -3 0
-8 -4 -11 -10z"/>
<path d="M7450 3425 c17 -20 2 -36 -34 -38 -26 -2 -37 -17 -12 -17 16 0 66
-39 51 -40 -6 0 -15 4 -20 9 -6 5 -26 13 -45 19 -31 8 -36 7 -36 -9 0 -20 27
-34 91 -47 48 -10 135 -4 135 10 0 22 -24 50 -75 88 -57 42 -76 51 -55 25z"/>
<path d="M7400 3420 c0 -5 5 -10 11 -10 5 0 7 5 4 10 -3 6 -8 10 -11 10 -2 0
-4 -4 -4 -10z"/>
<path d="M6500 3390 c0 -5 7 -10 15 -10 8 0 15 5 15 10 0 6 -7 10 -15 10 -8 0
-15 -4 -15 -10z"/>
<path d="M7120 3366 c0 -9 5 -16 10 -16 6 0 10 4 10 9 0 6 -4 13 -10 16 -5 3
-10 -1 -10 -9z"/>
<path d="M7213 3366 c4 -10 7 -20 7 -22 0 -2 4 -4 9 -4 14 0 6 33 -9 38 -9 3
-11 -1 -7 -12z"/>
<path d="M6750 3291 c0 -6 4 -13 10 -16 6 -3 7 1 4 9 -7 18 -14 21 -14 7z"/>
<path d="M6630 3175 c-8 -9 -8 -15 -2 -15 12 0 26 19 19 26 -2 2 -10 -2 -17
-11z"/>
<path d="M3524 3145 c-6 -15 15 -50 24 -40 3 3 11 0 19 -6 15 -13 17 0 7 39
-7 25 -41 30 -50 7z"/>
<path d="M3665 3140 c-3 -5 1 -10 10 -10 9 0 13 5 10 10 -3 6 -8 10 -10 10 -2
0 -7 -4 -10 -10z"/>
<path d="M3700 3140 c0 -5 4 -10 9 -10 6 0 13 5 16 10 3 6 -1 10 -9 10 -9 0
-16 -4 -16 -10z"/>
<path d="M6560 3141 c0 -5 7 -11 15 -15 8 -3 15 -1 15 3 0 5 -7 11 -15 15 -8
3 -15 1 -15 -3z"/>
<path d="M3635 3130 c-3 -5 -1 -10 4 -10 6 0 11 5 11 10 0 6 -2 10 -4 10 -3 0
-8 -4 -11 -10z"/>
<path d="M7105 3110 c-3 -5 -1 -10 4 -10 6 0 11 5 11 10 0 6 -2 10 -4 10 -3 0
-8 -4 -11 -10z"/>
<path d="M7553 3110 c-32 -13 -29 -29 5 -26 15 2 33 4 41 5 11 1 11 4 1 16
-14 17 -16 17 -47 5z"/>
<path d="M3890 3060 c-8 -5 -25 -7 -37 -3 -15 3 -23 1 -23 -7 0 -7 -8 -10 -20
-7 -11 3 -20 1 -20 -4 0 -5 -15 -6 -32 -2 l-33 6 25 -20 c14 -11 33 -22 43
-26 9 -4 22 -19 28 -34 20 -54 54 -118 69 -130 8 -7 25 -13 38 -13 12 0 22 -4
22 -10 0 -9 -14 -14 -32 -11 -4 0 -22 3 -40 5 -60 8 -92 19 -155 53 -35 19
-63 31 -63 27 0 -4 -8 0 -18 10 -11 9 -45 23 -78 32 -58 15 -108 49 -98 65 3
5 2 9 -3 9 -17 -1 -107 -29 -95 -29 17 -1 15 -31 -3 -31 -8 0 -14 6 -13 13 3
14 -34 10 -43 -5 -4 -6 -14 -8 -23 -5 -19 8 -125 -17 -179 -41 -32 -15 -37
-21 -35 -46 2 -17 -2 -31 -9 -33 -7 -3 -13 1 -13 8 0 7 -2 10 -5 7 -8 -8 24
-78 35 -78 14 0 13 13 -2 28 -7 7 -9 12 -5 12 3 0 18 -12 32 -26 21 -21 25
-32 20 -53 -12 -44 -7 -94 9 -103 9 -5 16 -17 16 -27 0 -23 41 -51 72 -51 13
0 35 6 50 14 17 9 29 11 36 4 11 -11 40 1 41 17 0 6 7 11 15 13 11 2 14 -2 10
-12 -6 -14 -3 -14 22 -1 16 9 49 15 74 15 25 0 59 2 75 6 23 4 48 -4 110 -37
62 -32 91 -42 129 -41 59 0 69 12 60 72 l-6 45 21 -19 c12 -11 20 -24 20 -30
-5 -32 17 -51 59 -52 29 -1 42 3 42 12 0 17 11 18 45 2 21 -9 31 -9 48 1 15
10 22 11 25 2 5 -14 42 -15 42 -1 0 6 -7 10 -16 10 -8 0 -12 5 -9 10 9 15 31
12 49 -6 9 -8 21 -12 26 -9 6 4 24 8 41 10 36 5 59 21 59 41 0 13 12 18 33 15
4 0 7 4 7 10 0 7 -9 9 -21 6 -18 -5 -20 -2 -16 19 4 21 1 24 -16 18 -17 -5
-19 -3 -14 15 12 46 -23 17 -41 -34 -6 -16 -11 -24 -11 -17 -1 7 -15 12 -36
12 -34 0 -46 12 -24 26 6 3 16 1 22 -5 17 -17 47 -14 41 4 -4 10 -13 13 -24
10 -12 -4 -22 1 -28 11 -7 13 -16 15 -38 10 -28 -7 -28 -8 -10 -22 11 -8 16
-14 12 -14 -5 0 -3 -6 3 -13 6 -8 7 -18 3 -22 -4 -5 -1 -5 7 0 9 5 12 3 9 -6
-3 -8 -17 -14 -31 -14 -15 -1 -32 -6 -38 -12 -9 -9 -17 -6 -31 10 -14 16 -21
18 -25 9 -4 -10 -8 -10 -19 -1 -17 14 -19 -2 -2 -19 9 -9 8 -12 -6 -12 -28 0
-50 28 -36 45 8 10 8 19 1 34 -16 28 -14 31 17 31 21 0 24 2 12 10 -12 8 -9
10 12 10 37 0 44 16 11 25 -25 6 -26 8 -10 17 12 6 16 16 12 29 -5 14 -2 19
10 19 13 0 16 -6 12 -26 -4 -21 0 -26 24 -31 16 -3 32 -10 35 -14 3 -5 17 -9
32 -8 l27 1 -30 10 c-39 14 -42 17 -25 28 11 7 9 13 -11 34 -13 14 -30 26 -37
26 -7 0 -10 5 -7 10 9 14 35 12 35 -2 0 -7 12 -14 27 -15 26 -1 26 0 9 13 -10
7 -23 15 -29 17 -6 2 -11 14 -12 28 -1 17 -8 25 -24 27 -19 3 -22 9 -19 32 2
16 1 27 -4 24 -4 -3 -3 7 2 21 9 23 7 28 -10 32 -11 3 -17 9 -14 14 6 10 -56
39 -83 39 -10 0 -25 -5 -33 -10z m160 -200 c0 -5 -4 -10 -10 -10 -5 0 -10 5
-10 10 0 6 5 10 10 10 6 0 10 -4 10 -10z m-40 -34 c0 -11 -19 -15 -25 -6 -3 5
1 10 9 10 9 0 16 -2 16 -4z m-543 -142 c-3 -3 -12 -4 -19 -1 -8 3 -5 6 6 6 11
1 17 -2 13 -5z m713 -64 c0 -5 -5 -10 -11 -10 -5 0 -7 5 -4 10 3 6 8 10 11 10
2 0 4 -4 4 -10z m50 -20 c0 -5 -4 -10 -10 -10 -5 0 -10 5 -10 10 0 6 5 10 10
10 6 0 10 -4 10 -10z"/>
<path d="M4948 3058 c8 -8 17 -8 34 0 22 10 21 11 -11 11 -27 1 -32 -2 -23
-11z"/>
<path d="M7980 3039 c0 -5 5 -7 10 -4 6 3 10 8 10 11 0 2 -4 4 -10 4 -5 0 -10
-5 -10 -11z"/>
<path d="M7661 2957 c-28 -14 -48 -43 -38 -53 8 -9 122 -9 136 0 6 4 4 17 -7
36 -19 33 -49 39 -91 17z"/>
<path d="M7755 2950 c3 -5 8 -10 11 -10 2 0 4 5 4 10 0 6 -5 10 -11 10 -5 0
-7 -4 -4 -10z"/>
<path d="M7271 2906 c-17 -18 -31 -36 -31 -40 0 -5 -8 -15 -17 -22 -16 -12
-13 -13 24 -14 34 0 43 4 48 21 l7 21 15 -21 c13 -19 12 -23 -2 -37 -21 -22
-14 -27 19 -14 21 8 27 7 24 -2 -3 -7 -17 -14 -31 -16 -32 -4 -33 -7 -7 -39
11 -14 17 -29 14 -34 -2 -5 11 -19 30 -31 21 -13 36 -31 36 -43 1 -19 1 -19
14 -2 15 20 32 22 39 5 4 -10 7 -10 18 0 16 15 33 16 23 0 -4 -7 -3 -8 4 -4 7
4 12 2 12 -5 0 -10 3 -10 11 -2 8 8 5 17 -12 34 l-24 24 43 9 c50 11 55 26 8
26 -39 0 -66 24 -48 42 21 21 14 65 -10 72 -32 8 -33 8 -33 -10 0 -9 -7 -21
-16 -27 -12 -8 -22 -5 -40 11 -19 18 -20 22 -6 22 9 0 17 -4 17 -10 0 -5 7
-10 15 -10 19 0 19 17 1 36 -10 9 -17 10 -21 4 -10 -16 -24 -2 -20 20 2 11 -1
20 -6 20 -6 0 -7 4 -4 10 3 5 0 7 -9 4 -8 -3 -23 3 -34 14 -20 20 -20 20 -51
-12z"/>
<path d="M4566 2923 c-11 -11 -6 -23 8 -23 8 0 17 4 20 9 7 10 -19 23 -28 14z"/>
<path d="M4864 2845 c-10 -8 -14 -15 -7 -15 19 0 43 11 43 21 0 13 -14 11 -36
-6z"/>
<path d="M4815 2830 c-3 -5 -1 -10 4 -10 6 0 11 5 11 10 0 6 -2 10 -4 10 -3 0
-8 -4 -11 -10z"/>
<path d="M4203 2806 c5 -16 34 -19 39 -4 4 8 -3 14 -19 14 -14 1 -22 -3 -20
-10z"/>
<path d="M4900 2800 c0 -5 4 -10 9 -10 6 0 13 5 16 10 3 6 -1 10 -9 10 -9 0
-16 -4 -16 -10z"/>
<path d="M6705 2766 c-10 -7 -15 -18 -11 -24 15 -24 136 -43 136 -22 0 6 -7
10 -15 10 -16 0 -49 16 -76 37 -12 10 -19 10 -34 -1z"/>
<path d="M4595 2705 c-19 -15 -19 -15 10 -13 17 2 29 7 28 13 -3 16 -18 16
-38 0z"/>
<path d="M7570 2668 c0 -7 12 -14 26 -14 30 -2 29 -2 38 -31 6 -17 3 -23 -8
-23 -9 0 -13 -6 -10 -14 4 -10 13 -5 35 16 34 35 37 48 8 48 -11 0 -27 7 -35
15 -19 18 -54 20 -54 3z"/>
<path d="M7917 2674 c-3 -3 1 -13 9 -21 8 -9 18 -12 21 -9 4 4 0 13 -8 21 -8
9 -18 13 -22 9z"/>
<path d="M4056 2644 c-9 -22 -8 -24 9 -24 8 0 15 5 15 10 0 6 7 10 15 10 8 0
15 5 15 10 0 16 -47 11 -54 -6z"/>
<path d="M4340 2610 c0 -11 7 -20 15 -20 8 0 15 9 15 20 0 11 -7 20 -15 20 -8
0 -15 -9 -15 -20z"/>
<path d="M7375 2610 c-3 -5 -1 -10 4 -10 6 0 11 5 11 10 0 6 -2 10 -4 10 -3 0
-8 -4 -11 -10z"/>
<path d="M7475 2597 c-5 -12 -13 -13 -35 -7 -32 9 -70 3 -70 -11 0 -5 5 -9 10
-9 6 0 10 -5 10 -11 0 -8 -4 -8 -14 0 -11 9 -20 10 -35 1 -16 -8 -19 -8 -15 4
7 18 -54 7 -116 -23 -25 -11 -53 -21 -63 -21 -9 0 -33 -8 -52 -19 l-34 -18 39
-13 c29 -10 42 -21 50 -43 5 -17 8 -32 6 -35 -3 -2 3 -12 12 -21 13 -13 29
-16 69 -13 51 4 72 16 102 60 20 29 56 35 91 17 19 -10 30 -11 30 -5 0 6 4 8
10 5 5 -3 19 -1 30 5 16 9 20 8 20 -5 0 -19 14 -19 30 0 9 11 6 20 -19 44 -34
33 -39 51 -16 51 21 0 19 11 -10 50 -19 26 -26 30 -30 17z m-159 -72 c50 -17
55 -33 10 -33 -20 0 -34 4 -31 8 3 5 -4 6 -15 3 -22 -6 -28 12 -7 20 6 3 2 6
-10 6 -13 1 -23 5 -23 10 0 13 24 20 31 9 3 -5 23 -15 45 -23z m114 4 c0 -6
-4 -7 -10 -4 -5 3 -10 11 -10 16 0 6 5 7 10 4 6 -3 10 -11 10 -16z m-60 -64
c0 -8 -4 -15 -10 -15 -5 0 -10 7 -10 15 0 8 5 15 10 15 6 0 10 -7 10 -15z"/>
<path d="M7787 2434 c-8 -8 1 -24 14 -24 5 0 9 7 9 15 0 15 -12 20 -23 9z"/>
<path d="M4055 2370 c-10 -11 -15 -20 -11 -20 14 0 46 21 46 30 0 16 -16 11
-35 -10z"/>
<path d="M6987 2376 c-4 -10 -1 -19 9 -23 21 -8 26 1 11 22 -13 16 -14 16 -20
1z"/>
<path d="M7437 2332 c-21 -23 -22 -33 -3 -26 8 3 16 14 19 25 6 24 4 24 -16 1z"/>
<path d="M8100 2340 c0 -5 5 -10 10 -10 6 0 10 5 10 10 0 6 -4 10 -10 10 -5 0
-10 -4 -10 -10z"/>
<path d="M3873 2313 c-24 -16 -47 -40 -52 -55 -9 -25 -8 -26 17 -19 15 5 33 6
40 4 6 -3 12 0 12 6 0 6 7 11 16 11 19 0 112 70 93 70 -8 1 -30 3 -49 5 -27 4
-45 -1 -77 -22z m17 -20 c-1 -18 -18 -35 -24 -24 -4 6 -4 16 -1 21 7 12 25 13
25 3z"/>
<path d="M2760 2310 c-14 -12 -20 -25 -16 -36 11 -28 -16 -74 -42 -74 -13 0
-20 -4 -17 -10 6 -10 -56 -6 -93 6 -7 2 -15 -3 -18 -11 -3 -8 -26 -17 -51 -21
-27 -4 -40 -10 -33 -14 7 -5 10 -16 6 -25 -4 -12 0 -18 14 -22 11 -3 18 -8 16
-12 -3 -4 10 -5 28 -3 25 3 37 -1 47 -15 16 -22 79 -25 114 -6 21 11 89 4 115
-12 10 -6 12 -3 8 13 -4 12 -2 20 3 16 5 -3 9 -14 9 -25 0 -10 5 -19 10 -19 6
0 10 11 10 25 0 14 3 25 8 25 4 0 13 18 20 40 10 33 10 45 -1 66 -12 23 -15
24 -26 10 -20 -24 -28 -19 -24 12 5 41 -11 60 -37 44 -18 -11 -21 -10 -30 14
-7 19 -7 31 1 40 17 20 6 17 -21 -6z m50 -180 c6 -11 9 -20 7 -20 -2 0 -14 9
-27 20 -18 16 -19 20 -7 20 9 0 21 -9 27 -20z"/>
<path d="M7860 2299 c0 -7 34 -39 42 -39 3 0 5 11 4 25 -1 19 -6 24 -23 22
-13 -1 -23 -4 -23 -8z"/>
<path d="M7107 2256 c-4 -10 -5 -21 -2 -24 9 -9 17 6 13 25 -3 17 -4 17 -11
-1z"/>
<path d="M7590 2254 c0 -8 6 -11 14 -8 8 3 17 1 21 -5 9 -16 25 -14 25 3 0 8
-13 16 -30 18 -20 3 -30 0 -30 -8z"/>
<path d="M7423 2238 c-27 -13 -29 -23 -8 -32 8 -3 27 6 41 19 23 22 24 25 8
24 -10 0 -29 -5 -41 -11z"/>
<path d="M7973 2232 c-23 -3 -33 -22 -12 -22 5 0 7 -4 4 -10 -3 -5 0 -7 8 -4
8 3 20 -2 27 -11 11 -13 10 -15 -6 -9 -17 5 -17 4 2 -13 11 -10 23 -25 26 -33
5 -12 7 -11 13 4 5 11 3 21 -5 26 -8 5 -3 8 14 8 16 0 28 -7 31 -19 9 -29 24
-23 23 9 -1 15 0 33 3 41 6 21 -40 42 -64 30 -10 -6 -23 -7 -30 -2 -7 5 -22 7
-34 5z"/>
<path d="M5643 2215 c5 -14 39 -13 44 1 2 7 -6 11 -22 10 -14 0 -23 -5 -22
-11z"/>
<path d="M3751 2201 c-16 -10 -6 -31 15 -31 16 0 18 9 6 27 -4 7 -13 9 -21 4z"/>
<path d="M8120 2180 c0 -5 7 -10 16 -10 8 0 12 5 9 10 -3 6 -10 10 -16 10 -5
0 -9 -4 -9 -10z"/>
<path d="M7434 2147 c-22 -7 -51 -23 -65 -36 l-24 -24 28 5 c31 6 33 2 10 -24
-16 -18 -15 -21 22 -57 32 -31 43 -36 54 -27 11 8 15 8 18 -1 9 -25 25 -13 19
13 -6 23 -4 26 13 21 12 -3 21 0 21 6 0 6 9 21 21 33 l21 22 -26 17 c-16 11
-26 27 -26 41 0 27 -18 30 -86 11z"/>
<path d="M6875 2130 c-18 -19 -17 -20 6 -20 38 0 100 20 94 31 -11 17 -81 10
-100 -11z"/>
<path d="M2157 2112 c-2 -9 -8 -25 -12 -34 -5 -14 -2 -18 14 -18 17 0 21 6 21
29 0 34 -15 49 -23 23z"/>
<path d="M7795 2110 c-8 -13 20 -24 36 -15 6 4 15 1 20 -6 6 -11 11 -11 20 -2
16 16 12 19 -33 27 -22 4 -39 2 -43 -4z"/>
<path d="M2410 2085 c7 -8 17 -12 22 -9 6 4 5 10 -3 15 -22 14 -33 10 -19 -6z"/>
<path d="M7586 2054 c-8 -32 -4 -38 23 -29 26 8 27 31 2 44 -16 9 -20 6 -25
-15z"/>
<path d="M8031 2059 c-11 -19 -11 -21 4 -15 9 3 19 6 21 6 2 0 4 7 4 15 0 21
-13 19 -29 -6z"/>
<path d="M5755 2060 c3 -5 13 -10 21 -10 8 0 14 5 14 10 0 6 -9 10 -21 10 -11
0 -17 -4 -14 -10z"/>
<path d="M6445 2061 c-10 -18 17 -23 33 -7 15 15 15 16 -5 16 -12 0 -24 -4
-28 -9z"/>
<path d="M8099 2063 c-19 -5 -32 -53 -15 -53 6 0 12 -14 13 -32 1 -17 8 -36
14 -42 9 -8 10 -7 6 7 -8 22 -5 22 38 -7 20 -14 42 -23 49 -20 6 2 31 -2 53
-10 28 -10 51 -12 70 -6 15 4 24 9 18 9 -5 1 -4 5 2 9 7 4 15 21 19 38 5 28 2
32 -38 52 -26 14 -66 24 -100 26 -31 1 -68 10 -82 19 -14 9 -27 16 -28 16 -2
-1 -10 -3 -19 -6z m66 -33 c3 -5 -1 -10 -10 -10 -9 0 -13 5 -10 10 3 6 8 10
10 10 2 0 7 -4 10 -10z"/>
<path d="M2764 1969 c-3 -6 -1 -16 5 -22 8 -8 11 -5 11 11 0 24 -5 28 -16 11z"/>
<path d="M7985 1970 c3 -5 10 -10 16 -10 5 0 9 5 9 10 0 6 -7 10 -16 10 -8 0
-12 -4 -9 -10z"/>
<path d="M275 1960 c-3 -5 1 -10 9 -10 9 0 16 5 16 10 0 6 -4 10 -9 10 -6 0
-13 -4 -16 -10z"/>
<path d="M2783 1920 c-11 -17 -11 -18 7 -12 20 7 28 24 13 29 -4 2 -14 -6 -20
-17z"/>
<path d="M1690 1910 c0 -13 7 -20 20 -20 23 0 26 10 8 28 -18 18 -28 15 -28
-8z"/>
<path d="M7950 1899 c0 -4 7 -10 16 -13 14 -5 14 -9 3 -23 -12 -14 -11 -15 11
-8 14 4 28 12 31 18 4 5 13 6 20 2 8 -5 5 1 -5 13 -18 21 -76 29 -76 11z"/>
<path d="M1750 1849 c0 -7 3 -9 7 -6 3 4 11 1 17 -7 11 -13 120 -51 144 -49
53 3 41 16 -40 40 -107 32 -128 35 -128 22z"/>
<path d="M3566 1829 c-7 -34 5 -56 23 -45 6 4 8 19 5 34 -10 42 -21 46 -28 11z"/>
<path d="M6687 1853 c-4 -3 -7 -11 -7 -17 0 -6 5 -5 12 2 6 6 9 14 7 17 -3 3
-9 2 -12 -2z"/>
<path d="M1630 1817 c0 -8 -20 -17 -52 -23 -29 -5 -52 -13 -51 -19 5 -25 103
-14 103 12 0 10 6 14 19 10 24 -6 46 7 37 22 -10 16 -56 14 -56 -2z"/>
<path d="M8060 1800 c0 -5 5 -10 11 -10 5 0 7 5 4 10 -3 6 -8 10 -11 10 -2 0
-4 -4 -4 -10z"/>
<path d="M430 1766 c0 -10 9 -14 25 -13 33 3 33 21 0 25 -17 2 -25 -1 -25 -12z"/>
<path d="M5532 1768 c-15 -15 -15 -45 -1 -54 6 -3 18 0 26 9 14 13 14 18 1 36
-11 16 -17 18 -26 9z"/>
<path d="M2280 1745 l-25 -14 33 -1 c22 0 32 5 32 15 0 18 -8 18 -40 0z"/>
<path d="M4183 1708 c2 -7 -2 -17 -9 -23 -17 -14 -22 -49 -6 -51 6 -1 13 -2
15 -3 1 -1 19 -4 40 -6 53 -6 59 17 16 61 -32 34 -65 46 -56 22z"/>
<path d="M7470 1704 c0 -8 5 -12 10 -9 6 4 8 11 5 16 -9 14 -15 11 -15 -7z"/>
<path d="M8100 1680 c0 -11 -7 -23 -15 -26 -22 -9 -19 -22 13 -51 17 -17 21
-24 10 -20 -21 8 -21 8 -5 -32 l13 -31 13 61 c12 52 12 62 -1 77 -9 9 -13 23
-11 30 3 6 0 12 -6 12 -6 0 -11 -9 -11 -20z"/>
<path d="M7034 1679 c-30 -11 -34 -21 -19 -48 l13 -25 16 33 c21 40 18 51 -10
40z"/>
<path d="M235 1655 c-16 -7 -30 -17 -30 -22 0 -4 -4 -13 -8 -20 -4 -7 2 -18
15 -28 21 -14 23 -14 26 0 2 8 19 22 38 30 23 9 34 21 34 34 0 25 -28 27 -75
6z"/>
<path d="M1040 1660 c0 -5 5 -10 10 -10 6 0 10 5 10 10 0 6 -4 10 -10 10 -5 0
-10 -4 -10 -10z"/>
<path d="M108 1633 c7 -3 16 -2 19 1 4 3 -2 6 -13 5 -11 0 -14 -3 -6 -6z"/>
<path d="M160 1630 c0 -5 5 -10 11 -10 5 0 7 5 4 10 -3 6 -8 10 -11 10 -2 0
-4 -4 -4 -10z"/>
<path d="M965 1611 c-3 -5 4 -13 16 -16 23 -8 34 -1 24 14 -8 13 -32 14 -40 2z"/>
<path d="M4570 1575 c-9 -11 -10 -19 -3 -26 13 -13 -35 -65 -54 -61 -7 2 -13
-2 -13 -8 0 -12 20 -13 40 0 9 5 19 5 28 -2 9 -8 16 -8 24 0 6 6 17 7 27 2 26
-14 55 -23 76 -25 11 -1 27 -4 35 -6 11 -3 15 4 15 27 -1 30 0 31 28 23 37
-10 45 -18 30 -27 -8 -5 -8 -12 2 -26 8 -10 18 -15 23 -12 6 3 13 -1 16 -10 4
-10 16 -14 38 -12 39 4 51 17 35 36 -9 11 -7 17 6 27 17 12 16 14 -9 34 -33
26 -54 27 -54 1 0 -24 -27 -17 -35 10 -4 11 -20 20 -43 24 -20 4 -45 10 -56
13 -11 3 -16 1 -12 -5 4 -7 -4 -8 -26 -1 -18 5 -40 7 -49 4 -12 -4 -16 0 -15
12 1 24 -36 29 -54 8z m280 -117 c0 -13 -23 -5 -28 10 -2 7 2 10 12 6 9 -3 16
-11 16 -16z"/>
<path d="M6952 1490 c-8 -16 -19 -30 -25 -30 -7 0 -19 -5 -27 -10 -13 -9 -13
-11 0 -20 12 -7 12 -12 2 -22 -10 -10 -14 -10 -21 1 -7 10 -13 11 -31 1 -12
-6 -28 -9 -37 -6 -8 3 -24 1 -36 -6 -12 -7 -29 -11 -38 -10 -15 3 -45 -45 -34
-56 3 -3 31 -9 63 -14 121 -16 138 -20 179 -39 48 -21 88 -25 99 -8 4 8 9 7
15 -2 4 -7 11 -10 15 -6 4 3 1 14 -6 23 -12 13 -11 17 1 25 10 7 5 8 -15 5
-16 -3 -33 -11 -37 -18 -4 -7 -9 -10 -11 -8 -46 72 -58 131 -39 198 12 40 0
42 -17 2z"/>
<path d="M17 1496 c-12 -10 -17 -26 -16 -62 1 -27 3 -41 6 -31 5 19 61 24 93
7 26 -14 177 -20 211 -8 35 12 36 21 6 37 -18 9 -37 9 -95 -4 -78 -16 -103
-11 -122 25 -5 10 -7 26 -4 34 5 13 -1 16 -27 16 -19 0 -42 -7 -52 -14z"/>
<path d="M575 1497 c-17 -13 -16 -15 14 -25 40 -14 58 -55 39 -92 -35 -69
-138 -137 -192 -125 -17 4 -51 6 -75 6 -31 -1 -51 4 -65 18 -23 20 -56 30
-126 38 -25 2 -63 13 -85 24 -41 19 -85 16 -85 -5 0 -6 13 -20 30 -31 16 -11
35 -30 41 -42 8 -14 19 -21 28 -18 29 8 43 -9 32 -38 -7 -19 -7 -27 0 -27 6 0
9 -6 6 -14 -3 -8 -1 -17 6 -19 9 -3 9 -7 0 -17 -9 -9 -13 -8 -22 7 -7 14 -22
20 -52 21 -27 1 -47 8 -55 19 -11 15 -13 1 -14 -95 0 -112 0 -113 23 -110 12
2 23 9 23 16 1 6 2 16 3 21 0 5 10 13 21 16 11 3 23 17 26 30 7 29 39 39 124
40 l65 0 18 38 c21 41 33 46 53 20 12 -17 13 -17 14 -1 0 9 10 18 23 20 12 2
21 9 20 16 -2 6 0 12 4 12 12 0 78 -23 136 -47 81 -34 138 -35 174 -3 15 14
40 32 55 39 15 8 25 17 23 21 -2 3 7 37 21 75 14 37 21 71 17 75 -4 4 -35 13
-68 20 -82 19 -101 33 -109 79 -8 50 -49 68 -91 38z m215 -186 c0 -4 -5 -23
-11 -40 -8 -23 -15 -29 -22 -22 -8 8 -8 14 1 23 7 7 12 20 12 30 0 10 5 18 10
18 6 0 10 -4 10 -9z"/>
<path d="M5384 1482 c-41 -33 -37 -49 14 -62 26 -7 52 -13 58 -15 6 -2 15 -16
19 -32 3 -15 12 -31 18 -36 8 -5 5 -7 -8 -5 -14 2 -21 -3 -23 -18 -3 -18 3
-22 32 -26 20 -2 32 0 29 6 -3 5 1 14 9 20 23 17 29 54 9 62 -9 4 -22 6 -28 5
-7 -1 -13 5 -13 14 0 8 5 15 10 15 6 0 10 9 10 20 0 11 -7 20 -15 20 -8 0 -15
7 -15 15 0 8 3 14 8 14 19 -3 33 2 27 10 -6 10 -47 8 -78 -4 -9 -4 -23 -3 -30
3 -9 8 -18 6 -33 -6z"/>
<path d="M5110 1480 c0 -5 5 -10 10 -10 6 0 10 5 10 10 0 6 -4 10 -10 10 -5 0
-10 -4 -10 -10z"/>
<path d="M4476 1455 c-3 -9 -6 -24 -6 -32 0 -13 3 -13 15 -3 17 14 17 15 32
-20 l12 -25 0 26 c1 15 -9 35 -23 48 -21 19 -24 20 -30 6z"/>
<path d="M468 1433 c7 -3 16 -2 19 1 4 3 -2 6 -13 5 -11 0 -14 -3 -6 -6z"/>
<path d="M58 1403 c7 -3 16 -2 19 1 4 3 -2 6 -13 5 -11 0 -14 -3 -6 -6z"/>
<path d="M4620 1390 c0 -5 5 -10 10 -10 6 0 10 5 10 10 0 6 -4 10 -10 10 -5 0
-10 -4 -10 -10z"/>
<path d="M4895 1389 c-10 -15 3 -25 16 -12 7 7 7 13 1 17 -6 3 -14 1 -17 -5z"/>
<path d="M11 1376 c-9 -11 -6 -12 14 -8 14 2 25 8 25 13 0 14 -26 11 -39 -5z"/>
<path d="M3880 1381 c0 -5 7 -11 14 -14 10 -4 13 -1 9 9 -6 15 -23 19 -23 5z"/>
<path d="M5587 1383 c-12 -11 -8 -23 8 -23 8 0 15 7 15 15 0 16 -12 20 -23 8z"/>
<path d="M7770 1380 c0 -5 5 -10 10 -10 6 0 10 5 10 10 0 6 -4 10 -10 10 -5 0
-10 -4 -10 -10z"/>
<path d="M100 1371 c0 -8 8 -10 20 -6 15 5 18 3 14 -9 -5 -12 1 -16 24 -16 29
0 50 15 38 27 -3 3 -25 8 -51 10 -31 4 -45 2 -45 -6z"/>
<path d="M4487 1363 c-9 -2 -15 -8 -12 -13 3 -5 -5 -18 -17 -30 -17 -15 -24
-37 -29 -88 -4 -37 -9 -92 -13 -122 l-6 -55 18 50 c9 28 25 64 35 82 9 18 17
42 17 55 0 13 9 34 20 48 19 24 28 81 13 79 -5 -1 -16 -3 -26 -6z"/>
<path d="M4620 1350 c0 -12 -8 -33 -17 -47 -12 -17 -14 -28 -6 -30 18 -6 -11
-87 -33 -92 -41 -7 -65 -45 -89 -138 -30 -112 -35 -174 -21 -243 8 -36 14 -53
15 -39 1 31 8 39 27 32 10 -4 11 -9 5 -17 -7 -8 -5 -22 5 -41 8 -16 12 -35 9
-42 -4 -11 1 -13 18 -7 37 12 48 35 43 86 -3 26 -1 50 5 53 5 4 9 -2 9 -12 1
-15 2 -16 9 -3 16 27 33 162 27 207 -3 26 -2 42 3 38 5 -3 12 -1 15 4 4 5 -3
12 -14 16 -11 3 -20 14 -20 23 0 15 2 15 10 2 9 -13 11 -13 20 0 14 23 24 104
13 107 -5 2 -9 38 -7 83 2 64 -1 80 -12 80 -8 0 -14 -9 -14 -20z"/>
<path d="M1530 1351 c0 -4 -11 -6 -25 -3 -13 2 -33 1 -42 -3 -10 -5 -25 -9
-33 -9 -8 -1 -21 -13 -28 -28 -7 -16 -18 -28 -23 -28 -6 0 -7 -4 -4 -10 12
-19 76 -10 121 16 55 32 82 74 49 74 -8 0 -15 -4 -15 -9z"/>
<path d="M2760 1333 c0 -62 49 -83 76 -32 8 17 14 32 12 32 -2 1 -13 7 -25 14
-17 10 -23 10 -26 0 -4 -9 -6 -9 -6 1 -2 26 -31 12 -31 -15z m65 -13 c3 -5 2
-10 -4 -10 -5 0 -13 5 -16 10 -3 6 -2 10 4 10 5 0 13 -4 16 -10z"/>
<path d="M5345 1330 c-3 -5 -1 -10 4 -10 6 0 11 5 11 10 0 6 -2 10 -4 10 -3 0
-8 -4 -11 -10z"/>
<path d="M5610 1330 c0 -5 5 -10 10 -10 6 0 10 5 10 10 0 6 -4 10 -10 10 -5 0
-10 -4 -10 -10z"/>
<path d="M3971 1296 c-1 -14 -4 -16 -14 -7 -18 14 -40 -10 -56 -60 -10 -31
-15 -35 -36 -31 -23 4 -25 1 -25 -32 0 -21 -4 -35 -9 -32 -5 4 -21 2 -35 -4
-21 -8 -26 -7 -26 6 0 8 -7 17 -15 20 -8 4 -12 11 -8 17 3 6 -6 2 -20 -9 -15
-10 -27 -22 -27 -26 0 -5 -6 -8 -14 -8 -10 0 -16 -19 -21 -62 -8 -65 -31 -127
-62 -166 -60 -77 -67 -83 -87 -80 -17 2 -20 9 -18 36 2 18 -2 40 -8 48 -19 22
-49 17 -55 -8 -9 -39 -23 -203 -18 -211 2 -4 6 -35 9 -70 3 -34 9 -76 13 -94
6 -22 6 -33 -2 -36 -14 -4 -13 -98 2 -125 12 -23 41 -30 41 -11 0 5 5 7 10 4
14 -9 13 8 -2 23 -9 9 -9 12 1 12 7 0 9 5 5 12 -4 7 -3 8 5 4 6 -4 8 -12 5
-18 -9 -14 266 -4 294 11 54 29 102 136 102 229 0 53 1 54 25 50 14 -3 29 0
34 6 24 29 59 338 48 431 -4 39 -8 79 -8 90 0 27 -27 115 -28 91z"/>
<path d="M6375 1300 c-19 -8 -19 -9 3 -9 12 -1 22 4 22 9 0 6 -1 10 -2 9 -2 0
-12 -4 -23 -9z"/>
<path d="M5517 1263 c-4 -3 -7 -11 -7 -17 0 -6 5 -5 12 2 6 6 9 14 7 17 -3 3
-9 2 -12 -2z"/>
<path d="M25 1240 c-3 -6 1 -13 10 -16 19 -8 30 0 20 15 -8 14 -22 14 -30 1z"/>
<path d="M4847 1188 c-3 -18 -1 -37 4 -42 5 -6 9 0 9 16 0 15 3 33 6 42 3 9 2
16 -4 16 -5 0 -12 -15 -15 -32z"/>
<path d="M7235 1190 c-3 -5 1 -10 9 -10 9 0 16 5 16 10 0 6 -4 10 -9 10 -6 0
-13 -4 -16 -10z"/>
<path d="M6713 1169 c-51 -15 -48 -18 79 -80 10 -5 27 -9 38 -9 13 0 20 -7 20
-19 0 -11 5 -23 10 -26 25 -15 -2 90 -31 121 -24 26 -59 30 -116 13z"/>
<path d="M445 1160 c27 -12 43 -12 25 0 -8 5 -22 9 -30 9 -10 0 -8 -3 5 -9z"/>
<path d="M420 1140 c0 -5 5 -10 10 -10 19 0 10 -29 -20 -58 -16 -17 -30 -38
-30 -47 0 -11 -5 -15 -15 -11 -18 7 -39 -29 -32 -55 5 -18 4 -18 -25 -2 -29
18 -29 18 -48 -7 -11 -14 -18 -32 -17 -40 1 -11 -6 -14 -25 -12 -20 2 -28 -2
-28 -13 0 -8 -7 -15 -15 -15 -8 0 -15 -4 -15 -9 0 -17 20 -23 35 -11 19 16 45
-9 45 -44 0 -14 4 -26 9 -26 5 0 16 -6 23 -13 7 -7 44 -30 82 -51 56 -30 76
-36 103 -31 24 4 33 2 33 -7 0 -23 -17 -41 -31 -32 -10 6 -233 9 -431 5 l-28
-1 0 -200 c0 -110 3 -200 6 -200 4 0 12 7 19 17 10 13 17 14 45 4 28 -9 36 -8
51 5 17 16 20 15 38 -7 18 -23 18 -25 3 -44 -43 -50 -52 -58 -52 -47 0 6 4 13
10 17 5 3 7 12 4 20 -5 12 -12 11 -41 -5 -38 -20 -53 -19 -53 6 0 8 -7 14 -15
14 -12 0 -15 -19 -15 -114 l0 -114 426 -1 c405 -2 427 -1 442 17 10 10 29 22
44 25 15 4 34 14 42 23 9 8 21 12 27 8 6 -3 14 -2 18 4 4 6 36 26 71 44 42 22
64 40 66 53 2 11 8 21 13 23 6 2 11 10 11 18 0 8 5 14 10 14 6 0 10 9 10 20 0
11 6 20 13 20 6 0 1 6 -12 13 -33 17 -29 31 14 41 l36 8 -27 14 c-22 12 -29
12 -36 2 -5 -8 -11 -9 -15 -3 -8 10 -63 38 -95 48 -9 3 -18 1 -20 -5 -3 -7
-16 -5 -37 7 -19 9 -56 23 -83 32 -36 10 -48 18 -44 29 6 16 -9 20 -19 4 -8
-13 -45 21 -45 42 0 10 15 25 33 35 29 16 30 18 10 21 -12 2 -33 -4 -46 -13
-18 -12 -27 -13 -32 -5 -4 7 -32 27 -62 47 -30 19 -63 43 -74 54 -10 10 -23
19 -29 19 -5 0 -2 15 7 33 40 79 40 79 17 101 -14 15 -14 17 0 22 9 3 16 12
16 20 0 10 16 14 63 15 87 2 96 0 146 -23 35 -17 40 -23 27 -30 -28 -16 -19
-45 15 -52 60 -12 101 -6 163 23 103 48 126 54 187 54 32 0 59 4 59 9 0 4 9 8
20 8 11 0 20 5 20 10 0 6 -7 10 -15 10 -8 0 -15 5 -15 10 0 6 9 10 21 10 14 0
19 5 16 14 -8 21 17 50 37 43 10 -4 37 -2 62 4 32 8 44 16 44 30 0 11 7 17 18
17 28 -2 102 22 102 32 0 6 -12 10 -26 10 -38 0 -68 18 -55 34 8 10 5 16 -13
24 -43 19 -95 25 -111 12 -12 -10 -18 -10 -29 0 -10 8 -20 9 -32 2 -11 -6 -27
-6 -40 -1 l-23 8 21 -34 c18 -31 18 -36 4 -41 -9 -3 -16 -14 -16 -24 0 -11 -4
-21 -9 -24 -5 -3 -7 -16 -4 -29 5 -18 3 -20 -8 -9 -21 19 -49 15 -49 -8 0 -23
-29 -27 -48 -8 -9 9 -12 9 -12 0 0 -7 6 -12 13 -12 7 -1 4 -7 -7 -15 -10 -8
-23 -12 -27 -9 -5 3 -9 0 -9 -5 0 -6 -7 -11 -16 -11 -10 0 -14 5 -10 15 4 10
-2 19 -17 25 -12 5 -16 9 -9 9 7 1 10 6 7 11 -9 14 -42 13 -47 -2 -3 -7 -12
-9 -22 -5 -9 4 -14 11 -11 17 3 5 0 10 -8 10 -22 0 -47 34 -47 63 0 14 -5 29
-11 33 -8 4 -7 9 2 15 11 7 10 9 -3 9 -9 0 -20 -5 -24 -11 -4 -7 -15 -2 -29
15 -24 28 -41 33 -48 14 -3 -9 -8 -10 -18 -3 -9 7 -57 8 -129 5 -67 -3 -123
-2 -135 4 -11 5 -37 9 -58 9 -20 -1 -35 3 -32 7 3 5 -3 14 -14 19 -25 14 -41
14 -41 1z m670 -275 c11 -13 8 -15 -13 -15 -19 0 -25 4 -21 15 4 8 10 15 14
15 4 0 13 -7 20 -15z m65 -35 c-3 -5 -11 -10 -16 -10 -6 0 -7 5 -4 10 3 6 11
10 16 10 6 0 7 -4 4 -10z m-1085 -214 c0 -11 -19 -15 -25 -6 -3 5 1 10 9 10 9
0 16 -2 16 -4z m234 -71 c-4 -8 -10 -12 -15 -9 -11 6 -2 24 11 24 5 0 7 -7 4
-15z m465 -54 c-15 -5 -22 6 -14 19 6 9 10 9 16 -1 5 -8 4 -15 -2 -18z m-559
-3 c-1 -15 -24 -48 -34 -48 -8 0 -8 45 1 53 11 12 33 8 33 -5z m-160 -28 c17
-17 18 -21 6 -26 -21 -8 -36 3 -36 27 0 24 5 24 30 -1z m566 3 c-4 -25 -26
-28 -26 -4 0 12 6 21 14 21 8 0 13 -8 12 -17z m99 7 c3 -5 1 -10 -4 -10 -6 0
-11 5 -11 10 0 6 2 10 4 10 3 0 8 -4 11 -10z m78 -48 c-18 -5 -27 3 -18 17 4
7 10 7 20 -2 11 -10 11 -13 -2 -15z m-88 -32 c-3 -5 -10 -10 -16 -10 -5 0 -9
5 -9 10 0 6 7 10 16 10 8 0 12 -4 9 -10z m134 -43 c1 -5 -3 -5 -9 -2 -5 3 -10
16 -9 28 0 21 1 21 9 2 5 -11 9 -24 9 -28z m-126 9 c4 -10 1 -13 -9 -9 -15 6
-19 23 -5 23 5 0 11 -7 14 -14z m-423 -10 c0 -3 -4 -8 -10 -11 -5 -3 -10 -1
-10 4 0 6 5 11 10 11 6 0 10 -2 10 -4z m460 -62 c0 -8 -4 -14 -10 -14 -5 0
-10 9 -10 21 0 11 5 17 10 14 6 -3 10 -13 10 -21z m-430 -60 c0 -16 -16 -19
-25 -4 -8 13 4 32 16 25 5 -4 9 -13 9 -21z m-43 -69 c9 -25 -2 -27 -22 -5 -17
18 -17 20 -1 20 9 0 19 -7 23 -15z m-76 -55 c5 0 9 -5 9 -11 0 -15 -43 -7 -48
10 -3 10 0 12 12 8 10 -4 22 -7 27 -7z m-71 -30 c0 -11 -4 -20 -8 -20 -4 0 -8
9 -9 20 -1 11 2 20 8 20 5 0 9 -9 9 -20z m690 -9 c0 -10 -24 -21 -46 -21 -17
0 -18 16 -1 34 12 14 47 4 47 -13z"/>
<path d="M8225 1139 c-11 -17 1 -21 15 -4 8 9 8 15 2 15 -6 0 -14 -5 -17 -11z"/>
<path d="M1580 1120 c0 -11 48 -25 56 -17 4 3 3 10 -1 16 -8 14 -55 14 -55 1z"/>
<path d="M6500 1086 c0 -23 20 -69 26 -63 9 9 -6 77 -16 77 -6 0 -10 -6 -10
-14z"/>
<path d="M6720 1089 c0 -24 16 -41 35 -37 14 2 13 7 -9 27 -18 17 -26 20 -26
10z"/>
<path d="M7086 1092 c6 -4 13 -14 16 -22 3 -10 6 -8 10 8 5 18 2 22 -15 22
-13 0 -17 -3 -11 -8z"/>
<path d="M1178 1064 c-44 -29 -47 -34 -14 -34 26 0 80 42 69 53 -9 10 -14 8
-55 -19z"/>
<path d="M1733 1078 c16 -10 77 -10 77 0 0 4 -20 7 -44 7 -24 0 -39 -3 -33 -7z"/>
<path d="M8005 1060 c-3 -5 -2 -16 2 -24 6 -12 10 -10 20 10 9 19 8 24 -2 24
-8 0 -17 -4 -20 -10z"/>
<path d="M4810 1018 c0 -23 -6 -49 -13 -57 -22 -26 -84 -172 -98 -230 -12 -48
-12 -54 4 -66 18 -13 13 -27 -7 -19 -15 6 -15 -23 0 -48 6 -12 14 -14 24 -8
13 8 12 10 -3 10 -10 0 -16 4 -12 10 3 5 12 7 20 3 8 -3 15 0 15 6 0 6 -4 11
-10 11 -5 0 -8 17 -6 38 2 20 2 31 -1 25 -2 -7 -9 -13 -15 -13 -7 0 -6 5 2 14
6 8 18 12 26 9 18 -7 18 11 1 29 -11 10 -11 20 -3 46 7 18 15 30 19 25 5 -4 5
0 2 9 -4 10 5 36 20 62 32 55 39 59 19 10 -9 -21 -12 -40 -7 -43 4 -3 9 -15
11 -26 5 -34 11 -45 23 -45 8 0 10 13 6 40 -3 22 -1 40 3 40 5 0 11 19 15 43
3 23 9 50 11 59 4 14 1 16 -13 11 -17 -6 -17 -5 1 15 11 12 14 22 8 22 -6 0
-13 14 -17 30 -10 44 -25 37 -25 -12z"/>
<path d="M6817 1043 c-2 -4 -1 -17 3 -27 6 -19 7 -19 14 -1 7 19 -8 44 -17 28z"/>
<path d="M8050 1034 c0 -14 3 -14 15 -4 8 7 15 14 15 16 0 2 -7 4 -15 4 -8 0
-15 -7 -15 -16z"/>
<path d="M2051 1021 c-1 -22 -2 -23 -13 -8 -22 29 -40 4 -45 -62 -6 -73 13
-141 60 -213 41 -62 82 -82 152 -73 51 6 110 34 74 35 -16 0 -32 25 -45 69 -6
22 -8 23 -19 8 -15 -21 -34 -22 -41 -2 -4 8 -10 12 -15 9 -5 -3 -9 1 -9 9 0 8
7 17 15 21 23 8 18 23 -12 38 -21 10 -27 20 -25 36 2 13 -1 29 -6 35 -5 7 -10
27 -10 44 -1 41 -8 53 -32 53 -10 0 -21 6 -23 13 -3 6 -6 1 -6 -12z"/>
<path d="M4402 1015 c0 -16 2 -22 5 -12 2 9 2 23 0 30 -3 6 -5 -1 -5 -18z"/>
<path d="M6610 1010 c0 -13 -4 -19 -11 -14 -6 3 -3 -6 6 -20 10 -15 21 -44 25
-66 6 -31 4 -37 -8 -33 -9 4 -13 1 -10 -7 6 -18 20 -22 36 -11 12 7 11 21 -3
85 -17 74 -35 109 -35 66z"/>
<path d="M6520 978 c0 -8 7 -23 15 -34 15 -18 15 -18 13 10 -3 29 -28 50 -28
24z"/>
<path d="M1890 955 c-7 -8 -21 -15 -31 -15 -11 0 -19 -5 -19 -11 0 -20 53 -5
61 19 10 26 6 28 -11 7z"/>
<path d="M1135 950 c3 -5 11 -10 16 -10 6 0 7 5 4 10 -3 6 -11 10 -16 10 -6 0
-7 -4 -4 -10z"/>
<path d="M0 915 c0 -29 -1 -29 37 -14 27 10 27 11 9 25 -29 21 -46 17 -46 -11z"/>
<path d="M5395 930 c-3 -5 -4 -10 -1 -10 3 0 -8 -25 -25 -55 -17 -31 -29 -63
-27 -73 4 -18 38 42 62 111 12 33 6 52 -9 27z"/>
<path d="M2325 920 c3 -5 8 -10 11 -10 2 0 4 5 4 10 0 6 -5 10 -11 10 -5 0 -7
-4 -4 -10z"/>
<path d="M6680 911 c0 -11 4 -22 9 -25 5 -3 8 5 7 19 -1 29 -16 34 -16 6z"/>
<path d="M6760 904 c0 -26 29 -122 30 -100 0 6 7 1 15 -10 15 -18 16 -17 9 15
-3 19 -17 54 -30 79 -23 43 -24 43 -24 16z"/>
<path d="M6566 912 c-7 -11 -1 -43 12 -68 6 -11 18 -39 27 -64 10 -25 22 -55
27 -67 6 -11 8 -25 5 -30 -3 -4 2 -17 10 -28 14 -18 14 -17 8 25 -4 25 -18 72
-31 105 -13 33 -27 75 -30 93 -7 34 -19 48 -28 34z"/>
<path d="M7237 913 c-4 -3 -7 -13 -7 -22 1 -13 3 -13 11 2 11 19 8 33 -4 20z"/>
<path d="M2921 901 c-7 -5 -12 -14 -10 -20 3 -6 9 -7 18 -2 7 5 12 14 10 20
-3 6 -9 7 -18 2z"/>
<path d="M2515 890 c3 -5 8 -10 11 -10 2 0 4 5 4 10 0 6 -5 10 -11 10 -5 0 -7
-4 -4 -10z"/>
<path d="M7066 877 c3 -10 9 -15 12 -12 3 3 0 11 -7 18 -10 9 -11 8 -5 -6z"/>
<path d="M2946 858 c-11 -16 -18 -18 -28 -10 -17 13 -48 -8 -48 -32 0 -13 -7
-17 -28 -15 -15 2 -33 0 -40 -4 -6 -5 -12 -4 -12 2 0 6 -7 8 -15 5 -22 -9 -19
-102 5 -166 29 -76 56 -87 110 -42 53 45 100 165 100 254 0 36 -22 40 -44 8z
m-36 -54 c0 -8 -4 -14 -10 -14 -5 0 -10 9 -10 21 0 11 5 17 10 14 6 -3 10 -13
10 -21z"/>
<path d="M6836 853 c10 -40 14 -41 14 -5 0 18 -5 32 -10 32 -6 0 -8 -11 -4
-27z"/>
<path d="M6312 840 c0 -14 2 -19 5 -12 2 6 2 18 0 25 -3 6 -5 1 -5 -13z"/>
<path d="M6496 821 c-4 -7 -5 -15 -2 -18 9 -9 19 4 14 18 -4 11 -6 11 -12 0z"/>
<path d="M1340 809 c0 -5 5 -7 10 -4 6 3 10 8 10 11 0 2 -4 4 -10 4 -5 0 -10
-5 -10 -11z"/>
<path d="M6276 801 c-8 -12 3 -41 15 -41 5 0 9 11 9 25 0 25 -14 34 -24 16z"/>
<path d="M7368 782 c-3 -11 1 -30 8 -43 7 -13 13 -34 14 -45 0 -25 25 -50 34
-35 4 5 2 12 -4 16 -5 3 -10 15 -10 26 0 10 -4 19 -8 19 -7 0 -12 19 -15 63
-2 22 -13 22 -19 -1z"/>
<path d="M5323 750 c-9 -13 -9 -21 -2 -26 13 -7 15 -5 23 24 9 27 -5 29 -21 2z"/>
<path d="M6834 740 c2 -19 9 -51 14 -70 l10 -35 1 45 c0 25 -6 56 -15 70 l-15
25 5 -35z"/>
<path d="M2407 753 c-12 -12 -7 -22 8 -17 8 4 15 10 15 15 0 11 -14 12 -23 2z"/>
<path d="M6480 706 c0 -31 6 -34 13 -6 3 11 1 23 -4 26 -5 3 -9 -6 -9 -20z"/>
<path d="M4815 709 c-4 -6 -5 -12 -2 -15 2 -3 7 2 10 11 7 17 1 20 -8 4z"/>
<path d="M5420 679 c0 -11 4 -18 10 -14 5 3 7 12 3 20 -7 21 -13 19 -13 -6z"/>
<path d="M7000 683 c0 -13 5 -23 10 -23 13 0 13 11 0 30 -8 12 -10 11 -10 -7z"/>
<path d="M6684 669 c4 -13 9 -55 12 -94 6 -87 35 -195 51 -195 7 0 13 -7 13
-15 0 -8 5 -15 10 -15 6 0 11 -12 11 -27 1 -21 2 -23 6 -8 3 11 9 24 14 30 14
14 11 55 -5 61 -15 6 -29 44 -16 44 4 0 10 -9 13 -20 10 -38 26 -20 33 36 5
42 3 58 -7 65 -8 5 -17 3 -21 -4 -6 -9 -12 -7 -23 7 -20 26 -27 17 -16 -22 5
-18 6 -32 2 -32 -12 0 -21 52 -22 129 -1 36 -3 58 -6 49 -6 -24 -33 -23 -33 1
0 11 -5 23 -12 27 -8 5 -9 0 -4 -17z m89 -278 c-8 -11 -33 25 -33 48 1 25 2
25 19 -9 9 -19 16 -37 14 -39z"/>
<path d="M6765 680 c-3 -5 1 -10 10 -10 9 0 13 5 10 10 -3 6 -8 10 -10 10 -2
0 -7 -4 -10 -10z"/>
<path d="M6330 660 c0 -11 4 -20 9 -20 5 0 7 9 4 20 -3 11 -7 20 -9 20 -2 0
-4 -9 -4 -20z"/>
<path d="M6496 651 c-3 -5 1 -11 9 -15 9 -3 15 0 15 9 0 16 -16 20 -24 6z"/>
<path d="M6195 640 c3 -5 11 -10 16 -10 6 0 7 5 4 10 -3 6 -11 10 -16 10 -6 0
-7 -4 -4 -10z"/>
<path d="M6565 641 c-7 -12 12 -24 25 -16 11 7 4 25 -10 25 -5 0 -11 -4 -15
-9z"/>
<path d="M6796 627 c3 -10 9 -15 12 -12 3 3 0 11 -7 18 -10 9 -11 8 -5 -6z"/>
<path d="M6330 616 c0 -7 7 -19 15 -26 8 -7 15 -24 15 -39 0 -20 -2 -23 -10
-11 -8 12 -10 11 -10 -7 0 -12 5 -25 11 -29 8 -4 8 -9 0 -17 -16 -16 -13 -37
5 -37 9 0 14 -6 12 -12 -3 -7 -9 -13 -14 -13 -25 -1 -32 -16 -24 -52 5 -21 7
-39 4 -42 -2 -2 3 -13 13 -23 20 -22 13 -32 -11 -15 -10 7 -20 28 -22 46 -2
17 -8 40 -13 50 -6 10 -7 21 -4 25 3 3 0 6 -7 6 -9 0 -12 -13 -8 -47 2 -27 1
-64 -2 -83 -7 -34 -7 -33 -10 15 -1 28 -2 56 -1 63 1 6 -3 12 -9 12 -5 0 -10
-5 -10 -12 0 -17 -36 24 -44 50 -4 12 -14 22 -22 22 -8 0 -14 5 -14 10 0 6 -5
10 -11 10 -5 0 -7 -4 -4 -10 3 -5 8 -60 11 -122 6 -145 18 -218 45 -279 l23
-49 246 0 246 0 12 47 c6 27 15 67 18 91 4 23 11 45 15 48 5 3 9 22 9 43 0 36
-2 39 -29 37 -41 -2 -49 -14 -17 -25 19 -8 26 -18 26 -36 0 -15 -4 -24 -10
-20 -6 4 -8 10 -5 15 3 5 -4 14 -15 20 -13 7 -20 7 -20 0 0 -5 -4 -10 -8 -10
-5 0 -9 19 -9 43 -3 84 -17 142 -35 141 -10 -1 -14 4 -11 12 3 8 9 14 15 14 5
0 7 4 3 10 -9 15 -35 0 -35 -22 0 -11 -4 -28 -10 -38 -13 -25 -2 -50 22 -50
16 0 18 -3 9 -14 -7 -8 -9 -25 -5 -40 5 -23 9 -25 23 -14 14 12 14 11 3 -4
-13 -16 -47 -14 -37 2 4 7 -16 20 -31 20 -2 0 -1 -14 3 -31 5 -25 3 -31 -8
-27 -8 3 -14 19 -14 39 0 29 -3 34 -22 32 -16 -2 -23 3 -23 15 -1 24 -35 62
-55 62 -16 0 -16 -2 -1 -24 9 -14 12 -27 7 -30 -13 -9 -28 15 -35 57 -4 20
-12 37 -17 37 -7 0 -8 12 -4 30 5 24 4 29 -8 24 -13 -4 -14 1 -7 29 5 23 4 39
-3 46 -9 9 -8 17 1 31 16 26 15 30 -3 30 -14 0 -19 -12 -16 -32 0 -5 -3 -8 -9
-8 -5 0 -10 9 -10 19 0 10 -7 21 -15 25 -8 3 -15 12 -15 21 0 8 -4 15 -10 15
-5 0 -10 -6 -10 -14z m67 -128 c-3 -8 -6 -5 -6 6 -1 11 2 17 5 13 3 -3 4 -12
1 -19z m-207 -68 c0 -5 -4 -10 -10 -10 -5 0 -10 5 -10 10 0 6 5 10 10 10 6 0
10 -4 10 -10z m200 -25 c0 -2 -6 -5 -13 -8 -8 -3 -14 1 -14 8 0 7 6 11 14 8 7
-3 13 -6 13 -8z m263 -40 c-3 -9 -8 -14 -10 -11 -3 3 -2 9 2 15 9 16 15 13 8
-4z m-395 -39 c3 -12 -1 -17 -10 -14 -7 3 -15 13 -16 22 -3 12 1 17 10 14 7
-3 15 -13 16 -22z m-13 -37 c11 -16 1 -19 -13 -3 -7 8 -8 14 -3 14 5 0 13 -5
16 -11z m73 -24 c-1 -14 -8 -25 -14 -25 -7 0 -9 10 -6 25 2 14 8 25 13 25 5 0
8 -11 7 -25z m-98 -25 c0 -22 -4 -40 -8 -40 -4 0 -8 18 -7 40 0 22 3 40 8 40
4 0 7 -18 7 -40z m380 -40 c0 -5 -2 -10 -4 -10 -3 0 -8 5 -11 10 -3 6 -1 10 4
10 6 0 11 -4 11 -10z m70 -7 c0 -7 -4 -13 -9 -13 -5 0 -13 6 -19 13 -8 10 -6
13 9 13 10 0 19 -6 19 -13z m67 -8 c6 -14 7 -27 2 -31 -5 -3 -9 0 -9 6 0 6 -4
9 -9 6 -11 -7 -20 14 -13 32 7 18 16 14 29 -13z m-507 -48 c0 -18 -2 -19 -10
-7 -13 20 -13 43 0 35 6 -3 10 -16 10 -28z m379 -20 c1 -5 -3 -5 -9 -2 -5 3
-10 16 -9 28 0 21 1 21 9 2 5 -11 9 -24 9 -28z m61 -1 c0 -26 -6 -18 -14 19
-5 22 -4 26 4 15 5 -8 10 -24 10 -34z m-125 -6 c-4 -6 -1 -17 5 -25 7 -9 8
-15 2 -15 -12 0 -24 29 -16 41 3 5 7 9 10 9 3 0 2 -5 -1 -10z m89 -36 c9 -22
8 -24 -9 -18 -8 4 -15 12 -15 20 0 19 16 18 24 -2z m96 -15 c0 -5 -4 -9 -10
-9 -5 0 -10 7 -10 16 0 8 5 12 10 9 6 -3 10 -10 10 -16z"/>
<path d="M4756 598 c-20 -29 -21 -49 -1 -41 9 3 14 11 12 17 -3 6 2 19 11 29
9 10 10 17 4 17 -6 0 -18 -10 -26 -22z"/>
<path d="M4838 614 c-5 -4 -8 -16 -8 -28 0 -14 3 -17 11 -9 6 6 9 19 7 28 -1
9 -6 13 -10 9z"/>
<path d="M5437 605 c-4 -8 -2 -17 3 -20 6 -4 10 3 10 14 0 25 -6 27 -13 6z"/>
<path d="M6520 593 c0 -12 5 -25 10 -28 13 -8 13 15 0 35 -8 12 -10 11 -10 -7z"/>
<path d="M4646 584 c-4 -9 -4 -19 -1 -22 2 -3 7 3 11 12 4 9 4 19 1 22 -2 3
-7 -3 -11 -12z"/>
<path d="M6750 586 c0 -9 5 -16 10 -16 6 0 10 4 10 9 0 6 -4 13 -10 16 -5 3
-10 -1 -10 -9z"/>
<path d="M5261 585 c-10 -49 -10 -65 1 -102 15 -53 33 -57 23 -5 -5 20 -11 55
-15 77 -4 22 -8 36 -9 30z"/>
<path d="M5338 535 c-3 -16 -2 -34 3 -39 14 -15 11 -23 -10 -29 -15 -4 -18
-14 -18 -61 0 -31 4 -56 10 -56 6 0 8 20 5 50 -6 59 0 69 24 38 l18 -23 0 43
c0 23 -4 42 -9 42 -6 0 -11 15 -13 33 l-3 32 -7 -30z"/>
<path d="M6585 530 c3 -5 8 -10 11 -10 2 0 4 5 4 10 0 6 -5 10 -11 10 -5 0 -7
-4 -4 -10z"/>
<path d="M4650 520 c0 -5 5 -10 10 -10 6 0 10 5 10 10 0 6 -4 10 -10 10 -5 0
-10 -4 -10 -10z"/>
<path d="M1757 513 c-4 -3 -40 -7 -79 -8 -73 -2 -108 -10 -108 -25 0 -4 9 -10
20 -13 13 -3 24 1 31 14 7 15 14 17 28 9 10 -5 21 -6 25 -3 3 3 6 -1 6 -10 0
-13 9 -17 35 -17 22 0 38 -6 41 -15 4 -8 16 -15 28 -15 27 0 53 -17 42 -27
-12 -13 -244 -14 -272 -1 -19 9 -35 7 -79 -7 -30 -11 -55 -22 -55 -25 0 -4 12
-12 26 -19 22 -10 31 -9 51 4 14 9 27 14 30 12 7 -8 -21 -47 -34 -47 -7 0 -12
-3 -11 -7 3 -12 -14 -57 -23 -64 -5 -3 29 -5 76 -5 52 0 90 -5 97 -12 26 -26
134 -6 168 31 26 27 22 57 -10 79 l-25 18 32 0 c30 0 85 24 145 64 25 17 27
16 52 -9 29 -29 34 -63 11 -71 -8 -4 -15 -12 -15 -19 0 -7 -7 -15 -15 -19 -8
-3 -15 -12 -15 -21 0 -8 7 -15 15 -15 26 0 16 -28 -22 -66 l-38 -36 30 7 c17
4 32 11 33 16 2 5 10 9 19 9 10 0 12 -6 7 -22 -3 -13 -3 -20 1 -15 10 8 45
-21 45 -38 0 -7 20 -10 58 -8 31 1 96 2 145 2 55 0 87 4 87 10 0 6 7 11 15 11
9 0 12 6 9 15 -4 10 0 15 15 15 12 0 21 4 21 10 0 5 6 7 14 4 17 -6 14 34 -5
64 -10 16 -10 23 0 35 9 12 9 16 -1 20 -10 4 -10 7 -1 14 19 13 12 73 -8 73
-9 0 -19 7 -23 15 -6 18 -47 20 -63 4 -9 -9 -8 -19 3 -40 l15 -29 -35 0 c-72
0 -114 43 -63 65 35 16 27 38 -18 47 -21 5 -42 14 -46 20 -4 6 -15 8 -25 3
-55 -21 -291 5 -332 38 -7 5 -16 7 -20 3 -4 -4 1 -14 11 -21 18 -13 18 -14 -2
-24 -17 -9 -22 -8 -32 10 -9 17 -8 23 2 30 8 5 9 9 3 9 -6 0 -14 -3 -17 -7z
m587 -109 c9 -3 14 -10 11 -15 -7 -10 -35 0 -35 12 0 11 3 11 24 3z m-594 -54
c0 -5 -7 -10 -15 -10 -8 0 -15 5 -15 10 0 6 7 10 15 10 8 0 15 -4 15 -10z
m-75 -40 c3 -5 2 -10 -4 -10 -5 0 -13 5 -16 10 -3 6 -2 10 4 10 5 0 13 -4 16
-10z"/>
<path d="M4660 455 c13 -14 28 -25 33 -25 12 0 -35 50 -47 50 -5 0 1 -11 14
-25z"/>
<path d="M6616 465 c4 -8 8 -15 10 -15 2 0 4 7 4 15 0 8 -4 15 -10 15 -5 0 -7
-7 -4 -15z"/>
<path d="M6651 464 c0 -11 3 -14 6 -6 3 7 2 16 -1 19 -3 4 -6 -2 -5 -13z"/>
<path d="M1630 420 c0 -5 9 -10 19 -10 11 0 23 5 26 10 4 6 -5 10 -19 10 -14
0 -26 -4 -26 -10z"/>
<path d="M5284 386 c2 -26 0 -44 -5 -40 -5 3 -9 -2 -9 -10 0 -10 6 -13 15 -10
17 7 21 89 5 99 -7 4 -9 -10 -6 -39z"/>
<path d="M6690 413 c0 -13 5 -23 10 -23 13 0 13 11 0 30 -8 12 -10 11 -10 -7z"/>
<path d="M4616 403 c-10 -10 -7 -121 3 -128 17 -10 29 29 24 78 -6 47 -14 63
-27 50z"/>
<path d="M4686 401 c-4 -5 -2 -12 3 -15 5 -4 12 -2 15 3 4 5 2 12 -3 15 -5 4
-12 2 -15 -3z"/>
<path d="M4730 391 c0 -5 7 -11 15 -15 8 -3 15 -1 15 3 0 5 -7 11 -15 15 -8 3
-15 1 -15 -3z"/>
<path d="M6526 382 c-9 -15 11 -62 26 -62 11 0 10 14 -1 26 -5 5 -11 18 -13
29 -3 15 -5 17 -12 7z"/>
<path d="M6695 359 c-10 -15 1 -23 20 -15 9 3 13 10 10 16 -8 13 -22 13 -30
-1z"/>
<path d="M4699 331 c8 -5 11 -16 8 -26 -4 -9 -3 -14 3 -10 17 11 11 45 -7 45
-15 0 -15 -2 -4 -9z"/>
<path d="M5298 309 c-17 -18 -17 -19 2 -19 13 0 20 7 20 20 0 24 0 24 -22 -1z"/>
<path d="M4638 264 c-11 -10 3 -34 19 -34 8 0 13 7 11 17 -3 18 -20 27 -30 17z"/>
<path d="M3458 243 c-31 -8 -21 -33 13 -33 23 0 30 4 27 17 -3 18 -15 23 -40
16z"/>
<path d="M4725 230 c-8 -12 20 -24 35 -15 6 3 8 11 5 16 -8 12 -32 12 -40 -1z"/>
<path d="M1285 180 c3 -5 10 -10 16 -10 5 0 9 5 9 10 0 6 -7 10 -16 10 -8 0
-12 -4 -9 -10z"/>
<path d="M1340 170 c0 -5 9 -10 19 -10 11 0 23 5 26 10 4 6 -5 10 -19 10 -14
0 -26 -4 -26 -10z"/>
<path d="M5495 149 c-4 -6 -5 -12 -2 -15 2 -3 7 2 10 11 7 17 1 20 -8 4z"/>
<path d="M1995 130 c5 -9 -66 -60 -83 -60 -17 0 -15 -15 3 -30 8 -7 12 -16 9
-21 -3 -5 -2 -10 3 -10 60 -10 115 3 95 23 -8 8 -8 17 -1 30 6 11 8 27 4 35
-3 9 -1 20 6 23 6 4 0 9 -15 12 -14 3 -23 2 -21 -2z m25 -34 c0 -3 -4 -8 -10
-11 -5 -3 -10 -1 -10 4 0 6 5 11 10 11 6 0 10 -2 10 -4z"/>
<path d="M3480 30 c0 -5 5 -10 10 -10 6 0 10 5 10 10 0 6 -4 10 -10 10 -5 0
-10 -4 -10 -10z"/>
<path d="M3208 3 c12 -2 30 -2 40 0 9 3 -1 5 -23 4 -22 0 -30 -2 -17 -4z"/>
</g>
</svg>
