<?xml version="1.0" standalone="no"?>
<!DOCTYPE svg PUBLIC "-//W3C//DTD SVG 20010904//EN"
 "http://www.w3.org/TR/2001/REC-SVG-20010904/DTD/svg10.dtd">
<svg version="1.0" xmlns="http://www.w3.org/2000/svg"
 width="1080.000000pt" height="400.000000pt" viewBox="0 0 1080.000000 400.000000"
 preserveAspectRatio="xMidYMid meet">

<g transform="translate(0.000000,400.000000) scale(0.100000,-0.100000)"
fill="#000000" stroke="none">
<path d="M0 2516 c0 -1178 3 -1485 13 -1489 9 -4 9 -6 0 -6 -9 -1 -13 -20 -13
-61 l0 -61 38 7 c20 3 55 12 77 19 67 21 103 27 109 16 4 -6 -14 -12 -41 -16
-79 -10 -93 -15 -93 -30 0 -8 -16 -17 -43 -22 l-42 -9 -2 -71 -1 -71 26 9 c15
5 35 23 44 39 11 20 22 28 32 24 9 -3 16 -1 16 5 0 6 10 11 22 11 35 0 12 12
-27 14 -20 1 -41 -4 -46 -10 -14 -17 -50 -5 -47 15 4 22 47 43 87 42 18 0 46
6 62 14 16 9 31 15 34 15 92 -3 156 2 169 15 30 30 46 19 46 -35 l0 -49 -72
-21 c-196 -58 -237 -70 -291 -84 l-57 -17 0 -354 0 -355 3303 1 c1816 1 3290
4 3275 6 -16 2 -28 6 -28 9 0 12 41 84 48 84 4 0 18 20 31 44 22 42 24 44 50
33 14 -6 34 -18 44 -26 17 -14 17 -16 -8 -28 -14 -8 -25 -16 -25 -18 0 -12 30
-3 51 15 l24 20 -22 17 c-22 18 -21 18 60 18 58 0 90 5 106 15 22 15 27 14 69
-7 25 -13 57 -23 71 -23 14 0 38 -7 54 -14 15 -8 27 -11 27 -7 0 5 24 12 52
15 84 12 102 41 46 76 l-33 20 43 0 c31 0 49 6 65 23 23 22 77 27 77 6 0 -5 5
-9 11 -9 5 0 7 4 4 10 -4 6 17 8 57 4 35 -3 126 -7 203 -8 77 -2 152 -6 168
-11 17 -4 33 -3 42 5 12 10 15 9 15 -4 0 -9 -6 -16 -14 -16 -8 0 -17 -4 -21
-10 -3 -5 7 -5 25 1 16 6 30 18 30 26 0 12 7 14 28 9 15 -4 45 -7 67 -7 l40 0
-31 -10 c-17 -5 -37 -16 -44 -24 -10 -12 -6 -18 22 -35 l33 -20 -40 0 c-57 0
-114 -18 -127 -40 -10 -16 -14 -16 -32 -5 -30 19 -122 34 -185 29 -46 -3 -52
-2 -41 11 32 38 -72 85 -187 85 -70 0 -133 -21 -133 -44 0 -18 47 -56 69 -56
10 0 25 -6 36 -13 18 -14 89 -14 144 -1 22 5 23 3 11 -11 -12 -15 -11 -19 10
-36 14 -10 31 -19 38 -19 7 0 15 -7 18 -15 5 -12 10 -13 20 -5 8 7 30 9 56 5
50 -7 135 9 159 31 15 14 20 14 41 1 26 -17 55 -24 123 -32 27 -4 57 -11 68
-17 11 -6 17 -6 13 0 -3 5 12 12 33 16 49 7 87 37 78 60 -4 9 -24 24 -44 33
l-38 17 42 6 c39 6 73 24 73 39 0 4 -15 15 -32 24 -32 16 -30 16 77 10 124 -6
210 -30 210 -57 0 -9 5 -20 11 -24 17 -11 24 -52 9 -52 -8 0 -11 7 -8 19 4 15
-5 25 -39 43 -34 18 -58 23 -118 22 -115 -1 -172 -42 -123 -87 20 -17 103 -48
136 -49 12 -1 27 -5 34 -10 7 -5 14 -5 18 2 5 8 11 8 21 -1 10 -8 14 -8 14 0
0 7 11 9 29 6 17 -3 33 -1 36 5 3 5 0 11 -7 11 -7 1 -29 3 -48 5 -19 2 -47 3
-62 3 -16 1 -28 5 -28 10 0 13 26 32 34 24 4 -4 4 0 0 10 -3 9 -1 23 5 31 12
15 51 10 51 -6 0 -5 4 -7 9 -4 5 3 14 -1 21 -9 10 -12 10 -15 0 -15 -7 0 -1
-11 15 -26 15 -14 25 -28 21 -31 -3 -3 -1 -15 5 -26 8 -14 8 -18 0 -12 -6 3
-25 8 -42 10 -25 4 -29 2 -20 -9 9 -11 6 -16 -16 -24 l-28 -10 27 -1 c16 -1
32 7 40 18 14 20 14 20 26 0 9 -14 23 -19 57 -19 39 0 45 3 51 25 7 30 24 33
24 6 0 -11 3 -22 8 -24 13 -8 176 11 205 24 33 15 34 29 3 58 -24 22 -50 29
-120 30 -45 1 -42 10 5 20 18 3 37 14 43 24 9 15 6 22 -14 39 -15 13 -18 19
-8 15 9 -3 68 -9 130 -13 62 -3 120 -9 128 -13 8 -4 27 -6 43 -5 36 4 35 -10
-2 -26 -23 -9 -34 -9 -51 0 -18 10 -21 9 -18 -2 3 -7 16 -14 31 -16 28 -3 87
22 87 38 0 6 5 10 11 10 8 0 7 -6 -2 -16 -11 -14 -10 -19 10 -35 30 -25 93
-41 161 -42 95 0 125 22 78 57 -18 13 -19 16 -5 12 10 -3 35 -6 55 -7 33 0 35
-1 15 -11 -12 -6 -24 -17 -27 -24 -9 -23 56 -63 132 -82 68 -17 70 -19 44 -29
-21 -9 4 -11 118 -11 80 0 137 2 127 5 -9 2 -15 8 -13 11 2 4 -17 6 -42 4
l-47 -3 28 21 c15 12 27 28 27 36 0 17 1 17 36 -1 16 -8 36 -15 45 -15 24 0
54 -26 41 -34 -17 -10 -15 -26 2 -20 11 4 13 21 7 57 0 4 -8 7 -16 7 -8 0 -15
4 -15 8 0 5 -15 7 -32 4 -32 -4 -32 -3 -12 11 14 11 37 15 72 12 37 -3 52 0
56 11 8 20 22 18 47 -7 14 -14 29 -19 45 -16 31 6 31 -7 -1 -21 -21 -10 -29
-8 -55 14 -16 14 -30 21 -30 15 0 -6 9 -19 20 -28 11 -10 20 -22 20 -27 0 -5
-3 -7 -6 -3 -6 6 -34 -16 -34 -26 0 -3 19 4 42 15 24 12 54 26 68 33 17 8 24
18 23 33 -2 18 2 22 28 22 17 0 28 -4 24 -10 -3 -5 -12 -10 -20 -10 -7 0 -15
-7 -19 -15 -12 -33 102 -73 225 -79 71 -3 76 -2 72 15 -7 24 -27 40 -77 61
-59 24 -33 22 51 -5 57 -18 68 -25 55 -33 -9 -6 -13 -17 -9 -27 5 -14 30 -16
191 -17 l186 0 0 1462 1 1463 -33 538 -32 537 -225 0 -224 0 6 -38 c9 -55 42
-630 42 -732 0 -5 -382 -56 -387 -51 -9 8 -38 526 -37 646 2 76 4 62 14 -85 7
-96 15 -251 19 -345 4 -93 9 -172 11 -175 5 -8 74 0 80 10 9 15 -7 41 -31 51
-21 7 -24 15 -25 61 -1 29 -4 97 -8 151 -3 55 -2 101 2 104 5 3 18 6 30 7 87
11 149 17 192 21 28 2 59 6 70 7 17 3 21 -4 23 -34 2 -21 7 -38 11 -38 4 0 7
10 5 23 -1 12 -3 48 -3 80 -1 31 -5 57 -10 57 -4 0 -6 -11 -3 -25 3 -19 -1
-27 -19 -33 -34 -13 -290 -44 -298 -37 -3 4 -6 32 -7 63 0 31 -4 112 -9 179
-7 114 -6 121 11 126 11 3 2 5 -18 6 -30 1 -37 -3 -41 -21 l-4 -23 -2 23 c-1
21 -4 22 -116 22 l-115 0 5 -122 c7 -146 13 -201 24 -208 17 -11 23 -50 8 -56
-12 -4 -14 -42 -11 -242 3 -206 1 -229 -9 -178 -12 58 -13 59 -25 32 -6 -15
-12 -56 -12 -91 0 -61 -12 -87 -31 -68 -4 4 -9 52 -10 106 -1 54 -4 95 -7 92
-3 -3 -5 -33 -4 -66 2 -44 -1 -60 -10 -57 -13 5 -23 32 -32 89 -4 20 -15 46
-25 57 -12 15 -18 40 -20 84 -4 112 -11 74 -12 -68 -3 -258 -18 -61 -25 329
l-7 367 -409 0 c-320 0 -408 -3 -408 -12 0 -10 -2 -10 -9 0 -6 10 -16 1 -35
-33 -14 -26 -26 -52 -26 -56 0 -5 -4 -17 -8 -27 -5 -9 -20 -39 -33 -66 -18
-38 -23 -62 -21 -108 3 -51 1 -58 -15 -58 -22 0 -43 -18 -43 -38 0 -7 -7 -21
-16 -29 -12 -13 -13 -18 -3 -24 9 -5 19 4 31 31 19 41 47 69 35 34 -5 -14 0
-11 17 8 29 33 44 21 17 -13 -13 -17 -17 -37 -15 -70 l3 -47 -115 -7 c-64 -4
-117 -5 -119 -3 -2 2 -5 59 -6 126 0 67 -5 122 -10 122 -11 0 -10 4 -9 -136
l1 -111 -47 -7 c-26 -3 -70 -7 -98 -7 -48 -2 -49 -2 -16 -9 l35 -7 -37 -2
c-43 -1 -68 -10 -68 -22 0 -5 43 -9 95 -9 l95 0 1 -52 c0 -29 2 -83 5 -120 l5
-68 -45 0 c-36 0 -48 -5 -65 -27 -12 -14 -23 -24 -24 -22 -2 2 -8 16 -15 32
-10 24 -17 27 -56 27 -26 0 -48 -6 -55 -14 -24 -29 0 -176 29 -176 5 0 12 -9
15 -21 6 -19 8 -19 31 -5 28 19 47 21 42 4 -4 -12 -17 -21 -106 -73 -28 -16
-55 -39 -60 -49 -7 -17 -11 -13 -31 28 -13 26 -34 52 -47 58 -23 11 -43 76
-29 98 8 13 -32 70 -51 70 -8 0 -23 -9 -35 -21 -18 -18 -20 -28 -14 -72 4 -29
14 -58 23 -66 16 -13 16 -13 0 -8 -10 3 -20 1 -24 -5 -4 -7 -9 -6 -15 3 -6 10
-11 11 -16 3 -5 -6 -16 -13 -25 -17 -19 -7 -31 16 -17 30 6 6 11 25 12 44 1
19 6 39 10 46 4 6 3 14 -3 18 -5 3 -10 3 -10 -1 0 -3 -7 -1 -15 6 -9 7 -19 10
-22 6 -4 -4 -2 -10 4 -14 7 -5 7 -11 -3 -20 -12 -11 -15 -10 -20 2 -3 9 -12
16 -20 16 -8 0 -14 6 -15 13 -1 22 -18 -27 -18 -56 -1 -15 -8 -41 -16 -57 -10
-19 -11 -30 -5 -30 6 0 8 -5 4 -11 -5 -8 -8 -8 -14 0 -20 33 -70 -54 -70 -121
0 -11 -7 -32 -15 -47 -8 -16 -17 -47 -21 -70 l-7 -41 -61 1 c-33 1 -54 3 -45
6 10 2 20 14 24 26 l8 22 4 -22 c5 -26 4 -26 37 -13 22 8 26 16 26 49 0 44
-13 59 -35 41 -11 -9 -14 -6 -18 12 -3 18 -5 16 -6 -8 -2 -46 -58 -113 -95
-113 -23 -1 -27 -5 -23 -21 3 -11 2 -20 -3 -20 -11 0 -18 89 -27 335 -7 200
-8 212 -15 130 -4 -49 -8 -165 -9 -256 l-2 -167 -45 -6 c-25 -3 -73 -6 -108
-6 -57 0 -64 -2 -64 -20 0 -16 9 -20 58 -23 31 -2 8 -4 -51 -3 l-109 1 6 -27
6 -28 -78 1 c-64 0 -73 2 -54 11 18 9 22 17 18 37 -3 14 -9 193 -13 396 -4
204 -7 375 -8 380 0 10 65 16 310 31 123 7 142 19 40 24 -40 2 -40 2 -10 11
17 5 -60 6 -181 3 l-211 -5 -6 182 c-4 100 -7 223 -8 273 0 50 -4 100 -9 111
-12 28 -12 18 5 -705 8 -344 15 -633 15 -644 0 -12 5 -16 16 -12 10 4 14 1 12
-6 -3 -7 -15 -13 -29 -13 -31 0 -35 -24 -13 -72 22 -46 32 -54 61 -46 35 8 27
-5 -11 -21 -23 -9 -55 -12 -100 -9 -74 6 -88 20 -23 25 41 3 42 4 45 41 l3 37
-40 0 -41 0 0 53 c0 179 -14 801 -24 1067 l-11 315 -647 2 -646 3 -10 -48 c-6
-26 -14 -65 -18 -87 -8 -44 -30 -85 -46 -85 -6 0 -5 6 2 14 9 11 9 19 0 33
-11 17 -11 17 -6 0 4 -12 2 -17 -6 -14 -7 2 -12 10 -11 16 2 6 -2 11 -7 11 -6
0 -10 -7 -10 -15 0 -19 -19 -19 -26 0 -10 25 -25 6 -18 -23 7 -26 7 -27 -13
-9 -20 17 -21 17 -27 -8 -4 -15 -2 -33 4 -40 8 -9 8 -15 0 -20 -13 -8 -18 8
-22 60 -2 26 -8 39 -15 38 -20 -4 -15 15 5 20 14 4 14 6 -5 12 -14 4 -23 16
-24 29 0 11 -3 15 -6 9 -2 -7 -3 -15 -1 -18 2 -2 -7 -12 -19 -20 -15 -11 -23
-26 -23 -45 0 -16 -4 -32 -10 -35 -6 -4 -10 8 -10 29 0 19 5 36 10 38 18 6 0
66 -21 71 -11 3 -16 1 -13 -4 8 -14 -6 -51 -19 -46 -7 2 -11 17 -9 35 3 24 0
32 -13 32 -12 0 -14 -4 -6 -19 10 -18 6 -31 -11 -31 -4 0 -8 10 -8 23 0 18 -2
19 -10 7 -9 -13 -10 -13 -10 1 0 8 4 19 10 25 11 11 -22 11 -57 -1 -23 -7 -32
-25 -13 -25 6 0 10 -4 10 -10 0 -19 -17 -10 -28 16 -7 14 -17 22 -22 19 -6 -4
-8 -10 -6 -14 3 -4 -2 -8 -10 -8 -8 0 -13 6 -10 14 4 9 -5 16 -24 20 -23 4
-28 9 -20 18 8 9 6 15 -7 21 -10 5 -1046 10 -2315 12 l-2298 2 0 -1484z m6445
1466 c21 -15 31 -49 30 -100 -2 -62 -8 -71 -34 -48 -28 25 -34 63 -16 98 14
28 13 32 -3 44 -14 11 -14 13 -2 14 8 0 20 -4 25 -8z m-798 -44 c-3 -8 -6 -5
-6 6 -1 11 2 17 5 13 3 -3 4 -12 1 -19z m28 -71 c4 -17 9 -40 11 -49 6 -19
-53 -34 -176 -43 -176 -13 -183 -15 -166 -34 22 -24 20 -32 -6 -27 -13 3 -26
5 -30 5 -5 1 -8 10 -8 21 0 11 -7 20 -15 20 -9 0 -12 -6 -8 -16 4 -11 2 -15
-6 -13 -7 3 -12 8 -11 13 5 24 -67 35 -88 14 -9 -9 -9 -5 0 15 20 43 68 52
296 52 l203 0 -6 25 c-3 14 -8 33 -12 44 -3 11 -1 16 5 12 6 -3 13 -21 17 -39z
m730 -7 c4 -6 -9 -10 -32 -9 -38 1 -38 1 -8 9 17 4 31 8 32 9 1 0 5 -3 8 -9z
m2265 -45 c-27 -44 -46 -46 -24 -2 23 45 37 62 42 48 2 -6 -6 -27 -18 -46z
m-4006 10 c-4 -8 -11 -15 -16 -15 -6 0 -5 6 2 15 7 8 14 15 16 15 2 0 1 -7 -2
-15z m-131 -9 c29 -8 71 -20 95 -26 l42 -11 -1 -102 c-1 -56 -4 -140 -7 -187
l-7 -85 -97 -1 -98 0 0 213 c0 148 3 213 11 213 6 0 34 -7 62 -14z m158 5 c-9
-6 -11 -16 -7 -27 6 -15 4 -16 -5 -7 -14 14 -5 43 13 43 10 0 9 -3 -1 -9z
m-1391 -26 c-10 -12 -10 -18 0 -30 14 -16 3 -20 -18 -6 -12 7 -12 12 -1 30 8
11 18 21 23 21 4 0 3 -7 -4 -15z m5320 10 c0 -3 -4 -13 -10 -23 -5 -9 -17 -34
-26 -54 -14 -34 -34 -51 -34 -31 0 15 54 113 62 113 4 0 8 -2 8 -5z m-3476
-44 c-2 -3 -12 3 -22 13 -16 17 -16 18 5 5 12 -7 20 -15 17 -18z m-224 -16 c0
-8 -2 -15 -4 -15 -2 0 -6 7 -10 15 -3 8 -1 15 4 15 6 0 10 -7 10 -15z m271
-12 c-12 -20 -14 -14 -5 12 4 9 9 14 11 11 3 -2 0 -13 -6 -23z m-386 -3 c3 -5
1 -10 -4 -10 -6 0 -11 5 -11 10 0 6 2 10 4 10 3 0 8 -4 11 -10z m-1498 -22
c-3 -8 -6 -5 -6 6 -1 11 2 17 5 13 3 -3 4 -12 1 -19z m-114 -8 c3 -11 1 -18
-4 -14 -5 3 -9 12 -9 20 0 20 7 17 13 -6z m62 -17 c4 -14 2 -23 -4 -23 -6 0
-11 6 -11 14 0 8 -3 23 -6 33 -5 12 -4 15 3 8 6 -5 14 -20 18 -32z m1815 28
c0 -6 -4 -13 -10 -16 -5 -3 -10 1 -10 9 0 9 5 16 10 16 6 0 10 -4 10 -9z m207
-28 c-3 -10 -5 -4 -5 12 0 17 2 24 5 18 2 -7 2 -21 0 -30z m-2107 -8 c0 -6 -8
-20 -19 -29 -18 -16 -19 -16 -25 9 -9 34 10 61 30 44 8 -6 14 -17 14 -24z
m1852 13 c-7 -7 -12 -8 -12 -2 0 6 3 14 7 17 3 4 9 5 12 2 2 -3 -1 -11 -7 -17z
m-2005 -13 c-15 -16 -19 -13 -11 9 3 9 10 13 15 10 5 -3 3 -11 -4 -19z m5576
-40 c-24 -39 -43 -56 -43 -40 0 14 64 107 68 97 2 -7 -9 -32 -25 -57z m-5502
19 c5 -7 3 -11 -6 -11 -10 0 -15 10 -14 26 0 16 3 20 6 11 3 -8 10 -20 14 -26z
m255 -19 c-6 -17 -36 -9 -36 10 0 7 3 21 6 30 6 14 8 13 21 -5 8 -12 12 -27 9
-35z m1984 33 c0 -21 -17 -41 -28 -34 -14 8 -3 46 14 46 8 0 14 -6 14 -12z
m27 -10 c-3 -8 -6 -5 -6 6 -1 11 2 17 5 13 3 -3 4 -12 1 -19z m-2158 -48 l0
-35 -15 34 c-16 38 -11 78 6 51 6 -8 10 -31 9 -50z m1498 23 c-3 -10 -5 -4 -5
12 0 17 2 24 5 18 2 -7 2 -21 0 -30z m382 20 c0 -10 3 -162 6 -338 4 -186 10
-324 16 -331 7 -8 6 -14 -1 -19 -5 -3 -10 -1 -10 6 0 7 -3 10 -6 7 -3 -4 -1
-16 6 -27 15 -29 -2 -27 -39 5 -29 24 -30 27 -14 42 15 16 14 17 -13 25 l-30
9 11 53 c6 30 13 57 17 61 9 8 1 24 -12 24 -5 0 -11 -8 -13 -17 -4 -14 -5 -12
-6 5 0 12 3 22 8 22 5 0 16 3 25 6 13 5 16 -2 16 -38 0 -25 -3 -48 -7 -51 -10
-11 -13 -57 -3 -57 5 0 11 26 14 58 4 31 10 69 15 84 6 17 5 31 -3 38 -8 9 -8
14 2 17 16 6 16 105 0 121 -9 9 -9 12 1 12 9 0 12 28 10 115 -2 90 -5 115 -16
115 -11 0 -11 4 -3 21 7 11 9 27 6 35 -3 8 1 14 9 14 7 0 14 -8 14 -17z m108
11 c-3 -3 -12 -4 -19 -1 -8 3 -5 6 6 6 11 1 17 -2 13 -5z m3503 -42 c0 -20 -5
-44 -10 -52 -8 -12 -10 -11 -10 8 0 12 -4 22 -9 22 -10 0 -24 -38 -22 -62 1
-9 -3 -19 -9 -23 -5 -3 -10 2 -10 12 -1 14 -8 10 -30 -17 -17 -19 -30 -42 -30
-52 0 -9 -4 -20 -10 -23 -5 -3 -10 -16 -10 -28 0 -12 4 -17 8 -11 14 19 82 66
82 56 0 -6 3 -19 6 -29 4 -11 3 -14 -3 -6 -11 16 -75 -41 -67 -61 3 -9 -3 -20
-15 -28 -12 -7 -21 -15 -21 -19 0 -11 38 -3 63 14 32 21 37 21 37 3 0 -8 -16
-24 -35 -36 -32 -20 -34 -24 -34 -73 1 -29 1 -90 0 -137 0 -47 2 -110 5 -142
7 -61 0 -55 122 -111 22 -10 30 -27 12 -27 -5 0 -33 9 -62 21 -29 12 -64 22
-77 24 -37 4 -57 45 -21 45 16 0 20 7 20 30 0 27 -3 30 -32 31 -18 0 -27 3
-20 6 16 6 16 127 0 206 -10 48 -19 65 -45 86 -18 14 -34 35 -34 46 -1 17 -2
18 -6 2 -2 -10 -10 -16 -16 -15 -15 3 -73 -28 -84 -44 -4 -7 -10 -33 -13 -58
-4 -29 -8 8 -13 108 -4 84 -5 157 -2 163 4 5 54 8 112 8 l106 -2 31 35 c74 83
126 151 126 165 0 8 5 11 10 8 6 -3 10 -23 10 -43z m-3436 28 l26 -10 0 -242
c0 -161 4 -238 10 -228 5 8 10 32 10 53 0 31 4 40 20 44 20 5 20 7 4 24 -16
18 -16 19 9 19 15 0 27 4 27 10 0 5 7 7 15 4 9 -4 14 -17 14 -33 -1 -14 4 -84
10 -156 7 -71 11 -188 9 -260 -3 -120 -1 -131 17 -148 20 -17 19 -17 -8 -7
-33 12 -61 1 -77 -30 -10 -19 -4 -63 17 -116 3 -9 -2 -14 -16 -14 -15 0 -26
-10 -36 -32 -7 -18 -11 -37 -8 -42 4 -5 1 -6 -5 -2 -7 4 -12 15 -12 24 0 24
-19 2 -29 -36 -7 -21 -6 -32 2 -36 7 -2 4 -5 -6 -5 -16 -1 -17 -6 -12 -33 4
-18 13 -48 21 -65 7 -18 9 -33 5 -33 -5 0 -18 28 -31 63 -22 62 -40 93 -40 68
0 -8 -10 -5 -30 9 -34 24 -41 13 -10 -15 11 -10 20 -23 20 -28 0 -6 -9 -2 -20
8 -16 15 -31 17 -87 12 -38 -2 -57 -3 -43 0 13 3 34 12 45 20 19 14 18 15 -12
9 -93 -17 -98 -18 -83 -7 8 5 32 13 52 16 21 4 40 10 43 15 4 7 -175 -27 -184
-35 -2 -2 -6 -34 -9 -70 l-5 -66 -55 7 c-37 4 -57 3 -61 -5 -13 -21 -318 -29
-367 -11 -14 6 -45 11 -68 12 -24 2 -42 7 -39 11 3 4 25 5 49 3 24 -3 43 -2
42 2 -1 4 2 18 6 31 6 19 4 28 -10 38 -10 7 -13 13 -6 13 8 0 6 7 -4 19 -9 10
-24 16 -34 14 -19 -5 -35 23 -19 33 7 4 6 10 -1 19 -6 7 -15 27 -20 45 -7 26
-6 31 5 26 9 -3 12 0 9 9 -3 8 -11 16 -17 18 -7 2 -4 3 6 1 24 -3 30 16 18 49
-12 31 2 46 19 20 11 -18 11 -15 -4 34 -4 12 -2 24 3 27 6 4 7 14 4 23 -4 9 1
21 12 29 10 8 15 14 11 14 -5 0 -3 7 4 15 7 9 10 19 6 22 -4 4 -11 1 -16 -7
-6 -8 -10 -10 -10 -4 0 6 7 17 15 24 8 7 15 21 15 31 0 10 5 21 11 25 6 3 9
15 6 25 -3 10 -1 21 3 24 5 3 7 14 5 25 -2 11 0 20 6 20 5 0 9 8 9 17 0 16 1
16 13 0 9 -13 31 -16 102 -17 50 -1 93 0 98 1 4 1 10 2 15 3 4 1 17 7 30 14
21 12 22 18 23 175 1 160 1 161 13 93 13 -73 37 -106 63 -85 10 9 15 6 21 -12
9 -23 9 -23 16 5 6 23 9 26 22 15 8 -6 12 -20 9 -30 -3 -9 -1 -20 4 -23 5 -4
8 -15 6 -26 -2 -12 2 -20 10 -20 9 0 12 6 9 15 -4 8 -1 15 5 15 8 0 10 -11 5
-35 -7 -37 -3 -41 25 -26 15 8 16 5 13 -25 -2 -19 -9 -34 -14 -34 -6 0 0 -9
13 -20 13 -10 18 -19 12 -20 -17 0 -17 -30 0 -30 7 0 18 5 25 12 6 6 15 8 19
4 4 -4 1 -11 -7 -16 -11 -7 -11 -11 -1 -23 9 -12 9 -16 -1 -20 -10 -3 -10 -7
-1 -17 6 -7 9 -19 6 -27 -3 -7 -2 -13 3 -12 20 3 24 -2 15 -19 -7 -13 -6 -27
4 -45 9 -18 10 -29 3 -33 -7 -4 -4 -10 6 -16 11 -6 22 -6 32 3 8 6 17 9 20 7
3 -3 -11 -16 -31 -28 -20 -12 -33 -25 -30 -28 3 -3 11 0 17 6 25 25 28 10 4
-19 -14 -17 -26 -37 -26 -45 0 -8 -4 -14 -10 -14 -5 0 -10 -5 -10 -11 0 -18
19 1 36 37 25 53 101 83 132 52 20 -20 13 -30 -10 -14 -31 22 -41 20 -77 -10
-27 -22 -31 -33 -31 -72 0 -62 8 -73 50 -67 21 2 63 -5 102 -19 50 -16 64 -19
55 -8 -12 15 -14 30 -17 100 -1 17 -5 32 -9 32 -7 0 -6 39 2 120 2 19 11 55
20 80 20 54 22 100 5 100 -9 0 -10 2 -2 8 6 4 15 18 19 32 4 14 14 29 21 35
10 8 13 84 16 323 l3 314 -30 13 c-35 15 -19 20 19 5z m-1866 -41 c-2 -16 -11
-25 -27 -27 -13 -2 -21 0 -19 5 24 50 33 62 41 54 5 -5 7 -19 5 -32z m155 21
c-3 -11 -9 -20 -14 -20 -10 0 -12 24 -2 33 13 13 21 7 16 -13z m1484 -37 c0
-33 -3 -41 -8 -28 -11 28 -11 87 0 81 5 -4 9 -27 8 -53z m-1755 22 c7 0 14 -9
16 -19 3 -14 0 -17 -13 -12 -9 3 -21 6 -26 6 -5 0 -9 12 -9 28 0 21 2 24 10
12 5 -8 15 -15 22 -15z m222 -44 c-4 -31 -7 -62 -7 -69 0 -7 -6 -11 -13 -8 -8
3 -11 0 -7 -10 4 -11 8 -12 20 -3 21 18 41 -4 23 -26 -7 -8 -9 -15 -6 -15 11
0 36 27 36 38 0 11 30 25 37 18 3 -2 -1 -14 -7 -26 -7 -12 -8 -26 -3 -33 11
-15 18 -135 7 -124 -8 8 -11 26 -15 85 -1 17 -7 32 -12 32 -5 0 -7 -11 -5 -24
8 -40 -6 -52 -31 -27 -26 26 -26 31 1 31 26 0 20 8 -9 13 -12 1 -28 9 -37 16
-15 13 -16 11 -6 -13 5 -15 9 -32 7 -39 -1 -7 5 -11 14 -9 9 1 19 -4 23 -13 3
-8 17 -15 32 -15 16 0 24 -5 21 -12 -2 -7 -13 -12 -23 -10 -18 3 -18 3 0 -11
25 -19 36 -113 13 -104 -20 7 -31 -21 -16 -39 9 -11 8 -19 -7 -37 -11 -12 -24
-25 -31 -30 -7 -4 -9 -15 -6 -23 4 -12 8 -13 14 -3 6 10 11 10 23 0 9 -8 16
-18 16 -23 0 -6 -6 -5 -15 2 -8 6 -19 9 -25 5 -6 -4 -20 1 -31 11 -17 16 -22
16 -29 4 -6 -8 -10 -21 -10 -27 0 -7 -4 -13 -9 -13 -12 0 -4 52 10 61 7 4 18
5 26 2 7 -3 13 0 13 6 0 7 -7 14 -15 17 -10 4 -13 13 -10 25 7 20 -9 27 -20 9
-11 -18 -23 -11 -18 10 3 11 9 17 14 14 5 -3 9 6 9 20 0 37 -14 32 -30 -11
-10 -27 -15 -33 -18 -20 -2 10 2 26 10 35 12 15 11 16 -4 4 -14 -11 -18 -10
-27 7 -12 22 5 75 20 65 5 -3 9 -1 9 5 0 5 -5 13 -11 16 -6 4 -8 13 -5 20 3 8
-3 19 -12 27 -13 11 -15 11 -7 -2 6 -12 5 -13 -5 -3 -16 15 -13 20 15 25 11 1
23 7 27 13 10 13 48 -24 48 -47 0 -24 -17 -23 -25 2 -3 11 -13 20 -22 20 -14
0 -14 -2 1 -19 10 -11 15 -24 12 -30 -4 -5 -2 -12 3 -16 11 -6 -30 -53 -41
-48 -5 2 -8 0 -8 -5 0 -20 13 -19 35 4 27 27 45 31 45 9 0 -8 7 -15 15 -15 8
0 15 -4 15 -10 0 -5 4 -10 10 -10 5 0 6 8 3 17 -5 12 -2 15 10 10 10 -4 17 -2
17 5 0 7 5 6 15 -2 9 -8 15 -8 15 -2 0 6 -9 14 -21 17 -15 5 -17 10 -9 20 9
10 7 13 -7 11 -10 -2 -18 -8 -18 -14 0 -19 -14 -25 -30 -12 -20 16 -20 44 0
36 20 -7 19 6 -6 48 -11 19 -20 50 -19 68 0 18 1 48 0 66 0 29 3 33 20 27 18
-6 20 -2 20 34 0 31 -4 41 -16 41 -10 0 -14 -6 -11 -15 4 -8 2 -17 -3 -20 -6
-4 -10 -3 -11 2 0 4 -2 21 -4 36 -3 23 -1 27 15 22 10 -3 21 -2 24 3 3 5 12 9
21 9 14 0 15 -9 9 -56z m143 27 c-3 -7 -5 -2 -5 12 0 14 2 19 5 13 2 -7 2 -19
0 -25z m-462 -6 c-8 -8 -25 10 -19 20 4 6 9 5 15 -3 4 -7 6 -15 4 -17z m2145
-7 c0 -8 -4 -15 -10 -15 -5 0 -10 7 -10 15 0 8 5 15 10 15 6 0 10 -7 10 -15z
m37 -7 c-3 -8 -6 -5 -6 6 -1 11 2 17 5 13 3 -3 4 -12 1 -19z m-1947 -38 c0
-11 -4 -20 -10 -20 -5 0 -10 9 -10 20 0 11 5 20 10 20 6 0 10 -9 10 -20z
m-430 -10 c0 -5 -2 -10 -4 -10 -3 0 -8 5 -11 10 -3 6 -1 10 4 10 6 0 11 -4 11
-10z m1707 -22 c-3 -8 -6 -5 -6 6 -1 11 2 17 5 13 3 -3 4 -12 1 -19z m641 15
c-11 -3 -18 -15 -19 -31 -1 -18 -3 -21 -6 -9 -7 27 4 47 24 46 17 -1 17 -2 1
-6z m-1973 -22 c-3 -11 -1 -22 5 -26 6 -4 10 5 10 21 0 37 18 19 21 -21 5 -63
0 -73 -37 -85 -45 -15 -58 -4 -57 47 1 28 8 43 30 60 34 28 36 28 28 4z m5341
-154 l4 -133 -33 -12 c-45 -16 -46 -16 -45 18 1 24 4 28 15 19 10 -9 13 -7 14
7 0 18 1 18 9 -1 13 -30 16 -5 18 139 1 60 5 107 8 103 4 -3 8 -66 10 -140z
m-5061 45 c-3 -8 0 -21 6 -28 6 -8 9 -20 6 -29 -4 -8 -2 -17 4 -20 11 -7 3
-25 -12 -25 -5 0 -9 8 -9 18 -1 15 -2 15 -15 -2 -8 -11 -18 -17 -21 -13 -4 4
-1 14 6 22 10 12 10 19 2 27 -16 16 -15 28 3 28 20 0 19 9 -5 45 -31 47 -24
64 11 26 17 -20 28 -40 24 -49z m1052 31 c-3 -10 -5 -2 -5 17 0 19 2 27 5 18
2 -10 2 -26 0 -35z m-3140 -5 c-3 -7 -5 -2 -5 12 0 14 2 19 5 13 2 -7 2 -19 0
-25z m3801 -12 c-10 -7 -18 -21 -18 -30 0 -22 -16 -21 -17 2 -2 31 6 42 29 42
21 -1 22 -2 6 -14z m-2283 -25 c-3 -6 -11 -8 -17 -5 -6 4 -5 9 3 15 16 10 23
4 14 -10z m-1508 -121 c1 -52 3 -108 3 -124 0 -15 5 -35 11 -43 9 -10 9 -17 1
-25 -15 -15 -16 -134 -2 -143 6 -4 7 -11 4 -17 -5 -7 -2 -8 6 -3 17 10 32 -16
18 -32 -6 -7 -17 -13 -24 -13 -9 0 -14 -11 -14 -30 0 -25 4 -30 35 -36 32 -6
34 -8 18 -19 -13 -10 -20 -10 -25 -2 -4 7 -8 9 -8 5 0 -3 -3 -14 -7 -24 -5
-13 -3 -16 10 -11 11 4 17 1 17 -8 0 -8 -6 -15 -14 -15 -18 0 -21 -112 -4
-143 7 -14 7 -22 -2 -27 -9 -5 -10 -20 -5 -46 4 -22 6 -75 5 -119 -1 -44 -2
-89 -2 -100 0 -15 -3 -13 -14 10 -12 27 -13 28 -14 7 0 -13 -4 -21 -9 -18 -5
3 -11 -3 -14 -14 -4 -15 0 -20 15 -20 17 0 18 -3 8 -15 -15 -18 1 -20 18 -3 9
9 12 9 12 -1 0 -7 -7 -19 -15 -27 -10 -10 -15 -11 -15 -3 0 17 -77 5 -101 -17
-10 -9 -22 -14 -26 -11 -3 4 -1 7 5 7 7 0 12 4 12 9 0 12 -93 -9 -102 -23 -6
-8 -11 -7 -18 4 -11 16 -13 9 -10 -32 1 -22 -3 -28 -19 -28 -12 0 -21 -6 -21
-15 0 -18 -16 -20 -23 -2 -4 9 -8 8 -16 -3 -8 -12 -5 -16 15 -18 33 -4 29 -36
-6 -39 -15 -1 -18 0 -7 3 24 8 21 22 -5 26 -17 2 -22 9 -20 23 2 12 0 16 -5 8
-9 -12 -63 -6 -63 8 0 5 -5 9 -11 9 -6 0 -9 -7 -6 -14 4 -10 1 -13 -9 -9 -7 3
-14 7 -14 9 0 10 40 43 57 47 15 4 14 5 -4 6 -12 0 -25 -4 -29 -10 -4 -8 -9
-7 -15 2 -7 11 -9 10 -9 -3 0 -10 -5 -18 -11 -18 -6 0 -9 12 -7 28 3 24 7 27
41 28 45 1 63 14 19 14 -17 0 -34 5 -37 10 -4 6 5 10 20 10 15 0 24 4 20 10
-4 6 -10 8 -14 5 -5 -2 -15 1 -24 8 -13 10 -14 15 -4 28 7 9 17 16 22 17 11 1
20 42 9 42 -4 0 -16 -7 -26 -17 -11 -10 -18 -12 -18 -4 0 6 7 14 15 17 8 4 15
12 15 20 0 10 -7 13 -25 8 -14 -3 -25 -2 -25 4 0 16 28 34 41 26 8 -4 9 -3 5
4 -4 7 -24 12 -44 12 -20 0 -44 5 -52 11 -11 8 -2 9 33 4 53 -7 62 1 18 16
-23 8 -27 14 -23 35 6 31 28 25 25 -7 -3 -22 -2 -23 11 -6 7 9 19 17 27 17 10
1 9 4 -3 11 -22 12 -24 33 -3 25 9 -3 15 0 15 10 0 10 -6 14 -15 10 -9 -3 -19
3 -26 15 -12 24 -2 41 11 19 8 -12 10 -10 10 8 0 13 6 22 15 22 8 0 15 5 15
10 0 15 -38 50 -55 50 -8 0 -15 5 -15 11 0 6 9 9 19 6 21 -5 67 38 51 48 -5 3
-11 1 -15 -5 -3 -5 -15 -10 -25 -10 -10 0 -21 -6 -24 -12 -3 -7 -4 -4 -3 7 2
14 9 19 26 17 20 -2 22 1 17 22 -3 14 -2 28 4 31 6 3 10 -4 11 -17 1 -20 2
-19 10 7 5 17 8 45 5 63 -4 28 -1 34 19 42 12 5 26 14 30 20 3 5 12 7 18 4 7
-4 8 -3 4 2 -5 5 -14 9 -19 9 -6 0 -13 6 -15 13 -3 6 3 12 11 12 15 0 15 3 -1
26 -16 25 -16 26 3 24 48 -5 57 -1 51 27 -6 34 1 53 22 54 10 0 11 2 4 6 -7 2
-13 9 -13 14 0 10 32 -1 42 -15 13 -19 22 5 10 25 -7 11 -10 24 -7 29 10 16
35 11 35 -6 0 -14 2 -14 15 0 19 19 19 37 0 30 -8 -3 -21 1 -30 9 -12 13 -13
21 -3 41 6 14 17 26 24 26 7 0 15 8 17 18 4 13 5 12 6 -5 0 -12 -5 -24 -11
-26 -7 -3 -3 -6 9 -6 25 -1 39 15 21 22 -13 5 -1 19 27 31 6 3 4 9 -4 14 -11
8 -9 11 10 18 13 4 31 8 39 8 9 1 14 9 13 21 -1 20 -1 20 12 1 13 -17 15 -17
21 -3 3 10 4 23 1 31 -3 8 1 20 10 28 14 11 15 10 9 -9 -4 -12 -2 -24 4 -28
10 -6 14 9 12 55 -1 24 -1 24 10 5 7 -11 13 -63 15 -115z m2983 126 c0 -3 -4
-8 -10 -11 -5 -3 -10 -1 -10 4 0 6 5 11 10 11 6 0 10 -2 10 -4z m99 -5 c12 -1
13 -19 7 -103 -4 -57 -8 -138 -8 -181 l-1 -77 -91 3 -91 3 1 49 c1 28 2 103 3
169 l1 119 36 -6 c20 -3 38 -7 39 -9 1 -2 -4 -64 -13 -138 -11 -99 -12 -135
-3 -138 6 -2 11 -11 12 -20 0 -9 5 -3 10 13 5 17 12 91 15 165 3 74 7 140 9
145 1 6 16 10 31 9 16 -1 35 -3 43 -3z m-1379 -31 c0 -10 -4 -22 -10 -25 -6
-4 -10 7 -10 25 0 18 4 29 10 25 6 -3 10 -15 10 -25z m-187 -5 c-3 -9 -8 -14
-10 -11 -3 3 -2 9 2 15 9 16 15 13 8 -4z m5207 -114 c0 -60 3 -116 6 -125 3
-9 2 -16 -3 -16 -11 0 -11 -6 -19 138 -4 78 -3 112 5 112 7 0 11 -37 11 -109z
m-3220 68 c0 -5 -4 -9 -10 -9 -5 0 -10 7 -10 16 0 8 5 12 10 9 6 -3 10 -10 10
-16z m-3280 1 c0 -5 -2 -10 -4 -10 -3 0 -8 5 -11 10 -3 6 -1 10 4 10 6 0 11
-4 11 -10z m1417 -32 c-3 -7 -5 -2 -5 12 0 14 2 19 5 13 2 -7 2 -19 0 -25z
m-1587 18 c0 -2 -7 -7 -16 -10 -8 -3 -12 -2 -9 4 6 10 25 14 25 6z m1390 -16
c0 -5 -2 -10 -4 -10 -3 0 -8 5 -11 10 -3 6 -1 10 4 10 6 0 11 -4 11 -10z m148
-25 c-3 -3 -9 2 -12 12 -6 14 -5 15 5 6 7 -7 10 -15 7 -18z m492 -14 c0 -7 -8
-20 -17 -27 -12 -9 -14 -16 -8 -21 12 -9 14 -64 3 -56 -5 2 -8 -4 -8 -14 0
-13 -2 -15 -9 -5 -11 18 -34 -9 -25 -31 3 -8 1 -18 -5 -22 -7 -3 -8 0 -5 9 3
9 2 16 -4 16 -5 0 -12 11 -14 25 -3 13 -1 22 3 19 5 -3 9 6 9 20 0 30 14 34
30 9 9 -15 10 -13 5 9 -4 20 0 33 15 48 19 19 19 20 1 20 -14 0 -18 5 -14 19
4 17 8 18 24 8 10 -6 19 -18 19 -26z m-1733 7 c-3 -8 -6 -5 -6 6 -1 11 2 17 5
13 3 -3 4 -12 1 -19z m63 12 c0 -5 -2 -10 -4 -10 -3 0 -8 5 -11 10 -3 6 -1 10
4 10 6 0 11 -4 11 -10z m-363 -42 c-3 -7 -5 -2 -5 12 0 14 2 19 5 13 2 -7 2
-19 0 -25z m72 8 c7 -8 8 -17 3 -20 -6 -3 -12 3 -15 14 -6 24 -4 25 12 6z
m1611 -21 c0 -5 -5 -3 -10 5 -5 8 -10 20 -10 25 0 6 5 3 10 -5 5 -8 10 -19 10
-25z m293 10 c-3 -9 -8 -14 -10 -11 -3 3 -2 9 2 15 9 16 15 13 8 -4z m-1943
-5 c0 -5 -5 -10 -11 -10 -5 0 -7 5 -4 10 3 6 8 10 11 10 2 0 4 -4 4 -10z m140
-15 c28 -30 24 -37 -10 -18 -14 7 -21 13 -16 13 5 0 3 7 -4 15 -21 25 5 17 30
-10z m36 -2 c-10 -10 -19 5 -10 18 6 11 8 11 12 0 2 -7 1 -15 -2 -18z m245 10
c13 -16 12 -17 -3 -4 -10 7 -18 15 -18 17 0 8 8 3 21 -13z m-138 -20 c7 -35
-9 -56 -36 -47 -15 5 -19 3 -14 -9 3 -9 -1 -18 -9 -21 -18 -7 -19 21 0 39 7 8
17 10 22 5 5 -5 15 -2 22 6 7 8 8 14 2 14 -5 0 -10 9 -10 20 0 30 17 24 23 -7z
m337 17 c0 -5 -5 -10 -11 -10 -5 0 -7 5 -4 10 3 6 8 10 11 10 2 0 4 -4 4 -10z
m-80 -21 c0 -6 -4 -7 -10 -4 -5 3 -10 11 -10 16 0 6 5 7 10 4 6 -3 10 -11 10
-16z m1033 -26 c-5 -11 -8 -12 -13 -2 -5 7 -6 19 -3 26 5 11 8 12 13 2 5 -7 6
-19 3 -26z m124 -10 c-3 -10 -5 -2 -5 17 0 19 2 27 5 18 2 -10 2 -26 0 -35z
m-1322 27 c3 -6 -1 -7 -9 -4 -18 7 -21 14 -7 14 6 0 13 -4 16 -10z m2935 -27
c0 -20 -3 -24 -11 -16 -7 7 -9 19 -6 27 10 24 17 19 17 -11z m-3153 -8 c1 -5
-8 -15 -22 -22 -14 -6 -25 -7 -25 -3 0 5 -3 16 -6 25 -6 13 -1 16 21 13 16 -2
30 -7 32 -13z m-75 -39 c-2 -5 -9 -1 -14 8 -5 9 -6 21 -2 28 9 14 25 -22 16
-36z m298 28 c0 -2 -7 -4 -15 -4 -8 0 -15 4 -15 10 0 5 7 7 15 4 8 -4 15 -8
15 -10z m240 -4 c0 -11 -4 -20 -9 -20 -5 0 -7 9 -4 20 3 11 7 20 9 20 2 0 4
-9 4 -20z m910 -41 c-9 -16 -14 -19 -20 -9 -5 8 -2 22 8 36 21 27 29 6 12 -27z
m210 45 c0 -3 -7 -12 -15 -20 -16 -17 -18 -14 -9 10 6 15 24 23 24 10z m-1318
-16 c-8 -8 -8 -17 -1 -30 6 -11 8 -22 6 -25 -3 -2 -8 5 -12 16 -3 12 -11 21
-17 21 -6 0 -6 6 2 15 7 8 17 15 23 15 7 0 7 -4 -1 -12z m4625 -100 c-2 -24
-4 -7 -4 37 0 44 2 63 4 43 2 -21 2 -57 0 -80z m-3457 92 c0 -5 -4 -10 -10
-10 -5 0 -10 5 -10 10 0 6 5 10 10 10 6 0 10 -4 10 -10z m-1405 -37 c6 -21 -8
-33 -18 -15 -2 4 -2 2 -1 -5 2 -6 -4 -17 -12 -24 -16 -13 -19 -11 -45 34 -12
22 -13 21 26 34 33 12 40 8 50 -24z m190 27 c-3 -5 -11 -10 -16 -10 -6 0 -7 5
-4 10 3 6 11 10 16 10 6 0 7 -4 4 -10z m1628 -22 c3 -12 0 -21 -10 -25 -16 -6
-33 12 -33 39 0 23 37 12 43 -14z m1317 17 c0 -8 -4 -15 -10 -15 -5 0 -10 7
-10 15 0 8 5 15 10 15 6 0 10 -7 10 -15z m-2840 -29 c-1 -21 -1 -21 -15 -2
-19 25 -19 37 0 30 8 -4 15 -16 15 -28z m1332 -8 c-8 -8 -9 -4 -5 13 4 13 8
18 11 10 2 -7 -1 -18 -6 -23z m5020 -75 c-3 -113 -6 -133 -19 -133 -10 0 -16
193 -8 221 4 10 12 19 18 19 9 0 12 -28 9 -107z m-6605 66 c-3 -11 -1 -17 4
-13 14 8 10 -22 -4 -35 -11 -9 -14 -2 -15 35 -2 31 1 43 9 39 6 -4 9 -16 6
-26z m146 0 c-30 -50 -43 -56 -43 -20 0 23 6 34 23 41 36 14 39 12 20 -21z
m167 13 c0 -12 -3 -12 -15 -2 -8 7 -15 13 -15 15 0 1 7 2 15 2 8 0 15 -7 15
-15z m157 -4 c-3 -8 -6 -5 -6 6 -1 11 2 17 5 13 3 -3 4 -12 1 -19z m5953 13
c0 -5 -7 -14 -15 -21 -13 -10 -15 -9 -15 9 0 12 6 21 15 21 8 0 15 -4 15 -9z
m360 -6 c-10 -13 -9 -15 9 -15 11 0 21 -4 21 -10 0 -5 -11 -10 -25 -10 -14 0
-25 4 -25 9 0 5 -3 16 -6 25 -4 12 0 16 16 16 19 0 20 -2 10 -15z m-6954 -41
c-26 -19 -36 -18 -33 4 5 36 18 45 36 27 15 -15 15 -17 -3 -31z m-59 6 c-6
-16 -15 -30 -20 -30 -4 0 -6 4 -2 9 3 5 1 12 -5 16 -21 13 -9 27 32 34 3 0 1
-12 -5 -29z m1139 -26 c-5 -17 -1 -29 13 -41 11 -9 17 -21 14 -26 -3 -5 -1
-12 4 -16 6 -3 8 -27 3 -58 -3 -29 -3 -53 1 -53 3 0 6 -15 5 -32 -1 -19 4 -38
14 -46 11 -10 12 -15 3 -18 -19 -8 -16 -31 5 -43 14 -9 13 -10 -10 -11 -22 0
-28 -5 -28 -22 0 -21 0 -21 14 -2 12 16 17 17 28 6 11 -11 10 -15 -5 -24 -18
-9 -18 -10 0 -24 13 -9 14 -13 4 -14 -10 0 -11 -3 -2 -14 9 -10 5 -17 -14 -32
-21 -16 -24 -24 -19 -49 3 -16 11 -36 16 -42 8 -10 5 -13 -11 -13 -19 0 -21 5
-19 54 1 30 -1 58 -5 62 -12 13 -8 36 6 28 8 -5 7 -2 -2 9 -7 10 -15 41 -17
70 -2 28 -6 84 -9 122 -6 73 -8 167 -6 245 1 37 4 42 12 27 6 -10 8 -29 5 -43z
m730 29 c-10 -10 -19 5 -10 18 6 11 8 11 12 0 2 -7 1 -15 -2 -18z m-2306 -26
c-10 -9 -12 -8 -7 6 5 13 1 17 -16 18 -21 0 -21 1 -2 8 25 10 44 -15 25 -32z
m726 8 c-3 -8 -13 -15 -23 -15 -11 0 -14 3 -7 8 6 4 14 16 18 27 6 13 10 16
13 7 3 -7 2 -19 -1 -27z m1474 2 c0 -18 -2 -19 -10 -7 -13 20 -13 43 0 35 6
-3 10 -16 10 -28z m4205 23 c3 -5 1 -10 -4 -10 -6 0 -11 5 -11 10 0 6 2 10 4
10 3 0 8 -4 11 -10z m-5865 -20 c-8 -5 -19 -10 -25 -10 -5 0 -3 5 5 10 8 5 20
10 25 10 6 0 3 -5 -5 -10z m1885 -27 c-25 -18 -31 -9 -8 14 10 10 20 15 22 9
2 -5 -4 -15 -14 -23z m-1525 1 c0 -8 -4 -14 -10 -14 -5 0 -10 9 -10 21 0 11 5
17 10 14 6 -3 10 -13 10 -21z m1336 9 c13 -17 14 -17 8 0 -4 11 -1 17 9 17 8
0 17 -9 20 -20 3 -11 1 -18 -4 -14 -5 3 -9 -13 -9 -35 0 -23 -4 -41 -10 -41
-5 0 -10 13 -10 28 0 16 -7 37 -15 48 -8 10 -15 22 -15 27 0 12 12 8 26 -10z
m-1839 -13 c-3 -12 0 -20 7 -20 7 0 19 -11 26 -25 11 -21 11 -27 0 -38 -10
-10 -12 -9 -7 6 4 9 2 17 -3 17 -6 0 -10 7 -10 15 0 8 -7 15 -15 15 -9 0 -15
9 -15 25 0 14 5 25 11 25 6 0 9 -9 6 -20z m1976 5 c-3 -9 -8 -14 -10 -11 -3 3
-2 9 2 15 9 16 15 13 8 -4z m1392 -4 c-3 -6 -11 -11 -17 -11 -6 0 -6 6 2 15
14 17 26 13 15 -4z m-3255 1 c0 -4 -9 -13 -20 -20 -16 -10 -20 -10 -20 1 0 8
3 17 7 20 9 9 33 9 33 -1z m319 -13 c19 -18 25 -19 32 -8 6 10 9 5 9 -16 0
-16 -4 -25 -8 -20 -20 28 -42 38 -57 25 -20 -16 -29 -7 -20 19 8 26 16 26 44
0z m-129 -8 c0 -11 -7 -26 -15 -35 -8 -8 -16 -23 -16 -33 -1 -10 -5 -2 -8 17
-7 35 4 64 20 54 5 -3 9 0 9 5 0 6 2 11 5 11 3 0 5 -9 5 -19z m230 9 c0 -5 -4
-10 -10 -10 -5 0 -10 5 -10 10 0 6 5 10 10 10 6 0 10 -4 10 -10z m21 -13 c-10
-9 -11 -8 -5 6 3 10 9 15 12 12 3 -3 0 -11 -7 -18z m879 14 c0 -5 -7 -14 -15
-21 -12 -10 -15 -10 -15 2 0 8 3 18 7 21 9 10 23 9 23 -2z m1994 -23 c16 -31
16 -31 -4 -13 -11 10 -17 21 -15 25 3 5 -1 11 -7 13 -9 4 -9 6 -1 6 6 1 19
-13 27 -31z m-3066 -7 c5 -30 -15 -52 -28 -31 -5 8 -10 25 -10 38 0 32 34 25
38 -7z m1457 19 c3 -5 -1 -10 -9 -10 -9 0 -16 5 -16 10 0 6 4 10 9 10 6 0 13
-4 16 -10z m119 -11 c-3 -5 -10 -7 -15 -3 -5 3 -7 10 -3 15 3 5 10 7 15 3 5
-3 7 -10 3 -15z m1651 1 c4 -6 -5 -10 -20 -10 -15 0 -24 4 -20 10 3 6 12 10
20 10 8 0 17 -4 20 -10z m-2882 -37 c-6 -14 -8 -14 -14 3 -12 30 -10 37 5 24
8 -6 12 -19 9 -27z m-511 -4 c-23 -9 -27 -3 -12 16 11 13 15 13 21 3 5 -8 2
-15 -9 -19z m385 25 c-3 -3 -12 -4 -19 -1 -8 3 -5 6 6 6 11 1 17 -2 13 -5z
m2909 -19 c9 -8 14 -22 12 -31 -2 -12 -9 -8 -26 15 -23 32 -13 43 14 16z m54
7 c0 -5 -7 -9 -15 -9 -8 0 -12 4 -9 9 3 4 9 8 15 8 5 0 9 -4 9 -8z m-3125 -22
c14 -16 16 -23 7 -32 -9 -9 -12 -7 -12 10 0 13 -6 22 -15 22 -8 0 -15 5 -15
10 0 16 15 12 35 -10z m-193 -52 c-4 -40 -8 -43 -31 -29 -11 7 -10 15 9 41 12
17 23 30 25 28 1 -2 0 -20 -3 -40z m1747 -1 c1 -5 -3 -5 -9 -2 -5 3 -10 16 -9
28 0 21 1 21 9 2 5 -11 9 -24 9 -28z m-579 12 c0 -11 -4 -17 -10 -14 -5 3 -10
13 -10 21 0 8 5 14 10 14 6 0 10 -9 10 -21z m668 -49 c-3 -22 -5 -21 -16 14
-6 22 -8 44 -5 49 9 15 25 -33 21 -63z m-1564 51 c6 -10 -16 -61 -26 -61 -13
0 -9 18 6 33 11 11 12 17 3 26 -8 8 -8 11 0 11 7 0 14 -4 17 -9z m1249 -16
c-6 -16 -16 -19 -26 -8 -9 8 13 34 24 28 4 -3 6 -12 2 -20z m-1301 -10 c-2
-14 -8 -28 -13 -31 -5 -3 -7 2 -4 10 3 9 7 23 10 31 7 24 13 17 7 -10z m7648
10 c0 -5 -7 -10 -15 -9 -8 0 -41 2 -72 4 l-58 3 50 7 c64 9 96 8 95 -5z
m-7740 -11 c0 -8 -4 -12 -10 -9 -6 3 -7 -1 -4 -10 8 -20 -4 -85 -16 -85 -6 0
-10 12 -10 28 0 21 2 24 10 12 8 -12 10 -10 10 8 0 13 -4 21 -9 18 -5 -3 -8 5
-8 19 0 14 6 26 16 28 9 3 17 5 19 6 1 0 2 -6 2 -15z m47 -31 c-3 -10 -5 -4
-5 12 0 17 2 24 5 18 2 -7 2 -21 0 -30z m173 7 c0 -20 -5 -30 -15 -30 -8 0
-15 2 -15 4 0 2 -3 13 -6 23 -6 16 -5 16 10 -2 l17 -20 -2 20 c-2 26 0 35 6
35 3 0 5 -13 5 -30z m60 16 c0 -3 -4 -8 -10 -11 -5 -3 -10 -1 -10 4 0 6 5 11
10 11 6 0 10 -2 10 -4z m1377 -43 c-3 -10 -5 -2 -5 17 0 19 2 27 5 18 2 -10 2
-26 0 -35z m-32 27 c3 -5 1 -10 -4 -10 -6 0 -11 5 -11 10 0 6 2 10 4 10 3 0 8
-4 11 -10z m3125 -26 c0 -21 -4 -33 -10 -29 -5 3 -10 19 -10 36 0 16 5 29 10
29 6 0 10 -16 10 -36z m1962 6 c39 -40 32 -55 -25 -55 -25 0 -49 -3 -53 -7
-13 -13 -55 -9 -85 9 -40 24 -36 33 15 33 30 0 46 5 50 15 5 14 9 14 31 -1 30
-20 41 -14 25 15 -16 32 6 27 42 -9z m-5022 -22 c0 -10 -4 -18 -10 -18 -5 0
-10 15 -10 33 0 24 3 28 10 17 5 -8 10 -23 10 -32z m-1970 1 c0 -5 -6 -6 -14
-3 -8 3 -17 1 -20 -5 -8 -13 11 -51 25 -51 6 0 3 7 -5 16 -18 18 -21 34 -6 34
6 0 10 -6 10 -12 0 -9 3 -8 10 2 15 24 21 6 9 -28 -13 -37 -16 -38 -41 -15
-21 19 -23 45 -6 73 9 14 16 16 25 8 7 -6 13 -14 13 -19z m90 -1 c0 -19 -2
-20 -10 -8 -13 19 -13 30 0 30 6 0 10 -10 10 -22z m131 9 c-1 -4 -1 -20 -1
-37 0 -20 -5 -30 -15 -30 -10 0 -15 10 -15 33 0 19 3 37 7 41 8 8 25 3 24 -7z
m449 9 c0 -2 -8 -10 -17 -17 -16 -13 -17 -12 -4 4 13 16 21 21 21 13z m-368
-51 c-5 -39 -22 -48 -22 -12 0 17 16 47 25 47 1 0 -1 -16 -3 -35z m205 13 c-3
-8 -6 -5 -6 6 -1 11 2 17 5 13 3 -3 4 -12 1 -19z m78 -8 c3 -5 1 -10 -4 -10
-6 0 -11 5 -11 10 0 6 2 10 4 10 3 0 8 -4 11 -10z m32 -12 c-3 -8 -6 -5 -6 6
-1 11 2 17 5 13 3 -3 4 -12 1 -19z m-537 3 c0 -6 -4 -13 -10 -16 -5 -3 -10 1
-10 9 0 9 5 16 10 16 6 0 10 -4 10 -9z m261 -42 c-10 -22 -10 -21 -7 11 5 44
7 49 13 29 2 -8 -1 -26 -6 -40z m916 4 c-3 -10 -5 -4 -5 12 0 17 2 24 5 18 2
-7 2 -21 0 -30z m-1137 18 c0 -6 -5 -13 -11 -16 -5 -4 -9 -17 -8 -28 3 -45 -3
-51 -15 -17 -10 29 -10 38 2 53 16 19 32 23 32 8z m1847 -13 c-3 -8 -6 -5 -6
6 -1 11 2 17 5 13 3 -3 4 -12 1 -19z m5083 11 c0 -13 -22 -22 -52 -23 -19 -1
-28 4 -28 14 0 11 11 15 40 15 22 1 40 -2 40 -6z m1030 1 c0 -5 -4 -10 -9 -10
-6 0 -13 5 -16 10 -3 6 1 10 9 10 9 0 16 -4 16 -10z m-8037 -58 c-18 -13 -20
-18 -22 -59 -1 -31 -27 -29 -33 2 -6 29 1 39 16 26 7 -6 11 -1 12 15 2 21 0
23 -14 12 -13 -11 -15 -11 -7 2 4 8 17 25 29 38 l20 23 9 -23 c6 -17 4 -26
-10 -36z m135 39 c3 -9 -2 -11 -17 -6 -15 5 -21 2 -21 -10 0 -9 5 -13 10 -10
22 14 8 -21 -16 -39 -26 -18 -26 -18 -15 2 6 11 11 29 11 39 0 36 38 55 48 24z
m86 -22 c3 -17 2 -38 -2 -46 -6 -10 -9 -1 -10 27 -1 23 -5 47 -9 52 -3 6 -1 8
4 5 6 -4 13 -21 17 -38z m4316 37 c0 -2 -9 -6 -20 -9 -11 -3 -20 -1 -20 4 0 5
9 9 20 9 11 0 20 -2 20 -4z m-4196 -21 c-4 -8 -11 -15 -16 -15 -6 0 -5 6 2 15
7 8 14 15 16 15 2 0 1 -7 -2 -15z m103 -7 c-3 -8 -6 -5 -6 6 -1 11 2 17 5 13
3 -3 4 -12 1 -19z m270 0 c-3 -8 -6 -5 -6 6 -1 11 2 17 5 13 3 -3 4 -12 1 -19z
m-529 -11 c2 -10 -3 -17 -12 -17 -10 0 -16 9 -16 21 0 24 23 21 28 -4z m229 1
c-3 -8 -6 -5 -6 6 -1 11 2 17 5 13 3 -3 4 -12 1 -19z m193 12 c0 -5 -5 -10
-11 -10 -5 0 -7 5 -4 10 3 6 8 10 11 10 2 0 4 -4 4 -10z m3850 2 c0 -4 -9 -8
-20 -9 -11 -1 -18 2 -15 8 7 11 35 12 35 1z m-4148 -44 c-7 -7 -12 -8 -12 -2
0 14 12 26 19 19 2 -3 -1 -11 -7 -17z m4218 12 c0 -5 -5 -10 -11 -10 -5 0 -7
5 -4 10 3 6 8 10 11 10 2 0 4 -4 4 -10z m-570 -10 c0 -5 -4 -10 -10 -10 -5 0
-10 5 -10 10 0 6 5 10 10 10 6 0 10 -4 10 -10z m650 -35 c0 -25 -4 -45 -10
-45 -5 0 -10 20 -10 45 0 25 5 45 10 45 6 0 10 -20 10 -45z m-4160 14 c0 -11
-4 -18 -10 -14 -5 3 -7 12 -3 20 7 21 13 19 13 -6z m-247 -9 c5 -18 -17 -60
-26 -50 -3 3 -8 20 -12 38 -6 27 -4 32 13 32 11 0 22 -9 25 -20z m177 0 c6
-11 8 -20 6 -20 -3 0 -10 9 -16 20 -6 11 -8 20 -6 20 3 0 10 -9 16 -20z m3067
-12 c-3 -7 -5 -2 -5 12 0 14 2 19 5 13 2 -7 2 -19 0 -25z m423 13 c0 -11 -4
-23 -10 -26 -5 -3 -10 -2 -10 4 0 5 -3 16 -6 25 -4 11 -1 16 10 16 9 0 16 -8
16 -19z m650 -31 c0 -27 -4 -50 -10 -50 -11 0 -14 83 -3 93 12 12 13 8 13 -43z
m2255 40 c3 -5 2 -10 -4 -10 -5 0 -13 5 -16 10 -3 6 -2 10 4 10 5 0 13 -4 16
-10z m-6661 -27 c-12 -56 -13 -57 -32 -39 -10 9 -26 16 -35 16 -11 0 -17 8
-17 21 0 12 5 19 13 16 6 -2 11 -10 10 -16 -4 -17 16 -13 39 9 28 26 30 25 22
-7z m206 0 c0 -14 -2 -15 -9 -5 -7 11 -10 10 -15 -3 -9 -26 -7 -42 4 -25 8 12
10 10 10 -10 0 -22 -1 -23 -16 -8 -11 11 -14 25 -10 42 7 29 36 36 36 9z
m5178 -5 c3 -15 -4 -18 -47 -18 -44 0 -51 3 -51 20 0 18 6 20 47 18 36 -2 49
-7 51 -20z m155 15 c-24 -2 -62 -2 -85 0 -24 2 -5 4 42 4 47 0 66 -2 43 -4z
m-1209 -26 c0 -9 -1 -30 -2 -47 -3 -51 -22 -33 -22 21 0 36 4 49 13 47 6 -3
12 -12 11 -21z m-1001 -12 c-3 -9 -8 -14 -10 -11 -3 3 -2 9 2 15 9 16 15 13 8
-4z m2815 -12 c-6 -16 -14 -73 -17 -127 -4 -66 -10 -101 -18 -104 -20 -6 -17
166 3 206 8 18 13 36 9 42 -3 5 3 10 14 10 18 0 19 -3 9 -27z m-6978 7 c0 -5
-5 -10 -11 -10 -5 0 -7 5 -4 10 3 6 8 10 11 10 2 0 4 -4 4 -10z m693 -14 c9
-3 17 -13 17 -23 0 -11 -3 -14 -8 -7 -7 11 -52 26 -52 18 0 -3 10 -8 22 -13
21 -8 21 -8 -5 -13 -25 -5 -27 -3 -27 28 0 29 2 33 18 25 9 -5 25 -12 35 -15z
m4416 10 c-7 -6 -160 -13 -153 -7 6 6 145 18 153 14 2 -2 2 -5 0 -7z m-3899 0
c0 -3 -4 -8 -10 -11 -5 -3 -10 -1 -10 4 0 6 5 11 10 11 6 0 10 -2 10 -4z
m6330 -6 c0 -5 -2 -10 -4 -10 -3 0 -8 5 -11 10 -3 6 -1 10 4 10 6 0 11 -4 11
-10z m-7480 -10 c0 -5 -7 -7 -15 -4 -8 4 -15 8 -15 10 0 2 7 4 15 4 8 0 15 -4
15 -10z m740 -8 c3 -2 -1 -7 -7 -9 -7 -3 -13 -9 -13 -15 0 -6 9 -3 20 7 31 28
32 14 2 -23 l-27 -33 -11 46 c-10 43 -10 45 10 39 12 -4 23 -9 26 -12z m3887
-8 c-3 -3 -12 -4 -19 -1 -8 3 -5 6 6 6 11 1 17 -2 13 -5z m352 -16 c-26 -22
-49 -23 -49 -3 0 11 -17 15 -67 18 -38 2 -23 3 35 3 100 -1 102 -2 81 -18z
m-3092 -30 c-3 -7 -5 -2 -5 12 0 14 2 19 5 13 2 -7 2 -19 0 -25z m4481 20 c22
-22 12 -28 -48 -28 -45 0 -60 3 -60 14 0 25 86 36 108 14z m42 8 c0 -3 -4 -8
-10 -11 -5 -3 -10 -1 -10 4 0 6 5 11 10 11 6 0 10 -2 10 -4z m-6427 -48 c-10
-18 -20 -6 -15 19 5 24 6 25 12 8 4 -11 6 -23 3 -27z m683 -3 c1 -30 -3 -45
-11 -45 -9 0 -12 14 -10 43 3 48 3 47 13 47 4 0 8 -20 8 -45z m128 28 c4 -9 2
-21 -4 -27 -7 -7 -10 -4 -11 10 0 18 -1 18 -9 -1 -8 -20 -9 -20 -9 1 -1 35 22
47 33 17z m86 -28 c0 -51 -15 -50 -18 2 -2 29 1 43 8 38 5 -3 10 -21 10 -40z
m186 33 c4 -7 3 -8 -4 -4 -8 5 -12 -2 -12 -18 0 -14 -4 -26 -8 -26 -5 0 -7 14
-4 30 4 31 16 38 28 18z m4902 -7 c4 -10 -6 -12 -47 -6 -34 5 -51 3 -51 -4 0
-6 -4 -11 -10 -11 -5 0 -10 6 -10 14 0 25 110 31 118 7z m-5348 0 c0 -5 -7
-11 -15 -15 -15 -5 -20 5 -8 17 9 10 23 9 23 -2z m5187 -13 c-3 -8 -6 -5 -6 6
-1 11 2 17 5 13 3 -3 4 -12 1 -19z m-5227 -13 c0 -2 -7 -5 -15 -9 -9 -3 -15 0
-15 9 0 9 6 12 15 9 8 -4 15 -7 15 -9z m5900 -20 c0 -16 -7 -25 -25 -29 -30
-8 -45 -1 -45 19 0 8 6 12 14 9 8 -3 20 3 27 15 16 24 29 18 29 -14z m267 23
c18 -25 34 -93 31 -133 -3 -37 -5 -40 -36 -43 -42 -4 -48 12 -26 77 9 29 14
64 10 81 -6 31 4 39 21 18z m-5753 -30 c-4 -6 -10 -5 -15 3 -14 22 -10 33 6
19 8 -7 12 -17 9 -22z m6456 22 c0 -5 -2 -10 -4 -10 -3 0 -8 5 -11 10 -3 6 -1
10 4 10 6 0 11 -4 11 -10z m-6670 -14 c0 -11 -19 -15 -25 -6 -3 5 1 10 9 10 9
0 16 -2 16 -4z m53 -2 c7 -8 -16 -33 -25 -28 -9 6 1 34 11 34 4 0 10 -3 14 -6z
m127 -32 c0 -15 -2 -15 -10 -2 -13 20 -13 33 0 25 6 -3 10 -14 10 -23z m-390
-3 c0 -6 -4 -7 -10 -4 -5 3 -10 11 -10 16 0 6 5 7 10 4 6 -3 10 -11 10 -16z
m617 -1 c-3 -8 -6 -5 -6 6 -1 11 2 17 5 13 3 -3 4 -12 1 -19z m4430 -45 c-2
-16 -4 -5 -4 22 0 28 2 40 4 28 2 -13 2 -35 0 -50z m-4997 39 c0 -12 -3 -12
-15 -2 -8 7 -15 13 -15 15 0 1 7 2 15 2 8 0 15 -7 15 -15z m1144 -20 c-21 -5
-28 4 -20 24 6 16 8 15 21 -2 12 -16 12 -19 -1 -22z m123 -14 c-2 -13 -4 -5
-4 17 -1 22 1 32 4 23 2 -10 2 -28 0 -40z m4442 36 c9 -8 -14 -25 -30 -21 -10
3 -25 -3 -35 -14 -14 -15 -31 -19 -91 -19 -67 0 -73 2 -73 20 0 24 3 25 95 38
61 8 122 6 134 -4z m-5629 -31 c0 -43 -5 -41 -13 5 -4 18 -2 32 3 32 6 0 10
-16 10 -37z m80 33 c0 -3 -4 -8 -10 -11 -5 -3 -10 -1 -10 4 0 6 5 11 10 11 6
0 10 -2 10 -4z m202 -18 c-7 -7 -12 -8 -12 -2 0 6 3 14 7 17 3 4 9 5 12 2 2
-3 -1 -11 -7 -17z m-1012 -9 c0 -5 -4 -9 -10 -9 -5 0 -10 7 -10 16 0 8 5 12
10 9 6 -3 10 -10 10 -16z m5510 13 c0 -4 -21 -16 -47 -25 -63 -22 -78 -24 -76
-12 1 6 -32 9 -89 7 -71 -3 -89 -1 -86 10 3 10 41 14 144 18 76 3 142 7 147 8
4 1 7 -2 7 -6z m44 -19 c-10 -40 -14 -41 -14 -5 0 18 5 32 10 32 6 0 8 -11 4
-27z m224 -1 c3 -20 -1 -22 -42 -22 -25 0 -46 2 -46 4 0 8 65 46 75 43 6 -2
11 -13 13 -25z m-5015 3 c-3 -9 -8 -14 -10 -11 -3 3 -2 9 2 15 9 16 15 13 8
-4z m321 -1 c5 -14 4 -15 -9 -4 -17 14 -19 20 -6 20 5 0 12 -7 15 -16z m78
-15 c-4 -24 -7 -28 -13 -16 -5 8 -6 22 -3 31 11 27 21 17 16 -15z m405 -1 c-3
-7 -5 -2 -5 12 0 14 2 19 5 13 2 -7 2 -19 0 -25z m180 26 c-3 -3 -12 -4 -19
-1 -8 3 -5 6 6 6 11 1 17 -2 13 -5z m2690 -16 c-3 -8 -6 -5 -6 6 -1 11 2 17 5
13 3 -3 4 -12 1 -19z m-3387 -9 c0 -5 -4 -9 -10 -9 -5 0 -10 7 -10 16 0 8 5
12 10 9 6 -3 10 -10 10 -16z m259 7 c10 -12 8 -13 -8 -9 -12 3 -18 9 -15 14 7
12 10 11 23 -5z m3111 -11 c13 -16 3 -20 -24 -9 -9 3 -13 10 -10 15 8 13 20
11 34 -6z m2095 -25 c0 -33 -2 -35 -35 -35 -29 0 -36 4 -38 23 -4 28 23 53 53
49 16 -1 20 -9 20 -37z m-5878 8 c-3 -8 -6 -5 -6 6 -1 11 2 17 5 13 3 -3 4
-12 1 -19z m298 12 c3 -5 1 -10 -4 -10 -6 0 -11 5 -11 10 0 6 2 10 4 10 3 0 8
-4 11 -10z m-902 -26 c-27 -27 -37 -27 -27 -1 5 14 18 21 46 26 4 0 -4 -11
-19 -25z m554 4 c-3 -8 -6 -5 -6 6 -1 11 2 17 5 13 3 -3 4 -12 1 -19z m5773
-24 c0 -2 -9 -4 -20 -4 -11 0 -20 4 -20 9 0 5 9 7 20 4 11 -3 20 -7 20 -9z
m-5546 -10 c5 -13 3 -14 -6 -7 -7 6 -20 13 -28 16 -10 4 -8 6 6 6 12 1 25 -6
28 -15z m-756 -6 c-6 -18 -28 -21 -28 -4 0 9 7 16 16 16 9 0 14 -5 12 -12z
m4332 -17 c0 -5 16 -5 38 0 28 6 41 5 52 -6 23 -24 1 -35 -45 -25 -60 14 -67
13 -60 -10 4 -11 2 -20 -4 -20 -6 0 -11 7 -11 15 0 11 -11 15 -42 14 -37 0
-40 -2 -20 -10 13 -5 28 -7 33 -3 5 3 9 0 9 -5 0 -6 -18 -11 -40 -11 -43 0
-43 0 -34 24 4 12 20 16 55 16 37 0 49 4 49 15 0 8 5 15 10 15 6 0 10 -4 10
-9z m-4333 -33 c-3 -8 -6 -5 -6 6 -1 11 2 17 5 13 3 -3 4 -12 1 -19z m6462
-12 c9 -11 6 -18 -14 -35 -19 -14 -25 -26 -21 -39 5 -13 1 -22 -11 -27 -17 -7
-17 -8 2 -16 17 -7 15 -8 -9 -6 -16 1 -31 8 -34 15 -2 7 2 11 10 10 10 -2 12
10 10 49 -3 47 -1 52 20 56 13 2 26 5 29 6 4 0 12 -5 18 -13z m294 -7 c4 -16
12 -20 39 -17 21 2 33 8 33 18 0 9 11 16 28 18 19 2 27 -1 27 -12 0 -8 9 -16
20 -18 12 -2 19 -6 18 -9 -2 -3 3 -13 11 -22 7 -10 10 -17 5 -17 -23 -1 24
-20 49 -20 24 0 27 -4 27 -31 0 -22 5 -32 20 -36 11 -3 20 -13 20 -23 0 -20
25 -33 43 -24 7 3 3 -2 -7 -10 -16 -13 -48 -16 -170 -16 -83 0 -194 3 -248 7
-93 6 -96 7 -88 27 5 12 18 53 29 92 16 53 26 73 41 77 11 3 20 12 20 21 0 12
10 16 39 16 31 0 40 -4 44 -21z m-5907 -1 c4 -7 3 -8 -4 -4 -7 4 -12 2 -12 -3
0 -6 5 -11 10 -11 6 0 10 -5 10 -12 0 -8 -6 -7 -16 4 -9 9 -13 21 -10 27 9 14
13 14 22 -1z m4884 -34 l-45 -45 -102 2 -103 2 0 40 0 40 100 -7 c65 -4 100
-3 100 4 0 5 21 10 47 10 l47 0 -44 -46z m580 -83 c3 -87 9 -126 18 -129 6 -2
12 1 12 8 0 8 6 8 20 0 18 -10 20 -8 20 22 1 34 10 26 24 -19 7 -22 5 -23 -48
-23 -30 0 -58 5 -61 11 -7 11 -34 197 -35 237 0 19 5 23 23 20 21 -3 22 -8 27
-127z m-1321 115 c-2 -2 -15 -9 -29 -15 -24 -11 -24 -11 -6 3 16 13 49 24 35
12z m1126 -6 c10 -17 -15 -50 -38 -50 l-21 0 21 15 c13 9 20 22 17 30 -7 17
11 21 21 5z m-6129 -47 c-2 -2 -25 -6 -51 -8 -43 -3 -46 -2 -28 10 11 8 30 12
42 10 16 -3 21 1 22 18 0 21 1 21 10 -2 5 -13 8 -26 5 -28z m509 28 c-3 -6
-11 -11 -16 -11 -5 0 -4 6 3 14 14 16 24 13 13 -3z m4535 12 c0 -11 -109 -67
-116 -60 -3 3 19 18 48 35 57 32 68 36 68 25z m775 -36 c1 -50 -12 -47 -17 3
-2 25 0 39 7 37 5 -2 10 -20 10 -40z m165 28 c0 -9 10 -20 23 -25 17 -7 11 -9
-30 -9 -49 -1 -53 1 -52 22 0 12 3 16 6 10 7 -18 33 -16 33 2 0 8 5 15 10 15
6 0 10 -7 10 -15z m1534 -4 c15 -1 16 -4 7 -15 -9 -10 -9 -16 -1 -21 8 -5 8
-10 0 -20 -13 -16 1 -28 24 -19 20 8 52 -16 36 -26 -7 -4 8 -16 34 -29 25 -11
45 -27 43 -34 -1 -7 10 -13 26 -15 26 -3 27 -2 16 17 -12 18 -14 18 -26 3 -11
-14 -11 -13 -2 11 7 15 13 26 13 24 1 -1 15 -17 31 -35 l30 -34 -222 4 c-130
2 -226 7 -232 13 -5 6 -13 22 -16 36 -6 26 -5 27 54 34 34 4 64 11 67 16 3 5
-1 9 -8 9 -20 0 -17 39 4 46 21 6 24 24 6 25 -7 1 -2 4 12 9 22 6 37 7 104 1z
m-7174 -33 c0 -13 -23 -5 -28 10 -2 7 2 10 12 6 9 -3 16 -11 16 -16z m5543 5
c-7 -2 -19 -2 -25 0 -7 3 -2 5 12 5 14 0 19 -2 13 -5z m-6003 -7 c0 -3 -4 -8
-10 -11 -5 -3 -10 -1 -10 4 0 6 5 11 10 11 6 0 10 -2 10 -4z m90 -16 c0 -5 -7
-10 -16 -10 -8 0 -12 5 -9 10 3 6 10 10 16 10 5 0 9 -4 9 -10z m-163 -6 c-3
-3 -12 -4 -19 -1 -8 3 -5 6 6 6 11 1 17 -2 13 -5z m1710 -26 c-3 -8 -6 -5 -6
6 -1 11 2 17 5 13 3 -3 4 -12 1 -19z m-1287 -8 c0 -5 -2 -10 -4 -10 -3 0 -8 5
-11 10 -3 6 -1 10 4 10 6 0 11 -4 11 -10z m5954 -140 c4 -52 11 -99 17 -105 6
-6 138 -11 357 -12 452 -2 840 -12 922 -24 36 -5 259 -12 495 -15 l430 -6 53
-35 c28 -20 52 -37 52 -40 0 -6 -603 7 -609 13 -2 2 12 4 33 4 21 0 35 4 31
10 -3 5 -19 7 -35 3 -17 -3 -51 0 -75 7 -25 7 -48 10 -52 6 -10 -9 2 -17 39
-26 19 -5 -67 -8 -205 -9 -234 -1 -238 -1 -261 22 -18 18 -32 22 -82 21 -96
-3 -130 -6 -111 -11 9 -2 15 -8 12 -13 -9 -15 34 -31 93 -35 31 -2 89 -8 127
-14 39 -5 144 -11 235 -13 163 -2 333 -13 275 -16 -16 -1 -37 -7 -45 -12 -12
-8 -10 -10 10 -11 14 -1 18 -3 10 -5 -9 -3 -47 2 -85 10 -38 8 -73 12 -77 10
-4 -3 -8 -21 -8 -40 0 -24 -4 -34 -12 -31 -8 2 -12 18 -11 38 1 19 -1 26 -4
16 -3 -11 -11 -16 -19 -13 -8 3 -14 1 -14 -4 0 -5 -8 -11 -17 -13 -11 -3 -6
-5 11 -6 16 0 26 -4 22 -8 -3 -4 -70 -6 -149 -5 -78 1 -148 2 -154 2 -7 0 -13
6 -13 13 0 6 -5 29 -11 50 l-10 38 -62 -5 c-34 -3 -86 -5 -116 -5 -85 -1 -55
-10 59 -17 111 -7 151 -18 72 -21 -26 -1 -60 -3 -76 -5 -34 -4 -48 -28 -17
-28 12 0 21 -5 21 -10 0 -7 -63 -10 -182 -8 l-183 3 3 42 c1 23 -2 44 -7 47
-4 3 -33 -3 -63 -14 -156 -55 -514 -48 -685 14 -22 8 -44 12 -47 9 -3 -4 -6
-21 -6 -40 l0 -33 -165 0 c-91 0 -165 4 -165 8 0 5 13 26 30 48 18 24 30 52
31 74 1 19 5 49 10 65 7 26 8 23 6 -17 -1 -27 1 -48 5 -48 3 0 23 23 44 51
l38 52 138 -6 138 -5 -5 126 c-6 144 8 130 19 -18z m-1944 116 c0 -8 -4 -18
-10 -21 -5 -3 -10 3 -10 14 0 12 5 21 10 21 6 0 10 -6 10 -14z m1361 -78 c2
-26 0 -50 -4 -54 -4 -4 -7 19 -7 51 0 69 7 70 11 3z m-104 20 c-3 -8 -6 -5 -6
6 -1 11 2 17 5 13 3 -3 4 -12 1 -19z m440 -15 c-3 -10 -5 -4 -5 12 0 17 2 24
5 18 2 -7 2 -21 0 -30z m40 -10 c-3 -10 -5 -2 -5 17 0 19 2 27 5 18 2 -10 2
-26 0 -35z m-4214 1 c19 -64 25 -94 17 -94 -4 0 -14 21 -23 48 -8 26 -19 55
-23 66 -5 13 -3 17 6 14 8 -2 18 -18 23 -34z m3794 -29 c-4 -8 -12 -15 -19
-14 -10 0 -10 2 0 6 6 2 12 12 12 21 0 8 3 13 6 9 4 -3 4 -13 1 -22z m-4787
-6 c0 -5 -4 -9 -10 -9 -5 0 -10 7 -10 16 0 8 5 12 10 9 6 -3 10 -10 10 -16z
m1745 11 c-36 -9 -32 -12 18 -15 34 -2 51 9 26 17 -6 2 10 4 36 6 28 1 44 -2
40 -8 -4 -6 -10 -8 -15 -5 -5 3 -12 0 -16 -6 -4 -7 -3 -9 4 -5 6 3 13 2 16 -3
7 -11 46 -3 46 9 0 5 -6 11 -12 13 -8 3 -6 6 5 6 10 1 17 -6 17 -19 0 -16 -20
-25 -113 -55 l-112 -36 -250 9 c-138 5 -284 8 -325 7 -81 -3 -74 3 30 28 36 9
108 27 160 40 84 21 117 24 285 25 109 0 177 -3 160 -8z m3422 -12 c-3 -8 -6
-5 -6 6 -1 11 2 17 5 13 3 -3 4 -12 1 -19z m-4997 -34 c27 -26 32 -36 22 -46
-18 -18 -15 -28 11 -29 20 0 19 -2 -6 -11 -34 -12 -45 -4 -29 22 15 24 16 43
2 35 -6 -4 -29 12 -52 35 -42 41 -42 41 -12 34 16 -3 45 -21 64 -40z m2983 24
c20 -11 21 -11 3 -18 -11 -3 -40 -2 -65 4 l-46 11 40 6 c22 3 41 7 43 8 2 0
13 -4 25 -11z m1477 -8 c-14 -4 -34 -8 -45 -8 l-20 -1 20 9 c11 5 31 8 45 8
l25 0 -25 -8z m113 3 c-7 -2 -19 -2 -25 0 -7 3 -2 5 12 5 14 0 19 -2 13 -5z
m-4868 -23 c3 -5 1 -10 -4 -10 -6 0 -11 5 -11 10 0 6 2 10 4 10 3 0 8 -4 11
-10z m115 6 c0 -3 -4 -8 -10 -11 -5 -3 -10 -1 -10 4 0 6 5 11 10 11 6 0 10 -2
10 -4z m-258 -48 c-15 -15 -26 -4 -18 18 5 13 9 15 18 6 9 -9 9 -15 0 -24z
m298 -3 c0 -24 -33 -27 -54 -4 l-21 21 23 -7 c17 -5 22 -2 22 11 0 13 3 14 15
4 8 -7 15 -18 15 -25z m93 11 c9 -3 17 -10 17 -15 0 -15 -37 -1 -57 21 -18 20
-17 21 2 10 11 -6 28 -13 38 -16z m2404 18 c-3 -3 -12 -4 -19 -1 -8 3 -5 6 6
6 11 1 17 -2 13 -5z m2639 -21 c-10 -10 -19 5 -10 18 6 11 8 11 12 0 2 -7 1
-15 -2 -18z m44 11 c0 -8 -4 -12 -10 -9 -5 3 -10 10 -10 16 0 5 5 9 10 9 6 0
10 -7 10 -16z m-5401 -38 c-3 -3 -11 5 -18 17 -13 21 -12 21 5 5 10 -10 16
-20 13 -22z m85 3 c-8 -13 -21 -11 -27 5 -4 10 0 12 14 9 10 -3 16 -9 13 -14z
m3336 -8 c0 -5 -6 -12 -12 -14 -7 -3 -4 -6 7 -7 l20 -1 -20 -9 c-31 -13 -75
-12 -75 3 0 6 -5 4 -11 -5 -9 -16 -26 -18 -127 -17 l-117 1 60 28 c54 26 71
29 168 29 59 1 107 -3 107 -8z m650 5 c0 -2 -28 -21 -62 -43 -35 -22 -75 -47
-90 -57 -16 -10 -28 -16 -28 -12 0 7 161 115 173 115 4 1 7 -1 7 -3z m-4243
-28 c-3 -8 -6 -5 -6 6 -1 11 2 17 5 13 3 -3 4 -12 1 -19z m308 10 c14 -6 25
-15 25 -20 0 -5 -9 -4 -19 2 -11 5 -29 10 -40 10 -12 0 -21 5 -21 10 0 13 23
13 55 -2z m3513 5 c-32 -2 -84 -2 -115 0 -32 2 -6 3 57 3 63 0 89 -1 58 -3z
m135 0 c-13 -2 -33 -2 -45 0 -13 2 -3 4 22 4 25 0 35 -2 23 -4z m207 3 c0 -9
-40 -13 -46 -5 -3 5 6 9 20 9 14 0 26 -2 26 -4z m-3788 -53 c-11 -21 -30 -44
-42 -51 -12 -8 -19 -9 -15 -3 9 16 -11 13 -28 -4 -13 -12 -16 -12 -21 8 -3 12
-6 25 -6 28 0 8 38 4 46 -4 4 -4 13 -7 21 -7 11 0 11 5 3 20 -9 16 -8 19 6 13
12 -4 15 -2 12 8 -4 12 32 43 40 34 2 -2 -6 -20 -16 -42z m-137 9 c-6 -7 -55
11 -50 18 3 5 16 3 29 -3 14 -7 23 -13 21 -15z m3783 12 c22 -15 22 -17 6 -35
-13 -15 -19 -17 -26 -7 -4 7 -8 18 -8 23 0 6 5 3 10 -5 6 -9 10 -10 10 -3 0 6
-10 19 -22 27 -15 11 -18 16 -7 16 8 0 25 -7 37 -16z m-3498 -6 c-1 -22 -27
-51 -35 -38 -9 15 -38 -9 -31 -26 3 -8 0 -11 -10 -7 -18 7 -18 40 1 59 8 9 15
11 15 5 0 -16 17 -14 32 4 16 18 28 19 28 3z m591 -70 c3 -5 38 -11 77 -14 57
-4 72 -2 72 9 0 10 15 14 50 16 l50 1 0 -50 c0 -27 -2 -50 -5 -50 -2 0 -63
-16 -136 -36 l-132 -36 -173 7 c-125 5 -174 11 -174 19 0 8 17 12 48 12 26 0
86 13 135 28 69 22 87 32 87 47 0 16 -8 19 -52 19 -50 0 -53 2 -53 25 l0 25
100 -7 c55 -3 103 -10 106 -15z m1979 -11 c0 -18 -2 -19 -10 -7 -13 20 -13 43
0 35 6 -3 10 -16 10 -28z m900 29 c0 -2 -16 -13 -36 -25 -30 -18 -51 -21 -140
-21 -59 0 -104 4 -104 10 0 5 39 7 98 4 82 -4 103 -2 137 15 47 23 45 22 45
17z m-2827 -13 c-7 -2 -19 -2 -25 0 -7 3 -2 5 12 5 14 0 19 -2 13 -5z m2734 1
c-3 -3 -12 -4 -19 -1 -8 3 -5 6 6 6 11 1 17 -2 13 -5z m-837 -20 c0 -2 -15 -4
-32 -3 -27 0 -29 2 -13 8 18 8 45 4 45 -5z m787 10 c-3 -3 -12 -4 -19 -1 -8 3
-5 6 6 6 11 1 17 -2 13 -5z m203 1 c0 -2 -10 -9 -22 -15 -22 -11 -22 -10 -4 4
21 17 26 19 26 11z m3593 -62 c-7 -2 -19 -2 -25 0 -7 3 -2 5 12 5 14 0 19 -2
13 -5z m-2343 -85 c0 -45 -2 -79 -5 -77 -6 7 -13 132 -7 147 9 26 12 9 12 -70z
m2603 75 c-7 -2 -19 -2 -25 0 -7 3 -2 5 12 5 14 0 19 -2 13 -5z m77 -3 c0 -5
-4 -10 -10 -10 -5 0 -10 5 -10 10 0 6 5 10 10 10 6 0 10 -4 10 -10z m136 3
c-11 -11 -78 -32 -126 -39 -57 -8 -48 4 11 15 42 8 43 9 19 19 -21 9 -16 11
39 11 35 1 61 -2 57 -6z m-7956 -22 c0 -6 -4 -12 -10 -16 -5 -3 -7 -13 -4 -23
5 -15 4 -15 -6 1 -6 10 -9 25 -6 33 6 16 26 19 26 5z m300 -11 c0 -6 37 -10
90 -10 50 0 90 -3 90 -7 0 -12 -56 -14 -170 -7 -103 7 -104 7 -65 19 52 17 55
17 55 5z m6467 -3 c3 -4 -11 -8 -33 -8 l-39 -2 35 -7 35 -7 -42 -2 c-31 -1
-43 3 -43 13 0 8 6 17 13 19 16 7 65 2 74 -6z m-1769 -31 c3 -20 0 -27 -10
-24 -7 3 -14 17 -16 32 -3 20 0 27 10 24 7 -3 14 -17 16 -32z m2759 28 c-3 -3
-12 -4 -19 -1 -8 3 -5 6 6 6 11 1 17 -2 13 -5z m288 -34 c3 -5 1 -10 -4 -10
-6 0 -11 5 -11 10 0 6 2 10 4 10 3 0 8 -4 11 -10z m-3058 -62 c-3 -8 -6 -5 -6
6 -1 11 2 17 5 13 3 -3 4 -12 1 -19z m20 0 c-3 -8 -6 -5 -6 6 -1 11 2 17 5 13
3 -3 4 -12 1 -19z m-5489 -134 c95 -4 170 -10 165 -15 -7 -6 -316 -85 -563
-144 -30 -7 -102 -25 -159 -39 -57 -15 -109 -25 -115 -23 -11 4 97 35 152 44
39 6 42 20 5 25 -16 2 10 5 57 5 47 1 96 6 110 11 18 7 -10 10 -105 11 -87 0
-125 -3 -115 -9 13 -8 13 -10 -2 -10 -9 0 -20 -5 -24 -11 -5 -9 1 -10 22 -5
19 4 24 3 14 -3 -8 -5 -33 -8 -55 -7 -33 1 -41 5 -43 24 -2 14 2 22 12 22 8 0
18 5 22 11 4 7 0 9 -14 5 -11 -4 -23 -2 -27 3 -3 6 4 13 17 16 13 2 97 23 188
44 218 52 252 59 270 55 8 -1 93 -6 188 -10z m6185 -18 c7 -21 6 -30 -4 -37
-22 -14 -69 -11 -69 5 0 8 8 13 18 12 13 -1 16 6 15 27 -3 38 27 33 40 -7z
m662 -33 c3 -32 9 -70 11 -85 4 -20 1 -28 -9 -28 -17 0 -49 -34 -40 -43 4 -4
18 4 32 17 24 23 31 25 104 19 56 -4 85 -12 103 -26 14 -10 23 -22 20 -25 -10
-9 37 -42 60 -42 24 0 41 17 29 28 -4 4 -10 2 -12 -5 -3 -8 -12 -9 -34 -1 -16
5 -27 13 -24 17 2 5 -4 17 -13 27 -18 19 -16 19 83 19 92 0 102 -2 128 -24 15
-14 27 -32 27 -40 -1 -10 -6 -7 -15 9 -8 14 -15 21 -15 15 0 -5 -4 -3 -10 5
-5 8 -12 12 -15 9 -9 -9 6 -39 19 -39 6 0 17 -9 24 -20 l13 -21 -40 21 c-49
25 -50 25 -44 1 3 -10 0 -22 -6 -25 -6 -4 -11 -15 -11 -24 0 -15 2 -15 10 -2
7 11 10 11 10 2 0 -7 5 -10 10 -7 6 4 8 15 5 26 -5 15 -3 18 12 12 31 -12 42
-28 31 -47 -6 -11 -16 -15 -29 -11 -12 4 -19 2 -19 -7 0 -10 -3 -9 -11 2 -8
12 -9 11 -6 -5 2 -11 9 -19 15 -17 7 1 11 -1 11 -5 -3 -20 2 -27 11 -13 5 8
13 11 17 6 4 -5 2 -11 -5 -13 -6 -3 -10 -9 -7 -14 4 -5 -1 -6 -9 -3 -26 10
-56 69 -56 111 0 26 8 50 21 67 29 37 15 46 -19 13 -23 -23 -27 -36 -26 -78
l1 -51 -20 27 c-41 55 -141 73 -192 33 -15 -12 -36 -35 -46 -52 l-19 -31 0 35
c0 87 -99 138 -177 90 -65 -39 -62 -146 5 -187 23 -14 27 -21 19 -34 -9 -15
-15 -13 -55 12 -24 15 -57 31 -73 34 l-29 7 30 24 c38 33 55 92 40 140 -11 31
-9 36 17 59 15 13 35 25 44 25 14 0 18 16 24 85 l7 85 43 0 44 0 6 -57z m-454
37 c17 0 28 -6 31 -17 4 -16 -3 -18 -79 -15 -76 3 -83 5 -83 24 0 19 4 20 53
14 28 -3 64 -6 78 -6z m-5911 -45 c0 -8 -2 -15 -4 -15 -2 0 -6 7 -10 15 -3 8
-1 15 4 15 6 0 10 -7 10 -15z m-30 -5 c0 -5 -11 -10 -24 -10 -14 0 -28 -5 -32
-12 -4 -6 -3 -8 3 -5 6 4 24 2 41 -2 22 -7 32 -6 36 2 2 7 5 -11 5 -40 l1 -52
-82 -25 c-46 -14 -134 -39 -197 -56 -63 -17 -118 -33 -123 -36 -5 -3 -8 22 -6
57 3 54 0 64 -15 67 -12 2 -22 -7 -32 -32 -9 -21 -32 -47 -55 -62 l-39 -26
-161 13 c-88 7 -157 15 -153 19 4 4 44 14 88 24 44 10 116 29 160 42 44 13
145 39 225 59 80 20 161 40 180 45 140 40 180 46 180 30z m5566 -86 c-4 -10
-14 -12 -29 -9 -31 8 -74 -27 -82 -68 -4 -17 -15 -41 -24 -51 -13 -16 -13 -19
-1 -14 9 3 26 -9 42 -27 l28 -32 -38 8 c-106 23 -108 25 -64 50 44 25 69 135
35 147 -8 2 -13 -5 -13 -17 0 -14 -5 -19 -15 -15 -8 4 -15 12 -15 20 0 8 -9
14 -20 14 -11 0 -20 -4 -20 -10 0 -5 -5 -10 -11 -10 -8 0 -7 5 1 16 10 11 32
15 89 14 117 -2 110 -5 118 43 l7 42 9 -43 c5 -24 6 -50 3 -58z m-3381 16
c132 -6 283 -13 335 -16 52 -3 145 -9 207 -12 l111 -7 -166 -96 c-160 -93
-265 -149 -277 -149 -4 0 -3 4 0 10 3 6 -1 7 -10 3 -12 -4 -13 -8 -5 -13 7 -5
-23 -28 -79 -59 l-91 -52 -237 21 c-131 12 -239 23 -242 25 -2 2 -6 47 -10 99
-4 53 -11 99 -15 103 -4 4 -46 -3 -94 -15 -111 -28 -190 -40 -327 -48 -71 -4
-106 -3 -100 3 6 5 78 35 160 67 83 31 209 80 280 109 l130 52 95 -7 c52 -3
203 -11 335 -18z m-3398 4 c-3 -3 -12 -4 -19 -1 -8 3 -5 6 6 6 11 1 17 -2 13
-5z m7037 -42 c23 -44 96 -66 96 -29 0 6 -3 8 -6 5 -3 -4 -14 2 -25 13 -11 11
-24 17 -29 14 -5 -3 -11 -1 -15 5 -4 6 25 10 82 10 86 0 89 -1 116 -31 14 -17
31 -28 37 -24 15 9 12 25 -4 25 -7 0 -19 7 -26 15 -10 13 -9 15 9 15 11 0 21
-3 21 -7 0 -5 32 -6 72 -5 65 3 71 2 59 -12 -8 -9 -22 -16 -32 -16 -23 0 -23
-8 -4 -34 23 -30 19 -55 -7 -48 -14 3 -19 2 -14 -6 4 -7 14 -12 22 -12 32 0
-4 -76 -44 -91 -66 -26 -126 -6 -162 54 -27 43 -26 65 3 63 13 -1 21 4 20 12
-4 16 17 15 40 -2 13 -10 15 -16 6 -21 -6 -4 -15 -1 -20 6 -5 8 -9 9 -9 3 0
-6 7 -17 15 -24 12 -10 18 -10 30 0 12 10 18 10 30 0 16 -14 18 -10 9 14 -3 9
-11 16 -18 16 -6 0 -29 14 -50 30 -46 35 -56 37 -49 11 3 -11 -2 -21 -12 -24
-13 -6 -15 -1 -9 28 4 22 2 35 -4 35 -15 0 -34 -66 -27 -92 5 -18 0 -14 -25
14 -56 67 -146 73 -199 13 l-29 -33 -6 36 c-8 46 -37 82 -66 82 -12 0 -18 5
-15 10 4 6 53 10 115 10 l109 0 15 -28z m-648 -35 c13 -54 18 -343 6 -350 -4
-3 -14 -2 -22 3 -18 11 -29 200 -12 200 6 0 7 13 3 33 -9 37 -2 157 9 157 3 0
11 -19 16 -43z m208 27 c8 -20 8 -24 -1 -24 -17 0 -35 19 -29 29 10 16 23 14
30 -5z m1473 -9 c8 -9 13 -18 11 -21 -3 -2 -13 5 -23 16 -21 23 -11 27 12 5z
m-1537 -10 c0 -16 -110 -14 -110 2 0 11 14 13 55 11 30 -2 55 -7 55 -13z m100
-13 c0 -13 -12 -22 -22 -16 -10 6 -1 24 13 24 5 0 9 -4 9 -8z m1854 -9 c31 -6
25 -13 -21 -27 -17 -6 -23 -3 -23 8 0 9 -5 16 -11 16 -6 0 -9 -7 -5 -15 4 -11
-1 -15 -18 -15 -19 0 -23 4 -19 20 4 16 0 20 -21 20 -14 0 -26 -4 -26 -10 0
-5 7 -7 15 -4 9 4 15 0 15 -10 0 -11 -9 -16 -30 -16 -32 0 -39 17 -17 39 12
12 83 10 161 -6z m-8777 1 c-3 -3 -12 -4 -19 -1 -8 3 -5 6 6 6 11 1 17 -2 13
-5z m6890 -51 c-5 -7 -14 -13 -19 -13 -7 0 -6 5 0 13 8 10 6 17 -8 27 -10 7
-16 18 -14 22 3 5 16 -1 28 -14 15 -16 19 -27 13 -35z m419 -7 c10 -4 14 2 14
19 0 32 20 32 56 -2 l28 -26 -42 -21 c-23 -11 -42 -24 -42 -29 0 -5 7 -4 15 3
9 7 18 10 21 7 3 -3 17 -2 30 3 13 5 24 8 24 6 0 -3 3 -12 7 -22 5 -13 3 -16
-10 -11 -19 7 -47 -1 -47 -13 0 -4 11 -11 25 -14 17 -4 25 -13 25 -27 0 -21
-1 -21 -20 2 -16 20 -21 21 -29 10 -12 -19 8 -51 28 -44 13 5 13 2 -2 -13 -18
-19 -27 -15 -40 21 -3 6 -7 7 -11 3 -4 -3 -3 -16 4 -27 9 -18 8 -21 -10 -21
-13 0 -20 7 -20 19 0 23 -53 54 -68 39 -6 -6 -8 -1 -5 15 6 30 -10 42 -37 27
-17 -9 -20 -8 -20 9 0 16 5 19 26 15 18 -3 25 -1 22 8 -3 7 -14 14 -25 16 -15
2 -19 9 -16 21 4 17 8 17 49 -6 51 -29 61 -41 40 -49 -9 -3 -16 -12 -16 -20 0
-20 9 -17 29 7 17 21 16 23 -4 43 -12 11 -31 26 -41 33 -11 6 -18 16 -17 22 2
6 -5 8 -15 4 -15 -6 -15 -5 -3 10 18 22 28 21 36 -3 3 -11 13 -20 21 -20 16 0
18 9 4 30 -6 9 -5 17 3 22 8 5 13 -1 15 -16 2 -14 10 -27 18 -30z m-7063 37
c-7 -2 -19 -2 -25 0 -7 3 -2 5 12 5 14 0 19 -2 13 -5z m8690 -3 l38 0 -17 -29
c-15 -25 -16 -36 -6 -69 15 -50 76 -110 119 -118 18 -3 33 -11 33 -16 0 -5 -8
-7 -17 -4 -10 3 -30 8 -45 12 -16 3 -28 10 -28 15 0 5 -9 9 -20 9 -12 0 -17 5
-14 13 5 13 -23 45 -39 46 -4 0 -20 15 -34 32 -15 18 -45 40 -68 50 -29 14
-34 19 -18 19 25 0 39 15 23 25 -5 3 -10 1 -10 -4 0 -6 -3 -10 -7 -9 -26 6
-125 -37 -148 -63 -22 -27 -26 -28 -31 -12 -3 10 -9 28 -14 39 -8 21 -6 22 65
26 58 3 80 8 102 26 21 16 37 21 63 17 19 -3 52 -5 73 -5z m117 -12 c0 -4 -8
-8 -17 -8 -13 0 -14 -3 -5 -12 6 -6 32 -12 57 -13 41 -2 45 0 39 17 -5 16 -2
19 15 16 12 -2 22 -7 23 -13 0 -5 9 -21 19 -34 36 -45 15 -110 -43 -130 -37
-13 -48 -8 -41 19 6 23 -12 27 -33 6 -12 -13 -12 -15 4 -19 16 -4 16 -5 0 -6
-10 0 -32 12 -50 29 -18 16 -27 30 -20 30 6 0 12 -6 13 -12 0 -7 4 -4 9 7 10
26 -4 42 -23 26 -12 -9 -16 -8 -21 5 -9 22 -8 23 14 17 14 -4 20 0 20 11 0 15
-12 21 -33 17 -5 -1 -6 4 -3 11 3 7 9 21 12 31 4 12 15 16 35 15 16 -1 29 -6
29 -10z m43 -12 c4 -10 1 -13 -9 -9 -7 3 -14 9 -14 14 0 14 17 10 23 -5z m227
-7 c0 -6 -10 -9 -22 -8 -13 2 -29 0 -36 -5 -7 -4 -19 -2 -28 5 -8 6 -18 9 -22
5 -4 -4 9 -20 27 -36 l35 -28 -27 -32 c-41 -48 -34 -125 15 -177 12 -13 17
-23 12 -23 -13 1 -64 70 -64 87 0 8 -4 11 -10 8 -14 -9 -13 8 2 23 9 9 9 12 0
12 -7 0 -15 -6 -18 -13 -2 -7 -21 -14 -42 -14 l-37 -2 30 9 c40 12 81 57 89
96 5 23 1 39 -18 67 l-25 37 69 0 c43 0 70 -4 70 -11z m40 1 c0 -5 -4 -10 -9
-10 -6 0 -13 5 -16 10 -3 6 1 10 9 10 9 0 16 -4 16 -10z m160 -1 c88 -1 99 -3
83 -15 -10 -7 -27 -14 -38 -14 -12 0 -16 -3 -9 -8 6 -4 13 -15 17 -24 3 -10
13 -18 22 -18 12 0 14 4 6 19 -8 14 -7 20 5 25 8 3 17 -1 20 -9 9 -21 22 -19
29 6 4 11 9 19 11 16 17 -17 -43 -67 -81 -67 -20 0 -45 24 -45 43 0 8 -8 17
-19 20 -14 3 -18 0 -14 -17 3 -20 3 -20 -6 2 -6 12 -17 22 -25 22 -8 0 -23 3
-33 6 -17 5 -16 4 1 -10 11 -9 17 -18 14 -21 -2 -3 -13 4 -23 15 -19 21 -45
27 -45 11 0 -5 17 -23 38 -40 l37 -32 -35 21 c-19 11 -50 20 -69 20 l-35 0 40
29 c21 16 42 27 45 25 4 -2 53 -4 109 -5z m500 -9 c0 -5 -15 -10 -32 -9 -28 0
-30 2 -13 9 28 12 45 12 45 0z m64 -16 c4 -11 2 -12 -14 -1 -11 6 -20 15 -20
19 0 12 28 -3 34 -18z m-10136 9 c-10 -2 -26 -2 -35 0 -10 3 -2 5 17 5 19 0
27 -2 18 -5z m150 -8 c-2 -2 -15 -6 -28 -8 -14 -2 -38 -9 -53 -15 -35 -15 -60
-15 -52 -2 4 6 11 8 16 5 5 -4 17 -1 26 4 16 9 16 10 -4 11 -12 0 -24 3 -26 8
-3 4 24 5 60 4 35 -2 63 -5 61 -7z m8072 -14 l35 -29 -27 -7 c-16 -4 -28 -11
-28 -15 0 -5 -9 -12 -20 -15 -11 -3 -20 -11 -20 -16 0 -5 10 -4 23 3 12 7 27
12 32 13 6 0 20 6 33 13 12 7 22 8 22 3 0 -5 3 -17 6 -26 5 -13 1 -16 -22 -13
-35 4 -41 -25 -6 -30 12 -2 22 -10 22 -18 0 -12 -4 -12 -24 1 -22 15 -25 15
-38 -4 -10 -14 -18 -17 -28 -10 -12 7 -12 9 3 9 21 0 18 21 -3 28 -7 3 -10 0
-6 -6 4 -6 -2 -8 -15 -5 -11 3 -18 11 -15 18 2 7 -10 23 -27 35 l-32 23 25
-27 c23 -25 23 -28 7 -37 -9 -6 -17 -18 -17 -27 -1 -15 -2 -15 -15 1 -17 24
-57 15 -49 -11 5 -14 4 -15 -5 -2 -18 25 -13 49 9 45 12 -2 24 3 29 14 9 15 6
17 -20 13 -34 -5 -39 14 -13 54 40 60 128 72 184 25z m1953 22 c-7 -2 -19 -2
-25 0 -7 3 -2 5 12 5 14 0 19 -2 13 -5z m74 -6 c10 -11 -30 -8 -47 3 -11 7 -8
8 13 6 15 -1 30 -6 34 -9z m-412 -11 l40 -13 -47 1 c-25 0 -41 4 -35 8 8 5 7
8 -3 7 -20 0 -63 -66 -47 -72 7 -2 -8 -7 -32 -11 -54 -8 -93 -30 -113 -63
l-15 -25 -7 28 c-4 16 -19 41 -33 56 l-25 26 38 -13 c78 -28 151 -8 186 52 22
36 32 38 93 19z m63 -12 c-7 -15 -14 -21 -16 -15 -2 7 2 18 8 26 18 22 21 18
8 -11z m-9108 -8 l135 -12 -75 -17 c-115 -27 -348 -55 -384 -47 -27 7 -24 8
24 10 52 2 116 16 95 20 -5 1 -34 2 -62 0 -33 -1 -53 2 -53 9 0 6 -8 11 -17
12 -10 0 11 11 47 24 45 15 79 21 110 18 25 -2 106 -10 180 -17z m8059 15 c8
-5 11 -15 8 -23 -3 -8 -1 -21 3 -28 6 -10 10 -7 15 13 8 30 15 33 33 15 9 -9
2 -20 -29 -49 -40 -37 -42 -38 -70 -24 -16 9 -32 15 -36 14 -4 -1 -22 2 -39 6
-30 7 -31 8 -15 25 15 16 17 16 37 -2 27 -24 44 -6 20 21 -9 10 -13 21 -9 24
12 13 21 7 27 -18 4 -16 13 -25 26 -25 22 0 25 12 10 41 -11 20 -4 24 19 10z
m1114 -31 c-3 -3 -8 0 -10 7 -2 7 -12 9 -21 6 -15 -6 -15 -5 -3 10 13 16 14
16 26 0 8 -10 11 -20 8 -23z m-2758 1 c-3 -17 -1 -40 5 -53 11 -22 10 -22 -4
-3 -8 11 -19 25 -24 30 -6 6 -3 19 6 33 19 30 25 28 17 -7z m2989 -10 c-3 -3
-15 6 -27 18 l-22 24 27 -19 c14 -10 24 -21 22 -23z m106 29 c0 -5 -2 -10 -4
-10 -3 0 -8 5 -11 10 -3 6 -1 10 4 10 6 0 11 -4 11 -10z m-277 -26 c-6 -15 21
-15 45 -1 7 5 12 4 12 -2 0 -6 -3 -11 -7 -12 -5 0 -17 -2 -27 -4 -25 -5 -41 5
-42 27 -1 10 4 14 12 11 7 -2 10 -11 7 -19z m-1356 -6 c-3 -8 -6 -5 -6 6 -1
11 2 17 5 13 3 -3 4 -12 1 -19z m888 12 c13 -6 15 -9 5 -9 -8 0 -22 4 -30 9
-18 12 -2 12 25 0z m-1995 -62 l25 -18 -28 10 c-38 13 -60 13 -55 -1 2 -7 25
-19 50 -27 l47 -14 -16 -32 -15 -32 -28 28 c-19 19 -39 28 -60 28 l-31 0 22
30 c12 16 22 43 22 59 l0 30 21 -22 c12 -12 32 -30 46 -39z m2216 53 c-6 -9
71 -21 77 -11 2 3 2 -1 0 -8 -1 -8 4 -20 12 -29 14 -14 15 -12 10 16 -3 18 -1
31 5 31 5 0 10 -12 10 -27 0 -16 9 -43 20 -61 26 -42 26 -52 0 -19 -11 14 -20
31 -20 38 0 7 -3 9 -7 6 -3 -4 -12 -2 -20 4 -19 16 -16 -1 4 -25 17 -20 17
-20 -7 0 -31 27 -90 57 -90 47 0 -5 -5 0 -11 11 -9 14 -8 20 2 27 18 11 22 11
15 0z m382 -26 c-3 -3 -9 2 -12 12 -6 14 -5 15 5 6 7 -7 10 -15 7 -18z m-9768
11 c0 -11 -66 -36 -95 -36 -43 0 -51 -11 -18 -26 l28 -12 -36 -1 c-32 -1 -49
11 -49 33 0 3 101 30 145 39 11 3 21 5 23 6 1 0 2 -1 2 -3z m9818 -21 c-3 -3
-9 2 -12 12 -6 14 -5 15 5 6 7 -7 10 -15 7 -18z m-2210 -19 c-1 -27 -5 -32
-19 -29 -18 5 -18 7 -2 34 10 16 18 29 20 29 1 0 2 -15 1 -34z m363 -68 c-15
-19 -38 -23 -59 -10 -9 6 -10 15 -3 33 l10 24 0 -24 c1 -21 3 -22 18 -10 15
12 16 12 10 -3 -3 -10 -2 -18 2 -18 5 0 11 6 14 13 5 14 -38 59 -48 49 -3 -3
-5 0 -5 6 0 5 -3 17 -6 26 -3 9 14 -3 38 -27 39 -38 42 -44 29 -59z m584 92
c-3 -5 -1 -10 5 -10 6 0 8 -4 5 -10 -3 -5 -15 -10 -27 -10 -17 0 -19 -2 -7
-16 7 -8 21 -13 31 -11 10 3 18 4 18 2 0 -2 3 -12 6 -22 6 -15 4 -16 -7 -5 -7
6 -21 12 -31 12 -25 0 -23 -37 2 -45 11 -3 20 -13 20 -21 0 -9 -12 -3 -35 17
-27 25 -32 35 -24 46 9 9 8 13 0 13 -6 0 -11 -4 -11 -9 0 -5 -11 -8 -25 -8
l-25 0 21 28 c24 34 103 80 84 49z m1016 -28 c-13 -2 -27 0 -32 5 -6 6 3 7 23
4 28 -4 29 -6 9 -9z m-1213 -4 c10 -10 15 -10 21 1 13 20 54 -24 46 -49 -3
-10 -1 -21 5 -25 5 -3 10 -1 10 6 0 10 3 10 12 1 7 -7 17 -12 23 -12 5 0 3 5
-5 10 -13 8 -12 10 3 10 9 0 17 -5 17 -10 0 -6 14 -23 32 -39 28 -25 29 -28
10 -26 -12 1 -28 8 -35 17 -19 25 -73 33 -81 12 -4 -9 -9 -14 -13 -11 -3 4 -1
13 6 20 18 23 -14 45 -41 28 -11 -7 -22 -10 -25 -7 -8 8 7 26 23 26 8 0 14 5
14 11 0 6 9 8 23 4 20 -7 21 -6 6 10 -15 15 -19 15 -53 1 -20 -8 -36 -11 -36
-5 0 5 7 9 16 9 8 0 12 5 9 10 -9 14 -45 -7 -45 -26 0 -8 -4 -12 -10 -9 -14 9
19 55 39 55 9 0 23 -6 29 -12z m262 -17 c0 -10 10 -23 23 -29 12 -6 16 -11 8
-11 -8 -1 -22 -7 -30 -15 -15 -13 -16 -10 -16 34 0 26 3 46 8 43 4 -2 7 -12 7
-22z m726 15 c10 -11 11 -21 5 -38 l-10 -23 0 26 c-1 14 -6 30 -13 37 -7 7 -9
12 -4 12 4 0 14 -6 22 -14z m-9376 -6 c0 -5 -4 -10 -9 -10 -6 0 -13 5 -16 10
-3 6 1 10 9 10 9 0 16 -4 16 -10z m-160 -10 c0 -5 -5 -10 -11 -10 -5 0 -7 5
-4 10 3 6 8 10 11 10 2 0 4 -4 4 -10z m6755 0 c-3 -5 -15 -10 -25 -10 -10 0
-22 5 -25 10 -4 6 7 10 25 10 18 0 29 -4 25 -10z m2752 -48 c-9 -4 -46 38 -47
53 0 5 12 -4 28 -20 15 -17 24 -32 19 -33z m-3084 -5 c-4 -30 -10 -37 -28 -37
-20 0 -22 5 -21 40 0 31 5 40 21 43 30 5 35 -4 28 -46z m383 42 c3 -6 15 -9
25 -6 15 4 19 0 19 -19 0 -13 -4 -24 -10 -24 -5 0 -10 5 -10 11 0 6 -8 8 -18
5 -22 -7 -58 17 -48 32 9 15 33 15 42 1z m3185 -26 c-12 -20 -14 -14 -5 12 4
9 9 14 11 11 3 -2 0 -13 -6 -23z m-3277 -4 c-6 -11 -24 -2 -24 11 0 5 7 7 15
4 8 -4 12 -10 9 -15z m851 11 c3 -6 -1 -7 -9 -4 -18 7 -21 14 -7 14 6 0 13 -4
16 -10z m2210 0 c3 -6 -1 -7 -9 -4 -18 7 -21 14 -7 14 6 0 13 -4 16 -10z
m-1961 -16 c5 -14 4 -15 -9 -4 -17 14 -19 20 -6 20 5 0 12 -7 15 -16z m1754
-3 c-7 -11 -16 -17 -22 -14 -5 3 -1 12 9 20 25 18 27 17 13 -6z m70 5 c-7 -8
-15 -12 -17 -11 -5 6 10 25 20 25 5 0 4 -6 -3 -14z m-2751 -18 c-3 -8 -6 -5
-6 6 -1 11 2 17 5 13 3 -3 4 -12 1 -19z m398 12 c3 -5 1 -10 -4 -10 -6 0 -11
5 -11 10 0 6 2 10 4 10 3 0 8 -4 11 -10z m1221 -4 c23 -24 17 -37 -11 -24 -26
11 -30 19 -18 31 9 10 13 9 29 -7z m934 4 c-8 -5 -19 -10 -25 -10 -5 0 -3 5 5
10 8 5 20 10 25 10 6 0 3 -5 -5 -10z m-2190 -15 c11 -13 10 -14 -4 -9 -9 3
-16 10 -16 15 0 13 6 11 20 -6z m59 -6 c-22 -13 -31 -11 -17 5 7 8 17 12 22 9
4 -3 2 -9 -5 -14z m141 -12 c10 -4 8 -6 -7 -6 -13 -1 -23 5 -23 12 0 8 -4 7
-10 -3 -11 -17 -13 -9 -3 16 5 15 8 15 17 2 6 -8 18 -17 26 -21z m2025 23 c-3
-5 -14 -10 -23 -9 -14 0 -13 2 3 9 27 11 27 11 20 0z m-1270 -10 c-3 -5 -12
-7 -20 -3 -21 7 -19 13 6 13 11 0 18 -4 14 -10z m677 -14 c3 -16 0 -27 -10
-31 -19 -7 -30 4 -14 14 7 4 10 15 6 24 -3 9 -2 17 4 17 5 0 12 -11 14 -24z
m42 3 c-8 -14 -24 -10 -24 6 0 9 6 12 15 9 8 -4 12 -10 9 -15z m77 -21 c16
-29 2 -21 -22 15 -17 23 -18 28 -6 18 10 -8 23 -23 28 -33z m784 14 c-3 -3
-11 0 -18 7 -9 10 -8 11 6 5 10 -3 15 -9 12 -12z m-1125 -12 c0 -5 -5 -10 -11
-10 -5 0 -7 5 -4 10 3 6 8 10 11 10 2 0 4 -4 4 -10z m300 0 c0 -5 -2 -10 -4
-10 -3 0 -8 5 -11 10 -3 6 -1 10 4 10 6 0 11 -4 11 -10z m485 0 c3 -6 -1 -7
-9 -4 -18 7 -21 14 -7 14 6 0 13 -4 16 -10z m-74 -33 c-10 -9 -11 -8 -5 6 3
10 9 15 12 12 3 -3 0 -11 -7 -18z m-2834 -23 c3 -8 1 -20 -4 -25 -7 -7 -12 -2
-15 15 -6 28 9 36 19 10z m1663 -84 c0 -5 -5 -10 -11 -10 -5 0 -7 5 -4 10 3 6
8 10 11 10 2 0 4 -4 4 -10z m-1670 -76 c-8 -27 -8 -26 -9 16 0 32 2 40 9 29 5
-9 6 -28 0 -45z m6 -155 c-2 -39 -9 -76 -15 -82 -17 -17 -13 -27 17 -38 34
-14 52 -17 179 -25 56 -4 100 -10 98 -15 -3 -4 7 -17 22 -29 26 -21 27 -22 4
-15 -35 11 -130 -4 -150 -24 -15 -15 -19 -15 -56 6 -45 25 -131 31 -168 11
-20 -10 -21 -10 -7 7 13 15 12 19 -8 36 l-23 18 20 13 c12 7 21 18 21 25 0 7
4 13 9 13 4 0 6 11 3 25 -6 35 6 75 23 75 10 0 15 11 15 35 0 19 5 35 11 35 7
0 9 -24 5 -71z m-101 -213 c-16 -34 -35 -48 -35 -26 0 6 5 10 11 10 6 0 8 7 5
16 -4 10 1 22 11 29 25 19 27 12 8 -29z m1926 1 c-6 -8 -9 -22 -5 -31 4 -11 1
-16 -11 -16 -9 0 -15 3 -13 8 22 44 32 61 36 57 3 -2 0 -11 -7 -18z m-164 -9
c-3 -8 -6 -5 -6 6 -1 11 2 17 5 13 3 -3 4 -12 1 -19z m-1254 -23 c43 -20 46
-30 15 -46 -29 -16 -128 -22 -128 -8 0 6 -8 8 -20 4 -25 -8 -113 30 -108 47 7
20 47 27 128 24 46 -2 90 -10 113 -21z m281 10 c36 -3 96 -31 96 -44 0 -18
-74 -35 -140 -32 l-35 2 23 18 c12 11 22 22 22 25 0 14 -23 4 -44 -19 l-24
-25 -46 19 c-25 11 -46 25 -46 30 0 18 41 32 85 30 25 -2 47 0 51 4 4 3 11 4
16 1 5 -3 23 -7 42 -9z m1156 -5 c0 -5 -2 -10 -4 -10 -3 0 -8 5 -11 10 -3 6
-1 10 4 10 6 0 11 -4 11 -10z m104 -39 c20 -22 9 -34 -44 -49 -19 -5 -42 -13
-51 -16 -21 -9 -36 24 -17 36 10 6 10 8 1 8 -7 0 -13 9 -13 20 0 18 7 20 53
20 40 0 58 -5 71 -19z m-364 -11 c0 -5 -12 -28 -27 -49 -28 -40 -46 -50 -58
-31 -3 6 -16 10 -28 10 -41 1 -73 39 -45 56 31 19 158 30 158 14z m-364 -21
c4 -7 10 -7 16 -1 6 6 27 5 59 -3 63 -17 84 -32 68 -51 -16 -20 -135 -39 -145
-23 -3 5 -17 7 -32 3 -26 -5 -26 -5 -8 10 11 9 30 16 43 16 13 0 23 5 23 10 0
16 -25 12 -69 -12 -40 -21 -42 -21 -78 -4 -31 15 -34 19 -22 31 8 8 37 18 64
23 69 13 73 13 81 1z m1533 -25 c17 -12 25 -14 30 -5 8 12 41 5 41 -9 0 -4 12
-5 26 -2 20 4 25 2 19 -8 -5 -9 -2 -10 14 -5 14 4 31 0 48 -10 21 -14 23 -19
12 -30 -19 -18 -119 -31 -119 -15 0 7 -7 10 -15 6 -8 -3 -15 0 -15 7 0 8 -3 8
-9 -2 -6 -9 -15 -11 -27 -6 -11 5 -23 7 -28 6 -15 -3 -46 10 -41 19 3 4 -3 6
-13 3 -10 -2 -26 5 -36 16 -18 20 -18 21 9 31 15 6 36 8 46 5 11 -4 19 -2 19
4 0 15 12 14 39 -5z m181 -1 c0 -16 0 -16 -41 1 l-34 15 38 -1 c24 -1 37 -6
37 -15z m40 -2 c0 -16 35 -18 49 -4 8 9 22 12 35 9 11 -3 37 -6 56 -7 25 -2
18 -4 -25 -10 -33 -4 -74 -11 -91 -14 -26 -6 -32 -3 -37 14 -3 12 -1 21 4 21
5 0 9 -4 9 -9z m283 -18 c-7 -2 -19 -2 -25 0 -7 3 -2 5 12 5 14 0 19 -2 13 -5z
m-1434 -44 c-7 -4 -17 -5 -22 -2 -5 3 -3 9 4 14 7 4 17 5 22 2 5 -3 3 -9 -4
-14z m188 15 c-3 -3 -12 -4 -19 -1 -8 3 -5 6 6 6 11 1 17 -2 13 -5z m1663 -58
c0 -3 -4 -8 -10 -11 -5 -3 -10 -1 -10 4 0 6 5 11 10 11 6 0 10 -2 10 -4z"/>
<path d="M5061 3124 c0 -11 3 -14 6 -6 3 7 2 16 -1 19 -3 4 -6 -2 -5 -13z"/>
<path d="M5056 3043 c-6 -14 -5 -15 5 -6 7 7 10 15 7 18 -3 3 -9 -2 -12 -12z"/>
<path d="M5050 3000 c-6 -11 -8 -25 -5 -30 11 -18 20 -10 22 20 3 35 -2 38
-17 10z"/>
<path d="M8475 3318 c-11 -35 -8 -54 13 -75 13 -13 24 -23 25 -23 1 0 0 25 -1
55 -3 40 -8 55 -18 55 -8 0 -16 -6 -19 -12z"/>
<path d="M8522 3198 c-19 -19 -14 -30 8 -18 11 6 20 15 20 20 0 14 -14 12 -28
-2z"/>
<path d="M4965 2700 c-3 -6 1 -7 9 -4 18 7 21 14 7 14 -6 0 -13 -4 -16 -10z"/>
<path d="M4972 2560 c0 -14 2 -19 5 -12 2 6 2 18 0 25 -3 6 -5 1 -5 -13z"/>
<path d="M4950 2530 c0 -5 5 -10 11 -10 5 0 7 5 4 10 -3 6 -8 10 -11 10 -2 0
-4 -4 -4 -10z"/>
<path d="M4948 2509 c-51 -26 -48 -31 7 -12 25 8 45 19 45 24 0 12 -8 10 -52
-12z"/>
<path d="M4401 2334 c0 -11 3 -14 6 -6 3 7 2 16 -1 19 -3 4 -6 -2 -5 -13z"/>
<path d="M3471 3206 c-18 -10 -20 -14 -9 -19 10 -3 13 -15 10 -36 -5 -34 10
-41 34 -17 19 20 18 46 -3 46 -13 0 -14 3 -5 12 27 27 11 35 -27 14z"/>
<path d="M3360 3440 c-6 -11 -9 -26 -7 -33 3 -7 10 1 16 17 14 35 7 47 -9 16z"/>
<path d="M1525 3290 c3 -5 8 -10 11 -10 2 0 4 5 4 10 0 6 -5 10 -11 10 -5 0
-7 -4 -4 -10z"/>
<path d="M1225 2930 c-3 -5 -1 -10 4 -10 6 0 11 5 11 10 0 6 -2 10 -4 10 -3 0
-8 -4 -11 -10z"/>
<path d="M1570 2879 c0 -5 5 -7 10 -4 6 3 10 8 10 11 0 2 -4 4 -10 4 -5 0 -10
-5 -10 -11z"/>
<path d="M1188 2833 c7 -3 16 -2 19 1 4 3 -2 6 -13 5 -11 0 -14 -3 -6 -6z"/>
<path d="M1360 2389 c0 -5 5 -7 10 -4 6 3 10 8 10 11 0 2 -4 4 -10 4 -5 0 -10
-5 -10 -11z"/>
<path d="M1315 2370 c-3 -5 -1 -10 4 -10 6 0 11 5 11 10 0 6 -2 10 -4 10 -3 0
-8 -4 -11 -10z"/>
<path d="M1356 2357 c3 -10 9 -15 12 -12 3 3 0 11 -7 18 -10 9 -11 8 -5 -6z"/>
<path d="M1383 2323 c9 -2 23 -2 30 0 6 3 -1 5 -18 5 -16 0 -22 -2 -12 -5z"/>
<path d="M1447 2323 c-4 -3 1 -12 11 -19 15 -12 14 -13 -10 -14 -16 0 -28 -5
-28 -11 0 -7 10 -9 27 -4 15 3 32 7 36 8 5 1 11 -5 12 -14 3 -15 -7 -18 -92
-19 -47 -1 -67 2 -73 11 -3 4 -12 4 -20 -1 -11 -7 -8 -10 13 -15 33 -9 35 -20
5 -30 -20 -6 -21 -8 -5 -12 10 -3 25 1 34 9 14 11 16 11 8 -1 -7 -11 -2 -13
25 -7 19 3 58 9 87 13 51 6 61 12 46 27 -5 4 -8 20 -9 34 0 22 -4 27 -23 24
-17 -1 -22 2 -17 13 5 15 -14 21 -27 8z m-2 -93 c-3 -5 -16 -10 -28 -9 -20 1
-20 2 3 9 14 4 26 8 28 9 2 1 0 -3 -3 -9z"/>
<path d="M1198 2313 c6 -2 18 -2 25 0 6 3 1 5 -13 5 -14 0 -19 -2 -12 -5z"/>
<path d="M1313 2305 c20 -19 58 -37 65 -30 4 4 -1 11 -11 16 -9 6 -16 13 -13
17 2 4 -9 7 -24 8 -22 1 -26 -2 -17 -11z"/>
<path d="M1385 2260 c-3 -5 1 -10 10 -10 9 0 13 5 10 10 -3 6 -8 10 -10 10 -2
0 -7 -4 -10 -10z"/>
<path d="M1170 2250 c0 -5 5 -10 10 -10 6 0 10 5 10 10 0 6 -4 10 -10 10 -5 0
-10 -4 -10 -10z"/>
<path d="M1190 2215 c0 -8 8 -11 20 -8 11 3 20 7 20 8 0 1 -9 5 -20 8 -12 3
-20 0 -20 -8z"/>
<path d="M1258 2223 c7 -3 16 -2 19 1 4 3 -2 6 -13 5 -11 0 -14 -3 -6 -6z"/>
<path d="M1755 3120 c3 -5 8 -10 11 -10 2 0 4 5 4 10 0 6 -5 10 -11 10 -5 0
-7 -4 -4 -10z"/>
<path d="M1765 3059 c-11 -17 0 -20 21 -4 17 13 17 14 2 15 -9 0 -20 -5 -23
-11z"/>
<path d="M1676 3013 c-6 -14 -5 -15 5 -6 7 7 10 15 7 18 -3 3 -9 -2 -12 -12z"/>
<path d="M1690 2660 c0 -5 5 -10 10 -10 6 0 10 5 10 10 0 6 -4 10 -10 10 -5 0
-10 -4 -10 -10z"/>
<path d="M1891 2584 c0 -11 3 -14 6 -6 3 7 2 16 -1 19 -3 4 -6 -2 -5 -13z"/>
<path d="M8490 2145 c0 -9 6 -12 15 -9 8 4 15 10 15 15 0 5 -7 9 -15 9 -8 0
-15 -7 -15 -15z"/>
<path d="M8310 1790 c0 -5 9 -10 20 -10 11 0 20 5 20 10 0 6 -9 10 -20 10 -11
0 -20 -4 -20 -10z"/>
<path d="M8258 1783 c7 -3 16 -2 19 1 4 3 -2 6 -13 5 -11 0 -14 -3 -6 -6z"/>
<path d="M8395 1780 c3 -5 10 -10 16 -10 5 0 9 5 9 10 0 6 -7 10 -16 10 -8 0
-12 -4 -9 -10z"/>
<path d="M9103 1756 c45 -35 212 -46 240 -16 9 10 8 12 -5 7 -20 -7 -25 9 -5
16 6 3 -26 5 -72 4 -47 0 -79 -3 -73 -5 17 -5 15 -22 -3 -22 -8 0 -15 4 -15
10 0 5 -6 7 -13 4 -8 -3 -27 0 -43 6 -25 9 -27 8 -11 -4z"/>
<path d="M8128 1753 c12 -2 32 -2 45 0 12 2 2 4 -23 4 -25 0 -35 -2 -22 -4z"/>
<path d="M8790 1730 c-12 -8 -11 -10 7 -10 12 0 25 5 28 10 8 13 -15 13 -35 0z"/>
<path d="M9065 1730 c3 -5 11 -10 16 -10 6 0 7 5 4 10 -3 6 -11 10 -16 10 -6
0 -7 -4 -4 -10z"/>
<path d="M3280 1938 c0 -5 5 -8 10 -8 6 0 10 -4 10 -8 0 -12 -92 -32 -143 -32
-30 0 -38 -3 -27 -9 8 -6 26 -8 40 -5 23 4 110 11 170 13 20 1 22 3 10 11 -11
7 0 10 38 10 31 0 52 4 52 11 0 7 -10 9 -25 7 -14 -3 -25 -1 -25 4 0 5 -5 6
-10 3 -17 -11 -70 -15 -70 -5 0 4 6 10 13 13 6 2 0 4 -15 3 -16 0 -28 -4 -28
-8z"/>
<path d="M3506 1928 c3 -5 10 -6 15 -3 13 9 11 12 -6 12 -8 0 -12 -4 -9 -9z"/>
<path d="M3148 1913 c7 -3 16 -2 19 1 4 3 -2 6 -13 5 -11 0 -14 -3 -6 -6z"/>
<path d="M3018 1883 c7 -3 16 -2 19 1 4 3 -2 6 -13 5 -11 0 -14 -3 -6 -6z"/>
<path d="M4823 1793 c15 -2 37 -2 50 0 12 2 0 4 -28 4 -27 0 -38 -2 -22 -4z"/>
<path d="M2786 1703 c-4 -4 -64 -10 -134 -13 -116 -5 -124 -7 -97 -19 21 -9
60 -12 131 -8 99 5 150 19 139 38 -7 11 -29 12 -39 2z"/>
<path d="M6621 1584 c0 -11 3 -14 6 -6 3 7 2 16 -1 19 -3 4 -6 -2 -5 -13z"/>
<path d="M910 1360 c0 -5 4 -10 9 -10 6 0 13 5 16 10 3 6 -1 10 -9 10 -9 0
-16 -4 -16 -10z"/>
<path d="M855 1350 c3 -5 11 -10 16 -10 6 0 7 5 4 10 -3 6 -11 10 -16 10 -6 0
-7 -4 -4 -10z"/>
<path d="M8007 1175 c-7 -17 43 -62 79 -71 46 -12 125 47 92 68 -18 11 -28 10
-28 -2 0 -5 5 -10 12 -10 9 0 8 -3 -1 -12 -11 -10 -14 -10 -18 0 -3 6 -9 12
-15 12 -6 0 -8 -7 -5 -15 4 -8 2 -17 -3 -20 -6 -4 -10 3 -10 13 0 14 -7 20
-25 20 -14 0 -25 -5 -25 -10 0 -5 4 -7 9 -3 5 3 12 1 16 -5 7 -12 -15 -13 -31
-2 -6 4 -14 17 -18 30 -8 25 -21 29 -29 7z"/>
<path d="M8310 1166 c0 -2 7 -6 15 -10 8 -3 15 -1 15 4 0 6 -7 10 -15 10 -8 0
-15 -2 -15 -4z"/>
<path d="M7830 1149 c0 -5 5 -7 10 -4 6 3 10 8 10 11 0 2 -4 4 -10 4 -5 0 -10
-5 -10 -11z"/>
<path d="M7868 1153 c6 -2 18 -2 25 0 6 3 1 5 -13 5 -14 0 -19 -2 -12 -5z"/>
<path d="M8420 1059 c0 -5 5 -7 10 -4 6 3 10 8 10 11 0 2 -4 4 -10 4 -5 0 -10
-5 -10 -11z"/>
<path d="M7870 926 c0 -2 7 -7 16 -10 8 -3 12 -2 9 4 -6 10 -25 14 -25 6z"/>
<path d="M1493 1273 c9 -2 23 -2 30 0 6 3 -1 5 -18 5 -16 0 -22 -2 -12 -5z"/>
<path d="M1395 1251 c-83 -10 -36 -18 65 -11 52 4 79 8 60 9 -19 0 -44 3 -55
5 -11 2 -42 0 -70 -3z"/>
<path d="M3165 1170 c-3 -5 7 -12 22 -16 15 -3 33 -7 40 -9 7 -2 15 0 18 5 4
6 -3 10 -14 10 -11 0 -23 5 -26 10 -8 13 -32 13 -40 0z"/>
<path d="M3128 1108 c5 -5 16 -8 23 -6 8 3 3 7 -10 11 -17 4 -21 3 -13 -5z"/>
<path d="M3545 1090 c-18 -8 -18 -9 5 -9 14 0 32 4 40 9 12 8 12 10 -5 9 -11
0 -29 -4 -40 -9z"/>
<path d="M3785 1060 c-3 -5 -1 -10 4 -10 6 0 11 5 11 10 0 6 -2 10 -4 10 -3 0
-8 -4 -11 -10z"/>
<path d="M3590 1052 c0 -11 34 -22 70 -22 34 0 13 16 -32 24 -22 4 -38 3 -38
-2z"/>
<path d="M3730 1029 c0 -5 9 -9 20 -9 11 0 20 2 20 4 0 2 -9 6 -20 9 -11 3
-20 1 -20 -4z"/>
<path d="M3870 1021 c0 -5 9 -11 20 -14 24 -6 27 8 4 17 -21 8 -24 8 -24 -3z"/>
<path d="M4027 1009 c7 -7 15 -10 18 -7 3 3 -2 9 -12 12 -14 6 -15 5 -6 -5z"/>
<path d="M7312 1194 c-6 -11 -11 -13 -16 -5 -9 13 -26 15 -26 1 0 -15 67 -23
97 -11 l28 11 -33 -3 c-24 -3 -32 0 -28 10 8 19 -11 16 -22 -3z"/>
<path d="M7398 1203 c7 -3 16 -2 19 1 4 3 -2 6 -13 5 -11 0 -14 -3 -6 -6z"/>
<path d="M7612 1192 c-10 -3 -7 -9 8 -19 25 -18 33 -14 17 8 -7 9 -18 14 -25
11z"/>
<path d="M7721 1186 c-7 -8 -8 -17 -3 -20 6 -3 15 1 21 8 7 8 8 17 3 20 -6 3
-15 -1 -21 -8z"/>
<path d="M7738 1134 c-34 -18 -36 -26 -5 -22 27 4 47 16 47 29 0 12 -10 11
-42 -7z"/>
<path d="M7590 1070 c-13 -8 -13 -11 0 -25 14 -13 16 -12 18 10 2 28 2 28 -18
15z"/>
<path d="M7740 1050 c0 -5 5 -10 11 -10 6 0 8 -7 5 -16 -5 -14 -4 -15 8 -4 13
10 13 14 1 26 -16 16 -25 18 -25 4z"/>
<path d="M7630 1040 c0 -5 5 -10 11 -10 5 0 7 5 4 10 -3 6 -8 10 -11 10 -2 0
-4 -4 -4 -10z"/>
<path d="M7720 1016 c0 -22 3 -27 11 -19 8 8 8 16 0 30 -9 16 -10 14 -11 -11z"/>
<path d="M7670 1011 c0 -12 5 -21 10 -21 6 0 10 6 10 14 0 8 -4 18 -10 21 -5
3 -10 -3 -10 -14z"/>
<path d="M7615 1010 c3 -5 10 -10 16 -10 5 0 9 5 9 10 0 6 -7 10 -16 10 -8 0
-12 -4 -9 -10z"/>
<path d="M7443 1094 c-26 -29 -15 -32 16 -5 12 11 18 21 14 24 -5 3 -18 -6
-30 -19z"/>
<path d="M7441 1006 c-8 -10 -9 -16 -1 -21 5 -3 13 1 16 10 9 22 -1 29 -15 11z"/>
<path d="M8765 1060 c-3 -6 1 -7 9 -4 18 7 21 14 7 14 -6 0 -13 -4 -16 -10z"/>
<path d="M9106 1103 c-3 -4 -6 -11 -6 -16 0 -6 3 -8 6 -4 3 3 15 -3 27 -14 11
-10 27 -19 34 -19 8 0 11 -4 8 -10 -3 -5 3 -10 14 -10 11 0 25 -8 30 -17 7
-12 11 -13 11 -5 0 16 -16 33 -52 51 -15 8 -36 22 -47 32 -10 10 -22 15 -25
12z"/>
<path d="M9263 1073 c-18 -7 -16 -23 2 -23 8 0 15 7 15 15 0 8 -1 15 -2 14 -2
0 -9 -3 -15 -6z"/>
<path d="M9270 1030 c0 -5 7 -10 16 -10 8 0 12 5 9 10 -3 6 -10 10 -16 10 -5
0 -9 -4 -9 -10z"/>
<path d="M9265 990 c4 -11 2 -20 -4 -20 -6 0 -11 5 -11 12 0 15 -13 1 -16 -17
-1 -8 3 -15 10 -15 18 0 49 37 41 49 -11 19 -27 12 -20 -9z"/>
<path d="M9137 985 c-8 -19 13 -31 23 -14 9 14 4 29 -10 29 -4 0 -10 -7 -13
-15z"/>
<path d="M8187 1060 c3 -11 12 -20 19 -20 8 0 14 9 14 20 0 13 -7 20 -19 20
-14 0 -18 -5 -14 -20z"/>
<path d="M8144 1054 c3 -9 6 -18 6 -20 0 -2 7 -4 15 -4 18 0 19 12 3 28 -17
17 -31 15 -24 -4z"/>
<path d="M8246 1054 c-9 -23 -2 -28 13 -10 7 8 8 17 3 20 -6 3 -13 -1 -16 -10z"/>
<path d="M8100 1021 c0 -11 31 -24 39 -16 3 3 -1 10 -9 15 -19 12 -30 12 -30
1z"/>
<path d="M9630 970 c0 -4 6 -13 14 -19 10 -8 16 -8 25 3 9 11 6 15 -14 18 -14
3 -25 2 -25 -2z"/>
<path d="M723 1033 c15 -2 39 -2 55 0 15 2 2 4 -28 4 -30 0 -43 -2 -27 -4z"/>
<path d="M558 1018 c8 -8 20 -8 44 -1 l33 11 -44 1 c-34 1 -42 -2 -33 -11z"/>
<path d="M645 1020 c-3 -5 3 -10 14 -10 11 0 23 5 26 10 3 6 -3 10 -14 10 -11
0 -23 -4 -26 -10z"/>
<path d="M7615 890 c-3 -5 -1 -10 4 -10 6 0 11 5 11 10 0 6 -2 10 -4 10 -3 0
-8 -4 -11 -10z"/>
<path d="M6740 335 c-8 -9 -8 -15 -2 -15 12 0 26 19 19 26 -2 2 -10 -2 -17
-11z"/>
<path d="M6795 290 c-3 -6 1 -7 9 -4 18 7 21 14 7 14 -6 0 -13 -4 -16 -10z"/>
<path d="M6990 290 c0 -5 5 -10 11 -10 5 0 7 5 4 10 -3 6 -8 10 -11 10 -2 0
-4 -4 -4 -10z"/>
<path d="M6935 280 c3 -5 13 -10 21 -10 8 0 12 5 9 10 -3 6 -13 10 -21 10 -8
0 -12 -4 -9 -10z"/>
<path d="M6890 276 c0 -2 7 -6 15 -10 8 -3 15 -1 15 4 0 6 -7 10 -15 10 -8 0
-15 -2 -15 -4z"/>
<path d="M7077 220 c3 -11 14 -20 24 -20 25 0 24 4 -5 23 -23 15 -24 15 -19
-3z"/>
<path d="M7035 190 c3 -5 8 -10 11 -10 2 0 4 5 4 10 0 6 -5 10 -11 10 -5 0 -7
-4 -4 -10z"/>
<path d="M7894 128 c-4 -6 -3 -8 4 -4 5 3 13 0 15 -6 3 -8 6 -6 6 5 1 19 -14
23 -25 5z"/>
<path d="M9465 121 c-3 -6 -12 -8 -18 -5 -8 5 -8 3 1 -7 9 -10 15 -10 24 -1 6
6 9 14 6 17 -3 4 -9 1 -13 -4z"/>
<path d="M9540 100 c0 -4 20 -10 45 -12 24 -1 41 0 37 3 -12 10 -82 18 -82 9z"/>
<path d="M9678 83 c-26 -7 -22 -18 7 -18 14 0 25 4 25 8 0 5 5 5 12 1 7 -4 8
-3 4 4 -7 12 -17 13 -48 5z"/>
<path d="M6961 3948 c-38 -195 -58 -303 -57 -305 0 -1 24 3 51 9 28 6 107 13
176 17 l126 6 -29 125 c-16 69 -33 142 -39 163 l-10 37 -104 0 -104 0 -10 -52z"/>
<path d="M7554 3973 c-3 -16 -12 -53 -20 -84 -8 -31 -14 -60 -14 -64 0 -4 23
-5 51 -1 l52 7 -7 -40 c-3 -21 -9 -47 -12 -56 -6 -14 -3 -16 13 -11 41 13 337
36 546 43 119 3 217 9 217 13 0 4 -15 54 -34 111 l-34 104 -376 3 -376 2 -6
-27z"/>
<path d="M8546 3953 c-35 -90 -56 -156 -51 -161 4 -5 45 83 45 98 0 4 6 13 14
19 8 6 16 22 19 34 2 12 8 30 12 40 5 11 3 17 -7 17 -7 0 -22 -21 -32 -47z"/>
<path d="M9480 3938 c0 -104 14 -266 20 -234 8 46 0 296 -11 296 -5 0 -9 -28
-9 -62z"/>
<path d="M10765 3893 c4 -60 13 -189 20 -288 l12 -180 2 288 c1 285 1 287 -20
287 -20 0 -20 -3 -14 -107z"/>
<path d="M4738 3973 c-24 -6 -23 -23 1 -23 10 0 21 7 25 15 6 15 4 16 -26 8z"/>
<path d="M4820 3971 c0 -5 7 -12 16 -15 24 -9 28 -7 14 9 -14 17 -30 20 -30 6z"/>
<path d="M5120 3880 c0 -16 4 -30 8 -30 5 0 7 14 4 30 -2 17 -6 30 -8 30 -2 0
-4 -13 -4 -30z"/>
<path d="M10280 3807 l5 -82 3 74 c2 41 -1 78 -5 82 -4 4 -6 -29 -3 -74z"/>
<path d="M10040 3690 c0 -15 29 -32 47 -27 13 3 11 5 -7 6 l-25 2 25 14 25 14
-32 -1 c-18 -1 -33 -4 -33 -8z"/>
<path d="M7173 3585 c0 -27 2 -38 4 -22 2 15 2 37 0 50 -2 12 -4 0 -4 -28z"/>
<path d="M8397 3590 c-3 -11 -1 -23 4 -26 5 -3 9 6 9 20 0 31 -6 34 -13 6z"/>
<path d="M9496 3525 c6 -69 13 -96 15 -59 1 10 3 30 4 43 1 14 -4 39 -12 55
-13 29 -13 27 -7 -39z"/>
<path d="M6928 3463 c7 -3 16 -2 19 1 4 3 -2 6 -13 5 -11 0 -14 -3 -6 -6z"/>
<path d="M7166 3442 c-2 -4 4 -8 14 -8 10 0 16 4 14 8 -3 4 -9 8 -14 8 -5 0
-11 -4 -14 -8z"/>
<path d="M10060 3250 c0 -11 2 -20 5 -20 2 0 9 9 15 20 9 16 8 20 -5 20 -8 0
-15 -9 -15 -20z"/>
<path d="M10125 3260 c-3 -5 -2 -10 4 -10 5 0 13 5 16 10 3 6 2 10 -4 10 -5 0
-13 -4 -16 -10z"/>
<path d="M7855 3062 c1 -51 5 -95 9 -99 8 -9 6 80 -4 142 -6 40 -7 32 -5 -43z"/>
<path d="M7675 3020 c3 -5 8 -10 11 -10 2 0 4 5 4 10 0 6 -5 10 -11 10 -5 0
-7 -4 -4 -10z"/>
<path d="M6930 2948 c0 -81 6 -112 21 -102 10 6 0 142 -12 164 -5 9 -9 -15 -9
-62z"/>
<path d="M7995 2940 c-3 -5 -2 -10 4 -10 5 0 13 5 16 10 3 6 2 10 -4 10 -5 0
-13 -4 -16 -10z"/>
<path d="M7010 2810 c0 -11 5 -20 10 -20 6 0 10 9 10 20 0 11 -4 20 -10 20 -5
0 -10 -9 -10 -20z"/>
<path d="M6930 2800 c0 -5 7 -10 15 -10 8 0 15 -6 15 -12 0 -9 3 -8 9 2 6 8 7
18 5 22 -7 12 -44 10 -44 -2z"/>
<path d="M7100 2789 c0 -5 5 -7 10 -4 6 3 10 8 10 11 0 2 -4 4 -10 4 -5 0 -10
-5 -10 -11z"/>
<path d="M6940 2740 c0 -6 7 -10 15 -10 8 0 15 2 15 4 0 2 -7 6 -15 10 -8 3
-15 1 -15 -4z"/>
<path d="M7250 2695 c0 -8 5 -15 10 -15 6 0 10 7 10 15 0 8 -4 15 -10 15 -5 0
-10 -7 -10 -15z"/>
<path d="M6770 2589 c0 -5 5 -7 10 -4 6 3 10 8 10 11 0 2 -4 4 -10 4 -5 0 -10
-5 -10 -11z"/>
<path d="M83 763 c0 -7 5 -13 12 -13 6 0 19 6 28 13 15 11 14 12 -11 12 -16 0
-29 -5 -29 -12z"/>
<path d="M7920 260 c0 -5 7 -10 16 -10 8 0 12 5 9 10 -3 6 -10 10 -16 10 -5 0
-9 -4 -9 -10z"/>
<path d="M7674 245 c26 -19 42 -19 26 0 -7 8 -20 15 -29 15 -13 -1 -13 -3 3
-15z"/>
<path d="M7730 250 c0 -5 7 -10 15 -10 8 0 15 5 15 10 0 6 -7 10 -15 10 -8 0
-15 -4 -15 -10z"/>
<path d="M7785 250 c-3 -5 3 -10 14 -10 12 0 21 5 21 10 0 6 -6 10 -14 10 -8
0 -18 -4 -21 -10z"/>
<path d="M8270 230 c0 -6 7 -10 15 -10 8 0 15 2 15 4 0 2 -7 6 -15 10 -8 3
-15 1 -15 -4z"/>
<path d="M7635 210 c-3 -5 1 -10 9 -10 9 0 16 5 16 10 0 6 -4 10 -9 10 -6 0
-13 -4 -16 -10z"/>
<path d="M7673 207 c4 -10 2 -17 -5 -17 -6 0 -9 -3 -5 -6 3 -3 12 -2 20 3 13
7 13 10 -1 23 -14 13 -15 12 -9 -3z"/>
<path d="M7860 206 c0 -8 -10 -16 -22 -19 -21 -3 -21 -4 -4 -12 12 -5 21 -3
26 5 4 7 15 10 24 7 8 -3 18 -2 21 3 4 6 -1 10 -9 10 -9 0 -16 5 -16 10 0 6
-4 10 -10 10 -5 0 -10 -6 -10 -14z"/>
<path d="M8785 190 c3 -5 11 -10 16 -10 6 0 7 5 4 10 -3 6 -11 10 -16 10 -6 0
-7 -4 -4 -10z"/>
<path d="M7730 179 c0 -5 5 -7 10 -4 6 3 10 8 10 11 0 2 -4 4 -10 4 -5 0 -10
-5 -10 -11z"/>
<path d="M7780 170 c20 -13 33 -13 25 0 -3 6 -14 10 -23 10 -15 0 -15 -2 -2
-10z"/>
<path d="M8860 169 c0 -5 5 -7 10 -4 6 3 10 8 10 11 0 2 -4 4 -10 4 -5 0 -10
-5 -10 -11z"/>
<path d="M8915 160 c3 -5 15 -10 26 -10 11 0 17 5 14 10 -3 6 -15 10 -26 10
-11 0 -17 -4 -14 -10z"/>
<path d="M7016 122 c-15 -18 -15 -20 4 -37 11 -10 20 -13 20 -7 0 6 -5 12 -12
14 -16 6 -1 27 26 38 21 9 21 9 0 9 -11 1 -28 -7 -38 -17z"/>
<path d="M7180 130 c0 -5 5 -10 10 -10 6 0 10 5 10 10 0 6 -4 10 -10 10 -5 0
-10 -4 -10 -10z"/>
<path d="M7310 125 c-10 -12 -10 -18 0 -30 17 -20 3 -37 -28 -32 -15 2 -21 2
-13 -1 12 -3 12 -5 0 -14 -10 -7 -5 -8 16 -3 44 9 60 28 46 54 -7 12 -9 26 -6
31 10 15 -1 12 -15 -5z"/>
<path d="M7235 120 c-3 -5 1 -10 9 -10 8 0 18 5 21 10 3 6 -1 10 -9 10 -8 0
-18 -4 -21 -10z"/>
<path d="M6770 110 c-11 -7 -12 -12 -4 -20 8 -8 13 -6 17 9 3 12 4 21 4 21 -1
0 -9 -5 -17 -10z"/>
<path d="M7495 110 c3 -5 8 -10 11 -10 2 0 4 5 4 10 0 6 -5 10 -11 10 -5 0 -7
-4 -4 -10z"/>
<path d="M6623 94 c-17 -13 -16 -14 12 -8 37 8 39 10 21 17 -8 3 -22 -1 -33
-9z"/>
<path d="M6967 89 c4 -13 9 -17 15 -11 11 11 3 32 -12 32 -4 0 -6 -9 -3 -21z"/>
<path d="M7065 100 c3 -5 8 -10 11 -10 2 0 4 5 4 10 0 6 -5 10 -11 10 -5 0 -7
-4 -4 -10z"/>
<path d="M8438 103 c7 -3 16 -2 19 1 4 3 -2 6 -13 5 -11 0 -14 -3 -6 -6z"/>
<path d="M7434 74 c-58 -14 -71 -33 -43 -56 12 -10 29 -18 38 -17 11 0 9 4 -7
11 -55 27 0 59 89 53 27 -2 47 0 44 4 -9 15 -73 17 -121 5z"/>
<path d="M9295 70 c3 -5 11 -10 16 -10 6 0 7 5 4 10 -3 6 -11 10 -16 10 -6 0
-7 -4 -4 -10z"/>
<path d="M9359 69 c-8 -5 -12 -9 -9 -10 3 0 13 -2 22 -4 10 -2 20 0 23 5 8 12
-20 19 -36 9z"/>
<path d="M9910 71 c0 -5 10 -11 23 -15 35 -9 40 -7 27 9 -13 16 -50 21 -50 6z"/>
<path d="M6635 60 c3 -5 8 -10 11 -10 2 0 4 5 4 10 0 6 -5 10 -11 10 -5 0 -7
-4 -4 -10z"/>
<path d="M6695 60 c4 -6 11 -8 16 -5 14 9 11 15 -7 15 -8 0 -12 -5 -9 -10z"/>
<path d="M6750 60 c0 -5 7 -10 16 -10 8 0 12 5 9 10 -3 6 -10 10 -16 10 -5 0
-9 -4 -9 -10z"/>
<path d="M7054 62 c2 -4 -19 -8 -49 -9 -59 -2 -95 -16 -95 -38 0 -12 24 -14
131 -14 141 0 163 10 78 39 -24 8 -45 18 -47 23 -2 4 -8 7 -13 7 -6 0 -8 -4
-5 -8z"/>
<path d="M8265 60 c-3 -5 -21 -10 -40 -10 -19 0 -37 -5 -40 -11 -5 -7 5 -8 30
-3 30 5 40 2 61 -16 29 -28 42 -22 15 7 -15 15 -17 23 -8 32 8 8 8 11 0 11 -7
0 -15 -4 -18 -10z"/>
<path d="M7140 49 c0 -5 5 -7 10 -4 6 3 10 8 10 11 0 2 -4 4 -10 4 -5 0 -10
-5 -10 -11z"/>
<path d="M7200 50 c19 -13 30 -13 30 0 0 6 -10 10 -22 10 -19 0 -20 -2 -8 -10z"/>
<path d="M7638 43 c18 -15 20 -21 10 -31 -9 -9 -8 -12 5 -12 20 0 34 27 21 40
-5 4 -20 11 -34 15 l-25 6 23 -18z"/>
<path d="M8125 50 c-3 -5 1 -10 9 -10 9 0 16 5 16 10 0 6 -4 10 -9 10 -6 0
-13 -4 -16 -10z"/>
<path d="M8912 49 c-33 -10 -42 -37 -14 -47 7 -2 10 2 6 11 -13 36 130 41 216
8 63 -24 63 -24 55 -11 -10 16 -127 47 -180 48 -27 0 -65 -4 -83 -9z"/>
<path d="M9416 52 c-9 -15 23 -24 42 -12 10 5 12 10 5 10 -6 0 -18 3 -26 6 -8
3 -18 1 -21 -4z"/>
<path d="M9775 49 c-12 -18 3 -22 20 -5 14 14 14 16 1 16 -8 0 -18 -5 -21 -11z"/>
<path d="M7962 38 c-15 -15 -16 -38 -2 -38 6 0 10 7 10 15 0 9 10 20 23 25 21
8 21 9 2 9 -12 1 -26 -4 -33 -11z"/>
<path d="M10065 40 c-3 -5 3 -10 14 -10 12 0 21 5 21 10 0 6 -6 10 -14 10 -8
0 -18 -4 -21 -10z"/>
<path d="M8340 29 c0 -5 5 -7 10 -4 6 3 10 8 10 11 0 2 -4 4 -10 4 -5 0 -10
-5 -10 -11z"/>
<path d="M9370 29 c0 -5 5 -7 10 -4 6 3 10 8 10 11 0 2 -4 4 -10 4 -5 0 -10
-5 -10 -11z"/>
<path d="M9920 24 c0 -8 5 -12 10 -9 6 4 8 11 5 16 -9 14 -15 11 -15 -7z"/>
<path d="M10120 30 c0 -5 5 -10 11 -10 5 0 7 5 4 10 -3 6 -8 10 -11 10 -2 0
-4 -4 -4 -10z"/>
<path d="M7780 20 c0 -5 5 -10 11 -10 5 0 7 5 4 10 -3 6 -8 10 -11 10 -2 0 -4
-4 -4 -10z"/>
<path d="M8418 23 c7 -3 16 -2 19 1 4 3 -2 6 -13 5 -11 0 -14 -3 -6 -6z"/>
<path d="M6645 10 c-3 -5 1 -10 10 -10 9 0 13 5 10 10 -3 6 -8 10 -10 10 -2 0
-7 -4 -10 -10z"/>
<path d="M6823 13 c9 -2 23 -2 30 0 6 3 -1 5 -18 5 -16 0 -22 -2 -12 -5z"/>
<path d="M7998 13 c7 -3 16 -2 19 1 4 3 -2 6 -13 5 -11 0 -14 -3 -6 -6z"/>
<path d="M6703 3 c9 -2 23 -2 30 0 6 3 -1 5 -18 5 -16 0 -22 -2 -12 -5z"/>
</g>
</svg>
