<?xml version="1.0" standalone="no"?>
<!DOCTYPE svg PUBLIC "-//W3C//DTD SVG 20010904//EN"
 "http://www.w3.org/TR/2001/REC-SVG-20010904/DTD/svg10.dtd">
<svg version="1.0" xmlns="http://www.w3.org/2000/svg"
 width="2109.000000pt" height="3001.000000pt" viewBox="0 0 2109.000000 3001.000000"
 preserveAspectRatio="xMidYMid meet">

<g transform="translate(0.000000,3001.000000) scale(0.100000,-0.100000)"
fill="#000000" stroke="none">
<path d="M3734 24863 c5 -12 3 -13 -6 -6 -17 14 -68 14 -68 0 0 -8 -4 -7 -11
0 -8 8 -20 8 -34 3 -13 -5 -26 -6 -29 -3 -3 4 -6 0 -6 -8 0 -11 -2 -12 -9 -1
-5 8 -9 -15 -10 -58 -1 -56 1 -70 11 -64 10 6 10 4 2 -7 -5 -8 -9 -20 -8 -26
1 -7 2 -20 3 -29 1 -14 4 -14 19 -3 14 11 15 11 5 -1 -7 -8 -13 -30 -13 -50 0
-20 6 -42 13 -49 10 -10 9 -11 -5 -6 -16 6 -18 0 -18 -47 0 -30 6 -60 13 -67
8 -9 8 -12 0 -7 -8 5 -12 -39 -13 -171 l-1 -178 70 0 69 0 0 148 c0 81 3 151
7 155 5 4 5 1 0 -7 -6 -10 -2 -12 13 -7 11 4 23 2 27 -4 10 -16 136 -10 142 7
4 9 18 -4 41 -37 19 -27 39 -50 44 -50 5 0 7 -3 5 -7 -7 -13 11 -53 24 -53 8
0 8 4 -1 15 -7 8 -10 15 -6 15 3 0 1 12 -5 26 -8 21 0 17 36 -21 25 -27 45
-52 45 -57 0 -5 8 -4 19 1 24 13 33 4 20 -21 -6 -11 -15 -16 -22 -11 -7 4 -16
8 -22 8 -5 1 -9 7 -7 14 3 14 -25 51 -38 51 -13 0 -4 -54 14 -85 55 -98 66
-105 115 -77 16 9 21 10 16 2 -5 -9 -1 -8 16 1 25 13 30 15 64 17 16 2 12 9
-25 47 -24 24 -48 41 -53 38 -6 -4 -7 -1 -2 6 4 8 -15 34 -56 72 -34 32 -59
59 -55 59 5 0 3 7 -4 15 -7 9 -19 14 -25 11 -8 -3 -11 2 -8 15 3 11 0 19 -8
19 -7 0 -9 3 -6 7 4 3 2 12 -4 19 -7 8 -7 14 1 19 6 4 9 1 8 -7 -2 -7 4 -12
14 -10 9 1 19 -2 23 -8 3 -6 0 -7 -9 -4 -9 3 -16 1 -16 -5 0 -16 22 -13 50 6
14 10 25 16 25 15 0 -2 8 0 17 3 10 4 15 11 12 16 -3 5 2 6 11 3 20 -8 57 17
88 58 27 36 46 85 29 74 -6 -3 -14 -2 -17 4 -4 6 -1 9 7 8 25 -6 14 97 -16
142 -28 42 -45 51 -42 23 0 -10 -3 -18 -9 -18 -17 -1 -36 -16 -30 -25 3 -5 1
-11 -4 -14 -20 -13 -22 16 -3 30 14 9 19 21 15 32 -4 13 -2 13 11 -3 15 -20
16 -20 12 5 -3 14 -5 29 -5 33 -1 5 -5 6 -10 3 -5 -3 -12 1 -15 10 -3 8 -10
12 -16 9 -6 -3 -13 1 -16 9 -3 9 -10 14 -14 11 -5 -3 -11 -1 -15 5 -4 6 -11 8
-16 5 -5 -4 -9 -2 -9 3 0 16 -67 25 -208 28 -119 3 -133 1 -128 -13z m66 1 c0
-8 -19 -13 -24 -6 -3 5 1 9 9 9 8 0 15 -2 15 -3z m95 -3 c6 -1 3 -6 -5 -11 -9
-5 -19 -5 -24 0 -4 4 -16 6 -25 3 -13 -4 -13 -3 -2 5 7 5 21 8 30 7 9 -2 21
-4 26 -4z m65 5 c0 -2 -8 -10 -17 -17 -16 -13 -17 -12 -4 4 13 16 21 21 21 13z
m-289 -29 c-10 -9 -11 -8 -5 6 3 10 9 15 12 12 3 -3 0 -11 -7 -18z m339 -9
c-16 -13 -26 -16 -34 -8 -5 5 -15 10 -20 10 -6 0 -2 -7 8 -15 10 -8 23 -12 27
-9 5 3 9 0 9 -5 0 -6 6 -11 14 -11 8 0 35 -23 60 -51 40 -45 46 -57 46 -96 0
-24 4 -42 9 -39 5 3 7 16 4 29 -3 12 -3 19 2 15 10 -10 14 -89 4 -82 -5 3 -7
10 -4 15 4 5 3 9 -2 9 -4 0 -18 -21 -31 -46 -18 -39 -19 -44 -5 -33 16 13 17
12 4 -3 -7 -10 -18 -18 -23 -18 -5 0 -18 -9 -30 -20 -18 -16 -19 -20 -5 -20 9
0 21 8 26 18 6 9 11 12 11 5 0 -6 -5 -15 -12 -19 -7 -5 -5 -11 7 -21 28 -20 5
-16 -31 6 -22 13 -36 16 -48 9 -9 -5 -14 -13 -11 -18 3 -5 1 -12 -5 -15 -6 -4
-10 -3 -9 2 3 20 -2 24 -17 12 -9 -7 -33 -12 -53 -11 -24 2 -43 -3 -51 -13
-20 -24 -119 -17 -104 7 4 5 -4 9 -17 8 -38 -3 -49 -1 -49 11 0 8 5 8 15 -1
13 -11 15 -9 12 8 -2 11 -9 27 -17 37 -11 14 -11 16 1 13 9 -2 14 7 15 30 2
22 -1 30 -9 25 -9 -5 -9 -3 -1 8 6 8 12 50 12 94 1 61 -3 84 -16 100 -16 18
-16 19 0 7 15 -12 17 -10 12 25 -3 21 -7 46 -9 56 -2 13 0 15 8 9 7 -5 54 -8
104 -8 51 1 93 -2 93 -6 0 -9 30 -6 48 6 7 4 16 5 19 2 3 -3 13 0 21 7 13 10
14 9 8 -2 -6 -9 -5 -12 5 -9 8 3 13 11 11 17 -1 7 2 9 9 5 9 -5 5 -13 -11 -26z
m65 -8 c-11 -4 -22 -3 -23 2 -2 5 -11 3 -20 -4 -15 -11 -15 -11 -4 3 8 11 21
14 39 11 24 -5 25 -6 8 -12z m-478 -44 c0 -44 0 -45 -4 -11 -3 22 -9 45 -14
51 -5 7 -4 11 4 11 10 0 14 -16 14 -51z m58 44 c3 -5 1 -10 -4 -10 -6 0 -11 5
-11 10 0 6 2 10 4 10 3 0 8 -4 11 -10z m425 -38 c0 -5 -7 -9 -15 -9 -8 0 -12
4 -9 9 3 4 9 8 15 8 5 0 9 -4 9 -8z m103 -226 c4 -10 1 -13 -9 -9 -7 3 -14 9
-14 14 0 14 17 10 23 -5z m27 -26 c-27 -25 -30 -33 -19 -46 11 -13 9 -14 -16
-2 -22 10 -25 14 -11 16 10 2 15 10 12 18 -3 8 1 14 9 14 8 0 15 7 15 15 0 9
6 12 15 9 8 -4 15 -1 15 7 0 7 3 9 6 6 4 -4 -8 -20 -26 -37z m-50 5 c0 -1 -8
-5 -18 -7 -11 -3 -19 0 -19 7 0 7 8 10 19 7 10 -2 18 -6 18 -7z m-17 -55 c3
-11 1 -18 -3 -15 -5 3 -16 -7 -25 -22 -9 -15 -14 -20 -11 -10 3 9 0 17 -7 18
-7 0 -1 5 12 10 17 7 22 15 18 29 -3 11 -2 18 3 15 4 -3 10 -14 13 -25z m-448
-79 c3 -5 2 -12 -3 -15 -5 -3 -9 1 -9 9 0 17 3 19 12 6z m200 -1 c-3 -5 -11
-10 -16 -10 -6 0 -7 5 -4 10 3 6 11 10 16 10 6 0 7 -4 4 -10z m88 -27 c-3 -7
-6 -13 -8 -13 -2 0 -5 6 -8 13 -3 8 1 14 8 14 7 0 11 -6 8 -14z m-18 -31 c-3
-3 0 -11 6 -19 17 -20 5 -16 -14 5 -15 16 -15 19 -2 19 8 0 13 -3 10 -5z m97
-62 c22 -8 22 -9 3 -9 -27 -1 -45 17 -44 44 0 19 1 19 9 -3 5 -12 20 -27 32
-32z m-367 -39 c3 -5 1 -12 -5 -16 -5 -3 -10 1 -10 9 0 18 6 21 15 7z m461
-18 c-7 -7 -26 7 -26 19 0 6 6 6 15 -2 9 -7 13 -15 11 -17z m-81 -63 c3 -6 -1
-7 -9 -4 -18 7 -21 14 -7 14 6 0 13 -4 16 -10z m120 -19 c-9 -8 -36 -10 -30
-2 2 4 11 8 20 8 8 0 13 -3 10 -6z m41 -14 c1 -9 -2 -17 -8 -17 -6 0 -8 6 -5
14 3 8 2 17 -4 20 -5 2 -4 3 2 2 7 -1 13 -10 15 -19z"/>
<path d="M3778 24403 c12 -2 32 -2 45 0 12 2 2 4 -23 4 -25 0 -35 -2 -22 -4z"/>
<path d="M4660 24861 c-18 -19 -14 -51 6 -51 16 0 19 17 3 22 -6 2 0 12 13 23
13 11 17 13 11 5 -15 -16 -17 -34 -4 -25 5 3 13 0 17 -6 4 -8 3 -9 -4 -5 -7 4
-12 2 -12 -3 0 -6 12 -11 28 -12 15 0 42 -2 61 -5 28 -3 32 -1 27 13 -4 10 -4
14 0 10 4 -4 17 1 28 10 21 18 21 18 2 -4 -18 -22 -11 -32 10 -15 5 4 1 -1 -9
-10 -19 -17 -18 -18 14 -20 19 -1 42 -2 52 -1 9 0 17 -4 17 -8 0 -3 9 -9 21
-12 13 -3 19 -1 16 6 -3 7 -10 11 -16 9 -7 -1 -10 2 -7 7 10 15 41 5 38 -12
-1 -9 7 -21 19 -27 26 -14 36 -6 18 16 -18 22 -20 44 -3 37 13 -5 24 24 22 59
-1 14 -4 15 -15 7 -10 -9 -13 -8 -13 2 0 8 -5 6 -14 -6 -11 -17 -23 -19 -70
-17 -75 5 -72 17 4 15 33 0 60 3 60 8 0 5 -69 8 -152 7 -126 -1 -156 -4 -168
-17z m165 -2 c-6 -9 -103 -11 -108 -2 -3 4 21 8 53 8 32 0 57 -3 55 -6z m159
-32 c-3 -8 -10 -14 -17 -15 -7 -1 -32 -4 -55 -7 -30 -4 -42 -3 -37 4 3 6 23
11 43 11 20 0 44 5 52 10 20 13 20 12 14 -3z"/>
<path d="M5422 24874 c-6 -3 -9 -10 -6 -16 4 -6 -3 -5 -15 2 -24 13 -161 12
-161 -2 0 -4 -9 -3 -20 4 -29 18 -50 -4 -32 -33 8 -12 9 -18 4 -15 -5 3 -12
-5 -14 -19 -3 -13 -1 -22 3 -19 13 7 11 -10 -1 -22 -8 -8 -6 -15 5 -24 8 -7
15 -26 15 -43 0 -36 -7 -33 -12 5 -10 69 -15 24 -16 -129 -1 -120 3 -170 11
-175 8 -5 7 -8 -3 -8 -9 0 -16 -9 -17 -20 -2 -25 12 -26 26 -2 6 9 11 12 11 6
0 -6 -3 -14 -7 -18 -5 -4 -8 -13 -8 -19 -1 -7 -6 -11 -13 -10 -7 2 -11 -15
-11 -52 1 -30 6 -55 11 -55 6 0 4 -8 -3 -17 -12 -15 -12 -16 1 -8 12 6 13 5 3
-6 -7 -7 -13 -32 -13 -56 l0 -43 305 0 305 0 0 68 0 67 -19 -25 c-16 -20 -22
-22 -34 -12 -11 9 -17 10 -22 2 -3 -6 -11 -7 -17 -4 -7 5 -9 1 -5 -9 5 -14 3
-15 -13 -5 -27 17 -34 4 -15 -29 16 -26 16 -27 0 -8 -9 11 -21 19 -26 17 -6
-1 -8 2 -4 8 3 5 2 10 -3 10 -12 0 -26 -29 -24 -50 1 -10 0 -11 -4 -2 -3 6
-10 10 -14 7 -5 -3 -12 0 -16 6 -4 8 -3 9 4 5 6 -3 16 2 21 13 10 18 8 18 -32
9 -23 -5 -46 -13 -51 -19 -6 -5 -15 -9 -20 -9 -6 0 -4 5 4 10 12 8 11 10 -7
10 -12 0 -27 -9 -33 -19 -10 -20 -52 -21 -58 -2 -2 5 -19 7 -38 4 -39 -6 -37
-16 -34 120 1 79 -2 102 -15 117 -11 12 -13 20 -5 25 6 3 9 1 8 -6 -2 -7 2
-13 9 -14 6 0 15 -3 19 -7 12 -13 26 -9 18 5 -6 10 -4 10 7 0 7 -7 26 -13 41
-13 16 0 28 6 28 13 0 9 2 9 8 0 9 -14 73 -13 85 2 4 6 10 5 16 -3 5 -8 22
-13 42 -11 19 2 39 0 45 -4 8 -4 11 7 11 33 0 22 -3 40 -8 40 -22 0 -39 -15
-39 -34 0 -11 -4 -16 -8 -11 -4 6 -17 10 -29 9 -12 -1 -20 3 -17 8 3 4 10 6
15 3 5 -4 9 -2 9 2 0 5 -22 9 -50 9 -27 0 -50 -4 -50 -9 0 -4 5 -5 12 -1 7 4
8 3 4 -5 -4 -6 -13 -8 -19 -4 -19 12 -81 11 -96 -1 -11 -8 -13 -8 -7 2 5 8 0
12 -13 12 -21 0 -21 5 -21 210 0 195 -1 209 -17 204 -14 -5 -15 -4 -4 4 10 7
10 11 1 17 -6 4 -20 -1 -31 -11 -19 -17 -20 -17 -13 2 7 17 6 18 -10 5 -13
-11 -20 -11 -28 -3 -9 9 -9 12 1 12 7 0 9 5 5 12 -5 7 -3 8 7 2 21 -13 41 -14
61 -3 13 7 18 6 16 -2 -2 -6 5 -16 14 -22 14 -9 23 -9 39 1 12 8 18 9 15 3 -4
-5 2 -10 11 -10 25 1 125 -12 141 -17 7 -2 10 1 7 6 -3 5 10 3 30 -6 34 -14
36 -14 33 3 -2 10 2 17 8 16 6 -1 34 -3 62 -4 30 -2 50 -7 49 -13 -1 -6 6 -10
15 -8 9 1 20 -3 24 -9 4 -7 3 -9 -4 -5 -6 3 -13 2 -17 -3 -3 -6 -14 -2 -25 9
-22 22 -50 26 -50 8 0 -10 -3 -10 -9 0 -5 8 -17 12 -27 10 -16 -4 -14 -7 11
-17 16 -7 40 -10 52 -8 13 2 24 -2 28 -10 3 -8 11 -13 17 -11 7 3 19 -1 26 -9
19 -18 31 -16 30 5 0 9 3 40 7 67 l7 51 -92 3 c-64 1 -96 -2 -108 -11 -12 -10
-14 -10 -8 0 9 16 -16 16 -32 0 -7 -7 -12 -8 -12 -2 0 11 -95 17 -118 8z m263
-13 c-6 -5 -29 -11 -52 -13 -23 -2 -39 0 -35 4 4 3 25 8 47 11 22 2 42 4 45 5
2 1 0 -2 -5 -7z m47 -13 c-6 -6 -22 -13 -34 -15 -18 -2 -19 -1 -8 6 8 5 17 8
21 5 4 -2 10 3 13 12 4 9 9 14 13 10 4 -3 1 -12 -5 -18z m-202 4 c0 -4 -18 -6
-40 -4 -24 3 -47 -1 -58 -9 -15 -13 -16 -12 -3 4 14 17 101 26 101 9z m35 -2
c-3 -5 -12 -10 -18 -10 -7 0 -6 4 3 10 19 12 23 12 15 0z m195 -14 c0 -2 -7
-7 -16 -10 -8 -3 -12 -2 -9 4 6 10 25 14 25 6z m-563 -211 c0 -8 -4 -12 -9 -9
-5 3 -6 10 -3 15 9 13 12 11 12 -6z m-6 -158 c-10 -9 -11 -8 -5 6 3 10 9 15
12 12 3 -3 0 -11 -7 -18z m6 -49 c2 -17 0 -19 -7 -8 -5 8 -6 18 -4 22 8 12 10
10 11 -14z m412 -41 c8 -10 7 -14 -2 -14 -8 0 -14 6 -14 14 0 7 1 13 2 13 2 0
8 -6 14 -13z m-432 -99 c-3 -8 -6 -5 -6 6 -1 11 2 17 5 13 3 -3 4 -12 1 -19z
m20 -30 c-3 -7 -5 -2 -5 12 0 14 2 19 5 13 2 -7 2 -19 0 -25z"/>
<path d="M2813 24824 c-1 -37 1 -43 13 -33 8 6 14 7 14 2 0 -5 6 -10 14 -10 8
0 14 8 13 18 -1 20 -23 33 -38 23 -5 -3 -9 0 -9 5 0 14 16 14 41 1 13 -8 19
-7 19 0 0 6 5 8 11 4 8 -4 7 -9 -2 -14 -7 -5 -13 -22 -14 -39 -1 -29 -15 -58
-15 -32 0 7 -5 9 -10 6 -6 -4 -9 -3 -8 2 3 8 -5 13 -21 13 -4 0 -9 -27 -10
-60 -1 -34 3 -60 9 -60 5 0 11 19 12 43 l1 42 4 -40 c3 -22 12 -48 20 -58 9
-9 13 -20 10 -24 -4 -3 -7 -1 -7 6 0 7 -5 9 -12 5 -6 -4 -8 -3 -4 4 8 14 -6
23 -22 13 -18 -11 -4 -41 16 -35 15 5 15 4 -1 -6 -14 -9 -17 -25 -16 -85 1
-53 4 -73 13 -68 6 4 6 0 -2 -9 -17 -21 -11 -173 7 -190 11 -11 11 -9 1 11 -8
16 -9 21 -1 16 8 -4 10 2 7 20 -4 21 -2 24 8 16 8 -6 12 -25 10 -42 -2 -19 0
-28 7 -24 10 7 6 55 -7 76 -4 7 -3 10 4 5 7 -4 12 10 15 41 2 27 4 -25 5 -114
l2 -163 25 0 26 0 -3 164 c-2 90 0 162 5 159 4 -2 7 3 7 12 0 11 -5 15 -15 12
-14 -6 -28 7 -31 31 -1 6 2 12 7 12 5 0 9 -8 9 -17 0 -16 15 -18 150 -20 89
-2 149 1 145 7 -3 5 -1 12 5 15 6 4 9 1 8 -7 -2 -10 13 -13 57 -13 33 0 65 -3
70 -7 7 -4 11 8 11 32 0 38 0 38 -35 33 -20 -3 -44 -5 -53 -5 -10 1 -18 -3
-18 -9 0 -5 -5 -9 -11 -9 -5 0 -7 5 -4 10 4 7 -17 10 -62 9 -89 -2 -106 -7
-98 -27 3 -9 3 -13 -1 -9 -4 4 -12 2 -19 -3 -8 -7 -12 -5 -12 5 0 8 4 12 9 9
4 -3 8 -1 8 4 0 16 -104 10 -116 -6 -9 -12 -13 -12 -19 -2 -5 8 -4 11 2 7 6
-4 10 16 11 48 0 43 -3 55 -16 58 -12 3 -10 5 6 6 12 0 22 6 22 12 0 5 -6 7
-12 3 -9 -6 -9 -3 0 9 10 12 13 44 10 121 -2 77 0 102 8 95 7 -5 25 -9 40 -9
16 0 52 -2 79 -5 28 -3 66 -7 86 -9 20 -1 42 -7 49 -11 9 -5 11 -4 6 3 -4 7 7
6 28 -3 43 -18 49 -19 40 -3 -5 7 -2 9 9 5 8 -3 21 1 27 9 8 8 33 15 64 16 49
1 49 2 9 5 -23 2 -43 9 -46 16 -3 9 8 11 39 8 29 -2 44 1 44 9 0 7 -19 10 -55
9 -45 -2 -55 -5 -50 -18 4 -11 0 -10 -15 4 -16 14 -23 16 -32 7 -7 -7 -47 -13
-92 -14 l-81 -2 95 -6 95 -7 -95 1 c-85 1 -95 3 -92 19 2 12 -4 17 -18 17 -12
0 -19 -4 -16 -8 2 -4 -4 -8 -14 -8 -10 0 -16 4 -14 8 3 4 -24 8 -60 8 -36 0
-66 -4 -66 -9 0 -5 -7 -12 -16 -15 -14 -5 -15 -4 -4 9 15 18 -1 20 -18 3 -7
-7 -12 -8 -12 -2 0 6 -15 10 -33 11 -33 1 -33 0 -34 -43z m215 30 c-4 -3 -10
-6 -15 -6 -4 0 -13 -4 -20 -9 -7 -7 -14 -6 -19 2 -4 8 -3 9 4 5 7 -4 12 -2 12
3 0 6 10 11 22 11 12 0 19 -3 16 -6z m-130 -235 c-3 -8 -7 -3 -11 10 -4 17 -3
21 5 13 5 -5 8 -16 6 -23z m7 -29 c-3 -6 3 -14 14 -18 21 -7 21 -7 1 -20 -17
-10 -20 -10 -20 3 0 8 -4 15 -10 15 -5 0 -7 7 -4 15 4 8 10 15 16 15 5 0 6 -5
3 -10z m-18 -72 c-3 -8 -6 -5 -6 6 -1 11 2 17 5 13 3 -3 4 -12 1 -19z m49 -13
c3 -19 2 -19 -10 -3 -7 10 -16 15 -19 11 -4 -3 -7 -1 -7 6 0 21 33 8 36 -14z
m412 -40 c2 -1 -5 -6 -15 -9 -9 -4 -14 -4 -10 0 4 4 -1 13 -11 21 -15 12 -14
13 8 2 14 -6 26 -13 28 -14z m-348 3 c0 -4 -4 -8 -9 -8 -6 0 -12 4 -15 8 -3 5
1 9 9 9 8 0 15 -4 15 -9z m205 7 c-21 -8 -105 -12 -105 -5 0 3 26 7 58 8 31 1
53 -1 47 -3z m85 -19 c-7 -7 -13 -7 -20 0 -6 6 -3 10 10 10 13 0 16 -4 10 -10z
m-404 -21 c-3 -9 -11 -13 -16 -10 -6 4 -19 1 -28 -7 -15 -12 -16 -11 -3 5 7 9
20 17 27 17 8 0 14 5 14 12 0 6 3 9 6 5 4 -3 4 -13 0 -22z"/>
<path d="M4425 24855 c-2 -5 -3 -17 -4 -25 0 -8 -3 -57 -7 -107 -5 -73 -4 -93
6 -93 8 0 10 3 7 6 -3 4 -2 15 3 25 7 12 7 20 0 24 -19 12 -10 21 19 21 21 0
27 -4 24 -14 -5 -11 -7 -11 -14 0 -5 7 -9 11 -10 8 0 -3 -2 -12 -4 -20 -12
-48 -13 -60 -6 -60 15 0 29 23 24 39 -4 14 -3 14 6 1 6 -9 7 -18 1 -24 -12
-12 -13 -29 -2 -22 5 3 9 -1 9 -9 0 -9 -5 -11 -11 -6 -37 28 -73 13 -43 -18
10 -11 9 -12 -1 -6 -11 5 -13 -9 -10 -69 2 -54 6 -75 14 -72 13 5 13 -19 -1
-31 -4 -4 -5 -2 -1 5 4 6 3 12 -2 12 -15 0 -20 -44 -21 -197 l-2 -143 305 0
306 0 -2 53 -1 52 -7 -50 -7 -50 -1 47 c-1 26 3 50 8 53 6 3 10 10 10 15 0 9
-60 -8 -70 -19 -3 -3 -11 -6 -17 -7 -7 -1 -22 -2 -34 -2 -11 -1 -18 -6 -15
-11 4 -5 -4 -7 -16 -3 -21 5 -22 4 -8 -14 14 -18 14 -18 -6 -1 -19 16 -22 16
-34 2 -10 -12 -16 -13 -26 -4 -8 6 -14 7 -14 2 0 -5 -13 -8 -30 -5 -21 3 -30
0 -30 -9 0 -11 -2 -11 -10 1 -5 8 -10 10 -10 4 0 -8 -15 -10 -45 -6 -25 2 -45
1 -45 -4 0 -5 -18 -9 -41 -7 -37 2 -39 0 -27 -15 12 -15 11 -16 -5 -3 -16 13
-20 13 -29 0 -8 -11 -9 -11 -4 3 3 10 1 20 -4 23 -6 4 -10 12 -9 18 0 8 2 8 6
-1 4 -10 10 -9 26 5 11 10 17 13 14 7 -4 -7 -1 -17 7 -23 12 -10 14 6 15 100
2 117 5 134 23 123 7 -5 9 -1 5 9 -3 9 -1 19 5 23 7 4 8 3 4 -5 -6 -8 2 -10
26 -6 23 4 29 2 18 -4 -8 -5 -17 -8 -21 -5 -4 2 -10 0 -13 -5 -3 -4 35 -9 85
-9 75 -1 89 1 80 12 -7 8 -22 12 -34 10 -20 -4 -20 -4 2 6 20 9 26 7 38 -10
10 -14 24 -20 44 -18 16 1 29 6 29 10 0 4 5 8 11 8 5 0 8 -4 4 -9 -3 -5 -2
-12 2 -14 5 -3 9 13 10 35 3 37 1 40 -20 34 -12 -3 -28 -6 -35 -6 -7 0 -10 -4
-7 -10 3 -5 1 -10 -5 -10 -6 0 -8 -5 -5 -10 4 -6 11 -7 17 -4 7 5 8 2 4 -5 -6
-9 -13 -8 -27 5 -20 18 -25 29 -9 19 6 -3 10 -1 10 4 0 7 -21 9 -57 7 -32 -3
-86 -6 -120 -8 l-63 -4 0 213 0 213 35 0 c19 0 35 5 35 11 0 5 6 7 13 3 6 -4
9 -4 5 1 -4 4 -3 14 3 22 9 10 6 13 -14 13 -14 0 -29 -4 -32 -10 -3 -5 -11
-10 -16 -10 -6 0 -8 4 -5 8 3 5 -29 9 -70 8 -44 0 -78 -5 -79 -11z m110 -31
c-6 -2 -9 -85 -8 -224 1 -121 -1 -222 -5 -224 -4 -2 -6 98 -5 222 2 125 3 228
3 230 0 1 6 2 13 1 6 0 8 -2 2 -5z m-65 -299 c3 -30 3 -52 -1 -48 -8 9 -19
116 -11 108 4 -3 9 -30 12 -60z m-27 -61 c-4 -12 -8 -13 -14 -3 -9 15 -2 32
11 24 5 -3 6 -13 3 -21z m33 -24 c0 -9 -5 -17 -11 -17 -6 0 -11 8 -11 17 0 9
5 17 11 17 6 0 11 -8 11 -17z m-20 -85 c1 -8 -2 -15 -7 -15 -5 0 -9 9 -9 20 0
14 -5 18 -17 14 -15 -5 -16 -4 -3 5 16 11 32 1 36 -24z m36 21 c7 4 8 2 4 -4
-11 -18 -26 -14 -25 6 0 10 3 12 6 4 2 -6 10 -9 15 -6z m203 -5 c-8 -14 -25
-14 -25 0 0 5 5 7 10 4 6 -3 10 -1 10 6 0 7 3 10 6 6 3 -3 3 -10 -1 -16z
m-163 -93 c-4 -125 -12 -137 -10 -18 1 85 4 110 12 110 1 0 0 -42 -2 -92z
m248 -173 c0 -2 -6 -7 -12 -11 -7 -4 -10 -4 -6 1 4 4 0 14 -10 22 -15 13 -15
13 6 3 12 -6 22 -13 22 -15z m-103 -5 c3 -10 2 -11 -4 -4 -4 7 -17 14 -28 17
-16 5 -15 5 4 4 14 -1 26 -9 28 -17z m191 -5 c-3 -3 -9 2 -12 12 -6 14 -5 15
5 6 7 -7 10 -15 7 -18z"/>
<path d="M3331 24797 c-6 -6 -11 -15 -11 -21 0 -5 3 -6 6 -3 4 3 15 2 25 -4
14 -7 19 -6 19 3 0 7 4 6 13 -4 6 -8 22 -18 35 -21 21 -5 23 -2 20 26 -3 31
-5 32 -50 33 -26 1 -52 -4 -57 -9z m90 -14 c13 -16 12 -17 -3 -4 -14 11 -18
11 -18 1 0 -8 -3 -11 -6 -7 -5 5 3 27 10 27 2 0 10 -8 17 -17z"/>
<path d="M5005 24780 c3 -5 8 -10 11 -10 2 0 4 5 4 10 0 6 -5 10 -11 10 -5 0
-7 -4 -4 -10z"/>
<path d="M2821 24165 c-1 -50 3 -75 10 -75 8 0 10 16 7 49 -4 40 -2 47 8 37 7
-7 14 -31 16 -52 l3 -39 5 47 c3 25 2 44 -2 41 -5 -2 -8 1 -8 6 0 6 5 11 10
11 6 0 10 11 10 25 0 29 -19 29 -38 0 -10 -15 -12 -16 -8 -3 3 10 1 20 -3 23
-5 2 -9 -29 -10 -70z"/>
<path d="M5725 24190 c-3 -5 -1 -10 4 -10 6 0 11 5 11 10 0 6 -2 10 -4 10 -3
0 -8 -4 -11 -10z"/>
<path d="M4505 24130 c-3 -5 -1 -10 4 -10 6 0 11 5 11 10 0 6 -2 10 -4 10 -3
0 -8 -4 -11 -10z"/>
<path d="M5395 24120 c3 -5 8 -10 11 -10 2 0 4 5 4 10 0 6 -5 10 -11 10 -5 0
-7 -4 -4 -10z"/>
</g>
</svg>
