<?xml version="1.0" standalone="no"?>
<!DOCTYPE svg PUBLIC "-//W3C//DTD SVG 20010904//EN"
 "http://www.w3.org/TR/2001/REC-SVG-20010904/DTD/svg10.dtd">
<svg version="1.0" xmlns="http://www.w3.org/2000/svg"
 width="1230.000000pt" height="1230.000000pt" viewBox="0 0 1230.000000 1230.000000"
 preserveAspectRatio="xMidYMid meet">

<g transform="translate(0.000000,1230.000000) scale(0.100000,-0.100000)"
fill="#000000" stroke="none">
<path d="M4855 5923 c-146 -9 -322 -26 -412 -40 l-102 -15 5 -177 c10 -367 24
-1257 24 -1538 l0 -293 180 0 180 0 0 376 0 376 48 -7 c26 -5 147 -9 269 -9
l222 -1 232 -385 c128 -212 233 -386 233 -387 1 -2 385 114 423 128 7 2 -129
159 -303 348 -173 190 -311 348 -307 351 5 4 31 13 58 20 244 65 448 207 526
365 30 62 34 79 37 170 5 126 -9 194 -58 293 -110 219 -351 367 -680 417 -87
14 -414 18 -575 8z m462 -166 c292 -83 444 -237 460 -468 10 -140 -31 -246
-133 -346 -153 -150 -421 -224 -758 -209 -77 3 -141 8 -143 10 -6 5 -22 641
-23 863 0 170 0 172 23 176 12 3 126 4 252 2 213 -2 237 -4 322 -28z"/>
<path d="M7160 5917 c-322 -5 -588 -12 -591 -15 -3 -4 -16 -441 -28 -972 -12
-531 -23 -986 -26 -1012 l-4 -48 794 0 795 0 0 174 0 175 -62 -29 c-180 -81
-502 -148 -910 -190 -109 -11 -202 -20 -208 -20 -7 0 -10 101 -10 296 l0 297
358 -7 c196 -4 382 -9 413 -12 l56 -6 7 92 c4 50 5 94 3 97 -3 2 -99 -3 -213
-11 -115 -8 -302 -18 -416 -22 l-208 -7 0 537 0 536 29 0 c57 0 402 -30 517
-45 254 -34 472 -85 592 -140 71 -33 72 -33 73 -12 0 12 6 97 12 190 l12 167
-200 -2 c-110 -1 -463 -6 -785 -11z"/>
<path d="M9115 5917 c-324 -5 -591 -10 -592 -11 -1 -1 -11 -372 -22 -826 -11
-454 -23 -912 -27 -1017 l-6 -193 797 0 797 0 -7 168 c-4 92 -8 168 -9 170 -2
1 -35 -11 -73 -27 -197 -81 -527 -146 -939 -186 -87 -8 -161 -15 -166 -15 -4
0 -8 133 -8 296 l0 297 363 -7 c199 -3 388 -10 420 -14 l57 -8 0 99 0 100 -77
-7 c-202 -17 -345 -25 -545 -32 l-218 -7 0 538 0 538 108 -7 c490 -31 923
-110 1070 -197 18 -10 34 -19 36 -19 2 0 6 53 10 118 3 64 9 150 13 190 l6 72
-199 -2 c-110 -1 -464 -6 -789 -11z"/>
<path d="M2414 5770 c4 -74 11 -475 16 -890 6 -415 13 -810 16 -877 l6 -123
169 0 169 0 0 461 0 462 473 -7 c259 -4 498 -9 530 -12 l57 -6 0 99 0 99 -82
-7 c-79 -7 -437 -22 -802 -34 l-179 -6 7 373 c4 205 9 394 13 421 l6 47 44 0
c64 0 419 -38 565 -60 243 -37 468 -94 561 -142 22 -11 41 -17 44 -14 3 2 7
79 10 170 l6 164 -44 6 c-24 3 -392 7 -817 8 l-773 3 5 -135z"/>
</g>
</svg>
