<?xml version="1.0" standalone="no"?>
<!DOCTYPE svg PUBLIC "-//W3C//DTD SVG 20010904//EN"
 "http://www.w3.org/TR/2001/REC-SVG-20010904/DTD/svg10.dtd">
<svg version="1.0" xmlns="http://www.w3.org/2000/svg"
 width="1080.000000pt" height="400.000000pt" viewBox="0 0 1080.000000 400.000000"
 preserveAspectRatio="xMidYMid meet">

<g transform="translate(0.000000,400.000000) scale(0.100000,-0.100000)"
fill="#000000" stroke="none">
<path d="M1480 3990 c0 -5 -7 -10 -15 -10 -10 0 -16 -11 -17 -32 -2 -46 -6
-81 -11 -98 -2 -8 -7 -27 -12 -42 -4 -16 -10 -28 -14 -28 -4 0 -14 -12 -21
-27 -14 -30 -16 -37 -18 -70 -1 -14 -18 -32 -47 -50 -39 -24 -44 -31 -39 -55
4 -20 0 -30 -15 -40 -12 -7 -21 -17 -21 -22 0 -9 -95 -106 -105 -106 -16 0
-79 -54 -77 -66 2 -8 -5 -17 -15 -20 -36 -12 -88 -39 -95 -50 -4 -7 -19 -14
-32 -18 -13 -3 -26 -15 -29 -27 -3 -12 -9 -19 -14 -16 -9 5 -36 -11 -107 -61
-28 -20 -55 -32 -66 -29 -11 3 -21 -1 -24 -9 -9 -23 -69 -54 -104 -54 -22 0
-53 -14 -93 -40 -33 -21 -76 -44 -97 -49 -34 -10 -116 -9 -151 0 -8 2 -21 -9
-30 -26 -9 -16 -17 -32 -18 -34 -2 -2 -8 1 -16 7 -7 6 -50 14 -95 18 l-82 7 0
-1451 c0 -1151 3 -1451 12 -1455 10 -4 10 -6 1 -6 -7 -1 -13 -8 -13 -16 0 -22
118 -22 126 0 4 8 11 15 16 15 6 0 5 -6 -2 -15 -11 -13 47 -15 479 -15 270 0
491 4 491 9 0 4 11 13 25 19 31 14 33 -1 3 -16 -21 -10 -19 -11 18 -11 28 -1
50 6 68 20 15 12 30 19 33 15 3 -3 -2 -8 -11 -12 -22 -9 -10 -24 20 -24 14 0
23 4 19 10 -4 6 3 6 18 -1 15 -7 35 -7 58 -1 l34 9 -47 8 c-38 6 -48 11 -48
27 0 10 4 17 9 13 6 -3 29 -2 53 2 l43 8 -40 5 c-32 4 -40 9 -40 25 0 15 7 21
30 22 26 2 70 7 98 12 5 0 7 7 5 13 -3 7 1 19 9 26 7 7 13 22 13 33 0 17 -3
18 -21 8 -17 -9 -19 -13 -8 -20 10 -6 7 -9 -11 -9 -15 0 -31 9 -38 20 -11 18
-10 22 10 30 21 8 21 9 3 9 -11 0 -31 -11 -44 -24 -20 -22 -21 -25 -5 -25 12
0 15 -3 8 -10 -14 -14 -55 0 -52 19 2 10 -3 15 -12 12 -8 -2 -24 -6 -35 -8
-20 -5 -20 -5 0 10 10 8 32 14 47 13 23 -2 27 1 22 16 -6 21 -5 21 119 22 86
1 118 -9 55 -17 -30 -4 -31 -5 -10 -12 16 -5 20 -11 13 -19 -12 -14 42 -51 59
-41 15 10 12 23 -7 28 -12 3 -9 5 8 6 38 2 80 51 43 51 -8 0 -26 13 -40 29
l-25 30 -44 -15 c-50 -17 -85 -7 -85 25 0 26 18 38 70 48 40 7 45 12 48 37 5
38 -9 50 -48 41 -20 -4 -34 -15 -40 -31 -22 -58 -98 -52 -85 6 8 36 -16 45
-48 19 -30 -23 -97 -26 -97 -5 0 8 4 17 10 21 5 3 7 12 3 20 -3 10 1 15 15 15
31 0 52 11 52 26 0 10 -9 12 -32 7 -35 -6 -36 -6 -55 -4 -21 2 -15 31 10 52
l22 18 -27 1 c-23 0 -28 5 -28 25 0 28 25 45 68 45 46 0 48 27 4 37 -54 13
-50 39 5 35 61 -5 86 5 79 31 -9 34 19 56 59 47 28 -6 40 -3 67 16 30 23 54
52 46 58 -47 34 -85 46 -122 41 -34 -5 -46 -3 -69 17 -31 27 -34 53 -11 86 19
27 7 28 -26 2 -14 -11 -31 -20 -38 -20 -7 0 -15 -7 -18 -15 -4 -8 -10 -15 -16
-15 -5 0 -7 4 -3 9 3 5 1 12 -5 16 -19 12 -10 37 25 72 20 20 33 38 30 42 -4
3 -32 6 -63 6 -70 0 -81 15 -24 35 51 17 54 37 7 46 -40 7 -53 20 -51 51 3 33
12 37 61 34 57 -3 86 6 78 25 -3 8 6 25 21 39 31 28 46 32 46 11 0 -21 19 -30
34 -16 8 6 22 13 32 15 81 17 124 31 124 40 0 5 -16 21 -36 35 -19 14 -39 34
-44 46 -6 16 -15 20 -37 17 -15 -2 -36 2 -47 10 -16 12 -17 16 -5 35 10 17 24
22 53 22 37 0 39 1 20 15 -25 19 -48 19 -64 -1 -8 -8 -25 -14 -39 -12 -26 3
-26 5 -13 51 4 17 0 18 -57 11 -66 -7 -78 3 -39 30 25 18 20 26 -24 41 -46 15
-48 35 -4 35 44 0 47 16 6 25 -51 11 -49 29 4 21 47 -7 62 4 29 23 -32 17 -6
23 27 6 35 -18 95 -14 102 7 3 8 16 9 49 1 53 -13 126 -10 142 6 9 10 4 19
-25 42 -23 19 -35 36 -31 45 4 10 -2 14 -22 14 -20 0 -26 -4 -21 -15 3 -9 0
-15 -9 -15 -8 0 -15 6 -15 13 0 20 22 37 47 37 16 0 23 6 23 20 0 27 -43 54
-75 46 -14 -4 -25 -2 -25 4 0 20 -21 9 -31 -17 -7 -18 -13 -23 -20 -16 -8 8
-7 17 1 33 15 28 10 32 -28 21 -18 -5 -33 -7 -33 -3 -1 4 -2 21 -3 37 -1 27
-5 31 -41 36 -30 5 -33 7 -12 8 54 2 27 41 -29 41 -14 0 -22 4 -19 10 3 6 24
10 45 10 41 0 62 16 36 26 -25 10 -19 22 15 29 17 4 39 15 49 25 14 14 34 18
87 18 68 0 116 12 127 31 7 11 -32 81 -45 81 -15 0 -10 19 12 41 29 29 21 61
-20 80 -18 8 -38 23 -43 32 -5 9 -16 17 -23 17 -8 0 -25 10 -36 21 -17 17 -20
29 -15 57 6 40 12 47 43 57 22 6 23 4 17 -39 -5 -36 -2 -50 15 -75 23 -32 31
-36 99 -46 38 -6 42 -5 42 14 0 11 -5 23 -10 26 -6 3 -17 19 -25 35 -13 25
-13 30 3 49 9 12 27 23 40 26 26 5 28 -1 7 -21 -8 -9 -15 -24 -15 -35 0 -23
58 -61 81 -54 18 6 39 -32 39 -70 0 -26 -3 -28 -60 -26 -38 1 -60 -12 -79 -47
-10 -19 -10 -28 4 -48 18 -28 33 -30 61 -9 10 8 22 15 27 15 11 0 9 -38 -3
-45 -17 -11 -11 -25 11 -25 20 0 21 -3 14 -67 -3 -38 -2 -79 3 -93 8 -22 11
-19 21 35 25 123 67 208 146 291 36 38 65 72 65 76 0 5 -17 -3 -38 -17 l-39
-26 -54 26 c-30 13 -60 25 -66 25 -7 0 -23 19 -35 43 -36 70 -24 169 29 240 5
7 16 32 23 56 9 28 34 64 70 101 89 92 130 144 130 166 0 11 -9 39 -20 62 -24
49 -25 61 -5 68 8 4 15 10 15 15 0 5 16 25 35 45 20 20 42 51 51 68 28 59 69
126 106 173 21 27 44 57 52 68 27 37 28 7 3 -67 -14 -40 -33 -109 -42 -153
-10 -44 -24 -100 -31 -124 -8 -25 -14 -53 -14 -63 0 -16 5 -14 33 11 17 17 38
31 45 31 6 0 12 5 12 11 0 6 -9 9 -20 6 -17 -4 -19 -1 -14 21 4 15 11 36 17
46 5 10 10 40 12 65 1 25 17 93 35 150 30 97 36 107 97 169 l65 66 17 -23 18
-23 66 82 c37 46 67 87 67 92 0 4 -241 8 -535 8 -350 0 -535 -3 -535 -10z
m760 -157 c-11 -14 -20 -36 -20 -49 0 -26 -12 -37 -32 -29 -25 10 -8 72 26 95
38 24 52 16 26 -17z m-220 -298 c0 -5 -14 -30 -30 -54 -17 -24 -30 -51 -31
-60 -1 -26 -17 20 -18 52 -1 17 -6 27 -16 27 -8 0 -15 -4 -15 -8 0 -5 -16 -17
-35 -28 -37 -20 -50 -43 -47 -84 3 -24 2 -24 -13 -6 -27 36 -19 74 26 114 22
20 53 42 67 48 32 14 112 13 112 -1z m-660 -2089 c0 -3 -4 -8 -10 -11 -5 -3
-10 -1 -10 4 0 6 5 11 10 11 6 0 10 -2 10 -4z m-1271 -67 c-22 -14 -33 -10
-19 6 7 8 17 12 22 9 6 -4 5 -10 -3 -15z m-49 -59 c0 -5 -7 -10 -16 -10 -8 0
-12 5 -9 10 3 6 10 10 16 10 5 0 9 -4 9 -10z m25 -21 c10 -15 -1 -23 -20 -15
-9 3 -13 10 -10 16 8 13 22 13 30 -1z m125 -9 c0 -5 -4 -10 -10 -10 -5 0 -10
5 -10 10 0 6 5 10 10 10 6 0 10 -4 10 -10z m125 -10 c3 -5 2 -10 -4 -10 -5 0
-13 5 -16 10 -3 6 -2 10 4 10 5 0 13 -4 16 -10z m-202 -20 c-3 -12 -14 -20
-26 -20 -20 0 -20 0 -1 19 25 26 33 26 27 1z m187 -60 c-32 -9 -44 -2 -29 16
9 11 16 11 33 2 21 -12 21 -12 -4 -18z m-60 -2 c11 -4 6 -9 -14 -17 -17 -7
-32 -8 -35 -3 -3 5 -13 12 -21 15 -10 4 -8 6 7 6 12 1 25 6 29 12 4 7 9 7 13
2 3 -6 13 -12 21 -15z m401 -1 c-6 -6 -11 -20 -11 -30 0 -13 -5 -17 -16 -13
-9 3 -17 6 -20 6 -2 0 -1 7 2 15 5 11 -1 15 -26 15 -17 0 -29 4 -26 8 3 5 28
9 56 9 37 0 49 -2 41 -10z m69 -28 c0 -6 -4 -7 -10 -4 -5 3 -10 11 -10 16 0 6
5 7 10 4 6 -3 10 -11 10 -16z m-283 -15 c-3 -3 -12 -4 -19 -1 -8 3 -5 6 6 6
11 1 17 -2 13 -5z m-177 -24 c0 -5 -4 -10 -10 -10 -5 0 -10 5 -10 10 0 6 5 10
10 10 6 0 10 -4 10 -10z m382 -38 c-7 -2 -12 -10 -12 -18 0 -15 -12 -19 -23
-7 -10 10 24 44 36 36 8 -5 7 -8 -1 -11z m571 -7 c-10 -7 -22 -11 -27 -8 -5 4
-1 12 9 19 10 7 22 11 27 8 5 -3 1 -12 -9 -19z m-58 -34 c-15 -14 -55 -23 -55
-13 0 15 12 22 39 22 15 0 21 -4 16 -9z m-632 -44 c-9 -16 -26 12 -18 30 7 17
8 17 15 -2 4 -11 5 -24 3 -28z m62 33 c-3 -5 -14 -10 -23 -10 -15 0 -15 2 -2
10 20 13 33 13 25 0z m-285 -20 c0 -5 -4 -10 -10 -10 -5 0 -10 5 -10 10 0 6 5
10 10 10 6 0 10 -4 10 -10z m345 1 c-10 -17 12 -21 25 -6 14 17 40 20 40 5 0
-5 -21 -18 -46 -29 -25 -11 -43 -25 -39 -31 3 -5 1 -10 -6 -10 -6 0 -9 8 -6
19 3 14 1 18 -9 14 -8 -3 -14 0 -14 6 0 6 6 11 14 11 8 0 16 7 20 15 3 8 10
15 16 15 6 0 9 -4 5 -9z m495 -1 c0 -5 -2 -10 -4 -10 -3 0 -8 5 -11 10 -3 6
-1 10 4 10 6 0 11 -4 11 -10z m-176 -54 c-3 -9 -10 -13 -16 -10 -5 3 -4 12 3
20 15 18 22 13 13 -10z m101 -6 c-3 -5 -19 -4 -35 2 -17 5 -28 14 -25 18 3 5
19 4 35 -2 17 -5 28 -14 25 -18z m-387 8 c-6 -18 -28 -21 -28 -4 0 9 7 16 16
16 9 0 14 -5 12 -12z m548 -67 c-9 -16 -16 -43 -16 -59 0 -17 -9 -40 -21 -53
l-20 -24 5 40 c4 22 9 58 12 79 3 22 15 54 27 70 l22 31 3 -27 c2 -15 -4 -40
-12 -57z m-836 19 c0 -5 -4 -10 -10 -10 -5 0 -10 5 -10 10 0 6 5 10 10 10 6 0
10 -4 10 -10z m540 -70 c0 -5 -7 -10 -16 -10 -8 0 -12 5 -9 10 3 6 10 10 16
10 5 0 9 -4 9 -10z m40 -42 c-13 -10 -29 -17 -37 -14 -7 3 -13 2 -13 -2 0 -5
-9 -18 -20 -30 -19 -20 -19 -22 -3 -31 33 -18 4 -24 -32 -7 -22 11 -33 22 -28
29 5 8 8 8 11 -1 6 -20 21 -13 37 19 15 28 15 30 -2 27 -13 -2 -17 3 -15 19 2
18 -1 20 -20 16 -19 -5 -21 -3 -10 8 10 11 16 11 32 1 27 -16 65 -15 80 3 10
13 14 12 28 -2 15 -14 14 -17 -8 -35z m-920 38 c0 -3 -4 -8 -10 -11 -5 -3 -10
-1 -10 4 0 6 5 11 10 11 6 0 10 -2 10 -4z m508 -38 c-6 -18 -28 -21 -28 -4 0
9 7 16 16 16 9 0 14 -5 12 -12z m47 2 c3 -5 -1 -10 -9 -10 -9 0 -16 5 -16 10
0 6 4 10 9 10 6 0 13 -4 16 -10z m210 -10 c3 -5 -1 -10 -9 -10 -9 0 -16 5 -16
10 0 6 4 10 9 10 6 0 13 -4 16 -10z m305 -30 c0 -5 -2 -10 -4 -10 -3 0 -8 5
-11 10 -3 6 -1 10 4 10 6 0 11 -4 11 -10z m-430 -20 c0 -5 -4 -10 -10 -10 -5
0 -10 5 -10 10 0 6 5 10 10 10 6 0 10 -4 10 -10z m495 -7 c-4 -10 -11 -35 -15
-56 -9 -43 -14 -52 -29 -43 -21 13 16 116 41 116 6 0 7 -8 3 -17z m-208 -9
l23 -6 -24 -19 c-33 -26 -44 -24 -42 6 1 26 7 29 43 19z m-206 -19 c0 -5 -9
-11 -21 -13 -11 -2 -18 -8 -15 -13 7 -10 -8 -12 -18 -2 -10 9 24 44 40 41 8
-2 14 -7 14 -13z m-126 -15 c-3 -5 -10 -10 -16 -10 -5 0 -9 5 -9 10 0 6 7 10
16 10 8 0 12 -4 9 -10z m-550 -10 c-3 -5 -11 -10 -16 -10 -6 0 -7 5 -4 10 3 6
11 10 16 10 6 0 7 -4 4 -10z m825 -26 c0 -28 -15 -31 -38 -7 -16 16 -16 16 1
10 13 -5 17 -1 17 14 0 11 5 17 10 14 6 -3 10 -17 10 -31z m100 6 c0 -5 -2
-10 -4 -10 -3 0 -8 5 -11 10 -3 6 -1 10 4 10 6 0 11 -4 11 -10z m-734 -97
c-10 -10 -19 5 -10 18 6 11 8 11 12 0 2 -7 1 -15 -2 -18z m74 7 c0 -5 -4 -10
-10 -10 -5 0 -10 5 -10 10 0 6 5 10 10 10 6 0 10 -4 10 -10z m602 -18 c4 -15
13 -18 42 -16 41 4 49 -11 10 -20 -15 -4 -32 -2 -41 5 -19 17 -36 49 -25 49 6
0 12 -8 14 -18z m-519 2 c10 -11 -5 -34 -22 -33 -10 0 -11 2 -3 6 6 2 12 9 12
14 0 6 -4 7 -10 4 -5 -3 -10 -1 -10 4 0 12 23 15 33 5z m240 -15 c-12 -13 -28
-19 -37 -16 -23 9 -20 25 7 30 48 9 52 8 30 -14z m97 11 c0 -5 -9 -10 -21 -10
-11 0 -17 5 -14 10 3 6 13 10 21 10 8 0 14 -4 14 -10z m40 -1 c0 -7 12 -8 33
-4 l32 6 -29 -16 c-16 -8 -34 -14 -39 -12 -13 4 -18 37 -6 37 5 0 9 -5 9 -11z
m110 -10 c0 -5 -4 -9 -10 -9 -5 0 -10 7 -10 16 0 8 5 12 10 9 6 -3 10 -10 10
-16z m194 -16 c-4 -16 -12 -37 -18 -48 -10 -19 -11 -18 -14 7 -4 29 13 68 29
68 5 0 7 -12 3 -27z m-336 -5 c-3 -7 -15 -14 -29 -16 -23 -2 -23 -2 -5 13 24
18 39 20 34 3z m68 -23 c-9 -9 -16 -13 -16 -8 0 12 22 34 28 28 2 -2 -3 -11
-12 -20z m34 -45 c0 -5 -5 -10 -11 -10 -5 0 -7 5 -4 10 3 6 8 10 11 10 2 0 4
-4 4 -10z m-500 -10 c0 -5 -5 -10 -11 -10 -5 0 -7 5 -4 10 3 6 8 10 11 10 2 0
4 -4 4 -10z m430 -40 c0 -5 -4 -10 -10 -10 -5 0 -10 5 -10 10 0 6 5 10 10 10
6 0 10 -4 10 -10z m35 0 c3 -5 1 -10 -4 -10 -6 0 -11 5 -11 10 0 6 2 10 4 10
3 0 8 -4 11 -10z m250 0 c-3 -5 -12 -7 -20 -3 -21 7 -19 13 6 13 11 0 18 -4
14 -10z m-885 -10 c0 -5 -2 -10 -4 -10 -3 0 -8 5 -11 10 -3 6 -1 10 4 10 6 0
11 -4 11 -10z m247 4 c-3 -3 -12 -4 -19 -1 -8 3 -5 6 6 6 11 1 17 -2 13 -5z
m793 2 c0 -2 -7 -7 -16 -10 -8 -3 -12 -2 -9 4 6 10 25 14 25 6z m-1180 -36 c0
-5 -2 -10 -4 -10 -3 0 -8 5 -11 10 -3 6 -1 10 4 10 6 0 11 -4 11 -10z m70 -9
c0 -5 -9 -11 -20 -14 -22 -6 -28 8 -7 16 19 8 27 8 27 -2z m360 0 c0 -6 -5
-13 -11 -17 -8 -5 -8 -9 1 -14 8 -5 7 -9 -4 -13 -17 -7 -21 9 -10 37 7 17 24
22 24 7z m820 -21 c0 -5 -4 -10 -9 -10 -6 0 -13 5 -16 10 -3 6 1 10 9 10 9 0
16 -4 16 -10z m-1085 -10 c-3 -5 -10 -10 -16 -10 -5 0 -9 5 -9 10 0 6 7 10 16
10 8 0 12 -4 9 -10z m305 -6 c0 -8 -4 -12 -10 -9 -5 3 -10 10 -10 16 0 5 5 9
10 9 6 0 10 -7 10 -16z m-344 -51 c-3 -3 -13 0 -22 8 -9 7 -30 12 -47 11 l-32
-2 29 18 c29 17 30 17 53 -6 13 -13 22 -27 19 -29z m-1 47 c3 -5 -1 -10 -10
-10 -9 0 -13 5 -10 10 3 6 8 10 10 10 2 0 7 -4 10 -10z m163 -12 c-3 -7 -15
-14 -29 -16 -24 -4 -24 -3 -4 12 24 19 38 20 33 4z m-128 -8 c0 -5 -4 -10 -10
-10 -5 0 -10 5 -10 10 0 6 5 10 10 10 6 0 10 -4 10 -10z m167 4 c-3 -3 -12 -4
-19 -1 -8 3 -5 6 6 6 11 1 17 -2 13 -5z m983 2 c0 -3 -4 -8 -10 -11 -5 -3 -10
-1 -10 4 0 6 5 11 10 11 6 0 10 -2 10 -4z m-240 -16 c0 -5 -4 -10 -10 -10 -5
0 -10 5 -10 10 0 6 5 10 10 10 6 0 10 -4 10 -10z m-88 -22 c-7 -7 -12 -8 -12
-2 0 14 12 26 19 19 2 -3 -1 -11 -7 -17z m-779 6 c16 -6 12 -44 -5 -44 -5 0
-6 4 -3 10 3 5 -6 12 -20 16 -13 3 -22 10 -19 15 6 10 26 12 47 3z m594 0 c-3
-3 -12 -4 -19 -1 -8 3 -5 6 6 6 11 1 17 -2 13 -5z m-757 -28 c0 -7 -6 -19 -14
-25 -11 -10 -14 -7 -12 14 1 25 26 36 26 11z m1090 -16 c0 -13 -10 -22 -32
-28 -37 -10 -43 -8 -33 7 3 6 18 11 32 11 18 0 24 4 19 15 -3 8 -1 15 4 15 6
0 10 -9 10 -20z m-1135 0 c3 -5 1 -10 -4 -10 -6 0 -11 5 -11 10 0 6 2 10 4 10
3 0 8 -4 11 -10z m175 0 c0 -5 -5 -10 -11 -10 -5 0 -7 5 -4 10 3 6 8 10 11 10
2 0 4 -4 4 -10z m360 -10 c0 -5 -4 -10 -10 -10 -5 0 -10 5 -10 10 0 6 5 10 10
10 6 0 10 -4 10 -10z m-210 -15 c10 -12 10 -15 -3 -15 -8 0 -17 7 -21 15 -3 8
-2 15 3 15 5 0 14 -7 21 -15z m54 -17 c-5 -7 2 -9 21 -4 25 6 27 5 16 -8 -8
-9 -10 -16 -5 -16 10 0 -17 -20 -27 -20 -3 0 -6 6 -7 13 0 6 -4 23 -8 36 -5
17 -4 22 5 17 6 -4 8 -12 5 -18z m806 12 c0 -5 -7 -10 -16 -10 -8 0 -12 5 -9
10 3 6 10 10 16 10 5 0 9 -4 9 -10z m-420 -10 c0 -5 -4 -10 -10 -10 -5 0 -10
5 -10 10 0 6 5 10 10 10 6 0 10 -4 10 -10z m-771 -31 c-19 -12 -24 -2 -8 17 9
11 14 13 17 4 3 -7 -2 -16 -9 -21z m355 5 c9 -3 13 -10 10 -15 -8 -14 -21 -11
-28 6 -6 17 -4 18 18 9z m751 -4 c-3 -5 -10 -10 -16 -10 -5 0 -9 5 -9 10 0 6
7 10 16 10 8 0 12 -4 9 -10z m110 -20 c18 0 25 -6 25 -18 0 -10 -7 -19 -15
-19 -8 0 -12 4 -9 9 3 4 -2 8 -10 8 -8 0 -20 8 -25 18 -6 9 -11 11 -11 5 0 -7
-8 -13 -17 -13 -15 0 -14 2 3 19 15 15 21 16 27 5 4 -8 19 -14 32 -14z m-355
10 c0 -5 -7 -10 -16 -10 -8 0 -12 5 -9 10 3 6 10 10 16 10 5 0 9 -4 9 -10z
m120 -10 c-20 -13 -40 -13 -40 0 0 6 12 10 28 10 21 0 24 -2 12 -10z m-260
-10 c0 -5 -7 -10 -16 -10 -8 0 -12 5 -9 10 3 6 10 10 16 10 5 0 9 -4 9 -10z
m375 0 c-3 -5 -11 -10 -16 -10 -6 0 -7 5 -4 10 3 6 11 10 16 10 6 0 7 -4 4
-10z m-599 -25 c-11 -8 -29 -14 -40 -14 -17 1 -18 2 -3 6 9 2 15 9 12 14 -4 5
6 9 22 9 27 -1 27 -1 9 -15z m238 -10 c-4 -8 -7 -15 -9 -15 -2 0 -5 7 -9 15
-3 9 0 15 9 15 9 0 12 -6 9 -15z m-159 -5 c3 -5 2 -10 -4 -10 -5 0 -13 5 -16
10 -3 6 -2 10 4 10 5 0 13 -4 16 -10z m612 4 c-3 -3 -12 -4 -19 -1 -8 3 -5 6
6 6 11 1 17 -2 13 -5z m-990 -22 c17 -11 0 -34 -20 -27 -9 4 -13 13 -10 21 6
16 13 17 30 6z m853 -6 c0 -9 -7 -12 -20 -9 -11 3 -20 9 -20 14 0 5 9 9 20 9
11 0 20 -6 20 -14z m-450 -23 c-16 -11 -25 -12 -33 -4 -8 8 -7 11 6 11 9 0 17
4 17 10 0 5 7 7 15 3 13 -5 12 -8 -5 -20z m530 17 c0 -5 -5 -10 -11 -10 -5 0
-7 5 -4 10 3 6 8 10 11 10 2 0 4 -4 4 -10z m-245 -10 c-3 -5 -11 -10 -16 -10
-6 0 -7 5 -4 10 3 6 11 10 16 10 6 0 7 -4 4 -10z m-79 -37 c-4 -4 -11 -1 -16
7 -16 25 -11 35 7 17 9 -9 13 -20 9 -24z m-86 17 c0 -5 -7 -10 -15 -10 -8 0
-15 5 -15 10 0 6 7 10 15 10 8 0 15 -4 15 -10z m220 -6 c0 -9 -5 -14 -12 -12
-18 6 -21 28 -4 28 9 0 16 -7 16 -16z"/>
<path d="M2595 3946 c-45 -102 -69 -181 -61 -202 8 -18 9 -17 16 6 4 14 18 57
30 95 44 137 49 155 44 155 -3 0 -16 -24 -29 -54z"/>
<path d="M9441 3943 c63 -65 94 -113 104 -161 7 -33 6 -33 -17 -21 -22 12 -22
11 -8 -7 31 -40 90 -94 120 -109 59 -31 163 -151 194 -227 17 -39 9 -136 -15
-179 -20 -38 -61 -89 -71 -89 -5 0 -26 12 -46 26 -23 17 -14 4 26 -35 35 -33
74 -63 85 -66 44 -13 83 -34 121 -67 38 -33 39 -37 39 -94 0 -45 -7 -70 -28
-106 -15 -27 -31 -48 -36 -48 -16 0 -78 -61 -85 -83 -13 -46 -57 -137 -66
-137 -5 0 -38 14 -74 30 -35 17 -79 33 -97 36 -19 3 1 -10 52 -33 92 -41 139
-82 171 -147 52 -109 -13 -296 -108 -309 -21 -3 -59 -11 -86 -19 -43 -12 -51
-18 -62 -52 -15 -41 -63 -110 -79 -113 -5 -1 -17 -4 -26 -8 -12 -4 -26 8 -52
43 -22 31 -55 60 -87 78 -32 17 -64 46 -87 78 -81 113 -185 217 -287 286 -31
20 -105 81 -125 102 -16 16 -19 16 -40 2 l-23 -16 39 -24 c21 -13 46 -24 55
-24 34 0 294 -242 332 -309 5 -9 15 -20 22 -26 6 -5 17 -26 23 -46 9 -27 21
-41 49 -53 21 -10 42 -16 48 -14 23 7 89 -68 111 -127 15 -40 23 -102 15 -110
-4 -3 -14 -27 -22 -53 -11 -33 -23 -51 -43 -60 -24 -12 -26 -16 -15 -35 10
-19 9 -20 -4 -9 -15 12 -42 8 -63 -11 -5 -4 -26 -16 -45 -25 -29 -14 -36 -25
-48 -72 -17 -70 -23 -76 -77 -84 -39 -6 -45 -11 -55 -42 -6 -18 -16 -34 -21
-34 -5 0 -9 -5 -9 -11 0 -16 -26 -39 -60 -50 -16 -6 -30 -16 -30 -23 0 -16
-37 -46 -56 -46 -8 0 -12 -5 -9 -11 4 -5 -7 -15 -24 -22 -39 -15 -40 -27 -1
-27 18 0 33 -6 36 -15 6 -16 40 -21 46 -7 5 14 68 54 78 50 6 -2 3 -15 -5 -32
-20 -39 -19 -49 5 -34 11 7 20 18 20 24 0 6 7 17 15 24 12 10 15 10 15 -3 0
-8 -6 -18 -12 -20 -7 -3 -3 -6 10 -6 12 -1 22 4 22 9 0 6 10 8 23 5 16 -4 28
0 38 11 12 15 12 16 -9 10 -16 -5 -22 -3 -22 7 0 17 22 37 47 42 10 2 20 4 23
5 3 1 9 2 13 1 4 -1 7 7 5 16 -2 13 3 18 22 17 14 0 31 -3 39 -5 8 -2 26 15
43 43 29 44 29 47 13 72 -9 14 -14 30 -10 36 4 6 0 22 -9 34 l-15 24 111 -3
c124 -3 132 1 165 72 10 22 27 39 38 41 32 6 42 22 18 28 -12 3 -24 15 -27 27
-7 28 0 33 19 13 9 -9 18 -16 20 -16 13 0 64 38 58 43 -3 4 3 7 14 7 27 0 44
22 45 59 1 17 5 28 10 25 4 -3 8 2 8 11 0 8 11 20 25 25 34 13 96 70 89 82 -4
6 3 23 15 39 17 23 21 38 17 67 -4 20 -2 31 2 25 11 -17 44 21 36 42 -4 9 7
30 26 52 29 32 32 41 27 81 -3 25 -1 53 3 61 24 50 38 90 32 95 -11 12 -10 35
1 45 8 6 17 4 25 -5 7 -8 11 -14 8 -14 -3 0 6 -22 19 -48 24 -47 34 -109 51
-307 10 -114 8 -176 -12 -385 l-4 -45 15 31 c8 18 17 54 21 80 3 27 10 69 15
94 15 77 2 344 -21 440 -26 107 -69 238 -87 267 -16 24 -14 95 3 100 6 2 21
-19 34 -47 33 -70 47 -81 71 -51 40 49 11 132 -50 146 -26 6 -60 32 -50 38 51
29 52 29 46 13 -5 -11 -1 -16 13 -16 10 0 22 -4 25 -10 3 -5 14 -10 23 -10 20
0 76 -86 62 -95 -6 -4 -10 -18 -10 -33 -1 -28 -40 -82 -61 -82 -13 0 -14 6 36
-156 l38 -122 96 -18 c90 -18 93 -19 49 -22 -27 -2 -48 -6 -48 -10 1 -4 21
-20 46 -36 25 -16 50 -40 55 -53 9 -23 11 -24 31 -11 17 11 33 12 77 5 74 -12
82 -22 20 -22 -38 0 -54 -5 -64 -19 -17 -22 -10 -43 18 -52 26 -8 57 -46 49
-59 -16 -25 -11 -46 13 -55 32 -12 32 -24 0 -16 -25 6 -36 -8 -12 -17 9 -4 9
-6 -1 -6 -13 -1 -4 -23 31 -70 21 -29 22 -61 2 -61 -8 0 -15 9 -15 21 0 33
-40 118 -58 122 -15 4 -15 5 1 6 21 1 23 29 2 37 -18 7 -47 -14 -42 -30 2 -6
-9 -24 -25 -39 -20 -20 -28 -35 -25 -49 5 -17 2 -19 -19 -15 -13 2 -24 0 -24
-4 0 -5 10 -9 23 -9 17 0 19 -2 8 -9 -9 -6 -22 -6 -32 0 -25 13 -26 12 -31
-16 -3 -13 -2 -22 2 -20 4 2 24 -5 46 -15 48 -25 130 -27 156 -3 22 20 26 17
35 -28 6 -30 5 -33 -9 -21 -24 19 -116 5 -129 -19 -5 -11 -21 -19 -34 -19 -19
0 -25 -5 -25 -21 0 -20 1 -21 25 -5 13 9 27 16 29 16 10 0 -7 -35 -22 -47 -20
-16 -15 -21 34 -29 38 -6 43 -4 63 25 16 22 30 31 51 31 16 0 32 5 35 10 13
21 25 8 25 -27 0 -26 10 -53 31 -83 22 -32 26 -46 17 -50 -7 -3 -13 -14 -12
-25 0 -11 -4 -26 -9 -33 -11 -15 6 -62 23 -62 6 0 21 -9 33 -20 12 -11 27 -18
34 -16 6 3 14 -3 16 -12 3 -9 5 621 6 1401 l1 1417 -707 0 -707 0 55 -57z
m487 -1378 c-3 -3 -9 2 -12 12 -6 14 -5 15 5 6 7 -7 10 -15 7 -18z m112 -15
c0 -5 -5 -10 -11 -10 -5 0 -7 5 -4 10 3 6 8 10 11 10 2 0 4 -4 4 -10z m-36
-46 c3 -8 2 -12 -4 -9 -6 3 -10 10 -10 16 0 14 7 11 14 -7z m-49 -344 c-3 -5
-12 -10 -18 -10 -7 0 -6 4 3 10 19 12 23 12 15 0z m-120 -88 c-3 -3 -11 0 -18
7 -9 10 -8 11 6 5 10 -3 15 -9 12 -12z m-147 -29 c-10 -2 -28 -2 -40 0 -13 2
-5 4 17 4 22 1 32 -1 23 -4z m1052 -57 c0 -12 -94 -66 -113 -66 -15 0 -6 8 28
24 28 14 46 25 40 26 -5 1 -1 5 10 10 23 10 35 12 35 6z m-1227 -113 c-7 -2
-19 -2 -25 0 -7 3 -2 5 12 5 14 0 19 -2 13 -5z m167 -213 c0 -5 -4 -10 -9 -10
-6 0 -13 5 -16 10 -3 6 1 10 9 10 9 0 16 -4 16 -10z m1060 -350 c0 -5 -7 -10
-16 -10 -8 0 -12 5 -9 10 3 6 10 10 16 10 5 0 9 -4 9 -10z m13 -75 c-7 -21
-13 -19 -13 6 0 11 4 18 10 14 5 -3 7 -12 3 -20z m-1640 -56 c-6 -21 -23 -16
-23 7 0 17 -17 19 -23 2 -2 -7 -8 -10 -12 -5 -5 4 0 13 10 21 24 17 54 1 48
-25z"/>
<path d="M7150 3970 c-9 -6 -10 -10 -3 -10 6 0 15 5 18 10 8 12 4 12 -15 0z"/>
<path d="M3277 3933 c-4 -3 -7 -13 -7 -21 0 -12 3 -12 15 -2 8 7 15 16 15 21
0 11 -14 12 -23 2z"/>
<path d="M7030 3930 c-13 -9 -13 -10 0 -9 8 1 26 5 40 9 l25 8 -25 1 c-14 0
-32 -4 -40 -9z"/>
<path d="M9330 3910 c0 -5 5 -10 11 -10 5 0 7 5 4 10 -3 6 -8 10 -11 10 -2 0
-4 -4 -4 -10z"/>
<path d="M7675 3901 c-6 -11 9 -23 19 -14 9 9 7 23 -3 23 -6 0 -12 -4 -16 -9z"/>
<path d="M79 3880 l-24 -19 33 -1 c21 0 32 5 32 14 0 25 -17 27 -41 6z"/>
<path d="M4856 3863 c-21 -19 -49 -51 -62 -70 -40 -59 -99 -118 -163 -163 -58
-41 -91 -77 -91 -100 0 -17 42 8 68 41 13 16 29 29 37 29 7 0 20 11 29 25 18
27 52 49 59 38 3 -5 0 -19 -6 -33 -47 -113 -61 -174 -46 -201 7 -13 7 -25 1
-31 -8 -8 3 -106 13 -116 5 -5 63 27 71 39 3 6 -2 51 -12 100 -21 103 -12 158
33 217 25 33 25 33 4 39 -16 4 -20 11 -15 27 12 42 58 97 106 128 52 34 57 43
30 57 -13 7 -26 1 -56 -26z"/>
<path d="M7070 3875 c-7 -8 -8 -15 -2 -15 5 0 15 7 22 15 7 8 8 15 2 15 -5 0
-15 -7 -22 -15z"/>
<path d="M5181 3825 c-33 -29 -74 -90 -69 -104 4 -13 27 6 64 54 28 37 48 75
39 75 -2 0 -17 -11 -34 -25z"/>
<path d="M9380 3819 c0 -15 7 -32 15 -39 12 -10 15 -9 15 7 0 10 -7 28 -15 39
-14 18 -14 18 -15 -7z"/>
<path d="M3261 3777 c-23 -48 -26 -63 -11 -72 9 -6 46 102 37 111 -3 3 -14
-15 -26 -39z"/>
<path d="M3875 3742 c-60 -35 -128 -71 -150 -79 -121 -45 -147 -57 -156 -75
-10 -18 -8 -19 28 -12 21 4 64 20 95 35 32 16 60 29 63 29 14 0 1 -24 -46 -85
-66 -87 -82 -125 -74 -183 7 -51 9 -57 23 -48 9 5 18 45 28 119 8 57 58 120
170 214 22 18 50 42 64 54 14 12 38 31 54 44 20 16 26 27 20 37 -7 12 -29 3
-119 -50z"/>
<path d="M5382 3763 c-10 -16 -21 -39 -24 -53 -3 -14 -9 -33 -13 -42 -5 -12
-3 -18 6 -18 23 0 34 13 58 64 32 70 13 105 -27 49z"/>
<path d="M6681 3737 c-60 -30 -65 -35 -80 -82 l-17 -50 58 58 c31 32 62 56 67
53 5 -4 12 -2 16 4 3 5 19 10 35 10 29 0 29 1 13 20 -10 11 -20 20 -23 19 -3
0 -34 -15 -69 -32z"/>
<path d="M5463 3709 c-23 -29 -44 -97 -49 -159 -5 -57 -4 -63 9 -47 8 9 17 41
21 71 3 29 13 70 21 91 17 40 16 66 -2 44z"/>
<path d="M7463 3673 c-13 -37 -58 -85 -95 -104 -21 -11 -38 -22 -38 -25 0 -11
55 7 74 24 30 27 85 122 70 122 -2 0 -8 -8 -11 -17z"/>
<path d="M7195 3670 c-3 -5 -1 -10 4 -10 6 0 11 5 11 10 0 6 -2 10 -4 10 -3 0
-8 -4 -11 -10z"/>
<path d="M3120 3650 c0 -11 -63 -44 -102 -54 -32 -7 -38 -36 -8 -36 11 0 20 4
20 9 0 5 10 13 23 16 34 10 97 56 91 66 -7 12 -24 11 -24 -1z"/>
<path d="M7476 3625 c-9 -26 -7 -32 5 -12 6 10 9 21 6 23 -2 3 -7 -2 -11 -11z"/>
<path d="M8094 3591 c11 -11 23 -21 28 -21 14 0 -1 19 -25 31 -22 12 -22 12
-3 -10z"/>
<path d="M7960 3591 c0 -6 4 -13 10 -16 6 -3 7 1 4 9 -7 18 -14 21 -14 7z"/>
<path d="M3024 3550 c-39 -16 -85 -100 -54 -100 6 0 10 6 10 13 0 18 55 57 80
57 12 0 31 5 42 11 41 22 -29 39 -78 19z"/>
<path d="M3925 3514 c-19 -47 -20 -46 14 -68 16 -11 36 -32 45 -47 9 -15 27
-30 41 -33 35 -9 31 -25 -16 -71 -22 -21 -47 -52 -55 -67 -8 -15 -18 -28 -22
-28 -11 0 -105 -111 -99 -117 4 -3 22 4 42 16 20 11 38 21 40 21 2 0 -7 -27
-20 -60 -24 -62 -19 -88 9 -45 9 13 16 28 16 33 0 9 13 16 82 46 22 10 42 28
50 46 7 16 19 31 27 32 12 3 12 6 -2 20 -9 9 -17 23 -17 32 0 20 58 86 76 86
24 0 15 25 -22 60 -78 75 -106 106 -130 143 -13 20 -29 37 -34 37 -5 0 -17
-16 -25 -36z"/>
<path d="M5038 3520 c-24 -16 -53 -39 -63 -50 -18 -20 -18 -20 13 -20 18 0 32
5 32 11 0 19 41 49 67 49 26 0 30 12 10 29 -11 8 -24 4 -59 -19z"/>
<path d="M7365 3480 c-3 -6 1 -7 9 -4 18 7 21 14 7 14 -6 0 -13 -4 -16 -10z"/>
<path d="M8540 3476 c0 -15 77 -62 118 -73 40 -10 18 12 -27 27 -23 7 -48 24
-56 37 -17 26 -35 30 -35 9z"/>
<path d="M8050 3474 c0 -14 49 -68 74 -81 27 -14 28 -14 22 2 -3 9 -6 18 -6
20 0 2 -20 17 -45 34 -25 17 -45 28 -45 25z"/>
<path d="M9407 3442 c-15 -16 -14 -18 16 -32 18 -7 58 -39 89 -71 91 -90 43
-24 -81 114 -4 4 -15 -1 -24 -11z"/>
<path d="M4895 3398 c-30 -17 -152 -123 -216 -187 -31 -31 -69 -66 -85 -78
-25 -19 -26 -22 -9 -22 11 -1 27 3 35 9 24 14 116 99 197 180 115 116 119 122
78 98z"/>
<path d="M5260 3400 c-9 -6 -10 -10 -3 -10 6 0 15 5 18 10 8 12 4 12 -15 0z"/>
<path d="M6542 3377 c-12 -13 -19 -27 -15 -30 11 -12 23 -8 23 7 0 8 5 16 12
18 6 2 9 10 7 17 -3 8 -12 4 -27 -12z"/>
<path d="M8630 3365 c0 -15 44 -61 98 -102 140 -106 252 -170 252 -142 0 8
-114 85 -210 141 -25 14 -66 45 -92 68 -27 23 -48 39 -48 35z"/>
<path d="M8765 3354 c17 -9 37 -22 45 -28 8 -7 33 -18 55 -25 22 -8 57 -22 78
-31 l37 -18 -5 26 c-8 47 -38 66 -118 73 -39 4 -83 10 -97 14 -22 5 -22 4 5
-11z"/>
<path d="M2909 3255 c-9 -19 -12 -32 -8 -29 13 8 41 64 32 64 -5 -1 -15 -16
-24 -35z"/>
<path d="M4898 3253 c-29 -36 -48 -73 -48 -96 0 -14 -8 -31 -17 -38 -32 -27
-73 -92 -73 -117 0 -14 5 -42 11 -63 9 -28 16 -36 28 -31 24 9 40 34 41 62 0
15 4 30 10 36 5 5 11 35 14 66 4 57 30 153 49 176 16 20 2 24 -15 5z"/>
<path d="M2069 3206 c-11 -26 -19 -52 -17 -58 2 -6 14 12 27 41 12 29 20 55
17 59 -3 3 -15 -16 -27 -42z"/>
<path d="M7353 3218 c-18 -13 -33 -29 -33 -36 0 -22 -71 -44 -191 -58 -63 -7
-127 -20 -142 -27 -24 -13 -25 -15 -12 -34 13 -19 19 -20 57 -11 24 5 52 14
63 18 11 5 39 11 62 14 22 3 53 8 67 12 21 5 26 3 26 -14 0 -10 -9 -31 -20
-45 -49 -62 -5 -64 47 -1 52 61 170 149 213 157 45 9 99 -7 117 -33 8 -11 20
-20 27 -20 7 0 25 -9 40 -21 26 -20 46 -19 46 4 0 7 19 13 50 14 28 1 58 7 68
12 12 7 -14 10 -90 9 -101 -2 -108 -1 -149 26 -84 56 -193 71 -246 34z"/>
<path d="M5140 3220 c0 -5 5 -10 11 -10 5 0 7 5 4 10 -3 6 -8 10 -11 10 -2 0
-4 -4 -4 -10z"/>
<path d="M2860 3190 c-6 -11 -36 -39 -68 -62 -63 -47 -162 -144 -162 -160 0
-5 7 -2 16 6 8 9 21 16 27 16 7 0 29 21 50 48 21 26 62 67 91 92 56 47 83 80
66 80 -5 0 -14 -9 -20 -20z"/>
<path d="M7560 3151 c0 -6 13 -17 28 -25 16 -8 34 -22 41 -30 8 -9 18 -16 24
-16 15 0 -34 50 -65 66 -16 8 -28 10 -28 5z"/>
<path d="M3635 3130 c3 -5 11 -10 16 -10 6 0 7 5 4 10 -3 6 -11 10 -16 10 -6
0 -7 -4 -4 -10z"/>
<path d="M5180 3106 c0 -14 9 -35 20 -46 19 -19 40 -27 40 -15 0 13 -30 62
-44 74 -14 12 -16 10 -16 -13z"/>
<path d="M5435 3072 c-16 -11 -55 -47 -85 -80 -47 -54 -59 -62 -90 -62 -39 0
-128 -38 -149 -63 -16 -21 -8 -21 57 -5 26 6 51 17 55 25 4 7 15 13 22 13 8 0
15 4 15 9 0 5 17 11 38 15 21 3 47 15 57 26 10 11 24 20 32 20 21 0 43 25 43
50 0 11 11 32 25 45 29 30 21 32 -20 7z"/>
<path d="M5510 3080 c0 -5 4 -10 9 -10 6 0 13 5 16 10 3 6 -1 10 -9 10 -9 0
-16 -4 -16 -10z"/>
<path d="M7727 3028 c3 -13 10 -29 16 -35 5 -7 7 -22 4 -33 -5 -21 36 -70 59
-70 8 0 21 11 30 25 17 25 49 34 56 14 2 -5 11 -7 20 -4 12 5 14 13 9 33 -8
31 -90 77 -158 87 -40 6 -41 5 -36 -17z"/>
<path d="M2935 3025 c-5 -11 -10 -24 -13 -30 -3 -5 3 -3 13 7 9 9 15 22 12 30
-3 9 -7 7 -12 -7z"/>
<path d="M1976 2973 c-18 -54 -20 -85 -6 -99 7 -7 1 -25 -20 -55 -16 -24 -30
-51 -30 -59 0 -13 2 -13 9 -1 7 11 13 7 25 -18 20 -38 38 -40 56 -5 16 29 17
94 1 103 -14 9 -19 82 -11 139 9 56 -4 54 -24 -5z"/>
<path d="M3518 2983 c7 -3 16 -2 19 1 4 3 -2 6 -13 5 -11 0 -14 -3 -6 -6z"/>
<path d="M2925 2955 c8 -37 22 -53 34 -39 6 5 0 20 -16 39 l-25 30 7 -30z"/>
<path d="M4555 2937 c-22 -11 -54 -26 -71 -34 -17 -8 -47 -30 -66 -49 -51 -49
-148 -91 -148 -64 0 16 -49 90 -60 90 -13 0 -13 -87 0 -95 19 -12 10 -35 -22
-51 -53 -28 -231 -176 -183 -152 6 2 29 13 53 23 23 10 42 21 42 25 0 4 14 13
30 20 17 7 30 16 30 21 0 5 5 9 11 9 6 0 25 11 42 24 18 13 66 42 107 65 41
23 89 51 105 61 17 10 39 19 50 19 12 1 36 14 55 31 19 16 41 29 48 30 7 0 22
5 33 11 16 8 18 13 8 25 -14 17 -14 17 -64 -9z"/>
<path d="M7342 2940 c-7 -11 -18 -20 -25 -20 -13 0 -81 -60 -74 -66 2 -2 20
-6 39 -8 26 -4 44 1 61 15 14 10 32 19 41 19 11 0 15 10 13 40 -1 33 -5 40
-22 40 -11 0 -26 -9 -33 -20z"/>
<path d="M8222 2930 c-18 -17 -28 -30 -24 -30 5 0 26 -12 47 -26 21 -14 42
-21 46 -17 10 10 -18 103 -29 103 -4 0 -22 -14 -40 -30z"/>
<path d="M9119 2944 c-11 -14 -10 -19 8 -33 11 -10 28 -32 37 -49 9 -18 19
-32 22 -32 2 0 -3 14 -12 32 -10 19 -14 44 -11 65 5 27 3 33 -12 33 -10 0 -25
-7 -32 -16z"/>
<path d="M2240 2942 c0 -4 -18 -28 -40 -52 -22 -25 -38 -49 -36 -55 2 -5 -5
-27 -15 -47 -11 -21 -19 -46 -19 -58 0 -11 -9 -53 -21 -93 -11 -39 -27 -97
-35 -127 -8 -30 -25 -68 -38 -85 -13 -16 -31 -45 -40 -62 -15 -30 -15 -35 0
-57 8 -14 14 -33 11 -43 -4 -14 -5 -12 -7 7 -2 14 -6 0 -10 -30 -8 -61 -2
-113 11 -104 5 3 9 -5 9 -18 0 -40 12 -68 27 -68 10 0 13 6 8 18 -14 37 -15
133 -1 170 8 20 17 70 21 111 4 41 17 104 30 140 12 36 28 95 35 131 7 36 19
77 27 93 8 15 13 33 12 40 -6 34 45 133 86 167 19 16 19 30 0 30 -8 0 -15 -4
-15 -8z"/>
<path d="M6922 2926 c-34 -7 -68 -18 -75 -25 -17 -17 47 -138 87 -162 40 -25
66 -24 66 0 0 11 4 22 9 25 11 7 20 55 11 61 -4 2 -7 24 -7 49 -1 45 -8 67
-21 65 -4 -1 -35 -7 -70 -13z m15 -58 c16 -20 23 -62 13 -77 -6 -11 -12 -8
-27 16 -10 16 -24 28 -30 26 -13 -5 -18 28 -6 40 11 11 40 8 50 -5z m41 -113
c-3 -3 -9 2 -12 12 -6 14 -5 15 5 6 7 -7 10 -15 7 -18z"/>
<path d="M4654 2919 c-3 -5 9 -9 25 -9 17 0 31 2 31 4 0 8 -51 13 -56 5z"/>
<path d="M7880 2895 c0 -13 -7 -16 -30 -13 -35 5 -38 -5 -13 -57 17 -36 28
-41 51 -26 18 11 21 102 5 108 -7 3 -13 -3 -13 -12z"/>
<path d="M7412 2876 c-19 -10 -21 -14 -9 -24 10 -9 18 -8 33 2 27 21 7 39 -24
22z"/>
<path d="M5415 2849 c-56 -30 -115 -78 -115 -94 0 -7 -12 -22 -26 -32 -25 -19
-26 -20 -8 -37 17 -18 18 -18 27 0 4 11 27 30 50 44 49 30 100 77 116 107 21
40 13 42 -44 12z"/>
<path d="M2095 2781 c-13 -22 -52 -69 -86 -105 -34 -36 -57 -66 -52 -66 13 0
138 137 163 178 28 46 5 40 -25 -7z"/>
<path d="M4810 2810 c8 -5 20 -10 25 -10 6 0 3 5 -5 10 -8 5 -19 10 -25 10 -5
0 -3 -5 5 -10z"/>
<path d="M8285 2788 c12 -36 38 -67 58 -68 20 0 23 25 5 37 -7 4 -18 17 -24
28 -6 11 -19 22 -29 23 -14 3 -16 -1 -10 -20z"/>
<path d="M8387 2796 c13 -9 36 -19 53 -21 16 -2 34 -6 40 -10 6 -4 18 -1 27 7
14 11 9 14 -38 19 -30 4 -65 10 -79 14 l-25 7 22 -16z"/>
<path d="M4900 2765 c0 -9 64 -45 80 -45 8 1 -3 12 -25 25 -39 24 -55 30 -55
20z"/>
<path d="M8396 2667 c2 -7 20 -21 38 -31 19 -10 60 -44 92 -75 61 -60 80 -57
44 7 -31 56 -193 148 -174 99z"/>
<path d="M4334 2647 c-15 -18 -24 -56 -13 -63 5 -3 9 4 9 14 0 11 7 25 15 32
16 13 20 30 8 30 -5 -1 -13 -6 -19 -13z"/>
<path d="M3225 2624 c-24 -37 -11 -41 15 -5 12 17 17 31 12 31 -5 0 -17 -12
-27 -26z"/>
<path d="M5570 2600 c-19 -16 -44 -29 -55 -30 -11 0 -25 -4 -30 -8 -16 -11
-36 -62 -25 -62 6 0 10 -5 10 -10 0 -15 -55 -37 -128 -51 -89 -17 -196 -89
-133 -89 11 0 32 5 47 10 14 6 42 12 62 15 19 2 44 11 56 20 12 9 40 28 63 44
54 36 167 142 182 170 17 32 -7 27 -49 -9z"/>
<path d="M8098 2612 c-5 -21 30 -82 45 -82 7 0 17 11 23 24 10 22 8 26 -27 49
-33 22 -38 23 -41 9z"/>
<path d="M9270 2583 c0 -3 33 -38 73 -78 90 -88 127 -129 127 -140 0 -5 7 -17
17 -27 9 -10 26 -52 38 -94 l22 -75 18 27 c10 15 19 47 21 72 3 53 -32 114
-80 139 -17 9 -45 30 -62 47 -35 36 -174 139 -174 129z"/>
<path d="M3123 2503 c-43 -44 -87 -83 -98 -87 -17 -5 -85 -119 -85 -141 0 -2
20 8 45 24 39 25 125 130 125 154 0 4 18 24 41 44 42 38 65 71 55 80 -3 3 -40
-30 -83 -74z"/>
<path d="M3304 2489 c-25 -31 -36 -64 -50 -147 -8 -48 -16 -97 -19 -108 -4
-17 1 -23 20 -28 14 -4 25 -11 25 -16 0 -5 7 -7 16 -3 14 5 15 19 9 98 -4 61
-3 105 5 132 15 48 11 94 -6 72z"/>
<path d="M4115 2484 c-32 -17 -115 -93 -115 -105 0 -5 12 -1 28 7 15 7 32 14
38 14 7 0 19 11 27 24 9 13 32 30 52 36 20 7 34 17 32 23 -6 18 -29 18 -62 1z"/>
<path d="M5545 2420 c-16 -32 -37 -56 -58 -66 -60 -31 -167 -118 -167 -136 0
-13 84 -31 88 -19 2 6 10 11 17 11 8 0 19 9 25 19 5 11 16 26 22 33 19 20 39
57 43 79 2 10 20 40 39 65 37 48 43 64 26 64 -5 0 -21 -22 -35 -50z"/>
<path d="M7650 2440 c0 -5 7 -10 16 -10 8 0 12 5 9 10 -3 6 -10 10 -16 10 -5
0 -9 -4 -9 -10z"/>
<path d="M5817 2412 c-3 -4 -8 -33 -11 -64 -7 -56 -7 -58 19 -68 70 -27 71
-27 72 39 1 36 -3 63 -10 68 -22 17 -66 32 -70 25z"/>
<path d="M7644 2409 c-18 -7 -17 -8 3 -8 12 -1 25 -5 28 -11 7 -12 35 -14 35
-2 0 13 -46 29 -66 21z"/>
<path d="M8830 2365 c-12 -14 -11 -18 0 -25 11 -7 11 -23 2 -87 -6 -44 -8 -90
-5 -102 4 -14 1 -26 -8 -32 -11 -6 -11 -12 -3 -27 8 -13 9 -24 2 -37 -6 -10
-14 -33 -18 -51 -6 -26 -4 -33 10 -37 10 -3 23 0 29 6 8 8 11 3 11 -16 0 -15
-4 -27 -10 -27 -5 0 -7 -7 -4 -15 4 -8 1 -22 -6 -30 -9 -11 -8 -20 6 -44 16
-28 21 -30 65 -25 42 5 47 3 52 -17 4 -13 2 -28 -3 -35 -7 -8 -2 -11 20 -10
17 1 30 7 30 14 0 6 8 12 18 12 13 0 14 -2 3 -9 -7 -5 -11 -13 -7 -19 3 -6 2
-13 -4 -17 -5 -3 -10 -13 -10 -21 0 -11 6 -13 21 -9 19 6 21 4 17 -19 -4 -18
-1 -26 8 -26 8 0 14 6 14 13 1 7 6 5 14 -5 7 -10 17 -18 22 -18 5 0 17 -12 27
-27 15 -23 17 -24 12 -6 -8 30 11 38 29 11 9 -12 16 -18 16 -14 0 13 -60 105
-88 135 -36 39 -81 109 -88 135 -4 17 0 27 13 35 10 6 15 11 11 12 -5 1 -11 3
-15 4 -5 2 -17 6 -28 10 -25 8 -80 78 -66 83 6 2 8 15 5 30 -4 20 -3 23 5 12
5 -8 14 -11 18 -6 4 4 0 14 -10 21 -13 9 -19 29 -21 76 -2 35 -11 84 -21 109
-9 25 -20 58 -24 74 -8 35 -23 43 -41 21z m130 -505 c0 -5 -4 -10 -10 -10 -5
0 -10 5 -10 10 0 6 5 10 10 10 6 0 10 -4 10 -10z m40 -32 c0 -6 -3 -8 -7 -5
-3 4 -12 2 -20 -4 -10 -9 -13 -8 -13 5 0 9 8 16 20 16 11 0 20 -5 20 -12z"/>
<path d="M7867 2363 c-19 -18 -15 -18 141 -22 23 -1 42 -5 42 -10 0 -4 11 -6
25 -3 14 2 36 -3 49 -11 21 -14 25 -14 30 -2 3 8 15 15 26 15 28 0 25 19 -6
30 -28 11 -297 14 -307 3z"/>
<path d="M7770 2336 c0 -16 41 -29 64 -20 9 3 16 10 16 16 0 5 -4 6 -10 3 -5
-3 -10 -3 -10 2 0 4 -14 9 -30 10 -20 1 -30 -3 -30 -11z"/>
<path d="M3908 2287 c-56 -56 -105 -120 -133 -177 -17 -33 -162 -185 -177
-185 -3 0 -9 -3 -12 -7 -3 -5 -3 -6 0 -3 4 2 13 -2 21 -10 12 -13 18 -13 41
-1 39 21 95 73 112 106 8 15 41 64 73 108 31 44 57 84 57 90 0 5 7 15 16 23
15 12 68 109 60 109 -2 0 -28 -24 -58 -53z"/>
<path d="M4970 2316 c0 -7 -9 -25 -21 -40 -23 -29 -22 -30 15 -16 20 7 26 16
26 40 0 16 -4 30 -10 30 -5 0 -10 -6 -10 -14z"/>
<path d="M1602 2298 c6 -16 36 -34 44 -26 3 4 4 14 1 23 -7 17 -51 21 -45 3z"/>
<path d="M2513 2277 c-11 -12 -30 -37 -42 -55 -13 -18 -41 -42 -64 -53 -22
-12 -64 -36 -91 -55 -28 -18 -71 -38 -95 -44 -51 -13 -111 -67 -111 -99 0 -27
16 -27 32 -1 7 11 18 20 25 20 7 0 13 6 13 13 0 7 26 25 58 41 77 37 98 50
122 71 11 10 20 13 20 8 0 -6 -40 -50 -90 -98 -49 -49 -95 -100 -101 -114 -7
-14 -34 -43 -61 -65 l-49 -38 6 48 6 49 -63 49 -63 50 -82 1 c-92 1 -117 15
-153 85 l-18 34 -7 -34 c-5 -19 -9 -42 -11 -50 -1 -8 -7 -49 -14 -90 -16 -94
-8 -327 14 -428 24 -106 108 -313 122 -299 3 2 -4 38 -14 78 -53 201 -72 401
-57 594 7 101 16 110 33 35 6 -25 22 -79 36 -120 58 -176 68 -209 81 -275 24
-119 41 -179 69 -230 14 -28 26 -55 26 -61 0 -6 7 -17 15 -24 12 -10 15 -10
15 1 0 11 2 11 10 -1 6 -11 5 -17 -5 -20 -13 -5 -13 -9 1 -29 13 -18 18 -20
25 -10 9 15 25 -2 51 -51 35 -69 83 -133 159 -211 117 -120 361 -315 457 -363
l32 -17 6 31 c5 21 12 30 25 30 17 0 18 3 7 22 -7 12 -21 30 -31 40 -10 11
-16 28 -13 43 3 14 -1 31 -8 38 -21 21 -36 54 -36 81 0 28 17 35 26 11 4 -8
11 -15 17 -15 6 0 19 -7 29 -17 10 -9 18 -11 18 -5 0 9 6 9 25 0 13 -6 22 -15
19 -20 -7 -10 15 -40 25 -34 3 2 15 -2 25 -10 15 -10 16 -17 8 -27 -8 -9 -8
-17 -2 -23 7 -7 6 -21 -1 -42 -10 -29 -9 -35 9 -50 11 -10 18 -23 14 -29 -7
-11 -93 -10 -111 1 -8 6 -38 -21 -30 -27 2 -2 27 -16 54 -32 28 -15 60 -36 72
-45 30 -23 333 -173 523 -258 25 -11 86 -32 135 -47 50 -15 119 -40 154 -57
96 -45 251 -86 251 -67 0 5 -9 9 -20 9 -11 0 -20 4 -20 10 0 5 -6 7 -14 4 -8
-3 -17 -1 -21 5 -3 6 -14 11 -24 11 -32 0 -42 21 -19 40 15 12 18 19 10 24 -7
4 -12 2 -12 -4 0 -7 -6 -5 -15 4 -8 8 -15 24 -15 37 0 32 -22 99 -32 99 -5 0
-6 -4 -3 -10 3 -5 -1 -10 -10 -10 -13 0 -16 6 -11 25 4 14 0 41 -9 62 -17 40
-8 55 28 45 14 -3 18 -1 13 6 -4 7 -18 12 -30 12 -45 0 -135 114 -136 172 -1
87 -1 86 17 49 13 -26 14 -36 5 -39 -7 -2 -12 -8 -12 -13 0 -6 5 -7 10 -4 6 4
10 -6 11 -22 1 -26 1 -26 7 -5 8 25 14 28 40 13 9 -5 13 -13 9 -18 -5 -4 -15
1 -23 12 -15 19 -15 19 -9 -7 6 -22 4 -28 -9 -28 -10 0 -13 -6 -10 -15 4 -8
12 -15 19 -15 8 0 24 -12 36 -28 12 -15 19 -19 16 -9 -5 12 -1 17 11 17 15 0
15 2 2 10 -13 9 -13 11 0 19 8 5 18 7 24 4 5 -4 7 1 3 10 -4 11 -1 17 8 17 24
0 18 20 -15 50 -42 39 -39 52 13 49 23 -1 56 -1 72 0 l30 2 -38 13 c-20 8 -61
17 -90 21 -90 12 -168 46 -194 84 -28 42 -29 80 -3 208 23 115 25 152 8 149
-31 -7 -65 -26 -88 -50 -13 -15 -49 -46 -80 -69 -30 -23 -57 -45 -60 -48 -3
-4 -24 -13 -48 -20 -38 -11 -46 -10 -80 8 -20 11 -49 23 -63 26 -14 4 -60 29
-102 57 -69 45 -81 50 -134 50 -32 0 -76 5 -98 10 -50 11 -100 62 -91 94 4 11
11 46 17 76 6 30 15 59 20 65 5 5 9 24 9 42 0 18 4 33 8 33 5 0 15 19 22 43
19 58 65 139 94 164 13 11 58 66 100 121 41 55 86 108 98 116 12 9 17 16 11
16 -6 0 -33 -16 -60 -35 -46 -35 -46 -34 12 21 l60 56 -50 -7 c-29 -4 -64 -17
-82 -31 -49 -37 -58 -103 -12 -91 17 5 17 3 4 -22 -18 -32 -95 -119 -95 -108
0 5 9 20 20 34 11 14 20 33 20 42 -1 21 -48 -35 -56 -66 -4 -13 -9 -23 -13
-23 -11 0 -42 -58 -39 -72 6 -25 -56 -107 -89 -120 -18 -7 -33 -16 -33 -20 0
-4 -7 -8 -15 -8 -8 0 -15 -3 -15 -7 0 -5 -16 -26 -35 -48 -19 -22 -35 -43 -35
-47 0 -3 -19 -20 -42 -37 -63 -46 -101 -43 -177 17 -33 26 -63 55 -67 66 -6
18 -25 40 -124 145 -25 26 -54 66 -64 89 -10 23 -29 48 -42 57 -39 25 -53 64
-39 105 7 19 19 35 26 34 8 -1 26 14 39 32 14 18 35 38 48 45 12 7 32 29 44
48 24 39 71 94 131 150 20 20 72 69 114 109 41 39 81 72 87 72 19 0 36 22 36
47 0 13 5 23 10 23 16 0 11 14 -9 27 -15 10 -22 8 -38 -10z m-543 -537 c0 -5
-4 -10 -9 -10 -6 0 -13 5 -16 10 -3 6 1 10 9 10 9 0 16 -4 16 -10z m865 -220
c-10 -11 -20 -18 -23 -15 -3 3 3 14 13 25 10 11 20 18 23 15 3 -3 -3 -14 -13
-25z m-359 -402 c4 -6 2 -14 -4 -16 -7 -2 -10 -8 -6 -13 3 -5 -1 -9 -9 -9 -14
0 -27 20 -27 41 0 13 38 11 46 -3z m8 -144 c3 -8 2 -12 -4 -9 -6 3 -10 10 -10
16 0 14 7 11 14 -7z m210 -40 c9 -3 16 -12 16 -20 0 -20 -13 -17 -28 6 -13 22
-12 23 12 14z m-150 -20 c3 -9 6 -28 6 -42 l-1 -27 -19 24 c-11 13 -20 32 -20
42 0 23 25 25 34 3z m236 -4 c0 -5 -4 -10 -10 -10 -5 0 -10 5 -10 10 0 6 5 10
10 10 6 0 10 -4 10 -10z m524 -35 c-7 -17 -20 -20 -29 -6 -3 5 3 12 12 14 10
3 19 5 20 6 1 0 0 -6 -3 -14z m33 -94 c-6 -2 -15 -8 -18 -13 -3 -5 -18 -6 -33
-2 -27 6 -27 7 -6 21 11 8 18 18 15 23 -3 6 8 2 24 -8 17 -9 25 -19 18 -21z
m-472 19 c3 -5 2 -10 -4 -10 -5 0 -13 5 -16 10 -3 6 -2 10 4 10 5 0 13 -4 16
-10z m185 -1 c0 -6 8 -8 18 -5 11 4 22 -1 29 -13 10 -15 8 -20 -13 -31 -13 -8
-24 -17 -24 -21 0 -4 17 -21 38 -38 95 -80 112 -97 112 -113 0 -9 4 -19 9 -22
15 -9 21 -67 10 -87 -8 -15 -7 -26 4 -43 8 -12 17 -38 18 -57 2 -19 8 -37 13
-41 6 -4 7 -10 3 -14 -13 -14 -123 47 -156 87 -19 21 -37 37 -40 34 -13 -7
-43 56 -38 81 2 13 0 24 -6 24 -5 0 -7 11 -5 25 3 14 1 25 -3 25 -5 0 -9 7 -9
16 0 8 5 12 10 9 6 -3 10 -1 10 4 0 6 -5 11 -11 11 -5 0 -7 5 -3 12 5 8 11 6
20 -6 8 -12 14 -14 19 -6 4 6 14 9 24 6 13 -5 13 -4 -2 8 -14 10 -15 15 -5 19
9 4 6 11 -12 26 -13 11 -27 19 -30 19 -35 -3 -42 19 -8 24 13 2 24 11 26 22 3
14 0 17 -12 13 -12 -5 -16 0 -16 18 0 16 6 25 15 25 8 0 15 -5 15 -11z m-40
-9 c0 -5 -5 -10 -11 -10 -5 0 -7 5 -4 10 3 6 8 10 11 10 2 0 4 -4 4 -10z m340
-40 c0 -5 -7 -10 -16 -10 -8 0 -12 5 -9 10 3 6 10 10 16 10 5 0 9 -4 9 -10z
m-232 -31 c11 -14 9 -16 -13 -11 -21 3 -23 7 -14 18 7 8 12 13 13 12 1 -2 7
-10 14 -19z m208 -24 c11 -11 12 -20 5 -32 -9 -16 -11 -15 -20 10 -16 43 -12
49 15 22z m184 -31 c0 -6 10 -9 24 -7 13 3 27 0 30 -6 4 -6 0 -11 -9 -11 -8 0
-23 -9 -32 -20 -10 -11 -24 -20 -31 -20 -12 0 -12 -3 -2 -15 7 -8 18 -15 25
-15 7 0 15 -7 19 -15 4 -11 -1 -15 -19 -15 -14 0 -25 5 -25 10 0 6 -8 10 -17
10 -15 -1 -15 -3 5 -19 26 -22 28 -31 8 -31 -19 0 -17 -39 2 -62 10 -12 30
-18 61 -18 54 0 98 -28 88 -54 -4 -10 -2 -26 4 -37 7 -15 7 -24 -1 -34 -6 -8
-7 -16 -2 -19 11 -7 23 -57 25 -104 2 -40 -14 -46 -77 -32 -83 18 -123 39
-136 71 -7 16 -18 29 -24 29 -7 0 -6 4 2 9 11 7 11 9 -2 14 -9 4 -13 13 -10
21 5 13 -8 34 -42 70 -6 6 -14 25 -17 41 -3 17 -8 40 -12 53 l-8 23 37 -22
c20 -12 40 -19 43 -15 3 3 -2 8 -11 12 -9 3 -16 12 -16 20 0 8 -4 14 -10 14
-15 0 -12 27 5 54 15 23 15 24 -10 24 -22 0 -23 -2 -9 -13 12 -8 14 -14 6 -19
-31 -19 -51 47 -30 94 11 25 19 30 49 30 43 0 47 -4 41 -35 -3 -17 -11 -25
-24 -25 -19 0 -18 -1 4 -29 13 -15 27 -26 31 -24 5 3 1 13 -9 24 -16 18 -15
19 12 29 23 9 25 13 14 21 -13 8 -13 10 -1 18 8 5 12 15 9 22 -4 9 2 14 18 14
13 0 24 -5 24 -11z"/>
<path d="M3060 770 c0 -5 5 -10 10 -10 6 0 10 5 10 10 0 6 -4 10 -10 10 -5 0
-10 -4 -10 -10z"/>
<path d="M3065 611 c-3 -5 -1 -13 5 -16 8 -5 8 -11 0 -20 -8 -9 -8 -15 0 -20
5 -3 10 -1 10 6 0 6 8 17 17 24 15 11 15 13 -5 24 -12 7 -23 7 -27 2z"/>
<path d="M3736 2274 c-10 -25 -7 -34 9 -34 8 0 15 9 15 19 0 26 -16 35 -24 15z"/>
<path d="M3972 2260 c-11 -14 -17 -39 -18 -73 0 -69 -13 -167 -25 -189 -5 -9
-9 -30 -9 -47 l0 -31 30 19 c30 18 30 18 34 127 3 69 11 123 21 148 25 59 4
89 -33 46z"/>
<path d="M5932 2268 c-15 -15 -15 -28 -2 -28 6 0 40 -18 76 -40 36 -22 68 -40
70 -40 2 0 1 8 -3 18 -17 49 -118 113 -141 90z"/>
<path d="M1396 2235 c-9 -9 -19 -27 -22 -41 -3 -13 -12 -24 -20 -24 -35 0 8
-61 63 -89 26 -13 72 -14 91 -2 11 6 4 18 -28 48 -35 33 -43 46 -44 78 -1 43
-16 54 -40 30z"/>
<path d="M1507 2229 c-20 -28 -10 -57 27 -80 42 -26 61 -24 85 7 43 55 19 94
-58 94 -29 0 -44 -6 -54 -21z"/>
<path d="M4923 2168 c-5 -7 -18 -31 -28 -52 -14 -32 -16 -45 -7 -70 12 -33 6
-103 -10 -112 -11 -7 21 -33 40 -34 6 0 12 10 12 23 0 13 5 28 12 35 9 9 9 17
-1 36 -11 19 -11 28 0 47 10 19 14 72 10 132 -1 11 -18 8 -28 -5z"/>
<path d="M4713 2138 c-13 -6 -23 -19 -23 -30 0 -17 2 -17 38 -3 40 17 63 35
45 35 -6 0 -17 2 -25 4 -7 3 -23 0 -35 -6z"/>
<path d="M10330 2061 c0 -6 15 -21 33 -35 58 -44 81 -28 26 18 -31 26 -59 34
-59 17z"/>
<path d="M2475 2033 c-13 -63 -30 -110 -52 -143 -13 -19 -23 -41 -23 -48 0 -8
-21 -47 -46 -88 -73 -117 -86 -162 -74 -242 6 -36 15 -71 21 -78 5 -6 18 -44
28 -84 11 -40 26 -79 34 -87 15 -16 15 -5 5 302 -1 37 4 73 14 95 9 19 16 42
17 50 2 43 15 87 31 105 26 28 48 89 60 165 12 80 12 80 0 80 -5 0 -12 -12
-15 -27z"/>
<path d="M1587 2002 c-22 -24 -22 -71 -1 -79 21 -8 34 14 34 60 0 41 -9 46
-33 19z"/>
<path d="M10282 1998 c2 -19 10 -24 46 -26 49 -4 54 7 13 31 -41 24 -63 22
-59 -5z"/>
<path d="M4609 1977 c-52 -32 -80 -57 -116 -102 -33 -43 -73 -149 -73 -193 l1
-27 14 26 c8 15 19 48 25 74 6 27 21 61 34 76 13 16 26 32 28 36 7 16 79 73
93 73 7 0 20 -7 28 -15 19 -18 28 -9 21 20 -3 13 -1 26 5 30 14 8 5 25 -12 24
-7 0 -28 -10 -48 -22z"/>
<path d="M6400 1976 c0 -11 91 -76 106 -76 11 0 -32 49 -43 50 -7 0 -17 9 -23
20 -12 23 -40 27 -40 6z"/>
<path d="M3183 1906 c-40 -40 -73 -77 -73 -82 1 -5 15 7 33 27 22 25 44 39 70
43 20 4 37 11 37 16 0 6 6 10 14 10 19 0 29 30 15 46 -6 8 -14 14 -18 14 -3 0
-39 -33 -78 -74z"/>
<path d="M10307 1926 c-17 -13 -24 -66 -8 -66 17 0 62 28 51 32 -6 2 -12 11
-14 20 -3 25 -9 28 -29 14z"/>
<path d="M10470 1916 c0 -17 59 -76 77 -76 31 0 10 56 -28 75 -35 19 -49 19
-49 1z"/>
<path d="M2757 1913 c-30 -53 1 -123 54 -123 16 0 29 4 29 8 0 15 -25 62 -32
62 -5 0 -8 6 -8 13 0 17 -36 51 -43 40z"/>
<path d="M10368 1903 c7 -3 16 -2 19 1 4 3 -2 6 -13 5 -11 0 -14 -3 -6 -6z"/>
<path d="M10400 1900 c0 -5 7 -10 16 -10 8 0 12 5 9 10 -3 6 -10 10 -16 10 -5
0 -9 -4 -9 -10z"/>
<path d="M6601 1869 c-30 -12 -31 -10 99 -94 58 -37 117 -76 132 -86 15 -10
30 -19 34 -19 3 0 21 -12 39 -27 79 -68 87 -73 83 -51 -2 7 -20 21 -40 32 -21
11 -38 26 -38 33 0 7 -5 13 -11 13 -7 0 -9 10 -5 25 5 18 2 25 -9 25 -8 0 -15
6 -15 14 0 18 -31 30 -40 16 -5 -8 -17 -3 -35 14 -16 15 -33 25 -39 24 -14 -3
-61 27 -101 63 -25 22 -34 25 -54 18z"/>
<path d="M1535 1815 c-22 -8 -42 -15 -44 -15 -2 0 2 -6 8 -13 12 -15 49 -16
59 -1 4 5 14 9 22 9 8 0 16 8 18 18 4 20 -10 21 -63 2z"/>
<path d="M4838 1812 c-46 -21 -67 -54 -48 -77 10 -12 9 -20 -4 -40 -10 -14
-28 -31 -41 -37 -32 -14 -59 -72 -59 -128 l-1 -45 38 1 c23 1 50 10 65 23 50
40 73 54 78 48 10 -9 -66 -77 -123 -109 -60 -34 -93 -77 -93 -120 0 -32 14
-37 29 -11 5 10 13 15 16 11 4 -4 -5 -21 -19 -39 -59 -69 -71 -106 -71 -214
l0 -100 -40 -5 c-36 -5 -41 -8 -49 -41 -5 -20 -6 -44 -3 -53 6 -15 9 -15 31
-1 14 9 29 30 35 46 5 16 14 29 20 29 22 0 52 61 55 112 2 29 9 75 17 103 12
42 20 53 51 67 26 13 45 33 63 65 46 87 75 123 100 123 22 0 23 -12 2 -76 -16
-47 -19 -69 -11 -81 11 -17 2 -54 -25 -101 -7 -13 -10 -26 -7 -29 3 -3 1 -14
-5 -24 -14 -27 -1 -65 27 -77 16 -8 27 -25 35 -57 19 -76 30 -52 23 48 -9 115
-5 246 7 269 5 9 9 40 9 69 0 43 5 58 26 80 21 22 24 30 15 47 -14 26 -14 32
2 32 30 1 75 110 44 110 -7 0 -36 -11 -63 -25 -27 -14 -57 -25 -67 -25 -17 0
-18 6 -12 61 7 55 34 107 48 92 3 -2 11 6 18 19 11 21 11 22 -4 10 -13 -11
-15 -10 -10 6 7 29 -14 62 -40 61 -12 0 -39 -8 -59 -17z m-33 -386 c-17 -25
-52 -46 -39 -23 13 22 37 47 46 47 5 0 1 -11 -7 -24z"/>
<path d="M10335 1810 c-10 -11 -15 -26 -11 -36 5 -14 15 -15 58 -10 70 10 88
24 58 48 -30 24 -82 23 -105 -2z"/>
<path d="M7030 1781 c0 -36 99 -140 108 -113 5 17 22 15 22 -2 0 -15 21 -26
47 -26 9 0 22 -8 29 -17 8 -11 13 -13 14 -6 0 7 -8 18 -19 24 -17 11 -17 14
-3 40 13 21 14 30 4 41 -12 15 -69 17 -90 4 -7 -4 -15 -1 -18 8 -3 8 -18 18
-34 21 -16 3 -30 14 -33 26 -7 24 -27 25 -27 0z"/>
<path d="M1342 1774 c-24 -16 -29 -39 -11 -50 6 -3 16 -1 22 5 6 6 20 11 32
11 16 0 17 -2 5 -10 -13 -9 -13 -11 0 -20 11 -8 8 -9 -12 -4 -16 3 -28 3 -28
0 0 -13 86 -46 120 -45 l35 0 -30 24 c-16 14 -36 25 -43 25 -7 0 -12 10 -11
23 4 48 0 57 -29 57 -15 0 -38 -7 -50 -16z"/>
<path d="M1442 1773 c2 -10 13 -19 26 -21 24 -4 29 7 10 26 -18 18 -40 15 -36
-5z"/>
<path d="M1536 1741 c-18 -20 -8 -36 29 -43 16 -2 21 3 23 30 3 26 0 32 -16
32 -10 0 -26 -8 -36 -19z"/>
<path d="M9796 1743 c-6 -14 -5 -15 5 -6 7 7 10 15 7 18 -3 3 -9 -2 -12 -12z"/>
<path d="M9798 1712 c-10 -2 -18 -8 -18 -13 0 -13 27 -11 35 2 9 13 4 16 -17
11z"/>
<path d="M10284 1705 c-4 -9 -2 -21 4 -27 15 -15 44 -1 40 19 -4 23 -36 29
-44 8z"/>
<path d="M3132 1668 c-11 -18 -22 -50 -25 -71 -3 -20 -15 -51 -27 -67 -13 -18
-19 -38 -15 -49 3 -12 0 -21 -10 -25 -8 -3 -15 -15 -15 -26 0 -18 4 -20 22
-14 19 6 21 4 12 -7 -14 -17 -16 -76 -4 -84 13 -8 28 55 42 165 6 52 17 102
23 110 10 12 26 100 19 100 -1 0 -11 -15 -22 -32z"/>
<path d="M7032 1653 c3 -5 10 -23 17 -41 11 -26 17 -31 33 -26 13 4 18 2 14
-4 -3 -6 -1 -14 6 -18 9 -6 5 -10 -12 -15 l-25 -6 33 -19 c115 -66 452 -327
452 -350 0 -16 95 8 96 24 1 7 2 17 3 24 1 7 8 5 19 -5 10 -10 24 -17 30 -17
7 0 12 -11 12 -24 0 -30 57 -87 133 -132 32 -19 60 -34 62 -34 18 0 236 -163
243 -181 2 -5 8 -9 14 -9 6 0 28 -17 49 -37 42 -43 59 -50 59 -25 0 13 8 17
33 17 17 0 37 -3 43 -7 6 -4 19 -1 29 6 18 13 18 14 -3 27 -24 15 -29 35 -10
41 8 3 8 9 1 22 -7 13 -13 15 -17 7 -10 -16 -29 -14 -23 3 4 10 1 13 -9 9 -13
-5 -12 -9 5 -27 24 -26 27 -46 7 -46 -7 0 -16 10 -19 21 -4 15 -11 20 -21 16
-11 -4 -16 -1 -16 12 0 19 -46 94 -61 99 -5 2 -9 8 -9 12 0 25 -58 68 -100 76
-25 4 -48 9 -52 10 -5 1 -15 2 -24 3 -8 0 -20 14 -25 30 -6 17 -17 28 -27 27
-9 0 -17 6 -18 14 -4 59 -56 129 -97 130 -10 0 -20 7 -23 15 -4 8 -11 15 -16
15 -6 0 -23 11 -40 25 -16 14 -37 25 -46 25 -9 0 -26 10 -37 23 -16 19 -108
77 -121 77 -2 0 -4 -9 -4 -19 0 -20 18 -31 53 -31 20 -1 20 -2 4 -11 -9 -5
-22 -7 -29 -3 -6 4 -9 3 -6 -2 3 -5 -4 -17 -14 -27 -19 -18 -20 -17 -52 17
-36 39 -56 48 -32 15 11 -17 12 -25 3 -40 -10 -16 -8 -23 15 -44 30 -27 48
-32 49 -12 0 6 4 3 9 -8 6 -13 9 -15 9 -5 1 10 10 4 26 -15 29 -35 31 -45 9
-45 -9 0 -18 9 -21 20 -6 23 -19 26 -27 8 -3 -9 -8 -8 -16 5 -6 9 -20 17 -30
17 -11 0 -20 5 -20 11 0 7 -7 17 -15 23 -8 6 -16 21 -18 33 -3 24 -17 44 -17
25 0 -18 -38 -15 -72 6 -22 13 -28 23 -25 39 3 19 -1 24 -27 29 -27 5 -36 14
-57 63 -23 51 -30 58 -70 71 -24 7 -51 19 -59 25 -8 7 -28 15 -43 19 -16 4
-33 17 -39 31 -6 14 -15 25 -20 25 -6 0 -8 -3 -6 -7z m806 -472 c3 -8 -1 -12
-9 -9 -7 2 -15 10 -17 17 -3 8 1 12 9 9 7 -2 15 -10 17 -17z"/>
<path d="M1350 1625 c-8 -9 -8 -15 -2 -15 12 0 26 19 19 26 -2 2 -10 -2 -17
-11z"/>
<path d="M3985 1613 c-16 -9 -42 -27 -58 -41 -21 -21 -36 -26 -66 -23 -33 2
-40 -1 -46 -19 -10 -32 10 -48 33 -27 41 37 41 14 0 -35 -80 -95 -208 -273
-208 -289 0 -9 -7 -33 -15 -52 -17 -42 -19 -50 -6 -43 4 3 14 26 21 51 7 25
19 45 26 45 8 0 14 10 14 23 0 29 29 69 96 133 29 27 57 59 63 70 8 16 17 20
36 17 17 -4 25 -1 25 9 0 18 28 43 58 52 31 10 29 -19 -3 -40 -25 -16 -34 -57
-16 -68 9 -6 9 -11 -4 -163 -6 -76 -5 -94 6 -98 11 -4 14 -21 11 -73 -3 -53
-1 -71 12 -81 8 -7 19 -10 23 -8 8 5 17 93 15 152 -5 200 -11 303 -17 316 -3
10 -2 20 4 24 6 3 11 16 11 28 0 25 54 87 76 87 17 0 19 41 2 58 -16 16 -56
14 -93 -5z"/>
<path d="M1550 1607 c-40 -20 -40 -71 1 -113 51 -52 62 -46 54 29 -11 104 -12
106 -55 84z"/>
<path d="M4125 1590 c-3 -6 1 -7 9 -4 18 7 21 14 7 14 -6 0 -13 -4 -16 -10z"/>
<path d="M10273 1567 c3 -20 0 -40 -9 -52 -27 -37 -18 -48 32 -41 46 6 74 20
74 36 0 14 -76 90 -89 90 -10 0 -12 -10 -8 -33z"/>
<path d="M7330 1582 c0 -12 19 -26 26 -19 2 2 -2 10 -11 17 -9 8 -15 8 -15 2z"/>
<path d="M10360 1580 c0 -12 35 -31 44 -23 8 9 -14 33 -30 33 -8 0 -14 -4 -14
-10z"/>
<path d="M1400 1550 c0 -12 8 -12 35 0 18 8 17 9 -7 9 -16 1 -28 -3 -28 -9z"/>
<path d="M10099 1532 c0 -9 -2 -32 -3 -49 -2 -18 0 -30 5 -27 5 3 9 18 9 35 0
16 5 29 10 29 15 0 12 17 -5 24 -10 3 -15 -1 -16 -12z"/>
<path d="M7395 1530 c3 -5 11 -10 16 -10 6 0 7 5 4 10 -3 6 -11 10 -16 10 -6
0 -7 -4 -4 -10z"/>
<path d="M4203 1503 c9 -2 23 -2 30 0 6 3 -1 5 -18 5 -16 0 -22 -2 -12 -5z"/>
<path d="M7390 1460 c0 -5 5 -10 10 -10 6 0 10 5 10 10 0 6 -4 10 -10 10 -5 0
-10 -4 -10 -10z"/>
<path d="M10587 1463 c-4 -3 -7 -15 -7 -25 0 -26 24 -17 28 10 3 21 -8 29 -21
15z"/>
<path d="M9328 1438 c6 -6 20 -13 29 -14 16 -2 16 -1 -1 12 -24 17 -45 19 -28
2z"/>
<path d="M10635 1439 c-4 -6 -3 -15 3 -21 6 -6 11 -4 15 6 7 18 -9 31 -18 15z"/>
<path d="M9387 1415 c-4 -8 -15 -15 -26 -15 -20 0 -37 -17 -28 -27 10 -10 47
8 58 29 6 11 9 22 6 24 -2 3 -7 -2 -10 -11z"/>
<path d="M10340 1423 c-8 -3 -17 -9 -20 -13 -3 -4 -14 -12 -25 -18 -20 -11
-20 -11 1 -12 11 0 25 -5 32 -12 16 -16 45 21 31 38 -7 8 -5 14 3 17 18 7 -3
7 -22 0z"/>
<path d="M7425 1380 c2 -24 15 -40 15 -17 0 10 0 20 1 24 0 4 -4 9 -9 11 -5 1
-8 -6 -7 -18z"/>
<path d="M8808 1393 c7 -3 16 -2 19 1 4 3 -2 6 -13 5 -11 0 -14 -3 -6 -6z"/>
<path d="M8848 1393 c7 -3 16 -2 19 1 4 3 -2 6 -13 5 -11 0 -14 -3 -6 -6z"/>
<path d="M1556 1382 c-16 -26 30 -72 71 -72 24 0 13 38 -16 59 -31 22 -47 26
-55 13z"/>
<path d="M10468 1384 c-25 -8 -23 -16 16 -53 32 -31 40 -34 94 -33 111 0 127
19 54 60 -41 23 -128 36 -164 26z"/>
<path d="M1442 1342 c-20 -16 -21 -20 -9 -30 21 -17 71 2 63 24 -3 9 -6 18 -6
20 0 10 -27 2 -48 -14z"/>
<path d="M1521 1344 c0 -11 3 -14 6 -6 3 7 2 16 -1 19 -3 4 -6 -2 -5 -13z"/>
<path d="M4276 1332 c-7 -12 22 -38 31 -28 4 3 0 14 -9 22 -9 10 -18 12 -22 6z"/>
<path d="M10400 1325 c0 -8 14 -21 30 -30 36 -18 39 -7 7 23 -27 26 -37 28
-37 7z"/>
<path d="M3056 1276 c-9 -21 -15 -40 -12 -43 9 -9 38 46 33 64 -3 13 -8 8 -21
-21z"/>
<path d="M1325 1267 c-15 -21 -14 -22 12 -28 47 -11 63 -10 63 6 0 8 -13 21
-29 30 -28 14 -31 14 -46 -8z"/>
<path d="M4320 1280 c0 -5 7 -15 15 -23 7 -8 17 -28 21 -43 8 -30 45 -71 102
-112 38 -27 41 -15 14 46 -25 56 -152 167 -152 132z"/>
<path d="M10500 1281 c0 -5 7 -12 16 -15 24 -9 28 -7 14 9 -14 17 -30 20 -30
6z"/>
<path d="M1503 1265 c-36 -25 -36 -54 2 -92 41 -41 66 -42 99 -2 30 35 32 56
10 87 -18 26 -78 30 -111 7z"/>
<path d="M1640 1279 c0 -4 7 -22 15 -40 8 -19 14 -27 14 -19 0 14 -28 72 -29
59z"/>
<path d="M10578 1273 c12 -2 32 -2 45 0 12 2 2 4 -23 4 -25 0 -35 -2 -22 -4z"/>
<path d="M10610 1240 c0 -5 7 -10 15 -10 8 0 15 5 15 10 0 6 -7 10 -15 10 -8
0 -15 -4 -15 -10z"/>
<path d="M8769 1208 c0 -7 0 -37 1 -65 1 -45 -1 -53 -17 -53 -14 0 -15 -2 -4
-9 9 -6 21 -5 32 2 14 9 21 9 31 -1 17 -17 33 -15 19 2 -9 11 -6 12 14 8 20
-3 25 0 25 17 0 11 -6 21 -14 21 -19 0 -69 27 -58 31 5 2 12 16 16 32 6 24 4
27 -19 27 -14 0 -25 -6 -26 -12z"/>
<path d="M8848 1193 c7 -3 16 -2 19 1 4 3 -2 6 -13 5 -11 0 -14 -3 -6 -6z"/>
<path d="M1653 1157 c-24 -23 -30 -52 -14 -61 5 -3 14 1 21 9 7 8 21 15 31 15
22 0 23 1 7 35 -14 30 -17 30 -45 2z"/>
<path d="M1339 1152 c13 -24 79 -69 113 -77 32 -8 78 13 57 25 -7 5 -16 7 -20
5 -3 -3 -24 11 -47 30 -30 26 -50 35 -76 35 -32 0 -36 -2 -27 -18z"/>
<path d="M10607 1153 c-23 -4 -26 -7 -16 -19 19 -24 69 -11 69 18 0 8 -4 8
-53 1z"/>
<path d="M10720 1148 c0 -7 4 -19 9 -27 8 -12 12 -12 25 -2 24 20 19 41 -9 41
-14 0 -25 -6 -25 -12z"/>
<path d="M8040 1132 c0 -17 38 -44 45 -32 4 6 5 12 4 13 -2 1 -14 8 -26 15
-13 7 -23 8 -23 4z"/>
<path d="M8100 1090 c0 -15 48 -43 60 -35 6 3 8 10 5 15 -8 13 -65 30 -65 20z"/>
<path d="M10650 1090 c0 -16 47 -42 71 -38 22 3 22 4 5 21 -10 9 -22 15 -27
12 -5 -4 -9 -1 -9 4 0 6 -9 11 -20 11 -11 0 -20 -4 -20 -10z"/>
<path d="M1270 1080 c-8 -5 -12 -11 -10 -14 3 -2 14 2 24 10 22 15 10 19 -14
4z"/>
<path d="M1670 1059 l-25 -11 38 -15 c28 -11 37 -21 37 -38 0 -13 -4 -27 -10
-30 -5 -3 -10 -13 -10 -20 0 -24 109 -61 110 -37 0 4 -16 42 -37 84 -40 81
-50 88 -103 67z"/>
<path d="M10770 1050 c27 -20 36 -19 27 5 -4 8 -17 15 -29 15 l-23 0 25 -20z"/>
<path d="M1357 1032 c-19 -21 -22 -42 -7 -42 10 0 34 49 27 56 -2 2 -11 -4
-20 -14z"/>
<path d="M1407 1023 c-13 -12 -7 -23 13 -23 11 0 20 7 20 15 0 15 -21 21 -33
8z"/>
<path d="M8256 1015 c4 -8 8 -15 10 -15 2 0 4 7 4 15 0 8 -4 15 -10 15 -5 0
-7 -7 -4 -15z"/>
<path d="M10690 1000 c0 -5 5 -10 11 -10 5 0 7 5 4 10 -3 6 -8 10 -11 10 -2 0
-4 -4 -4 -10z"/>
<path d="M1540 990 c-24 -17 17 -42 55 -35 55 11 66 17 62 28 -5 15 -97 20
-117 7z"/>
<path d="M8300 987 c0 -24 16 -29 31 -9 7 9 9 14 5 10 -5 -4 -15 -3 -23 3 -10
9 -13 8 -13 -4z"/>
<path d="M8375 970 c-7 -12 18 -24 37 -18 8 3 5 9 -9 16 -14 8 -24 9 -28 2z"/>
<path d="M8420 915 c0 -17 37 -54 54 -55 6 0 1 7 -10 15 -16 13 -16 14 -1 9
21 -8 23 9 2 26 -8 7 -15 9 -15 5 0 -4 -7 -2 -15 5 -12 10 -15 9 -15 -5z"/>
<path d="M8325 910 c3 -5 14 -10 23 -10 15 0 15 2 2 10 -20 13 -33 13 -25 0z"/>
<path d="M1593 884 c-7 -19 1 -27 33 -30 18 -2 24 1 22 13 -4 23 -47 37 -55
17z"/>
<path d="M1800 875 c0 -18 27 -32 38 -20 4 4 1 10 -6 12 -6 3 -10 9 -6 14 3 5
-2 9 -10 9 -9 0 -16 -7 -16 -15z"/>
<path d="M1739 863 c-25 -6 -29 -37 -9 -63 15 -20 22 -22 46 -13 38 12 64 6
64 -17 0 -24 -24 -42 -61 -44 -26 -1 -33 -8 -50 -45 -15 -35 -17 -46 -7 -53
20 -12 23 -10 35 22 8 22 18 30 35 30 29 0 68 -38 68 -66 0 -27 62 -58 79 -41
7 7 17 12 24 13 7 0 22 2 33 2 32 3 36 28 9 54 -14 13 -25 27 -25 32 0 8 -89
131 -122 170 -4 6 -15 3 -25 -7 -20 -18 -53 -7 -53 18 0 15 -10 17 -41 8z"/>
<path d="M8390 834 c-9 -24 -6 -31 33 -70 39 -40 43 -42 44 -22 2 23 -44 81
-57 73 -4 -2 -6 7 -4 20 3 32 -4 32 -16 -1z"/>
<path d="M8439 836 c6 -8 25 -19 42 -26 26 -11 29 -16 24 -41 -6 -26 -4 -29
19 -29 24 0 25 2 15 27 -14 37 -64 83 -90 83 -17 0 -19 -3 -10 -14z"/>
<path d="M8793 812 c-5 -4 -13 -23 -17 -44 -6 -32 -5 -36 13 -31 13 3 20 16
23 40 4 36 -1 46 -19 35z"/>
<path d="M1552 770 c-45 -28 -45 -72 1 -100 17 -11 42 -20 54 -20 44 0 84 91
51 117 -27 21 -74 22 -106 3z"/>
<path d="M1790 765 c-24 -14 -24 -14 -3 -15 12 0 25 5 28 11 11 17 2 18 -25 4z"/>
<path d="M1425 740 c-3 -5 -1 -10 4 -10 6 0 11 5 11 10 0 6 -2 10 -4 10 -3 0
-8 -4 -11 -10z"/>
<path d="M8304 736 c-3 -9 -11 -13 -17 -9 -6 3 -7 1 -3 -5 4 -7 11 -12 16 -12
10 0 23 31 15 38 -2 3 -7 -3 -11 -12z"/>
<path d="M8386 722 c-4 -7 -15 -11 -23 -8 -9 4 -13 1 -11 -10 3 -16 78 -48 78
-34 0 4 -6 10 -14 13 -8 3 -16 16 -18 29 -2 17 -5 19 -12 10z"/>
<path d="M8788 704 c-17 -9 -25 -20 -21 -29 8 -22 43 -19 43 3 0 10 5 23 12
30 16 16 0 14 -34 -4z"/>
<path d="M8571 679 c-14 -11 -33 -18 -43 -16 -10 3 -18 0 -18 -8 0 -16 31 -25
88 -25 37 0 41 2 33 18 -5 9 -12 25 -15 35 -7 22 -15 21 -45 -4z"/>
<path d="M1387 683 c-25 -24 18 -32 49 -8 18 14 17 14 -12 15 -17 0 -34 -3
-37 -7z"/>
<path d="M4460 665 c-14 -8 -19 -14 -12 -15 6 0 12 -9 12 -19 0 -36 32 -59 87
-64 29 -2 55 -2 57 1 6 6 -42 84 -62 100 -21 16 -51 15 -82 -3z"/>
<path d="M1245 650 c-3 -5 3 -10 14 -10 12 0 21 5 21 10 0 6 -6 10 -14 10 -8
0 -18 -4 -21 -10z"/>
<path d="M1411 634 c-24 -7 -46 -15 -48 -18 -3 -2 2 -18 11 -34 18 -35 59 -52
127 -52 40 0 51 4 69 27 23 30 14 43 -31 43 -14 0 -36 11 -49 25 -13 14 -26
25 -29 24 -3 -1 -26 -7 -50 -15z"/>
<path d="M1790 635 c0 -8 9 -19 19 -25 27 -14 31 -13 24 8 -11 30 -43 43 -43
17z"/>
<path d="M3957 580 c20 -19 124 -27 105 -8 -7 7 -37 15 -67 18 -49 5 -53 5
-38 -10z"/>
<path d="M1645 550 c-10 -11 -13 -20 -8 -20 13 0 38 29 31 35 -3 3 -13 -4 -23
-15z"/>
<path d="M1730 556 c0 -7 12 -16 28 -19 32 -7 54 9 32 23 -23 14 -60 12 -60
-4z"/>
<path d="M1955 553 c-19 -15 -19 -15 10 -8 37 8 57 25 30 25 -11 0 -29 -8 -40
-17z"/>
<path d="M2075 533 c14 -21 25 -43 25 -51 0 -24 66 -81 88 -76 12 4 29 -4 47
-20 15 -14 33 -26 38 -26 12 0 -204 209 -216 210 -4 0 4 -17 18 -37z"/>
<path d="M3980 540 c0 -5 -7 -10 -15 -10 -8 0 -15 -7 -15 -15 0 -8 -9 -19 -20
-25 -21 -11 -28 -40 -10 -40 6 0 10 7 10 16 0 10 6 14 15 10 8 -3 15 -1 15 4
0 23 41 9 52 -17 10 -23 56 -77 59 -70 0 1 2 12 3 25 2 17 -1 21 -15 17 -14
-5 -20 1 -25 20 -4 15 -2 31 5 38 15 15 14 27 -3 27 -7 0 -19 7 -26 15 -14 17
-30 20 -30 5z"/>
<path d="M4063 534 c-6 -15 27 -54 46 -54 5 0 11 -4 13 -9 2 -4 13 -12 26 -15
18 -6 22 -4 22 13 0 15 -6 21 -22 21 -16 0 -19 3 -10 8 18 12 5 39 -21 46 -35
9 -47 7 -54 -10z"/>
<path d="M1835 530 c-3 -5 -2 -10 4 -10 5 0 13 5 16 10 3 6 2 10 -4 10 -5 0
-13 -4 -16 -10z"/>
<path d="M1998 533 c-10 -2 -18 -11 -18 -19 0 -20 14 -17 35 6 18 20 16 22
-17 13z"/>
<path d="M1317 501 c-41 -26 -46 -36 -10 -17 17 9 35 20 38 26 8 13 6 12 -28
-9z"/>
<path d="M4726 501 c3 -9 6 -31 5 -49 l-2 -33 47 7 c43 6 48 4 70 -22 l24 -29
-6 39 c-7 42 -8 42 52 3 28 -19 31 -23 21 -45 -9 -20 -8 -27 8 -41 11 -9 31
-29 44 -44 20 -22 22 -29 11 -42 -7 -8 -9 -22 -6 -31 5 -13 1 -15 -20 -10 -22
6 -25 4 -20 -10 4 -10 0 -24 -9 -34 -14 -16 -14 -18 0 -24 11 -4 15 -16 13
-39 -3 -51 34 -97 78 -97 36 0 43 10 20 29 -11 9 -15 9 -18 -1 -3 -9 -12 -8
-33 6 -26 17 -27 20 -11 32 13 9 25 10 43 3 32 -12 33 -12 33 6 0 8 10 20 22
26 l22 12 -27 14 c-23 11 -27 20 -27 56 0 24 -3 47 -7 53 -5 5 -1 1 9 -8 22
-24 31 -23 17 3 -10 19 -8 20 10 14 24 -7 26 -2 10 27 -8 14 -8 23 0 31 17 17
13 27 -10 27 -14 0 -19 5 -16 14 7 17 -17 41 -32 32 -5 -3 -20 3 -32 13 l-24
19 30 13 c30 13 29 13 -30 19 -35 3 -78 15 -105 29 -25 13 -71 30 -103 37 -53
11 -58 10 -51 -5z"/>
<path d="M1863 497 c-24 -9 -30 -16 -23 -26 7 -12 13 -13 34 -3 14 6 26 18 26
27 0 8 -1 15 -2 14 -2 0 -17 -6 -35 -12z"/>
<path d="M3802 501 c4 -13 18 -16 19 -4 0 4 -5 9 -11 12 -7 2 -11 -2 -8 -8z"/>
<path d="M2011 480 c-13 -11 -18 -20 -11 -20 18 0 50 20 50 30 0 15 -12 11
-39 -10z"/>
<path d="M1416 462 c-23 -26 -18 -46 7 -27 10 7 17 21 15 30 -3 15 -5 15 -22
-3z"/>
<path d="M1674 465 c-51 -21 -61 -89 -19 -130 32 -33 45 -31 82 8 41 42 50 77
26 105 -23 28 -50 33 -89 17z"/>
<path d="M5055 451 c-3 -5 4 -13 16 -16 28 -9 33 -2 9 13 -11 6 -21 8 -25 3z"/>
<path d="M1885 440 c-3 -5 1 -10 9 -10 8 0 18 5 21 10 3 6 -1 10 -9 10 -8 0
-18 -4 -21 -10z"/>
<path d="M1990 425 c0 -8 4 -15 9 -15 5 0 11 7 15 15 3 9 0 15 -9 15 -8 0 -15
-7 -15 -15z"/>
<path d="M2034 414 c-18 -14 -18 -15 4 -4 12 6 22 13 22 15 0 8 -5 6 -26 -11z"/>
<path d="M1850 382 c0 -15 -4 -32 -9 -37 -5 -6 -19 -27 -31 -49 -17 -32 -18
-38 -5 -32 9 3 26 6 38 6 12 0 37 9 56 21 l33 20 -23 25 c-12 13 -28 24 -36
24 -18 0 -17 16 2 24 22 8 18 26 -5 26 -15 0 -20 -7 -20 -28z"/>
<path d="M3940 399 c1 -23 26 -49 49 -49 25 0 28 18 4 27 -10 3 -26 13 -35 21
-15 13 -18 13 -18 1z"/>
<path d="M4308 393 c7 -3 16 -2 19 1 4 3 -2 6 -13 5 -11 0 -14 -3 -6 -6z"/>
<path d="M4503 370 c0 -16 4 -30 8 -30 9 0 20 41 13 52 -11 17 -21 7 -21 -22z"/>
<path d="M1490 350 c-13 -9 -13 -10 0 -9 8 0 24 4 35 9 l20 9 -20 0 c-11 0
-27 -4 -35 -9z"/>
<path d="M3807 346 c-4 -10 -1 -16 8 -16 8 0 15 6 15 13 0 6 5 4 11 -5 7 -13
23 -18 60 -18 55 0 58 14 7 24 -87 18 -95 18 -101 2z"/>
<path d="M3760 346 c0 -2 7 -7 16 -10 8 -3 12 -2 9 4 -6 10 -25 14 -25 6z"/>
<path d="M4008 331 c-20 -20 -24 -36 -7 -26 17 11 61 -46 64 -81 0 -6 8 -22
18 -37 17 -26 17 -28 0 -53 -19 -30 -19 -94 0 -106 8 -5 6 -8 -5 -8 -9 0 -20
-4 -23 -10 -4 -6 25 -10 79 -10 81 0 86 1 86 21 0 14 -5 19 -15 16 -18 -7 -31
50 -19 85 19 58 13 92 -25 125 -20 18 -40 33 -46 33 -5 0 -26 16 -45 35 -39
40 -39 40 -62 16z"/>
<path d="M2037 323 c-10 -10 -8 -23 4 -23 5 0 8 4 5 9 -4 5 0 12 6 14 7 3 8 6
2 6 -6 1 -14 -2 -17 -6z"/>
<path d="M2190 310 c6 -11 16 -20 23 -21 7 0 24 -3 39 -5 21 -3 26 -1 22 9 -6
17 -47 37 -75 37 -17 0 -18 -3 -9 -20z"/>
<path d="M2340 295 c0 -8 9 -15 20 -15 11 0 20 2 20 5 0 2 -9 9 -20 15 -16 9
-20 8 -20 -5z"/>
<path d="M4690 301 c0 -12 26 -32 33 -25 9 10 -4 34 -19 34 -8 0 -14 -4 -14
-9z"/>
<path d="M4445 280 c-10 -11 -26 -20 -34 -19 -9 1 -27 -3 -41 -10 -23 -10 -22
-11 15 -7 22 3 51 8 64 12 20 6 23 4 18 -9 -3 -9 -2 -19 3 -22 6 -4 10 -13 10
-22 0 -9 8 -25 17 -35 11 -12 17 -39 19 -81 1 -34 3 -68 3 -74 1 -9 19 -13 57
-13 54 0 56 1 50 22 -4 13 -8 30 -9 38 -1 8 -6 18 -10 21 -4 3 -10 27 -12 53
-3 36 0 49 12 53 12 5 5 16 -30 47 -79 71 -102 79 -132 46z m75 -100 c0 -5 -2
-10 -4 -10 -3 0 -8 5 -11 10 -3 6 -1 10 4 10 6 0 11 -4 11 -10z"/>
<path d="M1981 276 c-8 -10 -9 -16 -1 -21 13 -8 43 -66 33 -64 -9 1 -53 -12
-53 -16 0 -17 25 -65 37 -69 17 -7 103 39 103 54 0 16 -12 12 -37 -12 -23 -21
-23 -21 -23 -1 0 14 8 23 25 27 31 8 33 24 3 28 -19 2 -23 9 -22 40 1 29 -3
38 -20 42 -30 8 -32 8 -45 -8z"/>
<path d="M1448 243 c7 -3 16 -2 19 1 4 3 -2 6 -13 5 -11 0 -14 -3 -6 -6z"/>
<path d="M1956 233 c-11 -11 -6 -23 9 -23 8 0 15 4 15 9 0 13 -16 22 -24 14z"/>
<path d="M1705 220 c-9 -14 17 -48 40 -54 38 -11 47 -8 35 13 -12 23 -68 53
-75 41z"/>
<path d="M1850 185 c0 -10 7 -15 18 -13 21 4 19 22 -2 26 -10 2 -16 -3 -16
-13z"/>
<path d="M1630 169 c0 -5 5 -7 10 -4 6 3 10 8 10 11 0 2 -4 4 -10 4 -5 0 -10
-5 -10 -11z"/>
<path d="M2390 168 c0 -12 78 -68 94 -68 14 0 5 54 -11 66 -23 17 -83 18 -83
2z"/>
<path d="M1872 142 c-7 -5 -10 -16 -6 -25 9 -25 24 -20 24 8 0 28 0 28 -18 17z"/>
<path d="M2554 135 c3 -9 6 -23 6 -31 0 -9 11 -14 29 -14 17 0 36 -8 43 -18 7
-10 25 -17 41 -17 15 0 27 1 27 2 0 4 -93 64 -122 79 -29 15 -30 15 -24 -1z"/>
<path d="M1703 110 c-40 -9 -63 -27 -63 -50 0 -25 19 -37 71 -42 54 -6 89 16
89 56 0 14 -1 26 -3 26 -1 0 -16 4 -32 8 -17 5 -45 5 -62 2z"/>
<path d="M4220 102 c0 -7 5 -12 10 -12 6 0 10 -6 10 -14 0 -18 17 -30 24 -18
3 5 -6 20 -19 32 -14 13 -25 18 -25 12z"/>
<path d="M1511 80 c-25 -22 -17 -25 23 -10 14 5 26 14 26 20 0 16 -23 11 -49
-10z"/>
<path d="M2140 60 c-7 -13 -7 -20 -1 -20 6 0 15 9 21 20 7 13 7 20 1 20 -6 0
-15 -9 -21 -20z"/>
<path d="M1877 55 c-10 -7 -17 -21 -15 -30 3 -15 5 -15 26 3 36 32 27 56 -11
27z"/>
<path d="M2070 51 c-7 -14 -6 -22 5 -31 18 -15 35 -5 35 20 0 25 -28 33 -40
11z"/>
<path d="M2746 20 c12 -12 29 -20 39 -18 13 2 6 8 -21 21 l-39 18 21 -21z"/>
<path d="M1550 10 c-12 -8 -11 -10 8 -10 12 0 22 5 22 10 0 13 -11 13 -30 0z"/>
</g>
</svg>
