<?xml version="1.0" standalone="no"?>
<!DOCTYPE svg PUBLIC "-//W3C//DTD SVG 20010904//EN"
 "http://www.w3.org/TR/2001/REC-SVG-20010904/DTD/svg10.dtd">
<svg version="1.0" xmlns="http://www.w3.org/2000/svg"
 width="2000.000000pt" height="574.000000pt" viewBox="0 0 2000.000000 574.000000"
 preserveAspectRatio="xMidYMid meet">

<g transform="translate(0.000000,574.000000) scale(0.100000,-0.100000)"
fill="#000000" stroke="none">
<path d="M0 4500 l0 -1240 314 0 c306 0 396 -6 541 -35 128 -25 148 -26 175
-5 25 19 25 19 2 13 -16 -4 -22 -2 -20 8 2 8 -7 15 -22 17 -14 2 -27 7 -30 11
-7 10 -75 35 -160 61 -71 21 -114 48 -197 125 -41 37 -36 45 93 177 41 41 78
69 97 74 60 13 396 -23 483 -52 40 -13 313 -149 377 -188 42 -25 54 -116 19
-142 -14 -10 -14 -38 -1 -83 3 -10 -17 -18 -81 -28 -47 -8 -96 -21 -110 -29
-22 -11 11 -13 240 -14 243 0 426 -14 482 -35 21 -8 24 -3 78 180 23 77 67
217 100 310 l58 170 6 190 c10 298 9 726 0 735 -5 5 -72 16 -149 25 -294 34
-516 77 -567 108 -25 16 -23 42 5 59 47 32 180 39 642 35 383 -3 474 -7 610
-25 88 -11 192 -22 230 -23 82 -3 145 8 124 22 -10 6 -11 11 -3 17 11 7 12 11
14 72 3 73 9 87 38 85 15 -1 30 -3 33 -3 4 -1 10 -18 14 -38 4 -22 10 -33 16
-27 5 5 5 21 0 40 -8 27 -7 31 7 26 10 -4 13 -2 8 6 -4 6 -2 19 5 27 9 11 10
17 2 22 -7 4 -11 16 -10 26 1 13 -7 22 -26 27 -16 4 -40 19 -54 33 -14 14 -31
26 -37 26 -6 0 -20 13 -31 30 -11 16 -32 35 -47 41 -34 14 -168 145 -168 164
0 12 -70 75 -84 75 -4 0 -15 8 -26 18 -10 9 -49 28 -85 41 -40 14 -80 37 -99
56 -18 18 -42 38 -54 44 -15 8 -402 11 -1386 11 l-1366 0 0 -1240z m2090 1151
c0 -5 7 -11 15 -13 11 -2 9 -10 -13 -33 -34 -38 -57 -84 -78 -155 -9 -30 -22
-68 -30 -85 -31 -69 -74 -219 -76 -265 -2 -49 -3 -51 -38 -59 -19 -4 -54 -13
-77 -18 l-43 -10 0 61 c0 117 42 301 81 358 11 14 19 28 19 31 0 2 39 45 88
95 53 55 97 93 112 95 14 2 28 5 33 6 4 0 7 -3 7 -8z m-1720 -21 c0 -5 -4 -10
-10 -10 -5 0 -10 5 -10 10 0 6 5 10 10 10 6 0 10 -4 10 -10z m-312 -37 c-10
-2 -26 -2 -35 0 -10 3 -2 5 17 5 19 0 27 -2 18 -5z m69 1 c-3 -3 -12 -4 -19
-1 -8 3 -5 6 6 6 11 1 17 -2 13 -5z m2443 -134 c0 -5 -4 -10 -10 -10 -5 0 -10
5 -10 10 0 6 5 10 10 10 6 0 10 -4 10 -10z m-727 -480 c-12 -11 -73 -21 -73
-12 0 11 52 29 68 24 7 -3 10 -8 5 -12z m47 10 c0 -5 -4 -10 -10 -10 -5 0 -10
5 -10 10 0 6 5 10 10 10 6 0 10 -4 10 -10z m-1391 -74 c-2 -2 -22 -6 -44 -10
-29 -5 -36 -4 -25 3 13 10 79 16 69 7z m-9 -46 c12 -8 9 -10 -12 -10 -15 0
-30 5 -33 10 -8 13 25 13 45 0z"/>
<path d="M3307 5714 c18 -13 51 -43 75 -64 l43 -40 275 3 275 2 -3 33 c-5 48
17 39 24 -10 8 -46 58 -108 88 -108 9 0 16 -4 16 -10 0 -5 -10 -10 -22 -10
-14 0 -18 -3 -12 -8 16 -10 28 -52 15 -52 -19 0 -12 -17 9 -23 14 -4 21 -17
26 -56 7 -51 24 -71 24 -28 0 45 23 139 31 126 4 -7 6 -54 4 -106 l-3 -93 40
32 c137 113 192 133 358 131 226 -2 357 -51 497 -186 73 -70 96 -84 99 -59 0
4 8 24 17 46 9 21 17 51 17 66 0 33 9 60 20 60 4 0 5 -22 2 -50 -3 -31 -1 -50
6 -50 10 0 14 14 28 93 5 27 11 37 25 37 23 0 23 5 0 -63 l-19 -55 91 -6 c51
-4 254 -7 453 -9 376 -2 402 1 387 40 -6 16 17 15 105 -3 21 -4 32 -2 32 5 0
6 -9 11 -20 11 -19 0 -29 18 -12 21 19 3 130 9 262 14 80 3 156 10 170 15 14
5 40 8 59 7 22 -1 37 4 44 15 15 23 4 32 -23 18 -16 -8 -25 -8 -35 0 -7 6 -17
10 -21 9 -22 -4 -45 2 -39 10 3 5 -3 11 -12 14 -10 2 -1 4 19 3 21 -1 38 -5
38 -9 0 -5 5 -5 12 -1 7 5 5 11 -7 21 -18 12 -17 13 8 13 15 0 27 -4 27 -9 0
-5 18 -11 41 -15 23 -4 48 -13 56 -21 8 -8 13 -15 11 -16 -2 0 -11 -2 -21 -4
-55 -10 -68 -42 -17 -42 41 0 43 -4 24 -49 -9 -22 -18 -77 -20 -129 -2 -49 -8
-121 -14 -160 -16 -119 -18 -185 -5 -185 25 0 34 28 38 120 5 116 29 246 56
297 38 73 61 125 61 139 0 20 18 17 24 -3 3 -10 3 -1 1 21 -2 21 3 52 10 70
30 74 28 78 -18 29 -24 -26 -58 -70 -76 -96 -18 -27 -36 -45 -39 -41 -4 4 -1
9 6 11 6 3 12 12 12 20 0 9 18 44 40 79 l40 64 -52 0 c-29 0 -258 7 -508 15
-250 8 -567 17 -705 21 -137 4 -252 8 -253 10 -2 1 1 18 6 36 6 18 13 52 16
76 l6 42 -1122 0 -1123 0 32 -26z m2165 -185 c-10 -19 -24 -50 -31 -69 -15
-42 -58 -78 -103 -86 -32 -5 -32 -5 11 18 40 21 74 62 98 118 12 27 36 61 40
56 2 -2 -5 -19 -15 -37z m1233 -9 c3 -5 -1 -10 -10 -10 -9 0 -13 5 -10 10 3 6
8 10 10 10 2 0 7 -4 10 -10z m85 1 c0 -4 -14 -8 -30 -9 -17 0 -28 3 -26 6 6
11 56 13 56 3z m77 -7 c-3 -3 -12 -4 -19 -1 -8 3 -5 6 6 6 11 1 17 -2 13 -5z
m-164 -51 c-13 -2 -33 -2 -45 0 -13 2 -3 4 22 4 25 0 35 -2 23 -4z m-819 -144
c6 -5 2 -11 -8 -15 -20 -8 -66 10 -66 26 0 11 60 2 74 -11z"/>
<path d="M10625 5731 c-3 -5 -5 -20 -4 -32 2 -50 -15 -131 -27 -136 -16 -6
-19 -63 -3 -63 5 0 7 -4 4 -10 -4 -6 5 -10 20 -10 17 0 24 4 19 12 -4 7 -3 8
5 4 21 -13 1 -26 -42 -27 -51 -2 148 -13 508 -29 149 -6 348 -15 444 -20 96
-5 177 -7 181 -5 4 3 6 26 5 52 -2 27 -4 99 -4 161 l-1 112 -550 0 c-302 0
-552 -5 -555 -9z m40 -81 c-3 -5 -10 -10 -16 -10 -5 0 -9 5 -9 10 0 6 7 10 16
10 8 0 12 -4 9 -10z"/>
<path d="M12250 5709 c0 -18 3 -29 7 -25 10 10 11 46 1 52 -4 3 -8 -9 -8 -27z"/>
<path d="M12310 5715 c0 -14 3 -25 8 -25 30 -1 145 -32 164 -44 13 -9 57 -18
98 -22 53 -5 80 -12 93 -25 9 -10 17 -22 17 -26 -1 -5 9 -11 22 -14 21 -6 20
-7 -14 -23 -21 -9 -42 -16 -48 -16 -5 0 -10 -6 -10 -14 0 -19 -22 -26 -80 -26
-27 0 -52 -4 -55 -10 -3 -5 -14 -10 -24 -10 -10 0 -47 -9 -82 -20 -35 -11 -82
-25 -104 -32 -75 -21 -139 -63 -218 -140 -43 -43 -83 -78 -88 -78 -22 0 -45
-42 -47 -87 -3 -63 -12 -103 -22 -103 -5 0 -6 -16 -3 -37 4 -26 3 -34 -5 -29
-9 5 -12 -17 -12 -80 l0 -87 90 6 c249 18 520 19 740 3 444 -33 595 -65 595
-126 0 -21 -9 -28 -56 -47 -65 -26 -283 -58 -487 -73 -79 -5 -147 -12 -152
-15 -11 -7 -14 -406 -4 -467 5 -26 10 -34 18 -26 6 5 30 22 52 36 45 29 135
97 173 130 13 12 33 24 45 28 11 3 28 12 36 19 8 7 40 22 71 33 51 19 66 20
199 11 136 -8 160 -13 237 -51 l23 -11 -24 -22 c-13 -12 -38 -25 -56 -28 -17
-4 -43 -16 -57 -27 -14 -11 -34 -20 -44 -20 -27 0 -70 -22 -66 -34 3 -9 136
-56 159 -56 3 0 4 8 1 19 -7 26 4 30 94 41 176 20 309 21 431 0 165 -27 369
-81 457 -119 11 -5 45 -19 75 -31 30 -12 73 -30 95 -40 22 -10 56 -22 77 -25
39 -7 186 -118 215 -161 15 -23 15 -53 0 -157 -1 -10 -13 -26 -27 -37 l-24
-18 44 -6 c47 -6 357 -26 402 -26 20 0 31 -8 42 -31 16 -33 8 -59 -18 -59 -7
0 -21 -7 -32 -15 -18 -15 -18 -15 9 -9 34 8 63 -12 46 -32 -6 -8 -17 -14 -24
-14 -7 0 -19 -8 -26 -17 -12 -15 -12 -16 5 -10 11 5 25 2 35 -7 9 -7 43 -21
76 -31 33 -9 103 -39 155 -65 95 -48 96 -49 220 -55 214 -11 252 -27 242 -97
l-5 -40 39 5 c62 10 404 36 589 45 372 19 970 -9 1060 -50 27 -12 37 -55 10
-45 -8 4 -17 2 -20 -4 -4 -5 1 -12 9 -15 9 -3 16 -12 16 -20 0 -10 -6 -11 -22
-5 -13 5 -54 11 -93 14 -70 6 -42 -3 50 -17 22 -3 41 -5 43 -6 1 0 2 -4 2 -9
0 -4 -19 -5 -42 0 -24 4 -54 8 -68 8 -24 0 -24 0 -6 -14 10 -8 38 -17 62 -21
24 -3 51 -12 61 -20 16 -12 12 -13 -32 -8 -59 7 -45 -11 17 -21 60 -11 44 -25
-29 -26 -38 -1 -54 -4 -38 -6 70 -10 107 -24 101 -39 -3 -9 -6 -20 -6 -25 0
-6 -52 -7 -127 -5 l-128 5 95 -10 c113 -12 152 -21 158 -37 3 -9 -33 -11 -150
-7 l-153 4 125 -14 c126 -14 180 -27 180 -43 0 -5 -75 -8 -167 -6 -146 2 -155
1 -68 -5 196 -16 235 -22 235 -37 0 -8 -10 -14 -26 -14 l-26 0 23 -20 24 -19
-60 -2 c-59 -2 -59 -2 -16 -8 65 -9 64 -29 -1 -33 -47 -3 -50 -4 -23 -11 56
-15 80 -28 67 -36 -9 -5 -5 -11 13 -19 14 -6 25 -16 25 -22 0 -7 -269 -11
-817 -12 -450 -1 -762 -5 -693 -8 l125 -6 -160 -3 c-88 -2 -150 -6 -137 -8 83
-16 -59 -19 -669 -16 -616 4 -698 2 -756 -12 -36 -9 -77 -22 -91 -28 l-25 -12
24 -6 c58 -14 -418 -20 -1089 -14 -400 4 -730 9 -733 11 -4 2 -159 4 -345 5
-187 2 -371 4 -410 7 l-71 4 5 44 c3 29 1 44 -7 44 -9 0 -17 -44 -12 -73 0 -4
-42 -7 -94 -7 -52 0 -95 4 -95 9 0 5 8 12 18 14 12 3 10 5 -7 6 -16 1 -21 5
-17 16 3 10 -1 15 -12 16 -9 0 -33 2 -52 4 -218 21 -2676 44 -2646 25 10 -7
33 -10 52 -7 32 5 33 5 18 -11 -26 -26 -176 -30 -972 -28 -397 0 -722 -2 -722
-5 0 -3 131 -9 292 -13 160 -3 293 -8 295 -10 4 -4 -15 -694 -27 -975 -5 -118
-14 -219 -19 -224 -7 -7 -15 -6 -26 3 -10 9 -15 9 -15 1 0 -8 -65 -11 -237 -9
l-238 3 0 150 c0 83 3 252 8 377 8 248 9 245 -47 209 -17 -11 -33 -18 -36 -16
-4 2 -4 -9 -2 -26 5 -32 -13 -40 -23 -10 -5 16 -11 18 -35 11 -18 -5 -32 -5
-35 1 -4 5 -71 9 -150 9 -143 0 -146 0 -210 32 -36 18 -65 35 -65 39 0 3 11
11 25 17 19 9 38 8 85 -4 55 -14 65 -14 118 1 31 9 90 32 130 50 121 56 109
87 -43 110 -55 8 -104 20 -109 25 -6 6 -20 10 -33 10 -18 0 -23 6 -23 25 0 18
5 25 19 25 11 0 23 4 26 10 3 6 15 10 26 10 12 0 17 -4 13 -11 -7 -12 135 -3
174 12 31 12 28 23 -17 58 -69 55 -127 74 -204 68 -38 -4 -74 -11 -81 -16 -7
-6 -22 -8 -34 -6 -12 3 -31 7 -41 9 -14 3 -18 0 -14 -10 6 -17 -9 -18 -25 -2
-16 16 -118 14 -169 -5 -24 -8 -43 -14 -43 -13 0 2 20 17 45 35 29 20 42 37
38 46 -3 9 1 15 11 15 9 0 16 2 16 5 0 11 -36 43 -77 68 -58 37 -113 86 -113
103 0 19 22 17 41 -3 9 -10 26 -25 39 -33 24 -16 137 -96 156 -111 7 -6 25 2
49 21 21 16 32 30 26 30 -8 0 -7 5 3 16 9 8 13 20 10 26 -4 6 -2 8 3 5 22 -14
55 98 58 198 2 58 8 101 15 110 10 12 10 21 1 41 -6 14 -9 41 -5 59 4 25 0 42
-20 74 -28 44 -33 70 -13 72 6 1 -1 5 -18 9 l-30 8 29 1 c24 1 26 3 16 16 -6
8 -9 23 -5 35 5 16 2 23 -14 27 -24 6 -28 28 -6 37 8 3 15 11 15 17 0 8 -7 6
-19 -5 -16 -15 -19 -15 -31 -1 -11 13 -15 13 -21 3 -6 -9 -9 -9 -9 -1 0 6 4
14 9 18 6 3 1 21 -11 41 -16 28 -18 38 -8 44 8 5 9 13 4 21 -5 8 -9 17 -9 21
0 18 -15 18 -15 0 0 -13 -6 -22 -15 -22 -7 0 -18 -8 -23 -17 -9 -16 -11 -16
-36 0 -16 11 -23 23 -20 32 4 8 2 15 -3 15 -5 0 -18 7 -29 16 -19 15 -18 15 3
11 12 -3 22 -2 21 2 -1 3 4 17 11 30 8 14 9 26 4 30 -10 6 -33 45 -33 55 0 3
7 6 15 6 17 0 19 9 6 29 -5 7 -14 10 -20 7 -6 -4 -11 0 -11 8 0 9 5 16 10 16
6 0 10 7 10 15 0 9 -9 15 -25 15 -14 0 -25 5 -25 10 0 6 -7 10 -15 10 -24 0
-55 38 -53 65 1 14 6 25 11 25 4 0 3 9 -3 21 -6 11 -10 48 -9 82 2 60 -12 97
-18 47 -2 -14 -7 -59 -12 -100 -20 -162 -23 -479 -6 -690 23 -295 27 -420 13
-395 -6 10 -13 51 -15 90 -2 38 -15 113 -29 165 -14 52 -26 105 -27 117 -1 12
-4 21 -7 20 -11 -3 -50 24 -50 35 0 7 5 6 15 -2 12 -10 16 -9 21 5 7 17 -12
90 -29 113 -7 9 -3 12 13 12 15 0 20 5 17 14 -3 8 1 17 9 20 21 8 19 92 -3
105 -11 6 -13 11 -5 11 18 0 4 20 -14 20 -9 0 -12 -5 -8 -12 4 -6 -9 2 -29 18
-63 50 -78 122 -24 116 19 -2 27 1 25 10 -1 7 10 32 26 55 23 35 27 50 23 79
-7 42 -5 39 -35 49 -19 5 -25 2 -29 -14 -3 -12 -13 -21 -23 -21 -9 0 -30 -12
-45 -26 -22 -20 -30 -23 -36 -12 -6 10 -9 8 -9 -7 0 -11 -5 -27 -11 -35 -8
-11 -9 -3 -6 32 3 30 0 54 -8 65 -12 16 -17 16 -49 5 -20 -7 -40 -11 -46 -7
-10 6 -25 -37 -22 -67 0 -10 -3 -18 -8 -18 -5 0 -12 -25 -15 -55 -5 -37 -12
-55 -21 -55 -8 0 -14 5 -14 11 0 5 -5 7 -11 4 -6 -4 -17 2 -25 14 -8 12 -22
21 -30 21 -8 0 -13 4 -9 9 6 10 -88 25 -119 19 -11 -1 -21 3 -23 10 -3 7 4 12
16 12 11 0 25 8 30 18 6 9 11 11 11 5 0 -14 30 -18 30 -5 0 4 -6 16 -14 27
-24 36 -29 81 -10 100 15 14 15 18 3 26 -8 5 -18 9 -22 9 -5 0 -15 7 -23 15
-14 13 -14 16 -1 21 8 3 15 15 14 27 -1 29 6 50 18 59 7 5 6 14 -2 27 -10 16
-9 20 8 24 10 3 22 13 26 24 4 10 19 34 34 53 21 26 26 42 22 63 -6 28 -7 29
-52 22 -25 -3 -58 -11 -74 -17 -31 -12 -135 -6 -145 8 -10 14 -60 34 -85 34
-17 0 -19 2 -8 9 8 5 11 16 7 26 -10 26 10 51 54 69 22 9 44 15 48 15 34 -6
72 3 72 16 0 8 5 15 10 15 22 0 8 19 -21 29 -22 7 -60 8 -132 0 -55 -5 -104
-12 -108 -15 -4 -2 -13 2 -21 9 -7 8 -27 16 -43 20 -17 3 -38 9 -47 12 -13 5
-18 2 -18 -9 0 -11 -9 -16 -34 -16 -62 0 -118 -29 -83 -43 6 -3 -6 -6 -28 -7
-46 -1 -32 -13 28 -24 41 -8 50 -30 15 -41 -18 -5 -19 -8 -8 -12 15 -6 30 -23
30 -34 0 -3 -10 -11 -22 -17 -22 -10 -22 -11 -3 -12 11 -1 35 -1 53 0 17 1 32
-3 32 -9 0 -6 -7 -11 -16 -11 -8 0 -12 -5 -9 -10 4 -6 14 -10 23 -9 35 3 53
-1 47 -11 -4 -6 -15 -8 -25 -5 -20 6 -36 -10 -20 -20 15 -9 12 -25 -4 -25 -7
0 -16 9 -19 19 -6 26 -47 48 -47 26 0 -9 6 -18 14 -21 7 -3 24 -27 37 -54 19
-40 29 -49 50 -50 14 0 34 -6 44 -14 17 -12 15 -14 -19 -20 -34 -7 -37 -9 -34
-38 2 -18 11 -35 23 -42 11 -6 23 -15 27 -21 4 -5 22 -15 40 -22 l33 -11 -33
-1 c-20 -1 -41 7 -54 19 -23 21 -38 26 -38 11 0 -11 -49 -1 -57 12 -4 7 5 8
25 4 21 -4 32 -3 32 5 0 19 -34 37 -70 38 -31 1 -33 2 -12 10 23 10 29 25 12
35 -5 3 -10 1 -10 -5 0 -7 -13 -10 -32 -8 -43 4 -42 22 1 26 25 3 31 6 20 13
-11 7 -11 9 4 9 9 0 17 7 17 15 0 8 -6 12 -14 9 -21 -8 -32 17 -13 31 26 19
21 37 -10 33 -24 -3 -28 0 -25 21 2 23 1 24 -16 8 -21 -19 -39 -22 -44 -7 -4
12 -48 1 -48 -11 0 -5 14 -12 30 -16 32 -6 36 -26 7 -31 -10 -2 -17 3 -17 12
0 10 -14 18 -37 22 -21 4 -50 20 -65 35 -32 32 -34 39 -12 39 17 0 -35 40 -67
52 -19 7 -31 58 -18 74 6 7 2 17 -11 29 -11 10 -20 24 -20 31 0 7 -8 17 -17
23 -17 9 -17 11 2 25 11 8 17 18 13 22 -12 12 -180 7 -188 -5 -3 -6 -20 -11
-36 -10 -16 1 -57 -5 -90 -14 -34 -9 -86 -19 -115 -22 -30 -4 -81 -13 -114
-20 -33 -8 -80 -15 -105 -16 -25 -1 -58 -7 -75 -14 -16 -8 -70 -16 -120 -20
-171 -12 -198 -15 -210 -25 -7 -6 -50 -9 -104 -7 -71 3 -91 1 -91 -10 0 -7 -7
-13 -16 -13 -14 0 -14 3 -4 15 13 16 3 20 -24 9 -9 -3 -14 -10 -11 -14 3 -4
-7 -11 -21 -14 -18 -5 -24 -12 -20 -22 5 -13 -2 -14 -49 -9 -36 5 -55 4 -55
-3 0 -6 8 -13 18 -15 13 -4 12 -5 -5 -6 -12 0 -27 7 -33 17 -9 14 -10 12 -5
-12 6 -26 5 -28 -10 -16 -13 11 -18 11 -25 1 -4 -7 -16 -11 -26 -8 -14 4 -25
-3 -39 -26 -11 -18 -27 -32 -35 -32 -8 0 -22 -13 -31 -30 -9 -16 -24 -31 -33
-33 -26 -5 -16 115 13 162 13 20 19 36 15 36 -4 0 -3 5 4 12 17 17 15 45 -3
52 -16 6 -80 -21 -130 -54 -16 -11 -45 -27 -62 -37 -18 -9 -33 -21 -33 -25 0
-5 -4 -6 -10 -3 -10 6 -29 -33 -65 -140 -13 -38 -33 -95 -45 -125 -12 -30 -31
-85 -42 -123 -12 -37 -23 -65 -25 -63 -5 5 33 132 88 296 37 111 46 161 33
194 -11 30 -32 16 -93 -58 -62 -77 -99 -142 -121 -211 -15 -48 -36 -74 -26
-32 7 31 -9 38 -19 7 -3 -11 -13 -20 -20 -20 -18 0 -33 -27 -34 -60 -1 -14 -3
-48 -4 -77 -3 -71 -17 -79 -17 -10 0 31 -4 58 -9 61 -16 10 -51 -59 -63 -121
-5 -32 -19 -80 -29 -108 -19 -50 -19 -50 -13 -10 10 63 53 223 80 300 31 84
48 154 40 162 -6 6 -45 -36 -46 -49 0 -4 -13 -30 -30 -57 -36 -62 -64 -133
-128 -326 -109 -328 -152 -490 -168 -640 -3 -33 -8 -63 -10 -66 -1 -3 -4 -36
-5 -75 -1 -38 -8 -86 -16 -108 -7 -21 -13 -58 -13 -82 0 -26 -6 -49 -17 -59
-15 -15 -15 -24 -5 -75 8 -37 9 -66 3 -82 -6 -15 -5 -31 1 -42 6 -10 8 -41 5
-70 -3 -35 1 -69 13 -106 12 -34 19 -87 19 -140 1 -47 2 -94 4 -104 4 -30 -21
-30 -36 1 -10 20 -14 66 -15 163 0 131 -27 418 -40 432 -4 3 -293 9 -642 12
-349 4 -816 9 -1037 11 l-403 6 0 -781 0 -780 48 0 c48 0 82 -13 69 -26 -4 -4
-32 -9 -62 -12 l-55 -4 0 -444 0 -444 661 0 c599 0 661 1 655 16 -3 9 -6 18
-6 20 0 2 -10 4 -22 4 -13 0 -29 4 -37 9 -10 6 -5 11 20 16 29 6 36 4 55 -21
17 -21 26 -25 36 -17 7 6 30 11 51 10 33 -1 42 -7 38 -29 0 -5 8 -8 19 -8 15
0 20 6 19 23 -6 64 17 103 52 92 22 -7 23 -1 7 60 -10 35 -10 50 -1 65 11 17
8 20 -22 30 -41 13 -54 47 -35 88 12 26 13 26 20 6 9 -24 37 -38 42 -22 4 11
28 -33 52 -93 11 -28 21 -37 46 -43 42 -8 51 1 22 23 -13 9 -20 20 -16 24 11
10 89 9 119 -3 31 -12 92 15 113 49 7 12 21 21 32 21 23 0 27 -18 5 -26 -8 -4
-12 -10 -9 -15 3 -5 -2 -9 -10 -9 -9 0 -16 -5 -16 -11 0 -6 9 -9 19 -6 12 3
22 -1 25 -9 3 -8 13 -14 21 -14 10 0 13 -5 9 -12 -4 -7 -3 -8 4 -4 6 4 8 14 5
24 -6 15 -5 15 10 4 9 -8 20 -11 25 -8 5 3 8 -4 8 -16 -1 -12 5 -23 12 -25 7
-3 10 1 6 10 -3 8 0 18 5 22 6 3 9 10 6 15 -3 4 2 13 10 20 12 10 20 9 41 -5
29 -19 29 -19 38 17 4 19 2 30 -10 36 -27 15 -12 32 48 56 31 13 75 39 99 58
74 60 109 70 109 32 0 -10 -7 -13 -22 -9 -13 3 -32 -1 -43 -9 -19 -13 -19 -15
-2 -33 9 -11 17 -26 17 -34 0 -8 6 -21 13 -28 18 -18 -31 -55 -51 -38 -8 6
-24 11 -36 12 -23 0 -51 -29 -41 -45 3 -6 -1 -7 -9 -4 -11 4 -16 0 -16 -10 0
-11 -7 -16 -18 -14 -13 2 -17 -4 -17 -27 0 -45 34 -46 69 0 15 19 35 35 45 35
10 0 30 9 44 20 14 11 29 20 33 20 4 0 16 8 26 17 15 14 21 15 27 4 6 -10 10
-10 16 -1 4 6 -1 18 -11 26 -18 14 -18 14 1 29 11 9 26 13 35 9 8 -3 46 -15
84 -26 66 -19 105 -47 106 -75 0 -14 -71 -101 -83 -102 -5 -1 1 14 12 32 12
20 20 49 19 70 -1 35 -3 37 -44 43 -51 7 -107 -3 -98 -18 4 -7 2 -8 -4 -4 -7
4 -12 2 -12 -3 0 -6 -6 -11 -14 -11 -8 0 -17 -7 -20 -16 -5 -12 -2 -15 9 -10
9 3 27 -1 40 -10 21 -14 24 -14 28 3 4 15 5 15 6 -3 1 -17 -5 -21 -28 -22 -41
-1 -71 -19 -71 -42 0 -10 -5 -22 -11 -25 -6 -4 -8 -14 -5 -22 4 -10 1 -13 -14
-8 -17 5 -18 2 -13 -29 7 -45 -11 -48 -56 -10 -30 25 -30 26 -14 50 9 15 12
29 7 33 -11 11 -54 -4 -54 -19 0 -5 -8 -10 -18 -10 -10 0 -23 -5 -29 -11 -6
-6 -47 -13 -92 -16 -44 -3 -81 -10 -81 -15 0 -5 -20 3 -43 17 -57 33 -64 32
-27 -7 26 -27 28 -33 16 -47 -7 -9 -17 -26 -21 -39 l-6 -22 565 0 c534 1 566
2 566 18 0 10 -5 23 -12 30 -14 14 6 42 33 42 10 0 20 9 24 19 3 10 21 34 40
52 37 36 44 52 20 43 -18 -7 -19 9 -3 36 15 24 1 41 -15 19 -8 -10 -27 -16
-52 -16 -22 0 -48 -4 -57 -8 -13 -5 -18 -3 -18 9 0 9 -7 16 -15 16 -8 0 -15
-7 -15 -15 0 -8 -4 -15 -9 -15 -5 0 -23 -12 -40 -26 -24 -20 -37 -24 -61 -19
-34 7 -34 7 -20 -30 8 -21 14 -24 35 -19 20 5 24 3 19 -10 -3 -9 -12 -16 -19
-16 -8 0 -16 -4 -19 -8 -2 -4 20 -8 50 -8 41 0 53 4 50 13 -3 7 -2 28 1 46 l7
32 7 -40 c4 -22 4 -44 1 -50 -4 -5 -7 -14 -8 -20 0 -5 -2 -15 -2 -22 -1 -6
-16 -18 -33 -27 l-30 -15 6 30 c6 26 4 30 -11 27 -10 -2 -23 -13 -29 -24 -8
-17 -13 -19 -23 -8 -6 7 -9 20 -6 28 4 10 1 16 -10 16 -10 0 -13 6 -10 15 4 9
0 15 -7 16 -8 0 -5 4 6 9 l20 9 -20 0 c-35 2 -48 17 -47 55 1 26 -4 38 -18 46
-21 11 -33 0 -25 -22 3 -7 -13 -33 -35 -58 -40 -45 -54 -74 -23 -49 15 13 15
12 4 -9 l-12 -22 -22 20 c-11 11 -27 18 -35 15 -15 -6 -52 11 -52 24 0 5 13
11 29 13 17 2 28 1 25 -4 -3 -4 2 -5 10 -2 9 3 16 12 16 20 0 8 7 14 16 14 11
0 14 6 9 20 -5 15 -3 18 8 14 8 -3 18 -1 22 5 3 6 0 9 -7 6 -17 -6 -42 10 -34
23 3 6 23 10 44 10 47 -1 122 32 122 53 0 21 46 63 60 54 8 -5 6 -11 -5 -19
-22 -16 -4 -31 47 -39 33 -5 38 -3 38 14 0 11 -5 29 -10 39 -7 13 -7 21 0 25
6 4 8 11 5 16 -9 13 7 11 26 -4 16 -12 15 -42 -2 -31 -5 3 -9 1 -9 -5 0 -5 5
-13 10 -16 6 -3 10 -17 10 -30 0 -12 7 -25 15 -29 9 -3 15 1 15 11 0 8 12 27
26 40 29 26 45 24 23 -4 -8 -9 -9 -14 -2 -10 6 4 28 0 47 -10 35 -16 37 -16
51 3 17 22 16 24 20 -46 1 -30 3 -57 4 -59 0 -2 12 4 26 13 24 16 25 16 25 -5
0 -18 4 -21 28 -16 35 7 54 -3 42 -23 -16 -24 -11 -32 13 -24 l22 6 -21 -23
c-12 -13 -36 -46 -54 -74 -18 -27 -29 -40 -25 -27 3 12 2 22 -3 22 -10 0 -42
-33 -42 -43 0 -4 74 -7 163 -7 l164 0 22 43 c26 49 98 106 150 118 20 5 65 9
101 9 36 0 80 4 99 10 54 15 55 2 4 -39 -48 -38 -133 -125 -133 -135 0 -3 86
-6 192 -6 l191 0 -22 24 c-17 18 -36 25 -72 28 -27 1 -50 -1 -52 -6 -3 -10
-47 2 -47 13 0 14 84 31 148 31 43 0 76 -7 116 -26 73 -33 106 -28 184 31 83
63 100 67 153 44 37 -17 56 -19 117 -13 51 4 76 3 87 -6 19 -16 19 -40 0 -40
-13 0 -20 -13 -12 -24 1 -2 -9 -13 -23 -24 -37 -30 -20 -36 38 -13 42 17 56
18 83 9 47 -16 136 4 236 54 60 29 90 39 110 35 94 -19 131 -30 183 -53 33
-14 67 -35 76 -45 11 -12 30 -19 53 -19 l36 1 -30 17 -30 17 25 3 c16 3 30 -3
41 -17 17 -21 24 -21 339 -21 l321 0 -6 23 c-4 12 -11 26 -16 32 -14 14 -11
51 5 64 11 9 11 17 2 36 -6 14 -14 25 -18 25 -12 0 -10 28 2 35 5 3 21 -5 35
-19 18 -18 25 -36 25 -64 0 -21 7 -59 16 -85 l16 -47 194 0 194 0 0 28 c0 15
-5 33 -12 40 -9 9 -9 12 -1 12 9 0 11 47 9 166 -2 132 1 167 11 171 20 8 21 5
34 -77 6 -40 17 -80 25 -87 7 -8 16 -36 20 -63 4 -28 10 -50 15 -50 5 0 6 -7
3 -15 -4 -8 0 -22 7 -31 11 -14 10 -18 -6 -30 -10 -8 -13 -14 -7 -14 7 0 12
-11 12 -25 l0 -25 199 0 199 0 7 78 c4 42 10 102 14 132 l6 55 70 -3 c39 -2
79 -10 91 -17 11 -7 41 -56 67 -108 42 -85 52 -98 90 -116 l43 -21 2042 1
c1532 0 2042 3 2042 12 0 8 3 8 12 -1 15 -15 968 -18 968 -3 0 5 -8 11 -17 13
-15 3 -15 4 1 20 15 16 15 18 2 18 -9 0 -16 8 -16 20 0 11 4 20 10 20 10 0 1
32 -12 41 -4 3 -10 19 -12 37 l-3 31 71 3 c69 3 70 3 43 18 -26 13 -27 15 -12
26 12 9 15 19 9 36 -4 13 -8 29 -8 36 -1 8 -12 20 -26 27 -21 12 -22 14 -6 15
18 0 18 1 3 18 -10 10 -17 26 -17 36 0 9 -10 21 -22 26 -13 5 -17 9 -10 9 19
1 15 51 -4 51 -10 0 -14 6 -11 15 4 8 2 17 -3 20 -6 4 -10 17 -10 31 0 18 -8
27 -32 37 l-33 14 55 8 c30 4 65 11 78 16 13 5 60 12 105 16 92 8 479 7 545
-2 104 -14 321 -35 360 -35 23 0 42 4 42 9 0 5 -11 33 -25 63 -29 61 -31 94
-10 118 13 14 13 22 4 46 -7 16 -13 49 -15 74 -1 25 -5 73 -8 107 -6 72 -1 78
71 87 40 5 99 -3 255 -33 401 -79 578 -86 823 -36 95 20 105 25 268 132 95 62
135 83 155 81 24 -3 19 -8 -43 -42 -38 -21 -106 -62 -150 -91 -230 -150 -355
-210 -545 -261 -115 -30 -140 -42 -140 -65 0 -22 35 -43 61 -36 10 3 21 2 24
-2 2 -5 -24 -15 -58 -23 -52 -12 -61 -18 -59 -34 5 -27 5 -26 74 -34 l63 -6
-77 -13 c-171 -30 -112 -64 70 -42 57 7 106 11 108 8 9 -9 -125 -35 -261 -51
-183 -21 -409 -36 -620 -41 -99 -2 -182 -4 -185 -4 -3 -1 -7 -91 -8 -200 l-3
-200 37 -7 c20 -4 85 -5 143 -2 58 3 129 2 156 -1 59 -8 -244 -21 -482 -21
l-153 0 0 -55 0 -55 3000 0 c1717 0 3000 4 3000 9 0 15 59 34 73 24 31 -25
143 -33 454 -33 l323 0 0 299 c0 276 -1 299 -17 303 -25 6 -271 0 -308 -8 -16
-3 -38 -14 -47 -24 -10 -11 -25 -16 -38 -13 -11 3 -20 1 -21 -3 0 -5 -2 -22
-4 -37 -3 -23 -1 -27 15 -22 12 4 24 -3 37 -20 20 -28 102 -61 208 -84 89 -20
94 -22 58 -34 -22 -6 -64 -7 -125 0 -85 9 -362 9 -398 0 -8 -2 -28 -9 -43 -15
-16 -7 -32 -12 -37 -12 -12 0 -24 83 -16 108 8 24 63 39 171 49 93 7 105 20
105 110 0 79 7 83 137 82 54 -1 88 -4 76 -6 -46 -9 -21 -23 40 -23 34 0 78 -4
97 -9 19 -5 52 -11 73 -14 l37 -6 0 345 0 344 -37 1 c-58 2 -87 13 -93 36 -3
12 -16 34 -30 50 -13 15 -23 36 -21 46 1 10 -6 25 -16 32 -31 23 -5 30 98 28
l99 -2 0 154 0 155 -307 2 c-391 2 -496 3 -556 6 l-48 2 3 78 3 77 90 8 c76 6
513 22 748 26 l67 1 0 152 0 151 -137 -6 c-598 -27 -765 -31 -774 -16 -5 8 -8
48 -7 89 l3 75 40 7 c22 4 75 10 118 14 43 3 77 8 74 10 -2 3 -44 6 -93 7 -83
3 -89 4 -92 25 -6 38 31 46 155 33 59 -7 244 -15 411 -18 l302 -6 0 47 c0 43
-2 46 -22 41 -59 -13 -193 -24 -201 -16 -9 9 29 16 151 27 l72 7 0 90 0 90
-112 -7 c-62 -4 -214 -16 -337 -26 -123 -11 -279 -23 -347 -26 l-123 -7 -6 34
c-3 19 -5 43 -4 54 5 50 -1 85 -16 85 -16 0 -21 52 -9 84 7 19 35 21 52 4 9
-9 17 -9 34 1 13 6 43 13 68 13 52 2 90 22 90 49 0 11 5 19 10 19 6 0 10 -11
10 -25 0 -17 6 -25 18 -25 19 -1 54 -24 47 -32 -10 -10 150 -16 190 -7 107 23
259 39 340 37 l90 -3 3 141 3 141 -73 -18 c-40 -10 -103 -21 -140 -23 -37 -3
-72 -7 -76 -10 -5 -3 -54 -8 -108 -11 -117 -6 -245 -21 -294 -33 -19 -5 -69
-10 -110 -11 -41 -1 -82 -4 -90 -6 -34 -10 -41 9 -38 111 l3 99 48 7 c50 7 71
17 50 25 -20 7 -2 33 23 33 16 0 24 -6 24 -17 0 -14 10 -19 43 -21 38 -2 441
40 655 69 l82 11 0 149 c0 113 -3 149 -12 149 -7 0 -78 -11 -158 -25 -80 -14
-222 -36 -316 -50 -93 -14 -195 -32 -225 -41 -30 -9 -70 -17 -89 -18 -32 -1
-34 -3 -36 -40 -2 -37 -18 -66 -30 -54 -3 3 -1 22 4 41 6 20 7 38 4 41 -9 10
-57 7 -68 -4 -6 -6 -7 24 -2 83 4 51 4 100 2 109 -4 12 2 19 21 24 14 3 30 14
35 23 8 14 9 14 10 -2 0 -12 4 -15 12 -11 7 4 26 7 43 6 38 -3 663 96 783 123
22 5 22 8 22 151 l0 146 -42 -7 c-24 -4 -86 -17 -138 -30 -52 -12 -123 -25
-157 -29 -57 -5 -184 -30 -368 -71 -38 -8 -88 -18 -110 -21 -83 -11 -45 -16
75 -10 85 4 171 2 269 -9 233 -25 201 -34 -109 -32 -149 1 -236 -2 -258 -10
-37 -12 -90 -9 -105 6 -19 19 2 41 40 42 30 2 32 3 11 6 -28 4 -28 5 -28 83 0
94 8 104 81 114 44 6 58 13 90 48 22 24 41 38 49 33 6 -4 9 -13 6 -21 -7 -17
31 -19 101 -4 283 60 492 103 510 105 12 2 35 6 52 10 l31 7 0 145 0 145 -27
-6 c-16 -3 -57 -10 -93 -16 -79 -14 -348 -82 -410 -105 -54 -19 -171 -41 -327
-61 l-51 -7 -4 84 c-2 70 0 87 15 102 9 9 22 17 27 17 6 0 10 7 10 15 0 8 5
15 10 15 6 0 10 -7 10 -16 0 -17 -1 -17 85 5 22 6 52 13 67 16 15 3 34 12 43
21 8 9 22 13 30 10 10 -4 20 6 30 30 15 37 27 40 78 19 14 -6 17 -2 17 24 0
19 6 34 15 37 12 5 13 10 4 20 -9 12 -4 14 30 14 46 0 55 -14 15 -24 -21 -6
-25 -11 -21 -32 2 -14 -2 -31 -10 -40 -13 -12 -12 -14 8 -14 24 0 152 36 181
51 10 5 25 9 33 9 17 0 52 18 73 38 21 19 -6 15 -42 -7 -19 -11 -38 -16 -50
-12 -17 7 -17 9 9 29 18 14 36 20 49 17 15 -5 17 -4 7 3 -11 8 -10 12 7 21 15
8 22 8 25 -2 4 -8 6 -7 6 4 1 18 76 63 91 54 6 -4 22 0 35 9 25 16 25 18 24
171 0 85 -3 155 -6 155 -3 0 -17 -10 -31 -21 -25 -21 -26 -22 -5 -16 28 6 42
-11 16 -20 -48 -17 -66 -60 -43 -103 7 -13 7 -21 0 -25 -5 -3 -10 -17 -10 -30
0 -24 -27 -65 -42 -65 -10 0 -28 69 -21 86 3 8 -1 14 -11 14 -16 0 -36 29 -36
52 1 8 6 6 15 -6 13 -17 15 -17 21 -3 3 10 14 17 24 17 21 0 36 30 20 40 -6 4
-13 24 -14 44 -3 28 1 39 16 47 14 8 23 8 31 0 16 -16 27 -13 27 7 1 21 23 52
39 52 6 0 11 14 11 31 0 25 -3 29 -14 20 -10 -9 -16 -8 -25 3 -16 19 3 58 24
50 12 -5 15 3 15 41 0 33 -4 45 -12 42 -7 -2 -12 -13 -11 -23 3 -29 -20 -36
-38 -12 -18 23 -39 17 -39 -13 0 -23 -15 -25 -24 -3 -4 9 0 24 9 34 21 23 19
30 -10 30 -17 0 -25 -6 -25 -17 0 -15 -2 -16 -10 -3 -8 13 -10 12 -10 -2 0
-26 -20 -22 -21 5 0 13 -2 16 -6 7 -14 -43 -16 -45 -22 -20 -7 24 -10 25 -108
28 l-100 3 -6 -38 c-10 -58 46 -131 83 -108 15 9 25 -24 11 -38 -6 -6 -11 -19
-11 -28 0 -20 -20 -29 -61 -29 -16 0 -29 -4 -29 -10 0 -5 -16 -10 -35 -10 -23
0 -35 5 -34 13 1 6 1 29 0 51 -1 37 -2 38 -31 34 -16 -3 -30 -3 -30 -2 0 2 5
15 10 29 8 20 15 25 30 20 20 -6 22 -3 35 78 5 34 4 37 -19 37 -19 0 -23 -4
-19 -19 8 -31 -26 -73 -55 -69 -31 4 -42 28 -13 28 12 0 21 5 21 10 0 6 -7 10
-15 10 -8 0 -15 5 -15 10 0 6 11 10 25 10 14 0 25 5 25 10 0 6 -33 10 -80 10
-48 0 -80 -4 -80 -10 0 -7 -6 -7 -19 0 -11 5 -56 10 -101 10 l-81 0 -14 -32
-13 -33 -4 30 -3 30 -1147 3 -1148 2 0 -124 c0 -105 2 -125 16 -130 11 -4 13
-10 7 -19 -6 -6 -13 -24 -17 -39 -3 -16 -11 -28 -17 -28 -8 0 -7 -6 2 -16 11
-14 10 -18 -6 -30 -13 -10 -14 -14 -5 -14 11 0 11 -3 2 -12 -7 -7 -12 -36 -12
-65 0 -67 -35 -120 -170 -262 -47 -48 -67 -99 -88 -216 -12 -66 -18 -133 -15
-149 l6 -28 201 7 c277 11 549 7 755 -11 257 -22 335 -43 329 -87 -4 -28 -58
-48 -217 -80 -130 -27 -156 -41 -146 -85 4 -17 -3 -32 -25 -55 -17 -18 -34
-44 -37 -58 -3 -14 -16 -39 -29 -54 -13 -16 -24 -31 -24 -35 0 -3 -18 -24 -39
-45 -22 -22 -37 -43 -35 -47 3 -5 -2 -8 -10 -8 -14 0 -37 -32 -52 -72 -3 -10
-11 -18 -16 -18 -5 0 -6 -9 -3 -21 4 -12 1 -27 -8 -37 -9 -9 -19 -34 -22 -55
-4 -21 -13 -41 -21 -44 -7 -2 -17 -18 -23 -34 -5 -16 -14 -29 -20 -29 -5 0
-14 -14 -20 -31 -12 -36 -28 -31 -28 8 0 15 -6 29 -12 31 -15 5 -14 35 1 50 8
8 9 15 3 20 -6 4 -11 45 -13 91 -1 46 -5 88 -9 94 -3 6 -7 22 -8 36 -2 14 -26
71 -54 126 -28 55 -51 105 -51 112 0 6 -18 27 -40 46 -34 29 -51 35 -122 45
-46 7 -141 14 -213 17 -226 10 -436 48 -449 81 -6 16 22 74 36 74 4 0 7 75 7
168 -1 129 3 181 16 227 26 90 89 203 147 266 74 78 228 187 248 174 5 -3 10
-1 12 4 1 4 43 22 92 40 50 17 91 33 92 34 2 2 0 67 -3 145 l-6 142 -2164 0
-2163 0 0 -25z m4500 -14 c0 -15 2 -48 5 -72 7 -53 -6 -79 -28 -60 -11 9 -15
32 -15 79 0 74 3 82 24 82 9 0 14 -10 14 -29z m134 -41 c8 -74 4 -90 -20 -90
-11 0 -14 17 -14 80 0 61 3 80 14 80 9 0 15 -21 20 -70z m99 -25 c2 -65 -1
-80 -13 -80 -18 0 -25 58 -15 123 10 68 26 44 28 -43z m2305 43 c5 -7 11 -22
13 -33 2 -10 14 -22 27 -25 23 -5 23 -5 5 -25 -25 -27 -74 -122 -71 -137 2 -7
-1 -13 -7 -13 -14 -2 -64 -15 -102 -27 -18 -5 -33 -16 -33 -24 0 -9 -11 -14
-30 -14 -31 0 -67 -18 -108 -54 l-22 -20 4 35 c3 19 5 43 6 54 1 18 1 19 11 3
5 -10 19 -18 30 -18 23 0 36 27 20 43 -8 8 -11 8 -11 -1 0 -7 -4 -12 -10 -12
-5 0 -10 7 -10 15 0 18 65 21 76 3 4 -7 3 -8 -4 -4 -8 5 -10 2 -6 -8 13 -34
40 -1 29 35 -4 11 -2 19 4 19 6 0 11 -8 11 -17 0 -13 6 -9 19 12 27 45 10 128
-20 98 -6 -6 -4 -15 6 -23 24 -20 18 -35 -20 -50 -19 -8 -35 -19 -35 -24 -1
-24 -29 41 -30 67 0 33 17 70 30 62 4 -3 6 4 3 14 -3 13 2 23 18 31 19 11 24
10 36 -6 9 -13 16 -15 21 -8 7 11 87 27 132 26 20 0 22 1 7 9 -18 10 -23 29
-8 29 5 0 13 -6 19 -12z m-298 -52 c0 -8 -4 -17 -9 -21 -12 -7 -24 12 -16 25
9 15 25 12 25 -4z m820 -1 c0 -14 -48 -65 -62 -65 -5 0 -8 5 -8 10 0 6 4 10 9
10 5 0 11 14 15 30 4 21 11 30 26 30 11 0 20 -7 20 -15z m25 -55 c3 -5 1 -10
-4 -10 -6 0 -11 5 -11 10 0 6 2 10 4 10 3 0 8 -4 11 -10z m-105 -127 c0 -7 9
-17 20 -23 24 -13 27 -43 4 -38 -9 2 -22 19 -29 38 -30 83 -29 77 -11 56 9
-11 16 -26 16 -33z m-55 -23 c0 -7 -6 -15 -12 -17 -8 -3 -13 4 -13 17 0 13 5
20 13 18 6 -3 12 -11 12 -18z m-425 -65 c0 -8 -7 -15 -15 -15 -8 0 -15 7 -15
15 0 8 7 15 15 15 8 0 15 -7 15 -15z m120 -20 c16 -19 3 -40 -16 -24 -15 13
-19 39 -5 39 5 0 14 -7 21 -15z m-284 -27 c-1 -17 -8 -34 -15 -36 -11 -4 -11
-6 0 -13 11 -7 11 -9 1 -9 -22 0 -25 28 -6 59 10 17 19 31 20 31 1 0 1 -14 0
-32z m57 17 c-3 -9 -8 -14 -10 -11 -3 3 -2 9 2 15 9 16 15 13 8 -4z m505 -21
c-12 -25 -32 -32 -44 -13 -4 8 -9 8 -17 0 -14 -14 -27 -14 -27 -1 0 11 53 35
81 37 15 1 16 -2 7 -23z m-371 -10 c-9 -9 -28 6 -21 18 4 6 10 6 17 -1 6 -6 8
-13 4 -17z m-307 -4 c0 -5 -2 -10 -4 -10 -3 0 -8 5 -11 10 -3 6 -1 10 4 10 6
0 11 -4 11 -10z m506 0 c5 -5 24 -10 42 -12 17 -1 32 -5 32 -9 0 -4 6 -9 13
-12 6 -2 2 -2 -10 0 -16 2 -25 -4 -35 -24 -17 -34 -31 -38 -54 -16 -12 13 -19
14 -22 5 -7 -21 -21 -13 -19 11 3 26 24 67 35 67 5 0 12 -4 18 -10z m-7016
-24 c0 -11 -19 -15 -25 -6 -3 5 1 10 9 10 9 0 16 -2 16 -4z m6384 -258 c2
-139 5 -262 6 -273 0 -11 1 -56 1 -100 -1 -44 4 -262 10 -485 7 -223 11 -469
9 -547 -1 -78 1 -160 5 -182 7 -41 7 -41 50 -41 24 0 46 -3 48 -7 2 -5 1 -42
-2 -83 -5 -65 -9 -75 -26 -78 -70 -10 -65 3 -65 -160 1 -124 3 -144 14 -129 8
10 26 17 44 17 29 0 31 -3 37 -42 4 -24 5 -65 3 -93 -3 -49 -4 -50 -38 -53
-24 -3 -38 2 -47 14 -11 15 -13 -27 -13 -244 l0 -262 133 0 c72 0 138 -4 145
-9 27 -17 -27 -19 -240 -10 -117 5 -351 11 -519 15 -169 3 -352 8 -408 11
-114 7 -108 -2 -71 93 l18 45 58 3 59 3 22 50 c12 27 28 49 36 49 20 0 27 -34
16 -73 -12 -42 -11 -49 4 -45 6 3 15 22 19 44 3 21 11 57 18 79 6 22 11 47 10
55 -8 88 6 215 32 282 12 32 100 67 123 48 17 -14 145 -4 196 15 20 7 64 19
98 25 34 6 82 20 107 30 l45 20 -6 607 c-5 419 -10 615 -18 631 -8 18 -8 28 1
42 17 27 17 799 0 845 -15 42 7 124 37 136 45 18 44 21 49 -243z m526 226 c0
-17 -24 -29 -40 -19 -8 5 -6 13 6 26 18 20 34 17 34 -7z m-360 6 c12 -8 11
-10 -7 -10 -13 0 -23 5 -23 10 0 13 11 13 30 0z m-1890 -140 c0 -5 -2 -10 -4
-10 -3 0 -8 5 -11 10 -3 6 -1 10 4 10 6 0 11 -4 11 -10z m1940 -110 c0 -43 -3
-50 -20 -50 -11 0 -20 -6 -20 -14 0 -8 -4 -18 -10 -21 -6 -4 -10 15 -10 49 0
50 3 57 28 70 15 8 28 15 30 16 1 0 2 -22 2 -50z m114 25 c3 -9 0 -15 -9 -15
-9 0 -12 6 -9 15 4 8 7 15 9 15 2 0 5 -7 9 -15z m481 -15 c3 -5 -1 -10 -10
-10 -9 0 -13 5 -10 10 3 6 8 10 10 10 2 0 7 -4 10 -10z m-125 -9 c0 -6 -4 -13
-10 -16 -5 -3 -10 1 -10 9 0 9 5 16 10 16 6 0 10 -4 10 -9z m-330 -35 c0 -7
-6 -19 -14 -26 -8 -6 -17 -21 -19 -33 -3 -18 -5 -16 -6 6 -1 31 14 67 29 67 6
0 10 -6 10 -14z m-100 -50 c0 -8 -4 -18 -10 -21 -5 -3 -10 -4 -10 -1 0 2 -3
11 -6 20 -4 11 -1 16 10 16 9 0 16 -6 16 -14z m108 -16 c-9 -13 -16 -16 -23
-9 -7 7 -5 13 5 19 24 15 31 11 18 -10z m-4543 -370 c3 -5 -5 -15 -19 -21 -14
-7 -23 -16 -20 -20 3 -5 -7 -9 -21 -9 -14 0 -24 4 -21 9 3 5 -1 11 -9 15 -8 3
-15 12 -15 21 0 11 12 15 49 15 28 0 53 -4 56 -10z m5105 -271 c0 -5 -7 -9
-15 -9 -15 0 -20 12 -9 23 8 8 24 -1 24 -14z m-663 -235 c-3 -4 -14 -3 -24 1
-12 5 -14 9 -5 12 6 3 12 12 13 21 0 13 3 11 11 -6 6 -12 8 -25 5 -28z
m-13871 -29 c-4 -24 -16 -30 -16 -7 0 12 4 22 9 22 5 0 8 -7 7 -15z m-2146
-84 c0 -11 -39 -25 -47 -18 -3 3 -2 10 2 16 8 13 45 15 45 2z m2210 -101 c0
-5 -4 -10 -10 -10 -5 0 -10 5 -10 10 0 6 5 10 10 10 6 0 10 -4 10 -10z m-2703
-32 c-3 -8 -6 -5 -6 6 -1 11 2 17 5 13 3 -3 4 -12 1 -19z m-47 3 c0 -6 -4 -13
-10 -16 -5 -3 -10 1 -10 9 0 9 5 16 10 16 6 0 10 -4 10 -9z m16408 -47 c3 -27
-1 -33 -23 -38 -35 -9 -45 -1 -45 35 0 17 4 28 9 24 5 -3 13 -1 16 5 13 22 40
5 43 -26z m-16379 -39 c-8 -44 -39 -98 -39 -68 0 14 42 124 46 121 1 -2 -2
-25 -7 -53z m16456 -65 c3 -5 -1 -10 -9 -10 -9 0 -16 5 -16 10 0 6 4 10 9 10
6 0 13 -4 16 -10z m-13385 -51 c0 -14 -36 -11 -49 4 -8 11 -5 13 19 9 17 -2
30 -8 30 -13z m13470 -59 c0 -19 -20 -27 -33 -13 -8 7 11 33 24 33 5 0 9 -9 9
-20z m-15457 -57 c-7 -2 -21 -2 -30 0 -10 3 -4 5 12 5 17 0 24 -2 18 -5z
m-1286 -35 c-3 -8 -6 -5 -6 6 -1 11 2 17 5 13 3 -3 4 -12 1 -19z m280 -10 c-3
-7 -5 -2 -5 12 0 14 2 19 5 13 2 -7 2 -19 0 -25z m1013 2 c0 -5 -7 -10 -15
-10 -8 0 -15 5 -15 10 0 6 7 10 15 10 8 0 15 -4 15 -10z m50 -31 c0 -11 -27
-12 -34 0 -3 4 -3 11 0 14 8 8 34 -3 34 -14z m-1353 -31 c-3 -7 -5 -2 -5 12 0
14 2 19 5 13 2 -7 2 -19 0 -25z m270 -10 c-3 -8 -6 -5 -6 6 -1 11 2 17 5 13 3
-3 4 -12 1 -19z m189 -146 c-16 -132 -61 -261 -128 -360 -39 -59 -71 -86 -111
-96 -15 -3 -35 -16 -45 -28 -9 -11 -24 -29 -33 -38 -9 -10 -33 -50 -53 -90
-43 -86 -46 -79 -10 22 48 133 119 258 189 333 36 39 70 70 76 70 5 0 9 4 8 9
0 5 3 12 8 15 12 9 45 71 37 71 -3 0 -2 6 3 13 6 6 13 26 17 42 20 84 28 105
38 99 7 -4 8 -26 4 -62z m3225 46 c14 -25 -6 -32 -56 -18 -54 15 -50 36 6 35
27 0 43 -5 50 -17z m469 8 c0 -3 -4 -8 -10 -11 -5 -3 -10 -1 -10 4 0 6 5 11
10 11 6 0 10 -2 10 -4z m-4173 -78 c-2 -13 -4 -5 -4 17 -1 22 1 32 4 23 2 -10
2 -28 0 -40z m4303 -53 c0 -8 -7 -15 -15 -15 -16 0 -20 12 -8 23 11 12 23 8
23 -8z m12744 -41 c9 -3 13 -10 10 -15 -3 -5 0 -9 6 -9 6 0 8 -4 5 -10 -3 -5
-17 -10 -31 -10 -19 0 -24 5 -24 25 0 26 7 29 34 19z m-15434 -204 c14 -7 25
-7 38 1 11 7 27 9 38 5 18 -8 18 -8 0 -15 -18 -7 -18 -8 -2 -14 10 -4 16 -13
13 -21 -3 -7 3 -20 13 -29 10 -8 22 -21 26 -28 5 -8 18 -19 29 -25 11 -6 20
-18 20 -26 0 -9 6 -23 14 -32 7 -8 11 -22 8 -31 -4 -8 0 -21 8 -29 8 -8 12
-21 9 -29 -3 -10 3 -20 16 -27 12 -6 19 -17 16 -25 -2 -7 5 -16 17 -19 19 -6
20 -8 7 -19 -9 -6 -14 -19 -12 -28 4 -21 -16 -36 -53 -41 -19 -2 -34 -11 -42
-28 -17 -35 0 -52 51 -48 28 2 40 -1 39 -9 -2 -7 8 -15 22 -19 23 -6 29 -17
28 -52 -1 -9 6 -12 18 -9 16 4 19 1 14 -13 -4 -12 7 -31 33 -58 22 -23 60 -83
85 -134 33 -68 67 -118 127 -185 44 -51 89 -94 99 -98 9 -3 30 -25 45 -50 16
-25 35 -50 43 -56 7 -7 41 -69 75 -138 61 -125 62 -127 203 -266 78 -77 179
-187 224 -245 45 -58 88 -112 94 -120 46 -58 57 -74 57 -82 0 -4 -32 24 -71
64 -39 40 -75 72 -80 70 -5 -1 -8 2 -7 7 4 12 -171 177 -332 312 -47 39 -141
125 -210 189 -69 65 -145 134 -170 155 -115 95 -269 283 -310 378 -14 31 -28
57 -32 57 -5 0 -8 9 -8 20 0 11 -4 20 -9 20 -5 0 -12 13 -16 28 -3 15 -15 43
-27 62 -32 51 -50 99 -55 150 -3 25 -12 52 -20 61 -8 9 -15 29 -17 43 -1 14
-6 29 -9 33 -4 3 -7 15 -7 26 0 11 -9 35 -21 53 -12 20 -18 42 -14 53 3 11 1
22 -4 25 -6 4 -8 13 -5 21 3 7 -4 19 -17 25 -16 9 -19 14 -8 20 10 7 10 12 1
23 -7 8 -13 31 -14 51 -1 20 -5 39 -9 41 -4 3 -5 14 -2 25 3 11 0 20 -6 20 -6
0 -11 5 -11 10 0 13 46 13 70 0z m13912 -175 c0 -5 -5 -11 -11 -13 -6 -2 -11
4 -11 13 0 9 5 15 11 13 6 -2 11 -8 11 -13z m1349 -6 c-37 -15 -148 -24 -136
-11 13 13 39 18 105 20 45 1 51 -1 31 -9z m-1167 -45 c22 -9 20 -31 -4 -39
-20 -6 -60 10 -60 25 0 5 10 11 23 13 12 2 23 5 24 6 1 0 8 -2 17 -5z m-105
-73 c19 -12 6 -41 -18 -41 -26 0 -36 17 -21 35 14 17 20 18 39 6z m1031 -57
c0 -9 -11 -14 -35 -14 -32 0 -43 8 -30 22 12 12 65 6 65 -8z m-1010 -34 c0 -5
-9 -10 -21 -10 -11 0 -17 5 -14 10 3 6 13 10 21 10 8 0 14 -4 14 -10z m0 -41
c0 -6 -18 -18 -40 -26 -27 -11 -40 -22 -40 -35 0 -11 -5 -39 -11 -64 l-11 -44
-124 0 c-81 0 -124 4 -124 11 0 7 33 8 104 3 119 -8 119 -8 121 74 2 54 21 82
45 67 6 -3 17 1 26 9 18 18 54 21 54 5z m-15550 -144 c0 -70 8 -150 22 -220
11 -60 21 -126 22 -147 1 -20 4 -34 9 -31 4 2 7 -8 7 -22 0 -15 7 -54 16 -87
8 -33 13 -65 11 -71 -2 -7 -10 7 -16 30 -6 23 -15 44 -20 47 -15 9 -30 -67
-42 -207 -12 -145 -5 -199 38 -325 8 -24 13 -45 11 -48 -3 -2 -13 22 -23 53
-10 32 -21 67 -26 78 -18 45 -39 134 -46 200 -10 81 3 186 37 310 26 94 25 87
5 195 -26 139 -36 241 -29 314 9 102 24 61 24 -69z m6547 69 c-3 -3 -12 -4
-19 -1 -8 3 -5 6 6 6 11 1 17 -2 13 -5z m-6707 -81 c-11 -17 -11 -17 -6 0 3
10 7 28 7 40 2 22 2 22 6 0 2 -12 -1 -30 -7 -40z m5990 -62 c0 -5 3 -18 7 -28
6 -16 5 -16 -10 -4 -19 15 -23 41 -7 41 6 0 10 -4 10 -9z m4347 3 c-3 -3 -12
-4 -19 -1 -8 3 -5 6 6 6 11 1 17 -2 13 -5z m1313 -4 c105 -4 3 -7 -320 -7
-261 0 -585 3 -720 7 -191 5 -121 6 320 7 311 0 635 -3 720 -7z m581 -93 c-1
-12 -15 -9 -19 4 -3 6 1 10 8 8 6 -3 11 -8 11 -12z m-8456 -28 c5 -6 2 -9 -10
-9 -22 0 -65 -38 -65 -57 0 -8 -4 -12 -8 -9 -5 3 -9 24 -10 48 l-3 44 43 -4
c24 -2 47 -8 53 -13z m7725 -19 c101 -9 -483 -10 -615 0 -68 4 2 7 220 7 176
0 354 -3 395 -7z m128 -7 c-10 -2 -26 -2 -35 0 -10 3 -2 5 17 5 19 0 27 -2 18
-5z m-11241 -382 c154 -81 198 -115 324 -252 183 -198 253 -265 307 -293 16
-8 32 -21 35 -28 6 -18 99 -63 171 -83 32 -10 88 -30 125 -47 36 -16 75 -33
86 -37 54 -21 217 -107 242 -128 41 -36 131 -80 236 -115 75 -24 114 -31 212
-35 113 -5 123 -7 165 -36 25 -17 90 -45 145 -63 55 -17 129 -43 165 -57 70
-27 281 -77 323 -77 15 0 52 -10 84 -22 l58 -23 -145 -6 c-80 -4 -158 -12
-173 -18 -22 -8 -57 -7 -145 4 -245 30 -378 52 -464 75 -23 7 -54 14 -68 15
-90 11 -278 57 -400 99 -25 8 -70 22 -100 30 -75 21 -165 53 -226 81 -28 13
-73 30 -100 38 -48 15 -160 65 -199 90 -19 12 -32 21 -59 45 -8 6 -21 12 -29
12 -8 0 -22 9 -32 20 -10 11 -24 20 -30 20 -7 0 -18 7 -25 15 -7 8 -20 15 -30
15 -9 0 -22 11 -28 25 -6 14 -16 25 -22 25 -12 0 -18 5 -70 51 -19 17 -45 38
-57 46 -13 8 -23 20 -23 25 0 11 -38 48 -49 48 -11 0 -81 99 -81 114 0 9 -9
20 -20 26 -11 6 -20 17 -20 25 0 8 -5 15 -11 15 -5 0 -7 5 -4 11 4 5 0 18 -9
28 -9 10 -19 29 -21 42 -3 13 -12 29 -20 35 -8 6 -15 27 -15 46 0 19 -7 49
-16 66 -8 18 -13 41 -9 52 7 21 -10 28 -18 8 -4 -9 -6 -8 -6 2 0 8 3 22 9 30
6 9 5 17 -2 21 -6 4 -12 21 -13 38 -2 27 -1 29 10 15 6 -9 26 -24 42 -33z
m-117 -31 c0 -13 -1 -13 -10 0 -5 8 -10 22 -10 30 0 13 1 13 10 0 5 -8 10 -22
10 -30z m4646 -57 c2 -54 1 -60 -5 -28 -24 119 -24 120 -11 108 7 -6 14 -42
16 -80z m-4616 -15 c0 -7 3 -24 6 -38 5 -17 3 -22 -3 -15 -15 15 -25 65 -13
65 5 0 10 -6 10 -12z m4627 -80 c-3 -8 -6 -5 -6 6 -1 11 2 17 5 13 3 -3 4 -12
1 -19z m-4610 -10 c-3 -8 -6 -5 -6 6 -1 11 2 17 5 13 3 -3 4 -12 1 -19z m3842
-115 c0 -75 -4 -105 -29 -242 -19 -109 -27 -100 -32 35 -3 71 -10 140 -15 154
-6 14 -13 43 -16 65 -6 39 -5 41 26 52 67 22 67 21 66 -64z m7269 -30 c5 -10
6 -51 1 -93 -4 -41 -8 -83 -8 -92 -1 -10 -8 -18 -16 -18 -17 0 -21 63 -6 103
8 21 5 30 -22 58 -18 18 -26 29 -18 24 10 -5 12 -4 7 3 -4 7 -17 13 -29 14
-12 0 -2 4 23 8 25 4 48 8 52 8 4 1 11 -6 16 -15z m1442 -193 c0 -5 11 -10 25
-10 41 0 29 -16 -26 -33 -67 -22 -83 -22 -74 1 4 9 8 24 10 32 2 8 4 16 4 18
3 7 61 0 61 -8z m-8866 -70 c25 -38 46 -73 46 -78 0 -4 9 -25 21 -47 20 -40
20 -40 -31 15 -53 57 -106 152 -95 170 3 5 8 10 9 10 2 0 24 -31 50 -70z
m-250 18 c26 -37 19 -57 -9 -25 -14 15 -25 32 -25 38 0 16 18 10 34 -13z m343
-78 c6 0 8 -11 5 -25 -4 -24 -5 -25 -17 -8 -7 10 -15 29 -19 43 -6 23 -6 23 7
8 8 -10 19 -18 24 -18z m8766 -45 c8 -7 27 -17 43 -21 27 -7 26 -8 -20 -21
-43 -13 -50 -13 -67 3 -31 28 -24 45 23 53 4 0 13 -6 21 -14z m47 -140 c11
-13 8 -15 -14 -15 -16 0 -26 5 -26 15 0 8 6 15 14 15 7 0 19 -7 26 -15z m-685
-34 c-15 -14 -55 -23 -55 -13 0 15 12 22 39 22 15 0 21 -4 16 -9z m742 -53
c-3 -8 -6 -5 -6 6 -1 11 2 17 5 13 3 -3 4 -12 1 -19z m2834 -18 c22 -13 27
-75 6 -83 -20 -8 -32 4 -45 42 -17 48 -3 63 39 41z m-3604 -36 c-3 -3 -12 -4
-19 -1 -8 3 -5 6 6 6 11 1 17 -2 13 -5z m686 -28 c3 -7 19 -16 36 -19 28 -6
45 -27 21 -27 -5 0 -10 4 -10 10 0 5 -13 7 -31 3 -31 -6 -49 6 -49 35 0 16 27
15 33 -2z m-8758 -30 c3 -11 2 -52 -3 -91 -6 -46 -10 -57 -11 -33 -1 28 -5 36
-15 32 -30 -11 12 -94 48 -94 8 0 17 -8 20 -17 9 -33 -1 -96 -17 -104 -12 -7
-16 0 -22 41 -5 37 -10 48 -18 41 -15 -12 -167 -19 -167 -8 0 5 7 21 15 35 8
15 24 48 35 75 10 26 23 47 27 47 4 0 9 20 10 45 1 24 4 48 6 53 3 4 24 6 46
4 32 -3 42 -9 46 -26z m8845 24 c0 -5 -4 -10 -10 -10 -5 0 -10 5 -10 10 0 6 5
10 10 10 6 0 10 -4 10 -10z m-16 -58 c2 -4 -1 -26 -7 -49 -10 -40 -10 -43 22
-72 33 -31 66 -40 73 -20 2 7 12 7 31 -2 36 -17 29 -35 -14 -32 -19 1 -99 2
-178 2 -108 0 -146 3 -153 13 -6 10 -10 7 -14 -9 -4 -13 -14 -23 -24 -23 -17
0 -18 -6 -19 -99 0 -18 -5 -39 -12 -47 -9 -11 -8 -20 5 -39 15 -22 45 -38 32
-16 -3 4 6 6 19 3 15 -2 25 0 25 7 0 6 7 11 16 11 11 0 14 -5 10 -16 -3 -9 -6
-22 -6 -30 0 -9 -4 -12 -10 -9 -5 3 -36 1 -67 -5 -54 -10 -109 -15 -288 -24
-98 -4 -95 -4 -95 -28 -1 -41 -18 3 -21 54 -4 68 10 80 85 72 34 -4 72 -11 86
-17 14 -5 34 -12 45 -13 19 -4 19 -3 3 10 -21 16 -23 36 -4 36 7 0 19 7 26 15
7 8 26 15 42 15 29 0 30 1 24 35 -4 19 -2 43 3 54 7 12 7 30 1 51 -18 61 18
88 86 64 21 -8 46 -14 55 -14 9 0 19 -7 23 -15 5 -13 9 -12 26 5 24 24 39 25
46 5 9 -22 19 -18 21 6 1 12 11 30 22 41 25 22 27 32 6 25 -21 -9 -28 9 -13
33 13 21 48 28 48 9 0 -6 6 -9 13 -6 6 2 11 10 10 16 -3 12 13 15 21 3z
m-1014 -129 l85 -22 -93 4 c-52 3 -97 7 -102 10 -4 3 -6 14 -3 25 3 12 10 17
17 12 6 -4 49 -17 96 -29z m1390 17 c26 -13 55 -19 82 -18 33 2 43 -1 43 -12
0 -11 -13 -16 -47 -18 -27 -2 -48 1 -48 7 0 5 -17 7 -38 4 -42 -6 -122 12
-122 27 0 6 13 10 29 10 17 0 33 5 36 10 9 14 21 13 65 -10z m-9000 -37 c0
-32 -5 -28 -14 10 -4 19 -3 26 4 22 5 -3 10 -18 10 -32z m11333 -79 c18 -10
37 -25 44 -34 7 -10 31 -20 54 -24 23 -4 47 -13 53 -22 10 -12 16 -12 51 6 44
22 117 27 133 7 8 -9 -2 -12 -49 -13 -63 -1 -96 -17 -69 -34 9 -6 -203 -8
-545 -6 -441 2 -630 7 -890 24 -436 29 -597 41 -602 46 -6 6 263 15 602 21
171 3 369 8 440 11 114 4 314 -2 690 -21 l110 -6 -35 30 c-38 35 -34 39 13 15z
m-3638 -24 c4 -6 -20 -10 -64 -10 -38 0 -73 5 -76 10 -4 6 20 10 64 10 38 0
73 -4 76 -10z m-12288 -67 c2 -5 -7 -17 -20 -26 -21 -14 -29 -14 -63 -2 -32
12 -35 14 -14 15 14 0 36 7 50 15 27 15 42 15 47 -2z m703 7 c-8 -5 -22 -10
-30 -10 -13 0 -13 1 0 10 8 5 22 10 30 10 13 0 13 -1 0 -10z m-231 -9 c10 -7
11 -13 1 -30 l-11 -22 -19 23 c-26 32 -7 52 29 29z m13359 -43 c6 -6 44 -12
87 -12 61 -1 79 -5 95 -22 21 -20 21 -20 1 -38 -16 -15 -37 -18 -131 -17 -62
1 -116 4 -121 7 -13 8 -11 68 3 82 15 15 51 15 66 0z m-13394 -63 c-7 -18 -8
-18 -14 1 -9 23 -1 39 11 27 6 -6 6 -18 3 -28z m536 25 c13 -8 13 -10 -2 -10
-9 0 -20 5 -23 10 -8 13 5 13 25 0z m12092 -22 c-7 -7 -12 -8 -12 -2 0 14 12
26 19 19 2 -3 -1 -11 -7 -17z m-12669 -64 c-6 -16 22 -20 32 -4 14 23 53 10
69 -22 23 -44 3 -62 -21 -20 -18 33 -28 38 -37 24 -3 -5 -19 -7 -36 -4 -24 3
-29 8 -25 22 3 11 0 20 -10 24 -8 3 -15 10 -15 16 0 6 11 3 24 -6 15 -9 22
-21 19 -30z m980 27 c3 -13 1 -18 -9 -14 -7 2 -10 11 -7 19 7 19 10 18 16 -5z
m-3 -56 c0 -5 -5 -3 -10 5 -5 8 -10 20 -10 25 0 6 5 3 10 -5 5 -8 10 -19 10
-25z m-2495 15 c3 -5 -1 -10 -10 -10 -9 0 -13 5 -10 10 3 6 8 10 10 10 2 0 7
-4 10 -10z m455 -2 c0 -5 -80 -7 -177 -6 -122 1 -156 3 -108 7 98 9 285 8 285
-1z m58 5 c-10 -2 -26 -2 -35 0 -10 3 -2 5 17 5 19 0 27 -2 18 -5z m1302 -20
c0 -30 -17 -47 -49 -49 -45 -3 -48 14 -7 31 20 9 36 20 36 25 0 6 5 10 10 10
6 0 10 -8 10 -17z m16561 -3 c31 -17 24 -40 -13 -40 -30 0 -68 23 -68 42 0 11
57 10 81 -2z m-16825 -22 c4 -7 3 -8 -4 -4 -6 4 -20 1 -31 -6 -11 -7 -24 -9
-28 -5 -9 10 16 27 39 27 9 0 20 -5 24 -12z m-1309 -10 c48 -21 32 -43 -31
-42 -68 1 -83 10 -60 35 20 22 50 24 91 7z m950 6 c-3 -3 -12 -4 -19 -1 -8 3
-5 6 6 6 11 1 17 -2 13 -5z m1300 -41 c-17 -18 -22 -8 -11 22 5 12 10 13 17 6
8 -8 6 -16 -6 -28z m5375 27 c77 0 107 -3 102 -11 -7 -12 -211 -4 -294 12 -39
7 -37 8 19 4 35 -3 113 -5 173 -5z m-6507 -10 c3 -5 -3 -10 -15 -10 -12 0 -18
5 -15 10 3 6 10 10 15 10 5 0 12 -4 15 -10z m9298 -17 c-7 -2 -19 -2 -25 0 -7
3 -2 5 12 5 14 0 19 -2 13 -5z"/>
<path d="M19338 5596 c-10 -7 -18 -17 -18 -21 0 -4 6 -2 13 4 8 6 17 8 20 4 4
-3 7 1 7 10 0 20 0 20 -22 3z"/>
<path d="M19116 5551 c-10 -15 8 -46 27 -47 9 -1 17 4 17 12 0 8 -9 14 -20 14
-13 0 -18 5 -14 15 7 16 -1 21 -10 6z"/>
<path d="M18856 5167 c-5 -15 -6 -31 -2 -34 11 -11 18 5 14 34 l-4 28 -8 -28z"/>
<path d="M18379 2765 c-25 -14 -26 -18 -24 -85 2 -39 -1 -73 -6 -76 -5 -3 -9
-22 -9 -42 0 -28 3 -33 12 -24 16 16 33 15 52 -4 23 -22 20 -43 -8 -50 -16 -4
-23 -11 -19 -20 3 -8 0 -21 -7 -29 -10 -12 -10 -19 1 -32 26 -36 44 -43 101
-43 51 0 62 4 83 26 30 32 30 35 5 57 -11 9 -20 24 -20 32 0 8 -9 15 -20 15
-14 0 -20 7 -20 21 0 15 5 20 23 17 20 -3 22 1 25 57 5 90 -4 124 -35 136 -15
5 -38 21 -51 34 -28 28 -46 30 -83 10z"/>
<path d="M18667 2733 c-4 -3 -7 -25 -7 -47 -1 -33 -3 -37 -11 -23 -5 9 -20 17
-33 17 -22 0 -22 0 -20 -137 2 -76 3 -143 4 -149 0 -5 6 -19 14 -29 12 -16 16
-17 30 -6 9 7 13 17 10 22 -3 5 0 9 6 9 5 0 20 -21 31 -47 12 -27 24 -54 28
-61 4 -8 28 -15 63 -17 l57 -3 6 39 c8 45 0 140 -17 212 -9 37 -9 55 1 82 12
33 11 38 -14 67 l-26 31 22 23 22 24 -80 0 c-44 0 -83 -3 -86 -7z"/>
<path d="M18270 2705 c0 -14 -5 -25 -11 -25 -8 0 -7 -6 2 -16 12 -15 14 -14
20 7 11 37 10 59 -1 59 -5 0 -10 -11 -10 -25z"/>
<path d="M18259 2578 c0 -7 -2 -32 -5 -56 -3 -37 -2 -43 13 -40 22 4 30 38 11
49 -10 7 -11 12 -1 28 12 18 8 31 -9 31 -4 0 -8 -6 -9 -12z"/>
<path d="M4038 2843 c7 -3 16 -2 19 1 4 3 -2 6 -13 5 -11 0 -14 -3 -6 -6z"/>
<path d="M14948 368 c3 -14 7 -16 12 -8 4 7 13 16 20 20 7 5 3 8 -13 8 -19 0
-23 -5 -19 -20z"/>
<path d="M14956 325 c-3 -9 -6 -24 -5 -33 0 -9 5 -4 10 12 9 32 6 48 -5 21z"/>
<path d="M5535 5718 c-5 -13 -24 -99 -25 -108 0 -5 237 -4 270 0 8 2 -1 6 -20
10 -32 7 -30 7 19 9 86 2 50 14 -41 14 -59 -1 -71 1 -42 6 l41 6 -26 25 c-19
19 -38 25 -73 27 -27 1 -48 -2 -48 -7 0 -4 -9 -6 -20 -3 -11 3 -18 9 -15 13 3
5 1 11 -5 15 -6 3 -12 0 -15 -7z m100 -58 c-3 -5 -13 -10 -21 -10 -8 0 -14 5
-14 10 0 6 9 10 21 10 11 0 17 -4 14 -10z m-8 -36 c-3 -3 -12 -4 -19 -1 -8 3
-5 6 6 6 11 1 17 -2 13 -5z"/>
<path d="M5750 5670 c0 -6 7 -10 15 -10 8 0 15 2 15 4 0 2 -7 6 -15 10 -8 3
-15 1 -15 -4z"/>
<path d="M6084 5656 c-8 -22 -1 -59 13 -64 7 -2 18 9 23 24 6 15 18 33 28 40
15 12 12 13 -21 14 -24 0 -40 -5 -43 -14z"/>
<path d="M6233 5657 c3 -10 327 -15 333 -5 3 4 -72 8 -166 10 -93 2 -169 -1
-167 -5z"/>
<path d="M6614 5649 c-3 -5 6 -9 20 -9 31 0 34 6 6 13 -11 3 -23 1 -26 -4z"/>
<path d="M6713 5643 c4 -3 47 -6 95 -6 103 1 123 -6 105 -36 -8 -13 -9 -22 -3
-26 18 -11 30 6 30 41 l0 34 -117 0 c-64 0 -113 -3 -110 -7z"/>
<path d="M7630 5633 c-13 -3 -29 -11 -35 -19 -5 -7 -22 -15 -37 -17 -15 -1
-30 -6 -34 -10 -4 -4 -20 -7 -35 -7 -15 0 -31 -5 -35 -11 -4 -7 -21 -9 -45 -5
-29 5 -40 2 -47 -11 -8 -14 -15 -15 -43 -6 -32 9 -36 8 -76 -35 -24 -25 -43
-51 -43 -59 0 -7 -4 -13 -10 -13 -5 0 -17 -16 -25 -36 -14 -34 -13 -38 5 -61
15 -20 17 -29 9 -45 -6 -11 -8 -22 -5 -26 3 -3 0 -15 -8 -27 -16 -24 -22 -55
-31 -150 -9 -91 -10 -119 -1 -133 4 -7 3 -12 -2 -12 -5 0 -9 -13 -10 -29 l-1
-29 342 5 c375 6 657 -6 965 -42 57 -7 62 -6 56 10 -5 13 -2 16 12 13 10 -2
18 -10 17 -19 -2 -10 19 -22 72 -38 41 -13 78 -21 82 -18 3 4 2 7 -4 7 -5 0
-13 38 -16 86 -3 48 -9 89 -12 93 -4 3 -14 -3 -22 -14 -16 -20 -16 -20 -8 0 4
11 10 61 14 110 6 88 7 90 31 90 101 0 1399 -36 2010 -56 480 -15 648 -15 663
1 10 10 5 12 -25 7 -32 -5 -36 -3 -35 14 1 10 8 20 17 20 8 1 2 4 -15 8 -55
11 -21 26 60 26 86 0 237 40 232 61 -2 13 58 84 72 84 6 0 8 6 5 14 -5 14 21
25 66 27 l25 1 -26 8 c-27 8 -142 13 -884 35 -828 26 -1770 55 -2040 64 -143
5 -261 8 -263 6 -1 -1 13 -33 32 -71 31 -62 60 -153 52 -162 -2 -2 -14 19 -27
45 -12 26 -29 52 -36 56 -7 5 -11 12 -9 16 3 4 -12 6 -33 4 -26 -2 -42 1 -51
12 -7 8 -25 15 -40 15 -15 0 -33 7 -40 16 -25 29 -98 65 -182 88 -45 13 -104
33 -130 44 -26 12 -54 22 -62 22 -9 0 -41 12 -73 26 -49 22 -74 27 -158 29
-55 1 -111 0 -125 -2z m280 -233 c0 -5 -4 -10 -10 -10 -5 0 -10 5 -10 10 0 6
5 10 10 10 6 0 10 -4 10 -10z m710 -171 c0 -18 -2 -19 -15 -9 -8 7 -15 16 -15
21 0 5 7 9 15 9 9 0 15 -9 15 -21z m1303 -20 c-7 -24 -30 -36 -45 -21 -6 6 -2
16 13 30 26 25 39 21 32 -9z"/>
<path d="M19516 5625 c-3 -8 -12 -15 -21 -15 -18 0 -20 -16 -3 -26 6 -4 17 2
25 12 14 19 14 19 29 0 10 -14 14 -16 14 -5 -1 14 -23 49 -33 49 -2 0 -7 -7
-11 -15z"/>
<path d="M5848 5623 c7 -3 16 -2 19 1 4 3 -2 6 -13 5 -11 0 -14 -3 -6 -6z"/>
<path d="M5838 5603 c23 -2 61 -2 85 0 23 2 4 4 -43 4 -47 0 -66 -2 -42 -4z"/>
<path d="M6170 5600 c0 -5 7 -7 15 -4 8 4 15 8 15 10 0 2 -7 4 -15 4 -8 0 -15
-4 -15 -10z"/>
<path d="M6230 5280 c0 -5 5 -10 10 -10 6 0 10 5 10 10 0 6 -4 10 -10 10 -5 0
-10 -4 -10 -10z"/>
<path d="M4660 5272 c0 -14 18 -25 85 -51 33 -13 89 -38 125 -56 36 -18 76
-35 90 -39 l25 -7 -25 22 c-22 19 -22 21 -5 17 11 -3 29 -9 40 -13 32 -12 -33
49 -75 70 -59 30 -260 75 -260 57z"/>
<path d="M4317 5264 c-4 -4 -14 -7 -24 -8 -39 -3 -96 -42 -148 -99 -30 -34
-52 -63 -51 -65 6 -5 46 19 93 56 23 18 63 47 90 65 26 18 49 38 51 45 2 13
-1 15 -11 6z"/>
<path d="M4453 5249 c-38 -12 -67 -27 -73 -39 -13 -24 -8 -24 56 -5 27 8 75
17 107 21 59 7 66 11 45 32 -17 17 -62 14 -135 -9z"/>
<path d="M3614 5157 c-6 -55 -17 -102 -25 -111 -34 -37 -39 -47 -39 -75 0 -16
6 -32 13 -34 10 -4 10 -6 0 -6 -17 -1 -16 -19 1 -36 11 -12 18 -9 42 17 l29
30 118 -5 119 -4 44 38 c24 21 66 50 94 66 27 15 50 31 50 34 0 3 16 31 35 63
19 32 35 69 35 82 l0 24 -163 0 c-90 0 -204 3 -253 6 l-90 7 -10 -96z"/>
<path d="M5235 5205 c-7 -11 -18 -36 -25 -56 -12 -33 -11 -39 26 -100 28 -47
53 -74 95 -102 l57 -37 437 -11 c241 -5 439 -9 440 -7 4 4 -12 194 -21 255 -6
40 -8 42 -48 48 -23 4 -177 7 -343 8 -165 1 -299 5 -297 9 3 4 -66 8 -152 10
-148 3 -158 2 -169 -17z"/>
<path d="M6735 5118 c3 -35 8 -102 11 -150 l6 -88 33 0 c38 0 37 -5 54 175 5
50 11 97 13 105 2 12 -10 16 -59 18 l-62 3 4 -63z"/>
<path d="M11378 5143 c12 -2 32 -2 45 0 12 2 2 4 -23 4 -25 0 -35 -2 -22 -4z"/>
<path d="M8977 5124 c-4 -4 -7 -71 -7 -149 l0 -142 38 -7 c20 -3 98 -6 172 -6
74 0 272 -4 440 -10 168 -5 487 -14 710 -20 892 -24 1221 -39 1247 -55 30 -20
80 -16 74 5 -8 35 -7 46 3 62 8 14 6 22 -12 38 -25 24 -31 50 -7 30 13 -11 14
-10 9 4 -3 9 -11 16 -18 16 -16 0 -46 74 -46 114 0 34 0 35 -52 40 -29 3 -219
10 -423 16 -203 6 -635 20 -960 30 -324 11 -689 22 -810 25 -121 3 -249 8
-285 11 -36 2 -69 2 -73 -2z"/>
<path d="M11378 5113 c12 -2 32 -2 45 0 12 2 2 4 -23 4 -25 0 -35 -2 -22 -4z"/>
<path d="M19922 5094 c-19 -15 -31 -32 -28 -40 3 -8 -6 -20 -24 -29 -43 -22
-37 -34 13 -23 122 29 117 26 117 60 0 24 -3 28 -13 20 -18 -15 -67 -33 -67
-24 0 7 30 25 63 38 24 9 21 24 -5 24 -13 0 -38 -12 -56 -26z"/>
<path d="M3520 5100 c0 -5 5 -10 10 -10 6 0 10 5 10 10 0 6 -4 10 -10 10 -5 0
-10 -4 -10 -10z"/>
<path d="M11600 5050 c0 -34 22 -70 44 -71 20 0 20 -1 2 -8 -12 -5 -15 -10 -9
-14 12 -7 26 7 36 36 5 14 2 16 -20 11 -17 -5 -24 -3 -19 4 8 13 -10 62 -24
62 -5 0 -10 -9 -10 -20z"/>
<path d="M4246 5035 c-18 -13 -18 -15 -2 -21 21 -8 44 12 31 25 -6 6 -17 4
-29 -4z"/>
<path d="M4143 5003 c-18 -6 -16 -23 1 -23 8 0 22 -10 30 -22 15 -21 17 -21
33 -5 16 16 16 17 -10 17 -17 0 -27 5 -27 14 0 18 -11 25 -27 19z"/>
<path d="M4405 4980 c-7 -12 12 -12 40 0 18 8 17 9 -7 9 -15 1 -30 -3 -33 -9z"/>
<path d="M4338 4973 c6 -2 18 -2 25 0 6 3 1 5 -13 5 -14 0 -19 -2 -12 -5z"/>
<path d="M11672 4930 c0 -14 2 -19 5 -12 2 6 2 18 0 25 -3 6 -5 1 -5 -13z"/>
<path d="M5493 4878 c7 -4 100 -7 207 -6 228 1 209 6 -42 10 -97 2 -171 0
-165 -4z"/>
<path d="M3624 4849 c-19 -22 -19 -22 6 -14 14 4 36 14 50 21 l25 13 -31 1
c-19 0 -38 -8 -50 -21z"/>
<path d="M5973 4863 c37 -2 97 -2 135 0 37 2 6 3 -68 3 -74 0 -105 -1 -67 -3z"/>
<path d="M6273 4863 c9 -2 23 -2 30 0 6 3 -1 5 -18 5 -16 0 -22 -2 -12 -5z"/>
<path d="M6348 4863 c17 -2 47 -2 65 0 17 2 3 4 -33 4 -36 0 -50 -2 -32 -4z"/>
<path d="M6538 4853 c7 -3 16 -2 19 1 4 3 -2 6 -13 5 -11 0 -14 -3 -6 -6z"/>
<path d="M6623 4853 c9 -2 23 -2 30 0 6 3 -1 5 -18 5 -16 0 -22 -2 -12 -5z"/>
<path d="M5929 4826 c-3 -3 -33 -6 -67 -7 -55 -1 -61 -3 -50 -17 11 -14 10
-15 -7 -8 -38 15 -55 18 -55 10 0 -16 172 -65 272 -79 83 -11 110 -20 182 -59
l84 -45 -5 77 c-9 125 -7 122 -116 122 -51 0 -97 -4 -102 -9 -6 -5 -26 -11
-45 -13 -26 -2 -35 1 -35 12 0 14 -45 27 -56 16z"/>
<path d="M8750 4800 c78 -8 336 -13 329 -6 -2 2 -94 6 -204 9 -117 3 -169 2
-125 -3z"/>
<path d="M6767 4672 l6 -129 -39 -6 c-21 -4 -79 -10 -127 -14 -48 -3 -90 -9
-92 -13 -11 -17 188 -50 305 -50 67 0 129 -27 158 -68 19 -26 30 -31 83 -37
50 -6 62 -11 69 -30 9 -24 29 -35 63 -35 27 0 48 -13 50 -31 4 -24 18 -39 36
-39 43 0 65 -50 47 -105 -6 -17 0 -24 35 -39 56 -25 128 -69 129 -78 0 -5 -11
-8 -24 -8 -26 0 -44 -16 -25 -22 6 -2 8 -14 4 -31 -6 -24 -12 -27 -51 -27 -55
0 -75 -21 -99 -103 -9 -34 -22 -74 -27 -89 -6 -15 -7 -39 -4 -53 6 -25 -4
-198 -25 -414 -11 -105 -10 -115 6 -127 12 -9 15 -19 10 -31 -10 -22 -7 -54 6
-69 7 -8 1 -15 -19 -22 -28 -10 -30 -14 -34 -79 -4 -45 -1 -75 7 -89 10 -15
10 -33 3 -72 -6 -29 -14 -52 -19 -52 -11 0 -41 -108 -37 -138 4 -38 33 -42
363 -40 160 0 445 -4 635 -10 190 -6 540 -14 779 -17 l434 -7 -7 25 c-3 14 -8
32 -12 40 -9 25 22 44 98 61 205 44 441 80 553 83 153 4 160 6 176 45 13 32
53 88 114 158 27 31 34 51 49 140 14 87 24 116 56 171 22 36 40 70 40 76 0 23
227 163 263 163 8 0 42 23 77 50 68 56 132 91 198 111 24 7 52 24 62 38 77
104 88 114 125 106 25 -5 62 -26 120 -69 9 -7 31 6 71 43 82 73 109 87 138 68
48 -32 102 -41 164 -28 31 7 68 15 81 17 13 3 25 14 28 24 3 11 9 20 14 20 9
0 29 64 29 92 0 11 -10 20 -27 23 -16 4 -65 15 -110 26 -45 11 -103 21 -129
23 -26 1 -49 7 -52 14 -2 6 6 41 18 78 12 40 18 79 15 98 -7 37 31 130 66 163
37 33 140 72 200 74 30 2 100 0 155 -5 l102 -8 -9 48 c-5 27 -15 54 -22 60 -6
6 -83 21 -170 34 -147 20 -265 49 -294 73 -7 5 -13 19 -13 32 0 25 35 24 -993
46 -447 10 -530 10 -537 -2 -7 -10 -38 -14 -117 -15 -124 -3 -164 2 -157 21 6
15 -101 21 -497 31 l-266 7 -6 -39 c-4 -21 -7 -141 -7 -266 l0 -228 -22 -5
c-45 -11 -433 -23 -444 -14 -6 5 -10 30 -8 56 1 27 0 38 -2 26 -3 -13 -8 -23
-12 -24 -4 0 -16 -2 -27 -4 -11 -2 -89 -5 -172 -6 -116 -1 -155 -5 -164 -15
-6 -8 -21 -14 -33 -15 -11 0 -15 -3 -8 -6 17 -7 15 -23 -3 -23 -8 0 -15 -7
-15 -15 0 -8 -4 -15 -10 -15 -5 0 -10 -18 -10 -39 0 -22 -4 -51 -10 -65 -19
-51 -46 -298 -55 -501 -6 -135 -22 -247 -40 -282 -9 -17 -11 -32 -5 -43 5 -10
4 -43 -3 -83 -9 -57 -14 -67 -35 -72 -15 -4 -38 1 -61 13 -34 18 -36 22 -34
63 1 24 4 124 7 222 3 99 9 184 13 190 4 7 6 23 5 37 -2 14 1 55 7 90 5 36 10
117 10 180 0 63 1 176 1 250 0 111 -3 146 -20 194 -11 33 -20 68 -20 78 0 11
-5 29 -12 41 -6 12 -12 54 -13 93 -2 111 1 109 -245 128 -452 36 -676 78 -697
132 -3 7 -18 14 -33 14 l-29 0 6 -128z m3275 -33 c20 -9 26 -18 23 -33 -3 -12
-11 -58 -19 -102 -9 -45 -26 -104 -40 -130 -45 -87 -66 -135 -66 -150 0 -8 -4
-14 -10 -14 -5 0 -10 -6 -10 -12 0 -7 -11 -35 -24 -63 -13 -27 -29 -75 -35
-105 -27 -125 -74 -260 -91 -260 -6 0 -5 -9 2 -25 9 -19 7 -38 -10 -92 -23
-79 -34 -136 -33 -177 1 -15 -3 -33 -7 -40 -5 -6 -13 -29 -17 -50 -3 -22 -13
-49 -20 -59 -7 -11 -11 -25 -8 -33 3 -8 -2 -17 -11 -20 -9 -3 -13 -10 -10 -15
3 -5 1 -9 -5 -9 -5 0 -13 10 -17 23 -10 30 -7 156 4 187 5 14 10 50 11 80 1
30 6 59 12 65 5 5 9 20 9 35 1 14 7 48 14 75 9 31 10 54 4 62 -5 7 -5 12 1 15
11 4 31 148 36 263 2 44 7 107 10 139 6 50 3 63 -14 87 -13 17 -29 71 -43 138
-18 96 -20 114 -8 136 10 19 16 22 23 13 5 -8 6 1 3 23 -6 32 -4 37 15 42 15
4 28 -1 41 -16 l18 -22 27 34 28 34 95 -6 c52 -3 107 -11 122 -18z m-382
-1409 c25 -17 -7 -30 -73 -30 -63 0 -69 13 -14 29 43 12 69 13 87 1z m-1985
-50 c0 -18 -16 -22 -35 -10 -13 9 -13 11 0 20 19 12 35 8 35 -10z m2393 3 c2
-8 -5 -13 -17 -13 -21 0 -35 13 -24 24 10 10 36 3 41 -11z m-298 -13 c0 -5 -4
-10 -10 -10 -5 0 -10 5 -10 10 0 6 5 10 10 10 6 0 10 -4 10 -10z m-2337 -46
c61 -11 42 -24 -33 -24 -64 0 -81 6 -63 23 8 9 46 9 96 1z m271 -25 c31 -15
24 -29 -14 -29 -30 0 -45 13 -35 30 8 13 18 13 49 -1z m277 -265 c89 -2 136
-8 145 -17 14 -13 -10 -27 -45 -27 -32 0 -40 -4 -45 -22 -9 -35 -7 -45 10 -62
14 -15 7 -16 -73 -17 -127 -2 -188 2 -191 12 -2 5 -14 6 -27 3 -12 -3 -26 -1
-29 5 -4 6 -16 11 -26 11 -18 0 -18 1 -2 29 9 17 26 33 37 37 14 4 2 9 -40 15
-89 13 -89 17 2 18 79 1 100 6 152 36 22 12 26 12 37 -3 9 -12 31 -17 95 -18z
m1726 -28 c-3 -6 -10 -10 -17 -8 -6 1 -37 5 -67 7 -84 7 -78 16 11 14 52 -1
76 -5 73 -13z m393 -5 c29 -7 20 -9 -55 -12 -257 -8 -334 -2 -319 22 8 14 313
5 374 -10z m-1910 -1 c0 -5 -7 -10 -15 -10 -8 0 -15 5 -15 10 0 6 7 10 15 10
8 0 15 -4 15 -10z m1640 -34 c0 -2 -9 -6 -20 -9 -11 -3 -18 -1 -14 4 5 9 34
13 34 5z"/>
<path d="M7976 2774 c-7 -18 0 -34 15 -34 12 0 12 37 0 44 -5 3 -12 -1 -15
-10z"/>
<path d="M9338 4783 c34 -2 90 -2 125 0 34 2 6 3 -63 3 -69 0 -97 -1 -62 -3z"/>
<path d="M9707 4773 c18 -2 50 -2 70 0 21 2 7 4 -32 4 -38 0 -55 -2 -38 -4z"/>
<path d="M10468 4753 c7 -3 16 -2 19 1 4 3 -2 6 -13 5 -11 0 -14 -3 -6 -6z"/>
<path d="M10813 4743 c9 -2 23 -2 30 0 6 3 -1 5 -18 5 -16 0 -22 -2 -12 -5z"/>
<path d="M10898 4743 c12 -2 30 -2 40 0 9 3 -1 5 -23 4 -22 0 -30 -2 -17 -4z"/>
<path d="M3020 4703 c-227 -3 -306 -6 -313 -16 -12 -18 -4 -477 8 -477 6 0 40
30 75 66 65 66 95 89 182 137 62 35 182 109 188 118 3 3 53 30 111 59 101 49
110 56 137 113 2 4 -16 6 -40 5 -23 -2 -180 -4 -348 -5z m237 -27 c13 -12 -41
-46 -73 -46 -35 0 -79 34 -67 53 6 10 129 4 140 -7z"/>
<path d="M12205 4507 c-21 -24 -25 -36 -30 -84 l-6 -49 83 -57 c46 -32 95 -67
110 -79 15 -12 31 -18 35 -14 5 4 8 71 8 149 l0 142 -95 2 c-66 2 -98 -1 -105
-10z"/>
<path d="M6254 4495 c-10 -8 -27 -15 -36 -15 -25 0 -52 -46 -76 -125 -23 -77
-82 -305 -89 -345 -2 -14 -12 -61 -20 -105 -14 -72 -25 -225 -16 -225 15 0 35
89 43 183 4 62 18 146 29 187 43 157 51 185 70 223 11 22 17 45 14 53 -5 13
26 60 84 127 45 51 43 77 -3 42z"/>
<path d="M5120 4120 c0 -5 5 -10 11 -10 5 0 7 5 4 10 -3 6 -8 10 -11 10 -2 0
-4 -4 -4 -10z"/>
<path d="M5178 4053 c7 -3 16 -2 19 1 4 3 -2 6 -13 5 -11 0 -14 -3 -6 -6z"/>
<path d="M6707 3964 c-3 -3 17 -70 45 -148 27 -77 64 -187 80 -243 17 -56 35
-100 39 -97 4 2 6 11 2 19 -3 9 0 21 6 29 6 7 11 29 10 47 -1 19 2 49 6 68 7
29 6 33 -7 28 -14 -5 -15 7 -13 86 l3 92 -58 63 c-41 43 -65 62 -82 62 -14 0
-27 -3 -31 -6z m170 -405 c1 -19 1 -20 -4 -4 -3 11 -10 24 -17 28 -7 6 -6 7 4
4 8 -2 16 -14 17 -28z"/>
<path d="M11851 3943 c-27 -22 -53 -141 -44 -198 6 -37 5 -39 -11 -26 -21 18
-30 9 -22 -22 4 -16 16 -27 33 -32 58 -14 70 -51 28 -82 -31 -22 -49 -77 -30
-93 14 -12 111 5 121 21 3 5 12 9 21 9 20 0 75 44 160 128 72 72 140 125 186
143 52 21 48 23 -129 68 -119 31 -143 41 -187 77 -35 29 -95 32 -126 7z"/>
<path d="M13070 3920 c8 -15 8 -20 -1 -18 -11 3 -23 -13 -33 -44 -3 -11 -21
-18 -61 -23 -52 -7 -85 -24 -85 -46 0 -5 -6 -9 -14 -9 -8 0 -17 -9 -21 -20 -3
-10 -26 -37 -50 -58 -34 -30 -43 -44 -38 -60 3 -14 1 -22 -6 -22 -7 0 -39 -27
-72 -59 l-60 -60 -8 -498 c-5 -274 -7 -501 -4 -505 6 -12 131 -10 138 2 3 5
27 16 53 24 l47 15 -47 0 c-57 1 -68 15 -37 47 18 19 19 24 6 24 -22 0 -31 18
-18 34 6 7 9 20 6 29 -4 9 2 21 15 30 20 14 20 16 4 25 -12 7 -15 15 -9 28 7
17 10 70 5 77 -8 9 -6 74 1 84 6 7 6 13 1 17 -12 7 -10 147 3 166 5 8 8 39 6
68 -2 35 2 60 12 76 10 15 12 27 6 33 -5 5 -10 27 -12 48 l-2 39 60 22 c33 12
101 30 150 39 55 11 98 25 111 37 12 10 45 28 75 39 97 37 191 48 381 43 117
-3 178 -1 183 6 3 5 -1 10 -10 10 -21 0 -218 82 -280 116 -27 16 -72 50 -99
77 -39 39 -277 187 -301 187 -3 0 -1 -9 5 -20z"/>
<path d="M2587 3883 c-4 -3 -7 -11 -7 -17 0 -6 5 -5 12 2 6 6 9 14 7 17 -3 3
-9 2 -12 -2z"/>
<path d="M2645 3880 c3 -5 8 -10 11 -10 2 0 4 5 4 10 0 6 -5 10 -11 10 -5 0
-7 -4 -4 -10z"/>
<path d="M16970 3790 c0 -5 5 -10 11 -10 5 0 7 5 4 10 -3 6 -8 10 -11 10 -2 0
-4 -4 -4 -10z"/>
<path d="M5780 3650 c0 -11 4 -20 9 -20 5 0 11 9 14 20 3 13 0 20 -9 20 -8 0
-14 -9 -14 -20z"/>
<path d="M5810 3610 c0 -5 5 -10 11 -10 5 0 7 5 4 10 -3 6 -8 10 -11 10 -2 0
-4 -4 -4 -10z"/>
<path d="M13501 3502 c-9 -6 65 -12 215 -16 126 -4 261 -11 299 -16 51 -6 10
-7 -144 -4 -278 5 -415 -6 -389 -32 4 -3 116 -10 250 -15 471 -16 583 -21 588
-26 3 -3 -162 -2 -367 2 -356 7 -523 2 -523 -15 0 -4 84 -10 188 -14 103 -3
277 -9 387 -13 l200 -8 -337 -5 c-185 -3 -340 -9 -344 -13 -24 -23 6 -26 526
-46 180 -8 176 -8 -145 -10 -181 -1 -338 -6 -348 -9 -16 -7 -16 -10 -3 -27 13
-19 32 -20 263 -27 434 -13 436 -14 33 -17 -433 -4 -406 -13 85 -28 l250 -8
-317 -5 c-216 -4 -321 -9 -329 -17 -21 -21 -12 -22 596 -40 446 -13 425 -19
-50 -15 -482 5 -625 1 -625 -17 0 -11 174 -20 525 -26 465 -9 455 -19 -22 -25
-369 -4 -431 -7 -424 -19 8 -12 96 -16 511 -22 276 -5 504 -10 507 -12 2 -3
-219 -6 -491 -8 -500 -4 -539 -7 -501 -39 13 -10 78 -15 268 -19 139 -2 241
-8 227 -12 -14 -4 -126 -8 -250 -9 -124 0 -243 -5 -265 -9 l-40 -8 45 -6 c25
-4 223 -9 440 -13 724 -12 805 -20 217 -22 -296 -1 -556 -5 -578 -8 -44 -7
-52 -29 -15 -43 13 -5 178 -14 367 -19 l344 -9 -305 -2 c-168 -1 -314 -6 -325
-10 -20 -8 134 -20 300 -23 50 0 -22 -5 -159 -9 -158 -5 -253 -12 -260 -19
-20 -20 13 -28 163 -36 112 -6 137 -9 106 -15 -22 -4 -78 -8 -125 -9 -96 0
-162 -9 -155 -20 2 -4 66 -10 142 -14 76 -4 146 -9 156 -12 22 -7 22 -31 -1
-38 -10 -4 -19 -17 -20 -33 -1 -16 -10 -34 -19 -40 -9 -7 -13 -16 -9 -20 7 -7
555 -20 927 -22 154 -1 168 1 190 20 17 15 20 22 11 28 -7 4 -12 12 -10 17 2
5 -7 20 -19 33 -35 37 -15 51 74 51 58 0 75 3 80 16 9 25 -12 31 -110 33 -130
3 -122 11 11 11 65 0 112 4 112 10 0 5 16 12 35 16 20 3 34 9 31 12 -3 3 -79
8 -168 12 l-163 7 190 2 c196 1 252 11 179 30 -21 5 -50 10 -64 10 -14 0 -34
0 -45 1 -11 0 -56 1 -100 1 -44 0 -81 2 -84 5 -2 2 30 4 72 4 74 0 77 1 83 26
4 14 3 29 -2 34 -5 5 -43 11 -84 13 l-75 3 92 2 c50 1 94 6 97 11 4 5 41 13
84 17 61 6 71 9 47 15 -16 4 -65 7 -107 8 -61 1 -78 4 -78 15 0 8 4 17 9 20 5
3 7 15 4 26 -4 15 -2 19 9 15 9 -4 33 2 54 13 22 10 50 24 64 29 23 10 20 11
-30 19 -39 7 -56 14 -58 26 -2 12 5 18 25 21 24 3 22 4 -9 6 -34 1 -57 15 -45
28 3 3 38 13 78 24 39 10 78 24 87 31 13 11 11 14 -9 19 -13 4 -55 8 -94 8
-87 2 -117 9 -113 29 7 35 52 53 144 57 49 2 91 4 94 5 14 1 -40 29 -56 29
-10 -1 -49 2 -86 6 -56 7 -67 11 -72 29 -10 36 -7 38 32 32 33 -5 34 -4 10 5
-26 10 -42 34 -33 49 3 4 41 11 84 15 54 5 81 11 85 21 3 8 0 14 -7 14 -7 0
-59 4 -117 10 -319 30 -1539 63 -1569 42z m679 -32 c0 -5 -9 -10 -21 -10 -11
0 -17 5 -14 10 3 6 13 10 21 10 8 0 14 -4 14 -10z m103 -277 c-7 -2 -19 -2
-25 0 -7 3 -2 5 12 5 14 0 19 -2 13 -5z m-33 -43 c0 -5 -2 -10 -4 -10 -3 0 -8
5 -11 10 -3 6 -1 10 4 10 6 0 11 -4 11 -10z m513 -87 c-7 -2 -21 -2 -30 0 -10
3 -4 5 12 5 17 0 24 -2 18 -5z m-300 -50 c-13 -2 -33 -2 -45 0 -13 2 -3 4 22
4 25 0 35 -2 23 -4z m416 -209 c8 -7 -74 -2 -99 6 -16 5 -2 6 35 3 33 -3 62
-7 64 -9z m-516 -71 c-7 -2 -19 -2 -25 0 -7 3 -2 5 12 5 14 0 19 -2 13 -5z
m484 -10 c-20 -2 -52 -2 -70 0 -17 2 0 4 38 4 39 0 53 -2 32 -4z m-457 -99 c0
-2 -7 -4 -15 -4 -8 0 -15 4 -15 10 0 5 7 7 15 4 8 -4 15 -8 15 -10z"/>
<path d="M6284 3418 c3 -13 6 -26 6 -30 0 -5 7 -8 15 -8 19 0 19 27 1 46 -21
20 -29 17 -22 -8z"/>
<path d="M7890 3361 c0 -26 24 -33 38 -11 13 21 6 30 -20 30 -11 0 -18 -7 -18
-19z"/>
<path d="M6625 3340 c-8 -13 15 -13 35 0 12 8 11 10 -7 10 -12 0 -25 -4 -28
-10z"/>
<path d="M11517 3334 c-4 -4 -7 -58 -7 -119 0 -90 -3 -115 -16 -126 -14 -11
-14 -13 0 -21 22 -12 20 -45 -3 -57 -22 -12 -31 -5 -31 26 0 13 -8 26 -17 30
-10 4 -20 10 -23 14 -3 5 -19 5 -35 1 -24 -7 -31 -15 -33 -39 -3 -25 -9 -32
-34 -37 -17 -3 -43 -6 -58 -6 -23 0 -40 -14 -89 -76 -66 -82 -105 -149 -97
-167 2 -7 5 -5 5 4 1 23 53 32 68 12 10 -12 9 -20 -2 -37 -17 -23 -19 -36 -7
-36 15 0 45 77 36 92 -6 10 -5 11 7 1 17 -14 90 -6 101 11 4 6 11 7 15 2 4 -4
-1 -14 -12 -22 -19 -15 -19 -15 9 -8 19 5 31 2 37 -7 7 -11 12 -12 29 -1 17
11 20 10 20 -7 0 -11 5 -23 10 -26 6 -3 10 1 10 9 0 20 19 21 26 1 4 -10 10
-12 18 -6 8 7 11 -8 12 -52 1 -34 4 -97 8 -140 l8 -77 73 0 74 0 3 48 c3 41 6
47 24 44 19 -2 21 2 20 34 0 20 4 39 10 41 6 2 9 -10 8 -33 -3 -29 -1 -34 10
-25 15 12 36 178 39 311 3 72 2 75 -20 75 -13 0 -21 -5 -19 -11 2 -6 0 -17 -5
-25 -6 -10 -9 -7 -9 12 0 14 -9 34 -21 45 -20 18 -29 14 -41 -18 -2 -4 -13 -5
-25 -2 -20 5 -23 13 -23 50 l0 44 25 -16 c26 -17 42 -14 30 6 -4 6 -18 15 -31
20 -23 9 -23 13 -26 137 -3 120 -4 128 -23 131 -12 2 -24 0 -28 -4z m-67 -374
c-36 -11 -52 -11 -45 0 3 6 21 10 38 9 31 -1 31 -1 7 -9z m13 -181 c-5 -5 -18
-7 -27 -3 -14 5 -15 9 -4 15 11 7 10 11 -2 19 -8 5 -10 10 -5 10 6 0 3 5 -5
11 -13 9 -12 10 2 5 10 -3 21 0 25 7 5 8 11 0 17 -21 6 -21 6 -36 -1 -43z
m-199 46 c-22 -17 -34 -19 -34 -6 0 5 8 12 18 14 32 9 36 7 16 -8z m436 -26
c0 -39 -15 -30 -18 11 -2 19 1 29 8 25 5 -3 10 -20 10 -36z"/>
<path d="M6580 3300 c0 -5 5 -10 10 -10 6 0 10 5 10 10 0 6 -4 10 -10 10 -5 0
-10 -4 -10 -10z"/>
<path d="M0 3210 c0 -12 69 -13 88 -1 8 5 -7 8 -38 10 -28 1 -50 -3 -50 -9z"/>
<path d="M98 3163 c-54 -2 -98 -8 -98 -13 0 -6 92 -10 238 -10 134 0 231 4
222 9 -19 11 -232 19 -362 14z"/>
<path d="M12321 3118 l-21 -43 37 -37 c42 -41 53 -46 53 -23 0 8 -6 15 -12 15
-9 0 -9 3 1 9 11 7 12 13 4 23 -6 7 -14 32 -18 56 -4 23 -10 42 -15 42 -4 0
-17 -19 -29 -42z"/>
<path d="M0 3100 c0 -6 52 -10 135 -10 83 0 135 4 135 10 0 6 -52 10 -135 10
-83 0 -135 -4 -135 -10z"/>
<path d="M995 3090 c-84 -9 208 -10 345 0 91 6 79 7 -90 7 -107 0 -222 -3
-255 -7z"/>
<path d="M80 3049 c-60 -4 -31 -6 100 -6 102 -1 181 0 175 2 -21 7 -193 10
-275 4z"/>
<path d="M1110 3050 c-57 -6 -51 -7 45 -7 61 0 178 3 260 7 l150 6 -195 1
c-107 0 -224 -3 -260 -7z"/>
<path d="M1250 3019 c-96 -3 -206 -7 -244 -8 -38 0 -67 -4 -63 -7 3 -3 135 -3
292 1 165 5 281 11 273 16 -7 5 -29 8 -48 7 -19 -1 -114 -5 -210 -9z"/>
<path d="M0 3001 c0 -8 41 -11 132 -11 72 0 129 2 127 4 -2 3 -62 8 -132 12
-91 5 -127 3 -127 -5z"/>
<path d="M19254 2985 c-25 -19 -6 -19 37 0 32 13 32 14 8 15 -14 0 -34 -7 -45
-15z"/>
<path d="M725 2970 c28 -12 45 -12 45 0 0 6 -15 10 -32 9 -28 0 -30 -2 -13 -9z"/>
<path d="M1222 2973 c37 -2 100 -2 140 0 40 1 10 3 -67 3 -77 0 -110 -1 -73
-3z"/>
<path d="M19200 2960 c-13 -8 -13 -10 2 -10 9 0 20 5 23 10 8 13 -5 13 -25 0z"/>
<path d="M0 2944 c0 -15 11 -16 92 -10 50 3 157 7 237 7 116 2 134 3 86 9 -33
4 -140 8 -237 9 -159 1 -178 -1 -178 -15z"/>
<path d="M630 2931 c8 -6 39 -13 68 -17 91 -11 68 -24 -44 -24 -124 0 -131
-15 -15 -33 39 -6 71 -14 71 -19 0 -4 -48 -8 -106 -8 -118 0 -132 -14 -24 -24
40 -4 70 -12 70 -18 0 -8 -93 -9 -325 -4 -228 5 -325 4 -325 -3 0 -8 69 -11
213 -11 142 0 248 -5 317 -16 58 -8 106 -17 108 -18 9 -9 -311 -18 -467 -13
-97 3 -163 2 -146 -2 17 -5 73 -9 125 -10 112 -2 250 -14 375 -32 l90 -14 -75
-7 c-74 -7 -354 -2 -477 8 -49 3 -63 2 -63 -9 0 -11 48 -15 248 -21 136 -4
263 -10 282 -15 64 -14 -108 -23 -329 -16 -122 3 -198 2 -186 -3 11 -5 103
-12 205 -15 102 -4 212 -13 245 -20 l60 -14 -70 -8 c-38 -4 -156 -5 -262 -3
l-193 6 0 -24 0 -24 368 -1 c202 -1 444 -1 537 -2 94 0 307 1 475 3 263 2 291
4 200 12 -58 4 -242 10 -410 12 -296 3 -385 9 -396 27 -3 5 2 12 10 15 9 3 16
12 16 20 0 8 6 15 13 15 6 1 218 1 471 -1 291 -1 456 1 453 7 -9 14 -261 23
-604 23 -161 0 -303 4 -316 9 -20 8 -24 15 -21 45 2 26 -2 36 -12 36 -8 0 -14
7 -14 15 0 8 5 15 11 15 8 0 8 4 0 14 -10 11 -9 16 5 24 11 6 13 11 5 16 -17
11 -13 24 11 32 18 5 19 8 5 15 -9 5 -14 16 -11 24 4 8 1 15 -4 15 -6 0 -12
10 -14 23 -3 20 -9 22 -83 25 -54 1 -75 -1 -65 -7z"/>
<path d="M1020 2900 c-80 -5 -52 -6 115 -7 121 0 288 3 370 7 133 6 120 6
-115 6 -146 0 -312 -3 -370 -6z"/>
<path d="M53 2893 c32 -2 81 -2 110 0 29 2 3 3 -58 3 -61 0 -84 -1 -52 -3z"/>
<path d="M985 2850 c-87 -5 -66 -6 105 -7 118 0 296 3 395 6 171 7 166 7 -105
7 -157 0 -334 -3 -395 -6z"/>
<path d="M20 2839 c14 -4 97 -7 185 -7 88 0 153 2 145 4 -31 6 -354 10 -330 3z"/>
<path d="M1083 2813 c-73 -2 -133 -7 -133 -11 0 -9 717 2 726 11 7 7 -301 6
-593 0z"/>
<path d="M11117 2773 c-4 -3 -7 -11 -7 -17 0 -6 5 -5 12 2 6 6 9 14 7 17 -3 3
-9 2 -12 -2z"/>
<path d="M1050 2759 c125 -9 446 -9 545 1 39 4 -92 7 -290 7 -253 0 -329 -2
-255 -8z"/>
<path d="M11330 2737 c0 -14 39 -51 46 -44 3 2 -1 16 -7 31 -13 27 -39 36 -39
13z"/>
<path d="M1005 2709 c287 -11 693 -10 700 1 4 7 -144 9 -437 8 -355 -1 -407
-3 -263 -9z"/>
<path d="M11355 2681 l-30 -7 32 -17 c39 -21 44 -21 37 -2 -4 8 -1 15 5 15 6
0 11 5 11 10 0 11 -10 11 -55 1z"/>
<path d="M11028 2658 c5 -5 16 -8 23 -6 8 3 3 7 -10 11 -17 4 -21 3 -13 -5z"/>
<path d="M11270 2640 c0 -5 6 -10 14 -10 8 0 18 5 21 10 3 6 -3 10 -14 10 -12
0 -21 -4 -21 -10z"/>
<path d="M10428 2493 c34 -2 90 -2 125 0 34 2 6 3 -63 3 -69 0 -97 -1 -62 -3z"/>
<path d="M15478 2343 c6 -2 18 -2 25 0 6 3 1 5 -13 5 -14 0 -19 -2 -12 -5z"/>
<path d="M15725 2340 c-36 -6 -33 -7 25 -8 45 0 59 2 45 8 -11 5 -22 8 -25 8
-3 -1 -23 -4 -45 -8z"/>
<path d="M15878 2333 c7 -3 16 -2 19 1 4 3 -2 6 -13 5 -11 0 -14 -3 -6 -6z"/>
<path d="M7258 1920 c-3 -19 -2 -39 3 -44 14 -16 17 -3 10 39 l-7 40 -6 -35z"/>
<path d="M7145 1847 c-10 -8 -15 -19 -11 -25 12 -21 32 -13 34 13 2 29 2 29
-23 12z"/>
<path d="M12939 538 c0 -7 -2 -31 -4 -53 -5 -44 8 -59 38 -43 14 7 18 18 15
44 -3 24 0 34 10 34 7 0 12 6 10 13 -6 17 -68 22 -69 5z"/>
<path d="M2260 360 c0 -5 5 -10 11 -10 5 0 7 5 4 10 -3 6 -8 10 -11 10 -2 0
-4 -4 -4 -10z"/>
<path d="M2158 305 c4 -24 5 -24 18 -8 18 25 17 33 -5 33 -14 0 -17 -6 -13
-25z"/>
<path d="M3032 279 c2 -7 10 -15 17 -17 8 -3 12 1 9 9 -2 7 -10 15 -17 17 -8
3 -12 -1 -9 -9z"/>
<path d="M2794 245 c-19 -14 -19 -14 2 -15 11 0 29 7 40 15 19 14 19 14 -2 15
-11 0 -29 -7 -40 -15z"/>
<path d="M2868 248 c8 -8 20 -8 44 -1 l33 11 -44 1 c-34 1 -42 -2 -33 -11z"/>
<path d="M1896 217 c13 -45 21 -51 26 -19 3 24 0 32 -14 35 -15 4 -18 1 -12
-16z"/>
<path d="M1730 220 c-19 -4 -29 -8 -22 -9 21 -2 13 -28 -18 -59 -16 -17 -30
-34 -30 -38 0 -18 -53 -74 -68 -72 -11 2 -18 -5 -20 -19 l-3 -23 157 0 c158 0
193 6 94 15 -47 4 -83 15 -52 15 6 0 9 7 6 15 -4 8 -1 15 5 15 6 0 11 9 11 20
0 21 39 67 53 62 5 -1 6 2 2 8 -13 21 7 32 26 14 11 -10 19 -12 19 -6 0 15
-68 58 -100 64 -14 3 -41 2 -60 -2z"/>
<path d="M1930 161 c0 -15 23 -26 28 -13 2 6 11 8 20 5 15 -4 15 -3 2 6 -19
13 -50 14 -50 2z"/>
<path d="M2012 158 c3 -7 13 -15 24 -17 16 -3 17 -1 5 13 -16 19 -34 21 -29 4z"/>
<path d="M1597 115 c-11 -22 -14 -42 -9 -47 15 -15 34 18 30 53 l-3 32 -18
-38z"/>
<path d="M12790 128 c-1 -2 -3 -27 -5 -55 -3 -41 -1 -53 11 -53 15 0 18 9 16
49 -1 14 3 30 8 36 11 13 3 25 -17 25 -7 0 -13 -1 -13 -2z"/>
<path d="M3677 55 c-25 -24 -33 -35 -23 -35 2 0 19 13 37 30 19 16 29 30 24
30 -6 0 -23 -11 -38 -25z"/>
</g>
</svg>
