<?xml version="1.0" standalone="no"?>
<!DOCTYPE svg PUBLIC "-//W3C//DTD SVG 20010904//EN"
 "http://www.w3.org/TR/2001/REC-SVG-20010904/DTD/svg10.dtd">
<svg version="1.0" xmlns="http://www.w3.org/2000/svg"
 width="84.000000pt" height="84.000000pt" viewBox="0 0 84.000000 84.000000"
 preserveAspectRatio="xMidYMid meet">

<g transform="translate(0.000000,84.000000) scale(0.100000,-0.100000)"
fill="#000000" stroke="none">
<path d="M292 801 c-70 -26 -109 -51 -158 -103 -52 -55 -78 -99 -98 -167 -61
-206 61 -429 268 -493 191 -58 398 35 484 219 24 52 27 70 27 163 0 99 -2 110
-32 171 -40 81 -121 160 -200 197 -79 36 -213 42 -291 13z m273 -32 c82 -31
173 -121 204 -203 63 -169 15 -343 -124 -448 -69 -53 -133 -72 -232 -72 -73 0
-89 4 -156 37 -89 44 -137 94 -180 186 -27 58 -31 77 -31 151 0 74 4 94 30
150 37 79 78 128 142 169 100 64 227 75 347 30z"/>
<path d="M410 551 l0 -139 61 -56 c33 -31 64 -56 70 -56 21 0 6 22 -51 71
l-60 52 0 133 c0 83 -4 134 -10 134 -6 0 -10 -53 -10 -139z"/>
</g>
</svg>
